<?xml version="1.0" standalone="no"?>
<!DOCTYPE svg PUBLIC "-//W3C//DTD SVG 1.1//EN" "http://www.w3.org/Graphics/SVG/1.1/DTD/svg11.dtd" >
<svg>
<metadata>
Created by FontForge 20120731 at Wed Mar 19 04:23:43 2025
 By www
2007 Lukas Schneider published by FSI FontShop International GmbH
</metadata>
<defs>
<font id="UtilityPro" horiz-adv-x="641" >
  <font-face 
    font-family="UtilityPro"
    font-weight="400"
    font-stretch="normal"
    units-per-em="1000"
    panose-1="2 0 5 3 4 0 0 2 0 3"
    ascent="750"
    descent="-250"
    x-height="486"
    cap-height="716"
    bbox="-739 -248 1230 978"
    underline-thickness="68"
    underline-position="-85"
    unicode-range="U+000D-FB02"
  />
<missing-glyph horiz-adv-x="700" 
d="M596 0h-492v716h492v-716zM518 125v469l-138 -235zM182 126l137 233l-137 234v-467zM487 76l-137 232l-138 -232h275zM350 410l135 230h-270z" />
    <glyph glyph-name="fi" unicode="fi" horiz-adv-x="698" 
d="M231 0h-97v410h-100v76h100v107q0 132 147 132q55 0 125 -11l-17 -70q-56 7 -94 7t-51 -17t-13 -55v-93h148v-76h-148v-410zM605 0h-97v486h97v-486zM609 643l-105 -23v98h105v-75z" />
    <glyph glyph-name="fl" unicode="fl" horiz-adv-x="743" 
d="M231 0h-97v410h-100v76h100v107q0 132 147 132q55 0 125 -11l-17 -70q-56 7 -94 7t-51 -17t-13 -55v-93h148v-76h-148v-410zM694 78l13 -71q-60 -16 -101 -16q-51 0 -75.5 26t-24.5 69v619l97 21v-607q0 -28 8 -38.5t36 -10.5q13 0 47 8z" />
    <glyph glyph-name=".notdef" horiz-adv-x="700" 
d="M596 0h-492v716h492v-716zM518 125v469l-138 -235zM182 126l137 233l-137 234v-467zM487 76l-137 232l-138 -232h275zM350 410l135 230h-270z" />
    <glyph glyph-name=".null" horiz-adv-x="0" 
 />
    <glyph glyph-name=".null" horiz-adv-x="0" 
 />
    <glyph glyph-name="nonmarkingreturn" horiz-adv-x="333" 
 />
    <glyph glyph-name="CR" unicode="&#xd;" horiz-adv-x="270" 
 />
    <glyph glyph-name="space" unicode=" " horiz-adv-x="270" 
 />
    <glyph glyph-name="exclam" unicode="!" horiz-adv-x="315" 
d="M213 0h-111v105h111v-105zM193 185h-71l-19 531h109z" />
    <glyph glyph-name="quotedbl" unicode="&#x22;" horiz-adv-x="442" 
d="M165 493h-78v223h98zM337 493h-77v223h98z" />
    <glyph glyph-name="numbersign" unicode="#" horiz-adv-x="732" 
d="M483 0h-84l32 196h-185l-32 -196h-84l32 196h-100v71h112l30 186h-103v71h115l30 192h85l-31 -192h185l30 192h85l-31 -192h101v-71h-113l-30 -186h102v-71h-114zM443 267l30 186h-185l-30 -186h185z" />
    <glyph glyph-name="dollar" unicode="$" horiz-adv-x="621" 
d="M336 -100h-51v91q-114 3 -214 27l26 79q85 -25 188 -26v263h-51q-165 0 -165 170v38q1 88 49 135.5t140 47.5h27v85h51v-86q106 -6 208 -21l-28 -77q-103 14 -180 17v-228h18q198 0 198 -181v-46q0 -87 -54.5 -138t-161.5 -58v-92zM458 194v24q0 63 -26.5 89.5
t-85.5 26.5h-10v-262q122 13 122 122zM285 415v229h-13q-60 0 -84 -25.5t-24 -79.5v-28q0 -49 18 -72.5t71 -23.5h32z" />
    <glyph glyph-name="percent" unicode="%" horiz-adv-x="923" 
d="M236 365h-29q-132 0 -132 128v104q0 60 32.5 94t99.5 34h29q67 0 99.5 -34t32.5 -94v-104q0 -128 -132 -128zM287 491v108q0 63 -56 63h-19q-56 0 -56 -63v-108q0 -63 56 -63h19q56 0 56 63zM716 -9h-29q-132 0 -132 128v104q0 60 32.5 94t99.5 34h29q67 0 99.5 -34
t32.5 -94v-104q0 -128 -132 -128zM767 117v108q0 63 -56 63h-19q-56 0 -56 -63v-108q0 -63 56 -63h19q56 0 56 63zM262 0h-94l493 716h95z" />
    <glyph glyph-name="ampersand" unicode="&#x26;" horiz-adv-x="736" 
d="M722 0h-122l-58 64q-48 -40 -89 -56.5t-109 -16.5h-83q-103 0 -147 36t-44 119q0 44 19.5 81.5t70.5 79.5q35 30 79 66q-61 56 -72 73q-33 38 -47 68t-14 69q0 73 50.5 107t135.5 34h48q186 0 186 -138q0 -80 -65 -135l-99 -85l172 -176q20 47 25.5 80t5.5 116h85
q0 -95 -11 -147t-45 -111zM482 123l-187 193l-71 -64q-57 -52 -57 -99q0 -44 23 -64.5t78 -20.5h58q51 0 82 11.5t74 43.5zM304 424l23 20q5 5 26.5 22t29.5 25.5t21.5 23.5t19 30t5.5 31q0 73 -93 73h-43q-91 0 -91 -74q0 -41 34 -78z" />
    <glyph glyph-name="quotesingle" unicode="'" horiz-adv-x="271" 
d="M167 493h-80v223h100z" />
    <glyph glyph-name="parenleft" unicode="(" horiz-adv-x="343" 
d="M292 -45l-42 -61q-36 20 -63 44t-43.5 53.5t-26.5 55t-14 62t-5 61t-1 65.5v245q0 41 1 65.5t5 61.5t14 62t26.5 54.5t43.5 53.5t63 44l42 -60q-65 -52 -84.5 -108t-19.5 -152v-287q0 -96 19.5 -152t84.5 -107z" />
    <glyph glyph-name="parenright" unicode=")" horiz-adv-x="343" 
d="M93 -106l-42 61q65 51 84.5 107t19.5 152v287q0 96 -19.5 152t-84.5 108l42 60q36 -20 63 -44t43.5 -53.5t26.5 -54.5t14 -62t5 -61.5t1 -65.5v-245q0 -41 -1 -65.5t-5 -61t-14 -62t-26.5 -55t-43.5 -53.5t-63 -44z" />
    <glyph glyph-name="asterisk" unicode="*" horiz-adv-x="492" 
d="M395 378l-63 -32l-86 137l-86 -137l-63 32l88 131l-128 47l28 57l125 -46v149h72v-149l125 46l28 -57l-128 -47z" />
    <glyph glyph-name="plus" unicode="+" horiz-adv-x="612" 
d="M551 299h-203v-198h-85v198h-201v80h201v199h85v-199h203v-80z" />
    <glyph glyph-name="comma" unicode="," horiz-adv-x="314" 
d="M151 -138h-81l49 244h105z" />
    <glyph glyph-name="hyphen" unicode="-" horiz-adv-x="457" 
d="M382 297h-307v82h307v-82z" />
    <glyph glyph-name="period" unicode="." horiz-adv-x="301" 
d="M206 0h-111v106h111v-106z" />
    <glyph glyph-name="slash" unicode="/" horiz-adv-x="462" 
d="M129 -76h-89l293 867h89z" />
    <glyph glyph-name="zero" unicode="0" horiz-adv-x="636" 
d="M309 70h19q85 0 111.5 34t26.5 128v251q0 95 -26.5 128.5t-111.5 33.5h-19q-85 0 -111.5 -33.5t-26.5 -128.5v-251q0 -94 26.5 -128t111.5 -34zM327 -9h-17q-131 0 -183.5 56.5t-52.5 181.5v257q0 125 52.5 182t183.5 57h17q130 0 182.5 -57t52.5 -182v-257
q0 -125 -52.5 -181.5t-182.5 -56.5z" />
    <glyph glyph-name="one" unicode="1" horiz-adv-x="441" 
d="M337 0h-96v615l-169 -112l-42 62l221 151h86v-716z" />
    <glyph glyph-name="two" unicode="2" horiz-adv-x="565" 
d="M505 0h-442v121q0 105 26 151.5t109 93.5q20 11 83 45t68 37q27 15 41.5 31.5t14.5 46.5v38q0 47 -29.5 63.5t-88.5 16.5q-64 0 -195 -24l-26 77q131 28 238 28q99 0 148.5 -36.5t49.5 -122.5v-38q0 -55 -24.5 -86t-77.5 -61q-24 -14 -82.5 -46t-82.5 -46
q-42 -25 -58.5 -58.5t-16.5 -86.5v-63h345v-81z" />
    <glyph glyph-name="three" unicode="3" horiz-adv-x="550" 
d="M492 227v-35q0 -108 -59 -154.5t-178 -46.5q-83 0 -225 25l19 79q113 -23 192 -23q84 0 119.5 26.5t35.5 82.5v56q0 58 -25 80.5t-79 22.5q-46 0 -118 -13l-37 64l221 245h-312v80h415v-86l-199 -221q34 6 65 6q77 0 121 -42t44 -146z" />
    <glyph glyph-name="four" unicode="4" horiz-adv-x="604" 
d="M468 0h-95v175h-335v69l296 472h134v-463h92v-78h-92v-175zM373 253v380l-237 -380h237z" />
    <glyph glyph-name="five" unicode="5" horiz-adv-x="578" 
d="M514 255v-72q0 -192 -240 -192q-108 0 -211 28l21 77q95 -26 171 -26q87 0 125 25.5t38 86.5v68q0 56 -21.5 84t-90.5 28q-62 0 -178 -30l-46 55v329h410v-80h-315v-214q80 20 149 20q99 0 143.5 -45.5t44.5 -141.5z" />
    <glyph glyph-name="six" unicode="6" horiz-adv-x="602" 
d="M336 -9h-63q-102 0 -150.5 43.5t-48.5 149.5v345q0 106 48 151t151 45q99 0 253 -19l-23 -77q-126 16 -203 16q-81 0 -105 -27t-24 -106v-96q92 23 181 23q103 0 143.5 -45t40.5 -135v-77q0 -105 -48.5 -148t-151.5 -43zM439 170v83q0 60 -20 83t-88 23q-82 0 -160 -21
v-168q0 -54 24.5 -77t87.5 -23h45q62 0 86.5 23t24.5 77z" />
    <glyph glyph-name="seven" unicode="7" horiz-adv-x="528" 
d="M211 0h-103l281 636h-353v80h456v-67z" />
    <glyph glyph-name="eight" unicode="8" horiz-adv-x="603" 
d="M449 171v42q0 123 -143 123h-9q-143 0 -143 -123v-42q0 -58 34 -79.5t100 -21.5h27q66 0 100 21.5t34 79.5zM324 -9h-45q-221 0 -221 180v45q0 125 115 160q-98 29 -98 144v19q0 89 53 137.5t158 48.5h31q105 0 158 -48.5t53 -137.5v-19q0 -115 -98 -144
q115 -35 115 -160v-45q0 -180 -221 -180zM431 524v19q0 59 -31.5 81t-87.5 22h-21q-56 0 -87.5 -22t-31.5 -81v-19q0 -61 31.5 -83.5t87.5 -22.5h21q56 0 87.5 22.5t31.5 83.5z" />
    <glyph glyph-name="nine" unicode="9" horiz-adv-x="602" 
d="M430 203v108q-96 -25 -181 -25q-103 0 -143.5 44.5t-40.5 135.5v69q0 105 50.5 147.5t154.5 42.5h58q102 0 150.5 -43.5t48.5 -149.5v-347q0 -105 -47.5 -149.5t-151.5 -44.5q-110 0 -252 23l21 76q124 -20 204 -20q81 0 105 27t24 106zM430 388v157q0 54 -24.5 77.5
t-87.5 23.5h-45q-62 0 -86.5 -23.5t-24.5 -77.5v-74q0 -61 19 -83.5t87 -22.5q79 0 162 23z" />
    <glyph glyph-name="colon" unicode=":" horiz-adv-x="301" 
d="M206 0h-111v106h111v-106zM206 374h-111v106h111v-106z" />
    <glyph glyph-name="semicolon" unicode=";" horiz-adv-x="322" 
d="M227 374h-111v106h111v-106zM151 -138h-81l49 244h105z" />
    <glyph glyph-name="less" unicode="&#x3c;" horiz-adv-x="612" 
d="M551 115l-489 177v92l489 177v-91l-404 -132l404 -132v-91z" />
    <glyph glyph-name="equal" unicode="=" horiz-adv-x="612" 
d="M551 189h-489v81h489v-81zM551 403h-489v81h489v-81z" />
    <glyph glyph-name="greater" unicode="&#x3e;" horiz-adv-x="612" 
d="M551 292l-489 -177v91l403 132l-403 132v91l489 -177v-92z" />
    <glyph glyph-name="question" unicode="?" horiz-adv-x="542" 
d="M276 0h-107v104h107v-104zM269 185h-95v55q0 58 17.5 94t67.5 72l68 49q32 23 42.5 38.5t10.5 42.5v31q0 41 -22 58.5t-72 17.5q-72 0 -195 -25l-29 79q119 28 238 28q91 0 134.5 -37t43.5 -118v-18q0 -56 -17.5 -87t-60.5 -61l-58 -41q-42 -30 -57.5 -54t-15.5 -68v-56z
" />
    <glyph glyph-name="at" unicode="@" horiz-adv-x="932" 
d="M842 120l42 -49q-88 -80 -247 -80h-322q-57 0 -94.5 7t-69 26t-46 55.5t-14.5 93.5v344q0 117 56.5 162.5t170.5 45.5h293q114 0 166.5 -42.5t52.5 -154.5v-206q0 -67 -38.5 -114t-118.5 -47q-39 0 -72.5 18.5t-45.5 50.5q-71 -50 -153 -50q-121 0 -121 127v111
q0 117 117 117q49 0 151 -34q1 5 7 31h65v-228q0 -39 12 -58t46 -19q68 0 68 87v210q0 83 -33.5 107t-126.5 24h-266q-80 0 -113.5 -33.5t-33.5 -115.5v-324q0 -70 34 -95.5t120 -25.5h303q135 0 211 59zM540 289v149l-9 4q-9 3 -22 7t-28.5 8.5t-32 7.5t-29.5 3
q-36 0 -46.5 -16t-10.5 -55v-80q0 -39 13 -53.5t54 -14.5q57 0 111 40z" />
    <glyph glyph-name="A" unicode="A" horiz-adv-x="672" 
d="M640 0h-104l-49 150h-302l-49 -150h-104l247 716h114zM465 228l-129 397l-129 -397h258z" />
    <glyph glyph-name="B" unicode="B" horiz-adv-x="662" 
d="M597 227v-45q0 -46 -13.5 -80t-34.5 -53t-52.5 -30.5t-61 -15t-66.5 -3.5h-265v716h211q53 0 81.5 -1.5t65 -10.5t55 -26.5t31.5 -50.5t13 -82v-32q0 -56 -18 -92t-70 -46q124 -14 124 -148zM500 188v35q0 61 -31.5 84t-117.5 23h-150v-251h150q85 0 117 26t32 83z
M464 504v36q0 56 -25 76t-97 20h-141v-229h143q70 0 95 21.5t25 75.5z" />
    <glyph glyph-name="C" unicode="C" horiz-adv-x="608" 
d="M530 101l26 -75q-115 -35 -245 -35q-122 0 -172 47t-50 166v292q0 124 49.5 176.5t174.5 52.5q117 0 237 -24l-19 -78q-135 22 -205 22q-48 0 -76.5 -9.5t-42 -33t-17.5 -50.5t-4 -76v-266q0 -83 26 -111t112 -28q103 0 206 30z" />
    <glyph glyph-name="D" unicode="D" horiz-adv-x="692" 
d="M365 0h-261v716h249q138 0 196 -51.5t58 -184.5v-246q0 -61 -10 -101.5t-36.5 -72t-74.5 -46t-121 -14.5zM510 216v253q0 47 -3.5 72.5t-18 50t-45 34.5t-82.5 10h-160v-557h155q94 0 124 29.5t30 107.5z" />
    <glyph glyph-name="E" unicode="E" horiz-adv-x="613" 
d="M540 0h-436v716h434l-12 -81h-325v-218h312l-12 -81h-300v-255h339v-81z" />
    <glyph glyph-name="F" unicode="F" horiz-adv-x="595" 
d="M201 0h-97v716h434l-12 -81h-325v-230h311l-11 -81h-300v-324z" />
    <glyph glyph-name="G" unicode="G" horiz-adv-x="682" 
d="M501 103v219h-156v80h252v-350q-134 -61 -305 -61q-203 0 -203 194v305q0 123 52.5 179t177.5 56q121 0 258 -25l-19 -77q-128 22 -223 22q-50 0 -80 -9t-45 -32t-19.5 -50.5t-4.5 -75.5v-285q0 -75 29.5 -98.5t110.5 -23.5q34 0 86.5 9t88.5 23z" />
    <glyph glyph-name="H" unicode="H" horiz-adv-x="707" 
d="M603 0h-97v330h-305v-330h-97v716h97v-306h305v306h97v-716z" />
    <glyph glyph-name="I" unicode="I" horiz-adv-x="305" 
d="M201 0h-97v716h97v-716z" />
    <glyph glyph-name="J" unicode="J" horiz-adv-x="305" 
d="M24 -162l-27 69q63 22 85 53t22 97v659h97v-630q0 -30 -1.5 -50t-6.5 -48.5t-16.5 -49t-30.5 -41.5t-50 -36t-72 -23z" />
    <glyph glyph-name="K" unicode="K" horiz-adv-x="667" 
d="M645 0h-110l-197 359l-137 -165v-194h-97v716h97v-397l323 397h111l-236 -287z" />
    <glyph glyph-name="L" unicode="L" horiz-adv-x="584" 
d="M541 0h-437v716h97v-635h340v-81z" />
    <glyph glyph-name="M" unicode="M" horiz-adv-x="899" 
d="M794 0h-92v577l-218 -467h-69l-218 467v-577h-93v716h122l223 -486l224 486h121v-716z" />
    <glyph glyph-name="N" unicode="N" horiz-adv-x="731" 
d="M627 0h-102l-328 565v-565h-93v716h97l333 -565v565h93v-716z" />
    <glyph glyph-name="O" unicode="O" horiz-adv-x="697" 
d="M361 -9h-25q-250 0 -250 239v256q0 239 250 239h25q250 0 250 -239v-256q0 -239 -250 -239zM514 230v256q0 87 -35.5 124t-121.5 37h-17q-86 0 -121.5 -37t-35.5 -124v-256q0 -87 35.5 -124t121.5 -37h17q86 0 121.5 37t35.5 124z" />
    <glyph glyph-name="P" unicode="P" horiz-adv-x="632" 
d="M201 0h-97v716h257q118 0 166 -40.5t48 -147.5v-57q0 -95 -49.5 -137.5t-161.5 -42.5h-163v-291zM479 473v54q0 64 -24 86.5t-105 22.5h-149v-266h149q80 0 104.5 21t24.5 82z" />
    <glyph glyph-name="Q" unicode="Q" horiz-adv-x="697" 
d="M631 -65l-366 62q-179 30 -179 233v256q0 239 250 239h25q250 0 250 -239v-256q0 -168 -139 -204l175 -9zM514 230v256q0 87 -35.5 124t-121.5 37h-17q-86 0 -121.5 -37t-35.5 -124v-256q0 -87 35.5 -124t121.5 -37h17q86 0 121.5 37t35.5 124z" />
    <glyph glyph-name="R" unicode="R" horiz-adv-x="659" 
d="M606 0h-108l-144 310h-154v-310h-97v716h253q112 0 168.5 -39.5t56.5 -152.5v-30q0 -147 -131 -177zM484 491v43q0 55 -29 78.5t-99 23.5h-156v-249h173q59 0 85 24.5t26 79.5z" />
    <glyph glyph-name="S" unicode="S" horiz-adv-x="631" 
d="M561 234v-46q0 -93 -63 -145t-188 -52q-123 0 -235 27l26 80q94 -26 206 -26q83 0 120 29t37 92v24q0 66 -27 90.5t-92 24.5h-110q-165 0 -165 172v37q1 89 50 136.5t142 47.5h23q119 0 267 -22l-27 -78q-126 17 -223 19h-26q-60 0 -84.5 -26.5t-24.5 -79.5v-28
q0 -49 18 -72t71 -23h113q93 0 142.5 -42.5t49.5 -138.5z" />
    <glyph glyph-name="T" unicode="T" horiz-adv-x="570" 
d="M335 0h-97v635h-206v81h518l-12 -81h-203v-635z" />
    <glyph glyph-name="U" unicode="U" horiz-adv-x="703" 
d="M374 -9h-46q-236 0 -236 236v489h97v-482q0 -82 29.5 -123t117.5 -41h31q88 0 117.5 41t29.5 123v482h97v-489q0 -236 -237 -236z" />
    <glyph glyph-name="V" unicode="V" horiz-adv-x="642" 
d="M381 0h-120l-236 716h106l191 -625l190 625h105z" />
    <glyph glyph-name="W" unicode="W" horiz-adv-x="987" 
d="M779 0h-123l-162 575l-163 -575h-122l-169 716h104l129 -609l166 586h110l166 -586l129 609h103z" />
    <glyph glyph-name="X" unicode="X" horiz-adv-x="653" 
d="M627 0h-114l-185 307l-189 -307h-112l234 365l-228 351h115l180 -294l179 294h112l-227 -351z" />
    <glyph glyph-name="Y" unicode="Y" horiz-adv-x="626" 
d="M361 0h-96v262l-242 454h110l180 -371l180 371h110l-242 -454v-262z" />
    <glyph glyph-name="Z" unicode="Z" horiz-adv-x="596" 
d="M545 0h-494v76l366 559h-354v81h472v-71l-371 -564h381v-81z" />
    <glyph glyph-name="bracketleft" unicode="[" horiz-adv-x="365" 
d="M320 -76h-216v867h216v-76h-125v-715h125v-76z" />
    <glyph glyph-name="backslash" unicode="\" horiz-adv-x="462" 
d="M422 -76h-89l-293 867h89z" />
    <glyph glyph-name="bracketright" unicode="]" horiz-adv-x="365" 
d="M261 -76h-216v76h125v715h-125v76h216v-867z" />
    <glyph glyph-name="asciicircum" unicode="^" horiz-adv-x="622" 
d="M551 336h-101l-139 300l-139 -300h-101l190 380h100z" />
    <glyph glyph-name="underscore" unicode="_" horiz-adv-x="484" 
d="M484 -187h-484v68h484v-68z" />
    <glyph glyph-name="grave" unicode="`" horiz-adv-x="434" 
d="M317 584l-230 96l39 68l221 -109z" />
    <glyph glyph-name="a" unicode="a" horiz-adv-x="576" 
d="M488 0h-73l-13 39q-110 -48 -202 -48q-66 0 -103 35t-37 92v25q0 75 47.5 114.5t139.5 39.5h144v33q-1 50 -19.5 69t-81.5 19q-85 0 -183 -21l-20 76q117 22 222 22q90 0 134.5 -35.5t44.5 -124.5v-335zM391 112v115h-127q-58 0 -82.5 -19.5t-24.5 -62.5v-13
q0 -33 17 -47t56 -14q24 0 64 10.5t68 20.5z" />
    <glyph glyph-name="b" unicode="b" horiz-adv-x="599" 
d="M521 313v-148q0 -92 -48 -133t-143 -41q-66 0 -134 10t-103 21v683l97 21v-254q109 23 162 23q96 0 132.5 -48t36.5 -134zM424 167v140q0 56 -18 82.5t-74 26.5q-62 0 -142 -21v-313q58 -14 122 -14q66 0 89 21.5t23 77.5z" />
    <glyph glyph-name="c" unicode="c" horiz-adv-x="532" 
d="M454 92l21 -73q-93 -28 -208 -28q-110 0 -151.5 44.5t-41.5 135.5v143q0 181 187 181q100 0 212 -19l-22 -75q-102 15 -169 15q-70 0 -90.5 -26t-20.5 -94v-116q0 -63 20 -87t94 -24q89 0 169 23z" />
    <glyph glyph-name="d" unicode="d" horiz-adv-x="598" 
d="M408 472v229l97 22v-701q-35 -11 -103 -21t-134 -10q-95 0 -143 41t-48 133v148q0 86 36.5 134t132.5 48q42 0 162 -23zM408 82v313q-80 21 -142 21q-56 0 -74 -26.5t-18 -82.5v-140q0 -56 23 -77.5t89 -21.5q64 0 122 14z" />
    <glyph glyph-name="e" unicode="e" horiz-adv-x="579" 
d="M483 102l24 -73q-100 -38 -235 -38q-101 0 -149.5 40.5t-48.5 135.5v135q0 193 197 193h42q193 0 193 -193v-81h-335v-52q0 -56 23 -78t83 -22q101 0 206 33zM409 291v30q0 52 -24 75.5t-83 23.5h-21q-58 0 -84 -24t-26 -75v-30h238z" />
    <glyph glyph-name="f" unicode="f" horiz-adv-x="415" 
d="M231 0h-97v410h-100v76h100v107q0 132 147 132q55 0 125 -11l-17 -70q-56 7 -94 7t-51 -17t-13 -55v-93h148v-76h-148v-410z" />
    <glyph glyph-name="g" unicode="g" horiz-adv-x="604" 
d="M299 -248h-48q-104 0 -155.5 37t-51.5 102v5q1 39 23 73t58 43q-21 5 -33 20.5t-12 34.5q0 47 72 114q-40 15 -61.5 54t-21.5 88q0 83 51.5 127.5t152.5 44.5h22q55 0 100 -18l159 11v-72h-88q34 -39 34 -91q0 -163 -206 -163h-19q-32 0 -58 4q-47 -50 -47 -71
q0 -16 11 -21t38 -5h145q185 0 185 -149q0 -168 -250 -168zM261 -177h52q72 0 108 22t36 72q0 46 -25 63t-83 17h-127q-45 0 -65.5 -26t-20.5 -62v-7q0 -79 125 -79zM268 231h32q58 0 83 24t25 73q0 98 -108 98h-32q-107 0 -107 -98q0 -49 25 -73t82 -24z" />
    <glyph glyph-name="h" unicode="h" horiz-adv-x="612" 
d="M525 0h-97v323q0 49 -17.5 71t-66.5 22q-62 0 -154 -39v-377h-97v705l97 21v-273q100 42 176 42q78 0 118.5 -39.5t40.5 -130.5v-325z" />
    <glyph glyph-name="i" unicode="i" horiz-adv-x="283" 
d="M190 0h-97v486h97v-486zM194 643l-105 -23v98h105v-75z" />
    <glyph glyph-name="j" unicode="j" horiz-adv-x="283" 
d="M23 -245l-20 74q56 15 73 45.5t17 104.5v507h97v-496q0 -111 -34 -161.5t-133 -73.5zM194 643l-105 -23v98h105v-75z" />
    <glyph glyph-name="k" unicode="k" horiz-adv-x="568" 
d="M544 0h-110l-157 242l-87 -87v-155h-97v705l97 21v-464l220 224h118l-189 -186z" />
    <glyph glyph-name="l" unicode="l" horiz-adv-x="328" 
d="M279 78l13 -71q-60 -16 -101 -16q-51 0 -75.5 26t-24.5 69v619l97 21v-607q0 -28 8 -38.5t36 -10.5q13 0 47 8z" />
    <glyph glyph-name="m" unicode="m" horiz-adv-x="906" 
d="M818 0h-97v327q0 45 -16.5 67t-59.5 22q-46 0 -142 -43v-373h-97v327q0 44 -15 66.5t-55 22.5q-45 0 -146 -42v-374h-97v486h70l15 -41q98 50 179 50q83 0 126 -55q98 55 184 55q76 0 113.5 -40t37.5 -112v-343z" />
    <glyph glyph-name="n" unicode="n" horiz-adv-x="613" 
d="M525 0h-97v306q0 55 -16 82.5t-66 27.5q-57 0 -156 -39v-377h-97v486h71l15 -39q106 48 188 48q158 0 158 -168v-327z" />
    <glyph glyph-name="o" unicode="o" horiz-adv-x="594" 
d="M307 -9h-20q-120 0 -166.5 51.5t-46.5 150.5v100q0 99 46.5 150.5t166.5 51.5h20q120 0 166.5 -51.5t46.5 -150.5v-100q0 -99 -46.5 -150.5t-166.5 -51.5zM423 182v122q0 64 -26.5 90.5t-97.5 26.5h-4q-71 0 -97.5 -26.5t-26.5 -90.5v-122q0 -64 26.5 -90.5t97.5 -26.5h4
q71 0 97.5 26.5t26.5 90.5z" />
    <glyph glyph-name="p" unicode="p" horiz-adv-x="609" 
d="M190 -227l-97 -21v734h71l16 -41q111 50 192 50q88 0 123.5 -44.5t35.5 -126.5v-169q0 -164 -168 -164q-79 0 -173 30v-248zM434 164v149q0 55 -18 79t-67 24q-50 0 -159 -42v-274q81 -31 150 -31q55 0 74.5 23.5t19.5 71.5z" />
    <glyph glyph-name="q" unicode="q" horiz-adv-x="609" 
d="M516 -227l-97 -21v269q-96 -30 -174 -30q-167 0 -167 164v169q0 82 35.5 126.5t122.5 44.5q83 0 192 -50l16 41h72v-713zM419 100v274q-111 42 -160 42q-48 0 -66 -24t-18 -79v-149q0 -48 19.5 -71.5t73.5 -23.5q68 0 151 31z" />
    <glyph glyph-name="r" unicode="r" horiz-adv-x="409" 
d="M190 0h-97v486h70l16 -46q55 55 135 55q40 0 68 -11l-22 -77q-28 9 -63 9q-62 0 -107 -45v-371z" />
    <glyph glyph-name="s" unicode="s" horiz-adv-x="541" 
d="M479 154v-22q0 -60 -48 -100.5t-150 -40.5q-96 0 -212 28l26 74q102 -24 179 -24q58 0 84 17.5t26 60.5q0 38 -21.5 52t-67.5 14h-79q-64 0 -106.5 31t-42.5 98v6q3 147 166 147q112 0 232 -19l-24 -76q-105 17 -197 17q-45 0 -63 -15.5t-18 -50.5q0 -34 16 -48t61 -14
h72q167 0 167 -135z" />
    <glyph glyph-name="t" unicode="t" horiz-adv-x="466" 
d="M412 84l20 -68q-73 -25 -159 -25q-137 0 -137 133v286h-100v76h100v163l97 21v-184h190v-76h-190v-254q0 -55 12 -71.5t57 -16.5q55 0 110 16z" />
    <glyph glyph-name="u" unicode="u" horiz-adv-x="611" 
d="M518 0h-71l-17 41q-92 -50 -186 -50q-156 0 -156 168v327h97v-306q0 -28 2 -43.5t9.5 -32.5t25.5 -24.5t47 -7.5q61 0 152 40v374h97v-486z" />
    <glyph glyph-name="v" unicode="v" horiz-adv-x="540" 
d="M329 0h-118l-186 486h106l139 -407l141 407h104z" />
    <glyph glyph-name="w" unicode="w" horiz-adv-x="845" 
d="M667 0h-126l-118 393l-118 -393h-127l-145 486h102l108 -405l119 395h122l119 -395l108 405h101z" />
    <glyph glyph-name="x" unicode="x" horiz-adv-x="559" 
d="M526 0h-111l-135 188l-136 -188h-111l187 246l-183 240h111l132 -181l129 181h111l-182 -240z" />
    <glyph glyph-name="y" unicode="y" horiz-adv-x="539" 
d="M101 -245l-20 73q60 16 89 42t48 75l21 55h-29l-185 486h105l140 -407l140 407h104l-209 -547q-31 -82 -70.5 -122t-133.5 -62z" />
    <glyph glyph-name="z" unicode="z" horiz-adv-x="517" 
d="M456 0h-395v71l273 338h-259v77h369v-75l-267 -333h279v-78z" />
    <glyph glyph-name="braceleft" unicode="{" horiz-adv-x="432" 
d="M371 -76h-36q-91 0 -132.5 42t-41.5 132v125q0 90 -79 90h-23v88h23q79 0 79 91v125q0 90 41.5 132t132.5 42h36v-75h-26q-58 0 -75 -25.5t-17 -92.5v-120q0 -99 -76 -121q76 -21 76 -120v-121q0 -66 17 -91.5t75 -25.5h26v-75z" />
    <glyph glyph-name="bar" unicode="|" horiz-adv-x="344" 
d="M215 -76h-86v867h86v-867z" />
    <glyph glyph-name="braceright" unicode="}" horiz-adv-x="432" 
d="M97 -76h-36v75h26q58 0 75 25.5t17 91.5v121q0 99 76 120q-76 22 -76 121v120q0 67 -17 92.5t-75 25.5h-26v75h36q91 0 132.5 -42t41.5 -132v-125q0 -91 79 -91h23v-88h-23q-79 0 -79 -90v-125q0 -90 -41.5 -132t-132.5 -42z" />
    <glyph glyph-name="asciitilde" unicode="~" horiz-adv-x="612" 
d="M508 396l43 -55q-25 -26 -60.5 -44t-67.5 -18q-29 0 -113.5 20.5t-114.5 20.5t-91 -45l-42 55q27 28 63.5 50t68.5 22q30 0 115 -21t113 -21q36 0 86 36z" />
    <glyph glyph-name="uni00A0" unicode="&#xa0;" horiz-adv-x="270" 
 />
    <glyph glyph-name="exclamdown" unicode="&#xa1;" horiz-adv-x="302" 
d="M206 397h-111v105h111v-105zM205 -214h-109l19 531h71z" />
    <glyph glyph-name="cent" unicode="&#xa2;" horiz-adv-x="504" 
d="M317 0h-50v78q-106 0 -147.5 46t-41.5 135v143q0 180 189 180v75h50v-77q62 -4 135 -20q-14 -41 -23 -73q-65 12 -112 16v-346q51 4 122 22l19 -72q-77 -22 -141 -27v-80zM267 156v349q-54 -2 -73.5 -29t-19.5 -86v-121q0 -58 18.5 -84.5t74.5 -28.5z" />
    <glyph glyph-name="sterling" unicode="&#xa3;" horiz-adv-x="604" 
d="M552 0h-482v88q37 15 60 31.5t32 35t11 31t2 33.5t-13 118h-94v78h82q-4 38 -9 73.5t-6.5 49.5t-1.5 23q0 76 48 120t134 44q96 0 222 -24l-27 -75q-115 19 -174 19q-109 0 -109 -84q0 -28 16 -146h253v-78h-241q11 -81 11 -125q0 -27 -2.5 -45t-18 -43t-45.5 -43h352
v-81z" />
    <glyph glyph-name="currency" unicode="&#xa4;" horiz-adv-x="600" 
d="M483 139l-71 72q-49 -38 -112 -38t-112 38l-71 -72l-50 50l72 71q-36 50 -36 112q0 63 36 112l-72 72l50 49l71 -71q49 37 112 37t112 -37l71 71l50 -49l-72 -72q37 -50 37 -112q0 -61 -37 -112l72 -71zM300 246q51 0 84.5 37t33.5 89t-33.5 89t-84.5 37t-84.5 -37
t-33.5 -89t33.5 -89t84.5 -37z" />
    <glyph glyph-name="yen" unicode="&#xa5;" horiz-adv-x="634" 
d="M537 133h-172v-133h-96v133h-172v56h172v72h-172v56h143l-198 399h109l166 -372l167 372h108l-198 -399h143v-56h-172v-72h172v-56z" />
    <glyph glyph-name="brokenbar" unicode="&#xa6;" horiz-adv-x="344" 
d="M215 438h-86v353h86v-353zM215 -76h-86v351h86v-351z" />
    <glyph glyph-name="section" unicode="&#xa7;" horiz-adv-x="582" 
d="M488 43v-36q0 -73 -51.5 -116t-154.5 -43q-105 0 -216 30l24 75q93 -26 181 -26q71 0 97.5 20t26.5 68v11q0 50 -24.5 69t-85.5 29l-89 14q-67 11 -98 44t-31 99v25q0 100 88 125q-64 33 -64 119v31q0 66 45.5 107t123.5 41h17q118 0 220 -22l-26 -74q-118 18 -180 18
h-19q-90 0 -90 -78v-20q0 -36 17.5 -54.5t60.5 -25.5l80 -12q40 -6 67 -14t53.5 -24t39.5 -43.5t13 -67.5v-39q0 -40 -23.5 -70.5t-66.5 -41.5q39 -20 52 -48.5t13 -69.5zM424 276v24q0 36 -23.5 55t-88.5 29q-50 8 -67 8q-40 0 -65 -23.5t-25 -59.5v-13q0 -40 12 -56.5
t56 -24.5q74 -14 104 -14q39 0 68 20.5t29 54.5z" />
    <glyph glyph-name="dieresis" unicode="&#xa8;" horiz-adv-x="504" 
d="M188 625l-101 -22v100h101v-78zM417 625l-101 -22v100h101v-78z" />
    <glyph glyph-name="copyright" unicode="&#xa9;" horiz-adv-x="954" 
d="M616 238l20 -65q-79 -27 -168 -27t-129 32.5t-40 111.5v122q0 94 38 130t122 36q92 0 171 -21l-23 -62q-70 16 -128 16q-64 0 -82.5 -20t-18.5 -79v-111q0 -50 20.5 -67.5t86.5 -17.5q57 0 131 22zM779 221v274q0 84 -48 122t-126 38h-256q-78 0 -126 -38t-48 -122v-274
q0 -85 48 -122.5t126 -37.5h256q78 0 126 37.5t48 122.5zM602 -9h-249q-262 0 -262 236v261q0 237 262 237h248q262 0 262 -237v-261q0 -236 -261 -236z" />
    <glyph glyph-name="ordfeminine" unicode="&#xaa;" horiz-adv-x="414" 
d="M356 369h-61q-1 3 -3.5 11t-4.5 12q-74 -30 -131 -30q-52 0 -77.5 27.5t-25.5 72.5v9q0 111 137 111h87v23q0 31 -12 43t-51 12q-60 0 -128 -16q-10 42 -16 62q91 17 156 17t97.5 -26.5t32.5 -89.5v-238zM277 453v73h-73q-39 0 -55.5 -12t-16.5 -41v-8q0 -21 10.5 -29.5
t34.5 -8.5q31 0 100 26zM356 240h-295v65h295v-65z" />
    <glyph glyph-name="guillemotleft" unicode="&#xab;" horiz-adv-x="530" 
d="M462 103h-94l-94 175l94 174h94l-97 -174zM259 103h-94l-94 175l94 174h94l-97 -174z" />
    <glyph glyph-name="logicalnot" unicode="&#xac;" horiz-adv-x="612" 
d="M551 157h-80v145h-409v83h489v-228z" />
    <glyph glyph-name="uni00AD" unicode="&#xad;" horiz-adv-x="457" 
d="M382 297h-307v82h307v-82z" />
    <glyph glyph-name="registered" unicode="&#xae;" horiz-adv-x="954" 
d="M651 152h-86l-86 169h-79v-169h-75v424h157q75 0 114.5 -23.5t39.5 -93.5v-16q0 -97 -85 -116zM557 447v9q0 31 -18 44t-60 13h-79v-129h91q36 0 51 15t15 48zM779 221v274q0 84 -48 122t-126 38h-256q-78 0 -126 -38t-48 -122v-274q0 -85 48 -122.5t126 -37.5h256
q78 0 126 37.5t48 122.5zM601 -9h-249q-261 0 -261 236v261q0 237 262 237h248q262 0 262 -237v-261q0 -236 -262 -236z" />
    <glyph glyph-name="macron" unicode="&#xaf;" horiz-adv-x="523" 
d="M436 628h-349v70h349v-70z" />
    <glyph glyph-name="degree" unicode="&#xb0;" horiz-adv-x="496" 
d="M439 540q0 -80 -55 -133.5t-136 -53.5t-136 53.5t-55 133.5t55 133.5t136 53.5t136 -53.5t55 -133.5zM248 427q49 0 78.5 33t29.5 80t-29.5 80t-78.5 33t-78.5 -33t-29.5 -80t29.5 -80t78.5 -33z" />
    <glyph glyph-name="plusminus" unicode="&#xb1;" horiz-adv-x="612" 
d="M551 0h-489v82h489v-82zM551 355h-203v-198h-85v198h-201v81h201v198h85v-198h203v-81z" />
    <glyph glyph-name="twosuperior" unicode="&#xb2;" horiz-adv-x="504" 
d="M413 311h-320v74q0 61 17.5 88t73.5 51q19 8 60 23.5t60 23.5q31 12 31 34v18q0 21 -17.5 28t-51.5 7q-77 0 -154 -15l-19 60q92 18 180 18q140 0 140 -96v-20q0 -33 -17 -53t-53 -35q-20 -8 -63 -24.5t-66 -26.5q-42 -18 -42 -65v-27h241v-63z" />
    <glyph glyph-name="threesuperior" unicode="&#xb3;" horiz-adv-x="510" 
d="M419 440v-16q0 -63 -42 -90.5t-124 -27.5q-63 0 -162 15l16 62q85 -15 135 -15q98 0 98 52v28q0 27 -14.5 37t-44.5 10q-37 0 -97 -7l-26 47l151 118h-207v63h301v-62l-142 -109q24 3 45 3q113 0 113 -108z" />
    <glyph glyph-name="acute" unicode="&#xb4;" horiz-adv-x="434" 
d="M347 680l-230 -96l-30 55l221 109z" />
    <glyph glyph-name="uni00B5" unicode="&#xb5;" horiz-adv-x="615" 
d="M522 0h-70l-17 41q-93 -51 -186 -51q-34 0 -59 20v-237l-97 -21v734h97v-325q0 -44 17.5 -66t65.5 -22q65 0 152 42v371h97v-486z" />
    <glyph glyph-name="paragraph" unicode="&#xb6;" horiz-adv-x="612" 
d="M482 -239h-66v887h-67v-887h-66v600h-34q-85 0 -127 46t-42 117v26q0 71 42 118.5t127 47.5h297v-68h-64v-887z" />
    <glyph glyph-name="periodcentered" unicode="&#xb7;" horiz-adv-x="331" 
d="M221 310h-111v106h111v-106z" />
    <glyph glyph-name="cedilla" unicode="&#xb8;" horiz-adv-x="414" 
d="M87 -210l18 57q46 -12 84 -12q67 0 67 34q0 25 -37 25q-31 0 -93 -11l-11 35l45 94h72l-39 -73q33 5 50 5q38 0 61 -18.5t23 -52.5q0 -31 -14.5 -52t-38.5 -30t-44 -12.5t-40 -3.5q-48 0 -103 15z" />
    <glyph glyph-name="onesuperior" unicode="&#xb9;" horiz-adv-x="405" 
d="M288 311h-79v329l-104 -63l-30 46l146 93h67v-405z" />
    <glyph glyph-name="ordmasculine" unicode="&#xba;" horiz-adv-x="442" 
d="M375 240h-308v65h308v-65zM231 362h-20q-85 0 -119 37.5t-34 108.5v69q0 71 34 108.5t119 37.5h20q85 0 119 -37.5t34 -108.5v-69q0 -71 -34 -108.5t-119 -37.5zM305 500v85q0 42 -16.5 59.5t-61.5 17.5h-12q-45 0 -61.5 -17.5t-16.5 -59.5v-85q0 -42 16.5 -59.5
t61.5 -17.5h12q45 0 61.5 17.5t16.5 59.5z" />
    <glyph glyph-name="guillemotright" unicode="&#xbb;" horiz-adv-x="530" 
d="M162 103h-94l97 175l-97 174h94l94 -174zM365 103h-94l97 175l-97 174h94l94 -174z" />
    <glyph glyph-name="onequarter" unicode="&#xbc;" horiz-adv-x="1034" 
d="M388 311h-336v63h134v266l-103 -63l-30 46l146 93h67v-342h122v-63zM948 0h-78v94h-222v51l203 260h97v-250h58v-61h-58v-94zM870 155v181l-143 -181h143zM317 0h-94l493 716h95z" />
    <glyph glyph-name="onehalf" unicode="&#xbd;" horiz-adv-x="1034" 
d="M317 0h-94l493 716h95zM988 0h-320v74q0 61 17.5 88t73.5 51q19 8 60 23.5t60 23.5q31 13 31 34v18q0 35 -69 35q-77 0 -154 -15l-19 60q92 18 180 18q140 0 140 -96v-20q0 -33 -17 -53t-53 -35q-20 -8 -63 -24.5t-66 -26.5q-42 -18 -42 -65v-27h241v-63zM388 311h-336
v63h134v266l-103 -63l-30 46l146 93h67v-342h122v-63z" />
    <glyph glyph-name="threequarters" unicode="&#xbe;" horiz-adv-x="1034" 
d="M370 440v-16q0 -63 -42.5 -90.5t-124.5 -27.5q-63 0 -162 15l16 62q85 -15 135 -15q98 0 98 52v28q0 27 -14.5 37t-44.5 10q-37 0 -97 -7l-26 47l151 118h-207v63h301v-62l-142 -109q36 3 45 3q114 0 114 -108zM948 0h-78v94h-222v51l203 260h97v-250h58v-61h-58v-94z
M870 155v181l-143 -181h143zM317 0h-94l493 716h95z" />
    <glyph glyph-name="questiondown" unicode="&#xbf;" horiz-adv-x="523" 
d="M368 398h-107v105h107v-105zM446 -113l29 -79q-119 -28 -238 -28q-91 0 -134.5 37t-43.5 118v18q0 56 17.5 87t60.5 61l58 41q42 30 57.5 54t15.5 68v54h95v-53q0 -58 -17.5 -94t-67.5 -72l-68 -49q-32 -23 -42.5 -38.5t-10.5 -42.5v-31q0 -41 22 -58.5t72 -17.5
q72 0 195 25z" />
    <glyph glyph-name="Agrave" unicode="&#xc0;" horiz-adv-x="672" 
d="M640 0h-104l-49 150h-302l-49 -150h-104l247 716h114zM465 228l-129 397l-129 -397h258zM428 777l-230 96l39 68l221 -109z" />
    <glyph glyph-name="Aacute" unicode="&#xc1;" horiz-adv-x="672" 
d="M640 0h-104l-49 150h-302l-49 -150h-104l247 716h114zM465 228l-129 397l-129 -397h258zM468 873l-230 -96l-30 55l221 109z" />
    <glyph glyph-name="Acircumflex" unicode="&#xc2;" horiz-adv-x="672" 
d="M640 0h-104l-49 150h-302l-49 -150h-104l247 716h114zM465 228l-129 397l-129 -397h258zM482 775l-145 84l-146 -84l-42 49l188 118l187 -118z" />
    <glyph glyph-name="Atilde" unicode="&#xc3;" horiz-adv-x="672" 
d="M640 0h-104l-49 150h-302l-49 -150h-104l247 716h114zM465 228l-129 397l-129 -397h258zM481 902l39 -45q-50 -65 -112 -65q-24 0 -71 19t-66 19q-8 0 -15.5 -2t-12.5 -3.5t-13.5 -7.5t-11 -8t-13 -11t-12.5 -11l-40 44q57 69 112 69q28 0 76 -18.5t68 -18.5q30 0 72 39z
" />
    <glyph glyph-name="Adieresis" unicode="&#xc4;" horiz-adv-x="672" 
d="M640 0h-104l-49 150h-302l-49 -150h-104l247 716h114zM465 228l-129 397l-129 -397h258zM275 816l-101 -22v100h101v-78zM504 816l-101 -22v100h101v-78z" />
    <glyph glyph-name="Aring" unicode="&#xc5;" horiz-adv-x="672" 
d="M640 0h-104l-49 150h-302l-49 -150h-104l247 716h114zM465 228l-129 397l-129 -397h258zM437 856q0 -41 -29.5 -69t-71.5 -28q-41 0 -71 28t-30 69t30 69t71 28q42 0 71.5 -28t29.5 -69zM336 811q18 0 31 13t13 32t-13 31.5t-31 12.5t-30.5 -13t-12.5 -31q0 -19 12.5 -32
t30.5 -13z" />
    <glyph glyph-name="AE" unicode="&#xc6;" horiz-adv-x="993" 
d="M921 0h-436v153h-294l-46 -153h-107l231 716h650l-12 -81h-325v-218h312l-12 -81h-300v-255h339v-81zM485 231v404h-152l-119 -404h271z" />
    <glyph glyph-name="Ccedilla" unicode="&#xc7;" horiz-adv-x="608" 
d="M224 -210l18 57q43 -12 83 -12q68 0 68 34q0 25 -37 25q-34 0 -93 -11l-12 35l36 74q-108 4 -153 51t-45 161v292q0 124 49.5 176.5t174.5 52.5q117 0 237 -24l-19 -78q-135 22 -205 22q-48 0 -76.5 -9.5t-42 -33t-17.5 -50.5t-4 -76v-266q0 -83 26 -111t112 -28
q103 0 206 30l26 -75q-84 -26 -198 -33l-29 -54q33 5 51 5q37 0 60 -18.5t23 -52.5q0 -31 -14.5 -52t-38.5 -30t-43.5 -12.5t-39.5 -3.5q-50 0 -103 15z" />
    <glyph glyph-name="Egrave" unicode="&#xc8;" horiz-adv-x="613" 
d="M540 0h-436v716h434l-12 -81h-325v-218h312l-12 -81h-300v-255h339v-81zM399 774l-230 96l39 68l221 -109z" />
    <glyph glyph-name="Eacute" unicode="&#xc9;" horiz-adv-x="613" 
d="M540 0h-436v716h434l-12 -81h-325v-218h312l-12 -81h-300v-255h339v-81zM445 873l-230 -96l-30 55l221 109z" />
    <glyph glyph-name="Ecircumflex" unicode="&#xca;" horiz-adv-x="613" 
d="M540 0h-436v716h434l-12 -81h-325v-218h312l-12 -81h-300v-255h339v-81zM461 775l-145 84l-146 -84l-42 49l188 118l187 -118z" />
    <glyph glyph-name="Edieresis" unicode="&#xcb;" horiz-adv-x="613" 
d="M540 0h-436v716h434l-12 -81h-325v-218h312l-12 -81h-300v-255h339v-81zM259 808l-101 -22v100h101v-78zM488 808l-101 -22v100h101v-78z" />
    <glyph glyph-name="Igrave" unicode="&#xcc;" horiz-adv-x="305" 
d="M201 0h-97v716h97v-716zM250 777l-230 96l39 68l221 -109z" />
    <glyph glyph-name="Iacute" unicode="&#xcd;" horiz-adv-x="305" 
d="M201 0h-97v716h97v-716zM285 873l-230 -96l-30 55l221 109z" />
    <glyph glyph-name="Icircumflex" unicode="&#xce;" horiz-adv-x="305" 
d="M201 0h-97v716h97v-716zM298 772l-145 84l-146 -84l-42 49l188 118l187 -118z" />
    <glyph glyph-name="Idieresis" unicode="&#xcf;" horiz-adv-x="305" 
d="M201 0h-97v716h97v-716zM89 793l-101 -22v100h101v-78zM318 793l-101 -22v100h101v-78z" />
    <glyph glyph-name="Eth" unicode="&#xd0;" horiz-adv-x="692" 
d="M365 0h-261v334h-66v75h66v307h249q138 0 196 -51.5t58 -184.5v-246q0 -61 -10 -101.5t-36.5 -72t-74.5 -46t-121 -14.5zM510 216v253q0 47 -3.5 72.5t-18 50t-45 34.5t-82.5 10h-160v-227h142v-75h-142v-255h155q94 0 124 29.5t30 107.5z" />
    <glyph glyph-name="Ntilde" unicode="&#xd1;" horiz-adv-x="731" 
d="M627 0h-102l-328 565v-565h-93v716h97l333 -565v565h93v-716zM510 902l39 -45q-50 -65 -112 -65q-25 0 -72 19t-65 19q-8 0 -15.5 -2t-12.5 -3.5t-13.5 -7.5t-11 -8t-13 -11t-12.5 -11l-40 44q57 69 112 69q28 0 76 -18.5t68 -18.5q30 0 72 39z" />
    <glyph glyph-name="Ograve" unicode="&#xd2;" horiz-adv-x="697" 
d="M361 -9h-25q-250 0 -250 239v256q0 239 250 239h25q250 0 250 -239v-256q0 -239 -250 -239zM514 230v256q0 87 -35.5 124t-121.5 37h-17q-86 0 -121.5 -37t-35.5 -124v-256q0 -87 35.5 -124t121.5 -37h17q86 0 121.5 37t35.5 124zM422 777l-230 96l39 68l221 -109z" />
    <glyph glyph-name="Oacute" unicode="&#xd3;" horiz-adv-x="697" 
d="M361 -9h-25q-250 0 -250 239v256q0 239 250 239h25q250 0 250 -239v-256q0 -239 -250 -239zM514 230v256q0 87 -35.5 124t-121.5 37h-17q-86 0 -121.5 -37t-35.5 -124v-256q0 -87 35.5 -124t121.5 -37h17q86 0 121.5 37t35.5 124zM472 873l-230 -96l-30 55l221 109z" />
    <glyph glyph-name="Ocircumflex" unicode="&#xd4;" horiz-adv-x="697" 
d="M361 -9h-25q-250 0 -250 239v256q0 239 250 239h25q250 0 250 -239v-256q0 -239 -250 -239zM514 230v256q0 87 -35.5 124t-121.5 37h-17q-86 0 -121.5 -37t-35.5 -124v-256q0 -87 35.5 -124t121.5 -37h17q86 0 121.5 37t35.5 124zM492 775l-145 84l-146 -84l-42 49
l188 118l187 -118z" />
    <glyph glyph-name="Otilde" unicode="&#xd5;" horiz-adv-x="697" 
d="M361 -9h-25q-250 0 -250 239v256q0 239 250 239h25q250 0 250 -239v-256q0 -239 -250 -239zM514 230v256q0 87 -35.5 124t-121.5 37h-17q-86 0 -121.5 -37t-35.5 -124v-256q0 -87 35.5 -124t121.5 -37h17q86 0 121.5 37t35.5 124zM493 902l39 -45q-50 -65 -112 -65
q-24 0 -71 19t-66 19q-8 0 -15.5 -2t-12.5 -3.5t-13.5 -7.5t-11 -8t-13 -11t-12.5 -11l-40 44q57 69 112 69q28 0 76 -18.5t68 -18.5q30 0 72 39z" />
    <glyph glyph-name="Odieresis" unicode="&#xd6;" horiz-adv-x="697" 
d="M361 -9h-25q-250 0 -250 239v256q0 239 250 239h25q250 0 250 -239v-256q0 -239 -250 -239zM514 230v256q0 87 -35.5 124t-121.5 37h-17q-86 0 -121.5 -37t-35.5 -124v-256q0 -87 35.5 -124t121.5 -37h17q86 0 121.5 37t35.5 124zM287 816l-101 -22v100h101v-78zM516 816
l-101 -22v100h101v-78z" />
    <glyph glyph-name="multiply" unicode="&#xd7;" horiz-adv-x="612" 
d="M544 155l-58 -57l-181 180l-180 -180l-58 57l181 181l-181 181l58 57l180 -181l181 181l58 -57l-181 -181z" />
    <glyph glyph-name="Oslash" unicode="&#xd8;" horiz-adv-x="697" 
d="M361 -9h-25q-91 0 -149 31l-50 -91l-46 25l54 97q-59 58 -59 177v256q0 239 250 239h25q85 0 141 -27l49 88l48 -22l-53 -96q65 -59 65 -182v-256q0 -239 -250 -239zM514 230v256q0 60 -16 95l-269 -485q36 -27 111 -27h17q86 0 121.5 37t35.5 124zM195 143l266 481
q-38 23 -104 23h-17q-86 0 -121.5 -37t-35.5 -124v-256q0 -56 12 -87z" />
    <glyph glyph-name="Ugrave" unicode="&#xd9;" horiz-adv-x="703" 
d="M374 -9h-46q-236 0 -236 236v489h97v-482q0 -82 29.5 -123t117.5 -41h31q88 0 117.5 41t29.5 123v482h97v-489q0 -236 -237 -236zM445 777l-230 96l39 68l221 -109z" />
    <glyph glyph-name="Uacute" unicode="&#xda;" horiz-adv-x="703" 
d="M374 -9h-46q-236 0 -236 236v489h97v-482q0 -82 29.5 -123t117.5 -41h31q88 0 117.5 41t29.5 123v482h97v-489q0 -236 -237 -236zM479 873l-230 -96l-30 55l221 109z" />
    <glyph glyph-name="Ucircumflex" unicode="&#xdb;" horiz-adv-x="703" 
d="M374 -9h-46q-236 0 -236 236v489h97v-482q0 -82 29.5 -123t117.5 -41h31q88 0 117.5 41t29.5 123v482h97v-489q0 -236 -237 -236zM495 775l-145 84l-146 -84l-42 49l188 118l187 -118z" />
    <glyph glyph-name="Udieresis" unicode="&#xdc;" horiz-adv-x="703" 
d="M374 -9h-46q-236 0 -236 236v489h97v-482q0 -82 29.5 -123t117.5 -41h31q88 0 117.5 41t29.5 123v482h97v-489q0 -236 -237 -236zM289 816l-101 -22v100h101v-78zM518 816l-101 -22v100h101v-78z" />
    <glyph glyph-name="Yacute" unicode="&#xdd;" horiz-adv-x="626" 
d="M361 0h-96v262l-242 454h110l180 -371l180 371h110l-242 -454v-262zM446 873l-230 -96l-30 55l221 109z" />
    <glyph glyph-name="Thorn" unicode="&#xde;" horiz-adv-x="627" 
d="M201 0h-97v716h97v-132h150q129 0 176.5 -42.5t47.5 -143.5v-11q0 -93 -49 -136.5t-159 -43.5h-166v-207zM201 286h151q78 0 102.5 22t24.5 85q0 65 -23.5 88.5t-103.5 23.5h-151v-219z" />
    <glyph glyph-name="germandbls" unicode="&#xdf;" horiz-adv-x="666" 
d="M601 209v-82q0 -138 -167 -138q-68 0 -136 17l21 75q59 -14 96 -14q47 0 69.5 15t22.5 63v47q0 34 -15.5 55t-52.5 36l-87 35q-48 20 -48 66v10q0 45 41 81l63 54q22 19 29 32t7 35q0 65 -94 65h-40q-73 0 -97 -28t-24 -108v-525h-96v530q0 107 46.5 160t166.5 53h51
q97 0 140.5 -38t43.5 -100q0 -74 -55 -120l-57 -47q-29 -25 -29 -36t8 -17t29 -14l54 -20q110 -41 110 -142z" />
    <glyph glyph-name="agrave" unicode="&#xe0;" horiz-adv-x="576" 
d="M488 0h-73l-13 39q-110 -48 -202 -48q-66 0 -103 35t-37 92v25q0 75 47.5 114.5t139.5 39.5h144v33q-1 50 -19.5 69t-81.5 19q-85 0 -183 -21l-20 76q117 22 222 22q90 0 134.5 -35.5t44.5 -124.5v-335zM391 112v115h-127q-58 0 -82.5 -19.5t-24.5 -62.5v-13
q0 -33 17 -47t56 -14q24 0 64 10.5t68 20.5zM377 584l-230 96l39 68l221 -109z" />
    <glyph glyph-name="aacute" unicode="&#xe1;" horiz-adv-x="576" 
d="M488 0h-73l-13 39q-110 -48 -202 -48q-66 0 -103 35t-37 92v25q0 75 47.5 114.5t139.5 39.5h144v33q-1 50 -19.5 69t-81.5 19q-85 0 -183 -21l-20 76q117 22 222 22q90 0 134.5 -35.5t44.5 -124.5v-335zM391 112v115h-127q-58 0 -82.5 -19.5t-24.5 -62.5v-13
q0 -33 17 -47t56 -14q24 0 64 10.5t68 20.5zM407 680l-230 -96l-30 55l221 109z" />
    <glyph glyph-name="acircumflex" unicode="&#xe2;" horiz-adv-x="576" 
d="M488 0h-73l-13 39q-110 -48 -202 -48q-66 0 -103 35t-37 92v25q0 75 47.5 114.5t139.5 39.5h144v33q-1 50 -19.5 69t-81.5 19q-85 0 -183 -21l-20 76q117 22 222 22q90 0 134.5 -35.5t44.5 -124.5v-335zM391 112v115h-127q-58 0 -82.5 -19.5t-24.5 -62.5v-13
q0 -33 17 -47t56 -14q24 0 64 10.5t68 20.5zM426 582l-145 84l-146 -84l-42 49l188 118l187 -118z" />
    <glyph glyph-name="atilde" unicode="&#xe3;" horiz-adv-x="576" 
d="M488 0h-73l-13 39q-110 -48 -202 -48q-66 0 -103 35t-37 92v25q0 75 47.5 114.5t139.5 39.5h144v33q-1 50 -19.5 69t-81.5 19q-85 0 -183 -21l-20 76q117 22 222 22q90 0 134.5 -35.5t44.5 -124.5v-335zM391 112v115h-127q-58 0 -82.5 -19.5t-24.5 -62.5v-13
q0 -33 17 -47t56 -14q24 0 64 10.5t68 20.5zM425 716l39 -45q-50 -65 -112 -65q-24 0 -71 19t-66 19q-8 0 -15.5 -2t-12.5 -3.5t-13.5 -7.5t-11 -8t-13 -11t-12.5 -11l-40 44q57 69 112 69q28 0 76 -18.5t68 -18.5q30 0 72 39z" />
    <glyph glyph-name="adieresis" unicode="&#xe4;" horiz-adv-x="576" 
d="M488 0h-73l-13 39q-110 -48 -202 -48q-66 0 -103 35t-37 92v25q0 75 47.5 114.5t139.5 39.5h144v33q-1 50 -19.5 69t-81.5 19q-85 0 -183 -21l-20 76q117 22 222 22q90 0 134.5 -35.5t44.5 -124.5v-335zM391 112v115h-127q-58 0 -82.5 -19.5t-24.5 -62.5v-13
q0 -33 17 -47t56 -14q24 0 64 10.5t68 20.5zM219 625l-101 -22v100h101v-78zM448 625l-101 -22v100h101v-78z" />
    <glyph glyph-name="aring" unicode="&#xe5;" horiz-adv-x="576" 
d="M488 0h-73l-13 39q-110 -48 -202 -48q-66 0 -103 35t-37 92v25q0 75 47.5 114.5t139.5 39.5h144v33q-1 50 -19.5 69t-81.5 19q-85 0 -183 -21l-20 76q117 22 222 22q90 0 134.5 -35.5t44.5 -124.5v-335zM391 112v115h-127q-58 0 -82.5 -19.5t-24.5 -62.5v-13
q0 -33 17 -47t56 -14q24 0 64 10.5t68 20.5zM384 671q0 -41 -29.5 -69t-71.5 -28q-41 0 -71 28t-30 69t30 69t71 28q42 0 71.5 -28t29.5 -69zM283 626q18 0 31 13t13 32t-13 31.5t-31 12.5q-17 0 -30 -12.5t-13 -31.5t12.5 -32t30.5 -13z" />
    <glyph glyph-name="ae" unicode="&#xe6;" horiz-adv-x="896" 
d="M800 102l24 -73q-95 -38 -235 -38q-125 0 -165 60q-110 -60 -224 -60q-66 0 -103 35t-37 92v25q0 73 49.5 113.5t132.5 40.5h149v31q-1 50 -19.5 70t-79.5 20q-96 0 -184 -21l-20 76q117 22 223 22q105 0 139 -62q46 62 138 62h42q193 0 193 -193v-81h-335v-52
q0 -56 23 -78t83 -22q105 0 206 33zM391 112v115h-133q-101 0 -101 -79v-14q0 -34 16 -48.5t54 -14.5q25 0 66 10.5t69 20.5zM726 291v30q0 52 -24 75.5t-83 23.5h-21q-58 0 -84 -24t-26 -75v-30h238z" />
    <glyph glyph-name="ccedilla" unicode="&#xe7;" horiz-adv-x="532" 
d="M171 -210l18 57q43 -12 83 -12q68 0 68 34q0 25 -37 25q-34 0 -93 -11l-12 35l36 74q-91 6 -125.5 50.5t-34.5 128.5v143q0 181 187 181q100 0 212 -19l-22 -75q-102 15 -169 15q-70 0 -90.5 -26t-20.5 -94v-116q0 -63 20 -87t94 -24q89 0 169 23l21 -73
q-65 -20 -170 -27l-29 -53q33 5 51 5q37 0 60 -18.5t23 -52.5q0 -31 -14.5 -52t-38.5 -30t-43.5 -12.5t-39.5 -3.5q-50 0 -103 15z" />
    <glyph glyph-name="egrave" unicode="&#xe8;" horiz-adv-x="579" 
d="M483 102l24 -73q-100 -38 -235 -38q-101 0 -149.5 40.5t-48.5 135.5v135q0 193 197 193h42q193 0 193 -193v-81h-335v-52q0 -56 23 -78t83 -22q101 0 206 33zM409 291v30q0 52 -24 75.5t-83 23.5h-21q-58 0 -84 -24t-26 -75v-30h238zM390 584l-230 96l39 68l221 -109z
" />
    <glyph glyph-name="eacute" unicode="&#xe9;" horiz-adv-x="579" 
d="M483 102l24 -73q-100 -38 -235 -38q-101 0 -149.5 40.5t-48.5 135.5v135q0 193 197 193h42q193 0 193 -193v-81h-335v-52q0 -56 23 -78t83 -22q101 0 206 33zM409 291v30q0 52 -24 75.5t-83 23.5h-21q-58 0 -84 -24t-26 -75v-30h238zM424 680l-230 -96l-30 55l221 109z
" />
    <glyph glyph-name="ecircumflex" unicode="&#xea;" horiz-adv-x="579" 
d="M483 102l24 -73q-100 -38 -235 -38q-101 0 -149.5 40.5t-48.5 135.5v135q0 193 197 193h42q193 0 193 -193v-81h-335v-52q0 -56 23 -78t83 -22q101 0 206 33zM409 291v30q0 52 -24 75.5t-83 23.5h-21q-58 0 -84 -24t-26 -75v-30h238zM436 582l-145 84l-146 -84l-42 49
l188 118l187 -118z" />
    <glyph glyph-name="edieresis" unicode="&#xeb;" horiz-adv-x="579" 
d="M483 102l24 -73q-100 -38 -235 -38q-101 0 -149.5 40.5t-48.5 135.5v135q0 193 197 193h42q193 0 193 -193v-81h-335v-52q0 -56 23 -78t83 -22q101 0 206 33zM409 291v30q0 52 -24 75.5t-83 23.5h-21q-58 0 -84 -24t-26 -75v-30h238zM232 625l-101 -22v100h101v-78z
M461 625l-101 -22v100h101v-78z" />
    <glyph glyph-name="igrave" unicode="&#xec;" horiz-adv-x="283" 
d="M240 584l-230 96l39 68l221 -109zM190 0h-97v486h97v-486z" />
    <glyph glyph-name="iacute" unicode="&#xed;" horiz-adv-x="283" 
d="M274 680l-230 -96l-30 55l221 109zM190 0h-97v486h97v-486z" />
    <glyph glyph-name="icircumflex" unicode="&#xee;" horiz-adv-x="283" 
d="M190 0h-97v486h97v-486zM287 582l-145 84l-146 -84l-42 49l188 118l187 -118z" />
    <glyph glyph-name="idieresis" unicode="&#xef;" horiz-adv-x="283" 
d="M78 625l-101 -22v100h101v-78zM307 625l-101 -22v100h101v-78zM190 0h-97v486h97v-486z" />
    <glyph glyph-name="eth" unicode="&#xf0;" horiz-adv-x="612" 
d="M313 -9h-26q-116 0 -164.5 50.5t-48.5 144.5v109q0 97 47 148.5t164 51.5h20q85 0 127 -39v8q0 117 -37 165l-92 -66l-32 40l85 61q-24 24 -94 24q-22 0 -30 -1l-10 58q26 3 50 3q81 0 145 -38l77 57q6 -9 18.5 -24.5t16.5 -21.5l-66 -47q63 -70 63 -201v-286
q0 -94 -48 -145t-165 -51zM429 182v122q0 64 -26.5 90.5t-97.5 26.5h-10q-71 0 -97.5 -26.5t-26.5 -90.5v-122q0 -64 26.5 -90.5t97.5 -26.5h10q71 0 97.5 26.5t26.5 90.5z" />
    <glyph glyph-name="ntilde" unicode="&#xf1;" horiz-adv-x="613" 
d="M525 0h-97v306q0 55 -16 82.5t-66 27.5q-57 0 -156 -39v-377h-97v486h71l15 -39q106 48 188 48q158 0 158 -168v-327zM449 716l39 -45q-50 -65 -112 -65q-24 0 -71 19t-66 19q-8 0 -15.5 -2t-12.5 -3.5t-13.5 -7.5t-11 -8t-13 -11t-12.5 -11l-40 44q57 69 112 69
q28 0 76 -18.5t68 -18.5q30 0 72 39z" />
    <glyph glyph-name="ograve" unicode="&#xf2;" horiz-adv-x="594" 
d="M307 -9h-20q-120 0 -166.5 51.5t-46.5 150.5v100q0 99 46.5 150.5t166.5 51.5h20q120 0 166.5 -51.5t46.5 -150.5v-100q0 -99 -46.5 -150.5t-166.5 -51.5zM423 182v122q0 64 -26.5 90.5t-97.5 26.5h-4q-71 0 -97.5 -26.5t-26.5 -90.5v-122q0 -64 26.5 -90.5t97.5 -26.5h4
q71 0 97.5 26.5t26.5 90.5zM394 584l-230 96l39 68l221 -109z" />
    <glyph glyph-name="oacute" unicode="&#xf3;" horiz-adv-x="594" 
d="M307 -9h-20q-120 0 -166.5 51.5t-46.5 150.5v100q0 99 46.5 150.5t166.5 51.5h20q120 0 166.5 -51.5t46.5 -150.5v-100q0 -99 -46.5 -150.5t-166.5 -51.5zM423 182v122q0 64 -26.5 90.5t-97.5 26.5h-4q-71 0 -97.5 -26.5t-26.5 -90.5v-122q0 -64 26.5 -90.5t97.5 -26.5h4
q71 0 97.5 26.5t26.5 90.5zM430 680l-230 -96l-30 55l221 109z" />
    <glyph glyph-name="ocircumflex" unicode="&#xf4;" horiz-adv-x="594" 
d="M307 -9h-20q-120 0 -166.5 51.5t-46.5 150.5v100q0 99 46.5 150.5t166.5 51.5h20q120 0 166.5 -51.5t46.5 -150.5v-100q0 -99 -46.5 -150.5t-166.5 -51.5zM423 182v122q0 64 -26.5 90.5t-97.5 26.5h-4q-71 0 -97.5 -26.5t-26.5 -90.5v-122q0 -64 26.5 -90.5t97.5 -26.5h4
q71 0 97.5 26.5t26.5 90.5zM442 582l-145 84l-146 -84l-42 49l188 118l187 -118z" />
    <glyph glyph-name="otilde" unicode="&#xf5;" horiz-adv-x="594" 
d="M307 -9h-20q-120 0 -166.5 51.5t-46.5 150.5v100q0 99 46.5 150.5t166.5 51.5h20q120 0 166.5 -51.5t46.5 -150.5v-100q0 -99 -46.5 -150.5t-166.5 -51.5zM423 182v122q0 64 -26.5 90.5t-97.5 26.5h-4q-71 0 -97.5 -26.5t-26.5 -90.5v-122q0 -64 26.5 -90.5t97.5 -26.5h4
q71 0 97.5 26.5t26.5 90.5zM440 716l39 -45q-50 -65 -112 -65q-24 0 -71.5 19t-65.5 19q-8 0 -15.5 -2t-12.5 -3.5t-13.5 -7.5t-11 -8t-13 -11t-12.5 -11l-40 44q57 69 112 69q28 0 76 -18.5t68 -18.5q30 0 72 39z" />
    <glyph glyph-name="odieresis" unicode="&#xf6;" horiz-adv-x="594" 
d="M307 -9h-20q-120 0 -166.5 51.5t-46.5 150.5v100q0 99 46.5 150.5t166.5 51.5h20q120 0 166.5 -51.5t46.5 -150.5v-100q0 -99 -46.5 -150.5t-166.5 -51.5zM423 182v122q0 64 -26.5 90.5t-97.5 26.5h-4q-71 0 -97.5 -26.5t-26.5 -90.5v-122q0 -64 26.5 -90.5t97.5 -26.5h4
q71 0 97.5 26.5t26.5 90.5zM235 625l-101 -22v100h101v-78zM464 625l-101 -22v100h101v-78z" />
    <glyph glyph-name="divide" unicode="&#xf7;" horiz-adv-x="612" 
d="M358 109h-104v103h104v-103zM540 293h-468v84h468v-84zM358 456h-104v103h104v-103z" />
    <glyph glyph-name="oslash" unicode="&#xf8;" horiz-adv-x="594" 
d="M307 -9h-20q-53 0 -92 11l-32 -60l-43 20l30 57q-76 45 -76 174v100q0 99 46.5 150.5t166.5 51.5h20q50 0 91 -11l32 61l43 -20l-31 -58q78 -45 78 -174v-100q0 -99 -46.5 -150.5t-166.5 -51.5zM423 182v122q0 59 -22 85l-169 -317q24 -7 63 -7h4q71 0 97.5 26.5
t26.5 90.5zM192 98l168 316q-28 7 -61 7h-4q-71 0 -97.5 -26.5t-26.5 -90.5v-122q0 -57 21 -84z" />
    <glyph glyph-name="ugrave" unicode="&#xf9;" horiz-adv-x="611" 
d="M518 0h-71l-17 41q-92 -50 -186 -50q-156 0 -156 168v327h97v-306q0 -28 2 -43.5t9.5 -32.5t25.5 -24.5t47 -7.5q61 0 152 40v374h97v-486zM399 584l-230 96l39 68l221 -109z" />
    <glyph glyph-name="uacute" unicode="&#xfa;" horiz-adv-x="611" 
d="M518 0h-71l-17 41q-92 -50 -186 -50q-156 0 -156 168v327h97v-306q0 -28 2 -43.5t9.5 -32.5t25.5 -24.5t47 -7.5q61 0 152 40v374h97v-486zM437 680l-230 -96l-30 55l221 109z" />
    <glyph glyph-name="ucircumflex" unicode="&#xfb;" horiz-adv-x="611" 
d="M518 0h-71l-17 41q-92 -50 -186 -50q-156 0 -156 168v327h97v-306q0 -28 2 -43.5t9.5 -32.5t25.5 -24.5t47 -7.5q61 0 152 40v374h97v-486zM447 586l-145 84l-146 -84l-42 49l188 118l187 -118z" />
    <glyph glyph-name="udieresis" unicode="&#xfc;" horiz-adv-x="611" 
d="M518 0h-71l-17 41q-92 -50 -186 -50q-156 0 -156 168v327h97v-306q0 -28 2 -43.5t9.5 -32.5t25.5 -24.5t47 -7.5q61 0 152 40v374h97v-486zM239 625l-101 -22v100h101v-78zM468 625l-101 -22v100h101v-78z" />
    <glyph glyph-name="yacute" unicode="&#xfd;" horiz-adv-x="539" 
d="M101 -245l-20 73q60 16 89 42t48 75l21 55h-29l-185 486h105l140 -407l140 407h104l-209 -547q-31 -82 -70.5 -122t-133.5 -62zM402 680l-230 -96l-30 55l221 109z" />
    <glyph glyph-name="thorn" unicode="&#xfe;" horiz-adv-x="609" 
d="M190 -227l-97 -21v953l97 21v-277q105 46 182 46q88 0 123.5 -44.5t35.5 -126.5v-169q0 -164 -168 -164q-79 0 -173 30v-248zM434 164v149q0 55 -18 79t-67 24q-50 0 -159 -42v-274q81 -31 150 -31q55 0 74.5 23.5t19.5 71.5z" />
    <glyph glyph-name="ydieresis" unicode="&#xff;" horiz-adv-x="539" 
d="M101 -245l-20 73q60 16 89 42t48 75l21 55h-29l-185 486h105l140 -407l140 407h104l-209 -547q-31 -82 -70.5 -122t-133.5 -62zM211 625l-101 -22v100h101v-78zM440 625l-101 -22v100h101v-78z" />
    <glyph glyph-name="Amacron" unicode="&#x100;" horiz-adv-x="672" 
d="M640 0h-104l-49 150h-302l-49 -150h-104l247 716h114zM465 228l-129 397l-129 -397h258zM511 825h-349v68h349v-68z" />
    <glyph glyph-name="amacron" unicode="&#x101;" horiz-adv-x="576" 
d="M488 0h-73l-13 39q-110 -48 -202 -48q-66 0 -103 35t-37 92v25q0 75 47.5 114.5t139.5 39.5h144v33q-1 50 -19.5 69t-81.5 19q-85 0 -183 -21l-20 76q117 22 222 22q90 0 134.5 -35.5t44.5 -124.5v-335zM391 112v115h-127q-58 0 -82.5 -19.5t-24.5 -62.5v-13
q0 -33 17 -47t56 -14q24 0 64 10.5t68 20.5zM451 628h-349v68h349v-68z" />
    <glyph glyph-name="Abreve" unicode="&#x102;" horiz-adv-x="672" 
d="M640 0h-104l-49 150h-302l-49 -150h-104l247 716h114zM465 228l-129 397l-129 -397h258zM472 930l42 -39q-68 -100 -178 -100t-178 100l42 39q69 -67 136 -67t136 67z" />
    <glyph glyph-name="abreve" unicode="&#x103;" horiz-adv-x="576" 
d="M488 0h-73l-13 39q-110 -48 -202 -48q-66 0 -103 35t-37 92v25q0 75 47.5 114.5t139.5 39.5h144v33q-1 50 -19.5 69t-81.5 19q-85 0 -183 -21l-20 76q117 22 222 22q90 0 134.5 -35.5t44.5 -124.5v-335zM391 112v115h-127q-58 0 -82.5 -19.5t-24.5 -62.5v-13
q0 -33 17 -47t56 -14q24 0 64 10.5t68 20.5zM412 721l42 -39q-68 -100 -178 -100t-178 100l42 39q69 -67 136 -67t136 67z" />
    <glyph glyph-name="Aogonek" unicode="&#x104;" horiz-adv-x="672" 
d="M645 -159l12 -55q-47 -11 -89 -11q-16 0 -31.5 2.5t-36 10.5t-33 26.5t-12.5 46.5t24 67.5t57 71.5l-49 150h-302l-49 -150h-104l247 716h114l247 -716h-29q-34 -37 -55.5 -73t-21.5 -54q0 -22 13 -30t41 -8q33 0 57 6zM465 228l-129 397l-129 -397h258z" />
    <glyph glyph-name="aogonek" unicode="&#x105;" horiz-adv-x="576" 
d="M511 -159l12 -55q-47 -11 -89 -11q-16 0 -31.5 2.5t-36 10.5t-33 26.5t-12.5 46.5q0 30 27.5 72.5t62.5 76.5l-9 29q-110 -48 -202 -48q-66 0 -103 35t-37 92v25q0 75 47.5 114.5t139.5 39.5h144v33q-1 50 -19.5 69t-81.5 19q-85 0 -183 -21l-20 76q117 22 222 22
q90 0 134.5 -35.5t44.5 -124.5v-335h-11q-34 -37 -55.5 -73t-21.5 -54q0 -22 13 -30t41 -8q33 0 57 6zM391 112v115h-127q-58 0 -82.5 -19.5t-24.5 -62.5v-13q0 -33 17 -47t56 -14q24 0 64 10.5t68 20.5z" />
    <glyph glyph-name="Cacute" unicode="&#x106;" horiz-adv-x="608" 
d="M530 101l26 -75q-115 -35 -245 -35q-122 0 -172 47t-50 166v292q0 124 49.5 176.5t174.5 52.5q117 0 237 -24l-19 -78q-135 22 -205 22q-48 0 -76.5 -9.5t-42 -33t-17.5 -50.5t-4 -76v-266q0 -83 26 -111t112 -28q103 0 206 30zM454 873l-230 -96l-30 55l221 109z" />
    <glyph glyph-name="cacute" unicode="&#x107;" horiz-adv-x="532" 
d="M454 92l21 -73q-93 -28 -208 -28q-110 0 -151.5 44.5t-41.5 135.5v143q0 181 187 181q100 0 212 -19l-22 -75q-102 15 -169 15q-70 0 -90.5 -26t-20.5 -94v-116q0 -63 20 -87t94 -24q89 0 169 23zM413 680l-230 -96l-30 55l221 109z" />
    <glyph glyph-name="Ccircumflex" unicode="&#x108;" horiz-adv-x="608" 
d="M530 101l26 -75q-115 -35 -245 -35q-122 0 -172 47t-50 166v292q0 124 49.5 176.5t174.5 52.5q117 0 237 -24l-19 -78q-135 22 -205 22q-48 0 -76.5 -9.5t-42 -33t-17.5 -50.5t-4 -76v-266q0 -83 26 -111t112 -28q103 0 206 30zM471 775l-145 84l-146 -84l-42 49l188 118
l187 -118z" />
    <glyph glyph-name="ccircumflex" unicode="&#x109;" horiz-adv-x="532" 
d="M454 92l21 -73q-93 -28 -208 -28q-110 0 -151.5 44.5t-41.5 135.5v143q0 181 187 181q100 0 212 -19l-22 -75q-102 15 -169 15q-70 0 -90.5 -26t-20.5 -94v-116q0 -63 20 -87t94 -24q89 0 169 23zM425 582l-145 84l-146 -84l-42 49l188 118l187 -118z" />
    <glyph glyph-name="Cdotaccent" unicode="&#x10a;" horiz-adv-x="608" 
d="M530 101l26 -75q-115 -35 -245 -35q-122 0 -172 47t-50 166v292q0 124 49.5 176.5t174.5 52.5q117 0 237 -24l-19 -78q-135 22 -205 22q-48 0 -76.5 -9.5t-42 -33t-17.5 -50.5t-4 -76v-266q0 -83 26 -111t112 -28q103 0 206 30zM379 805l-111 -23v102h111v-79z" />
    <glyph glyph-name="cdotaccent" unicode="&#x10b;" horiz-adv-x="532" 
d="M454 92l21 -73q-93 -28 -208 -28q-110 0 -151.5 44.5t-41.5 135.5v143q0 181 187 181q100 0 212 -19l-22 -75q-102 15 -169 15q-70 0 -90.5 -26t-20.5 -94v-116q0 -63 20 -87t94 -24q89 0 169 23zM325 643l-105 -23v98h105v-75z" />
    <glyph glyph-name="Ccaron" unicode="&#x10c;" horiz-adv-x="608" 
d="M530 101l26 -75q-115 -35 -245 -35q-122 0 -172 47t-50 166v292q0 124 49.5 176.5t174.5 52.5q117 0 237 -24l-19 -78q-135 22 -205 22q-48 0 -76.5 -9.5t-42 -33t-17.5 -50.5t-4 -76v-266q0 -83 26 -111t112 -28q103 0 206 30zM513 893l-187 -118l-188 118l42 49
l146 -84l145 84z" />
    <glyph glyph-name="ccaron" unicode="&#x10d;" horiz-adv-x="532" 
d="M454 92l21 -73q-93 -28 -208 -28q-110 0 -151.5 44.5t-41.5 135.5v143q0 181 187 181q100 0 212 -19l-22 -75q-102 15 -169 15q-70 0 -90.5 -26t-20.5 -94v-116q0 -63 20 -87t94 -24q89 0 169 23zM467 700l-187 -118l-188 118l42 49l146 -84l145 84z" />
    <glyph glyph-name="Dcaron" unicode="&#x10e;" horiz-adv-x="692" 
d="M365 0h-261v716h249q138 0 196 -51.5t58 -184.5v-246q0 -61 -10 -101.5t-36.5 -72t-74.5 -46t-121 -14.5zM510 216v253q0 47 -3.5 72.5t-18 50t-45 34.5t-82.5 10h-160v-557h155q94 0 124 29.5t30 107.5zM521 893l-187 -118l-188 118l42 49l146 -84l145 84z" />
    <glyph glyph-name="dcaron" unicode="&#x10f;" horiz-adv-x="598" 
d="M408 472v229l97 22v-701q-35 -11 -103 -21t-134 -10q-95 0 -143 41t-48 133v148q0 86 36.5 134t132.5 48q42 0 162 -23zM408 82v313q-80 21 -142 21q-56 0 -74 -26.5t-18 -82.5v-140q0 -56 23 -77.5t89 -21.5q64 0 122 14zM625 535h-71l47 195h88z" />
    <glyph glyph-name="Dcroat" unicode="&#x110;" horiz-adv-x="692" 
d="M365 0h-261v334h-66v75h66v307h249q138 0 196 -51.5t58 -184.5v-246q0 -61 -10 -101.5t-36.5 -72t-74.5 -46t-121 -14.5zM510 216v253q0 47 -3.5 72.5t-18 50t-45 34.5t-82.5 10h-160v-227h142v-75h-142v-255h155q94 0 124 29.5t30 107.5z" />
    <glyph glyph-name="dcroat" unicode="&#x111;" horiz-adv-x="598" 
d="M599 563h-94v-541q-35 -11 -103 -21t-134 -10q-95 0 -143 41t-48 133v148q0 86 36.5 134t132.5 48q42 0 162 -23v91h-158v70h158v68l97 22v-90h94v-70zM408 82v313q-80 21 -142 21q-56 0 -74 -26.5t-18 -82.5v-140q0 -56 23 -77.5t89 -21.5q64 0 122 14z" />
    <glyph glyph-name="Emacron" unicode="&#x112;" horiz-adv-x="613" 
d="M540 0h-436v716h434l-12 -81h-325v-218h312l-12 -81h-300v-255h339v-81zM494 825h-349v68h349v-68z" />
    <glyph glyph-name="emacron" unicode="&#x113;" horiz-adv-x="579" 
d="M483 102l24 -73q-100 -38 -235 -38q-101 0 -149.5 40.5t-48.5 135.5v135q0 193 197 193h42q193 0 193 -193v-81h-335v-52q0 -56 23 -78t83 -22q101 0 206 33zM409 291v30q0 52 -24 75.5t-83 23.5h-21q-58 0 -84 -24t-26 -75v-30h238zM465 628h-349v68h349v-68z" />
    <glyph glyph-name="Edotaccent" unicode="&#x116;" horiz-adv-x="613" 
d="M540 0h-436v716h434l-12 -81h-325v-218h312l-12 -81h-300v-255h339v-81zM373 805l-111 -23v102h111v-79z" />
    <glyph glyph-name="edotaccent" unicode="&#x117;" horiz-adv-x="579" 
d="M483 102l24 -73q-100 -38 -235 -38q-101 0 -149.5 40.5t-48.5 135.5v135q0 193 197 193h42q193 0 193 -193v-81h-335v-52q0 -56 23 -78t83 -22q101 0 206 33zM409 291v30q0 52 -24 75.5t-83 23.5h-21q-58 0 -84 -24t-26 -75v-30h238zM345 643l-105 -23v98h105v-75z" />
    <glyph glyph-name="Eogonek" unicode="&#x118;" horiz-adv-x="613" 
d="M563 -159l12 -55q-47 -11 -89 -11q-16 0 -31.5 2.5t-36 10.5t-33 26.5t-12.5 46.5q0 27 23.5 66t56.5 73h-349v716h434l-12 -81h-325v-218h312l-12 -81h-300v-255h339v-81h-11q-34 -37 -55.5 -73t-21.5 -54q0 -22 13 -30t41 -8q33 0 57 6z" />
    <glyph glyph-name="eogonek" unicode="&#x119;" horiz-adv-x="579" 
d="M467 -159l12 -55q-47 -11 -89 -11q-16 0 -31.5 2.5t-36 10.5t-33 26.5t-12.5 46.5q0 54 76 134q-52 -4 -81 -4q-101 0 -149.5 40.5t-48.5 135.5v135q0 193 197 193h42q193 0 193 -193v-81h-335v-52q0 -56 23 -78t83 -22q101 0 206 33l24 -73q-31 -12 -64 -19
q-38 -38 -62.5 -78t-24.5 -59q0 -22 13 -30t41 -8q33 0 57 6zM409 291v30q0 52 -24 75.5t-83 23.5h-21q-58 0 -84 -24t-26 -75v-30h238z" />
    <glyph glyph-name="Ecaron" unicode="&#x11a;" horiz-adv-x="613" 
d="M540 0h-436v716h434l-12 -81h-325v-218h312l-12 -81h-300v-255h339v-81zM507 893l-187 -118l-188 118l42 49l146 -84l145 84z" />
    <glyph glyph-name="ecaron" unicode="&#x11b;" horiz-adv-x="579" 
d="M483 102l24 -73q-100 -38 -235 -38q-101 0 -149.5 40.5t-48.5 135.5v135q0 193 197 193h42q193 0 193 -193v-81h-335v-52q0 -56 23 -78t83 -22q101 0 206 33zM409 291v30q0 52 -24 75.5t-83 23.5h-21q-58 0 -84 -24t-26 -75v-30h238zM477 700l-187 -118l-188 118l42 49
l146 -84l145 84z" />
    <glyph glyph-name="Gcircumflex" unicode="&#x11c;" horiz-adv-x="682" 
d="M501 103v219h-156v80h252v-350q-134 -61 -305 -61q-203 0 -203 194v305q0 123 52.5 179t177.5 56q121 0 258 -25l-19 -77q-128 22 -223 22q-50 0 -80 -9t-45 -32t-19.5 -50.5t-4.5 -75.5v-285q0 -75 29.5 -98.5t110.5 -23.5q34 0 86.5 9t88.5 23zM491 775l-145 84
l-146 -84l-42 49l188 118l187 -118z" />
    <glyph glyph-name="gcircumflex" unicode="&#x11d;" horiz-adv-x="604" 
d="M299 -248h-48q-104 0 -155.5 37t-51.5 102v5q1 39 23 73t58 43q-21 5 -33 20.5t-12 34.5q0 47 72 114q-40 15 -61.5 54t-21.5 88q0 83 51.5 127.5t152.5 44.5h22q55 0 100 -18l159 11v-72h-88q34 -39 34 -91q0 -163 -206 -163h-19q-32 0 -58 4q-47 -50 -47 -71
q0 -16 11 -21t38 -5h145q185 0 185 -149q0 -168 -250 -168zM261 -177h52q72 0 108 22t36 72q0 46 -25 63t-83 17h-127q-45 0 -65.5 -26t-20.5 -62v-7q0 -79 125 -79zM268 231h32q58 0 83 24t25 73q0 98 -108 98h-32q-107 0 -107 -98q0 -49 25 -73t82 -24zM437 582l-145 84
l-146 -84l-42 49l188 118l187 -118z" />
    <glyph glyph-name="Gbreve" unicode="&#x11e;" horiz-adv-x="682" 
d="M501 103v219h-156v80h252v-350q-134 -61 -305 -61q-203 0 -203 194v305q0 123 52.5 179t177.5 56q121 0 258 -25l-19 -77q-128 22 -223 22q-50 0 -80 -9t-45 -32t-19.5 -50.5t-4.5 -75.5v-285q0 -75 29.5 -98.5t110.5 -23.5q34 0 86.5 9t88.5 23zM481 930l42 -39
q-68 -100 -178 -100t-178 100l42 39q69 -67 136 -67t136 67z" />
    <glyph glyph-name="gbreve" unicode="&#x11f;" horiz-adv-x="604" 
d="M299 -248h-48q-104 0 -155.5 37t-51.5 102v5q1 39 23 73t58 43q-21 5 -33 20.5t-12 34.5q0 47 72 114q-40 15 -61.5 54t-21.5 88q0 83 51.5 127.5t152.5 44.5h22q55 0 100 -18l159 11v-72h-88q34 -39 34 -91q0 -163 -206 -163h-19q-32 0 -58 4q-47 -50 -47 -71
q0 -16 11 -21t38 -5h145q185 0 185 -149q0 -168 -250 -168zM261 -177h52q72 0 108 22t36 72q0 46 -25 63t-83 17h-127q-45 0 -65.5 -26t-20.5 -62v-7q0 -79 125 -79zM268 231h32q58 0 83 24t25 73q0 98 -108 98h-32q-107 0 -107 -98q0 -49 25 -73t82 -24zM429 721l42 -39
q-68 -100 -178 -100t-178 100l42 39q69 -67 136 -67t136 67z" />
    <glyph glyph-name="Gdotaccent" unicode="&#x120;" horiz-adv-x="682" 
d="M501 103v219h-156v80h252v-350q-134 -61 -305 -61q-203 0 -203 194v305q0 123 52.5 179t177.5 56q121 0 258 -25l-19 -77q-128 22 -223 22q-50 0 -80 -9t-45 -32t-19.5 -50.5t-4.5 -75.5v-285q0 -75 29.5 -98.5t110.5 -23.5q34 0 86.5 9t88.5 23zM400 805l-111 -23v102
h111v-79z" />
    <glyph glyph-name="gdotaccent" unicode="&#x121;" horiz-adv-x="604" 
d="M299 -248h-48q-104 0 -155.5 37t-51.5 102v5q1 39 23 73t58 43q-21 5 -33 20.5t-12 34.5q0 47 72 114q-40 15 -61.5 54t-21.5 88q0 83 51.5 127.5t152.5 44.5h22q55 0 100 -18l159 11v-72h-88q34 -39 34 -91q0 -163 -206 -163h-19q-32 0 -58 4q-47 -50 -47 -71
q0 -16 11 -21t38 -5h145q185 0 185 -149q0 -168 -250 -168zM261 -177h52q72 0 108 22t36 72q0 46 -25 63t-83 17h-127q-45 0 -65.5 -26t-20.5 -62v-7q0 -79 125 -79zM268 231h32q58 0 83 24t25 73q0 98 -108 98h-32q-107 0 -107 -98q0 -49 25 -73t82 -24zM345 643l-105 -23
v98h105v-75z" />
    <glyph glyph-name="Gcommaaccent" unicode="&#x122;" horiz-adv-x="682" 
d="M501 103v219h-156v80h252v-350q-134 -61 -305 -61q-203 0 -203 194v305q0 123 52.5 179t177.5 56q121 0 258 -25l-19 -77q-128 22 -223 22q-50 0 -80 -9t-45 -32t-19.5 -50.5t-4.5 -75.5v-285q0 -75 29.5 -98.5t110.5 -23.5q34 0 86.5 9t88.5 23zM344 -243h-78l40 198h97
z" />
    <glyph glyph-name="gcommaaccent" unicode="&#x123;" horiz-adv-x="604" 
d="M299 -248h-48q-104 0 -155.5 37t-51.5 102v5q1 39 23 73t58 43q-21 5 -33 20.5t-12 34.5q0 47 72 114q-40 15 -61.5 54t-21.5 88q0 83 51.5 127.5t152.5 44.5h22q55 0 100 -18l159 11v-72h-88q34 -39 34 -91q0 -163 -206 -163h-19q-32 0 -58 4q-47 -50 -47 -71
q0 -16 11 -21t38 -5h145q185 0 185 -149q0 -168 -250 -168zM261 -177h52q72 0 108 22t36 72q0 46 -25 63t-83 17h-127q-45 0 -65.5 -26t-20.5 -62v-7q0 -79 125 -79zM268 231h32q58 0 83 24t25 73q0 98 -108 98h-32q-107 0 -107 -98q0 -49 25 -73t82 -24zM306 765h71
l-47 -195h-88z" />
    <glyph glyph-name="Hcircumflex" unicode="&#x124;" horiz-adv-x="707" 
d="M603 0h-97v330h-305v-330h-97v716h97v-306h305v306h97v-716zM499 775l-145 84l-146 -84l-42 49l188 118l187 -118z" />
    <glyph glyph-name="hcircumflex" unicode="&#x125;" horiz-adv-x="612" 
d="M525 0h-97v323q0 49 -17.5 71t-66.5 22q-62 0 -154 -39v-377h-97v705l97 21v-273q100 42 176 42q78 0 118.5 -39.5t40.5 -130.5v-325zM294 732l-145 84l-146 -84l-42 49l188 118l187 -118z" />
    <glyph glyph-name="Hbar" unicode="&#x126;" horiz-adv-x="707" 
d="M603 0h-97v330h-305v-330h-97v508h-83v76h83v132h97v-132h305v132h97v-132h83v-76h-83v-508zM201 410h305v98h-305v-98z" />
    <glyph glyph-name="hbar" unicode="&#x127;" horiz-adv-x="612" 
d="M349 563h-159v-110q100 42 176 42q78 0 118.5 -39.5t40.5 -130.5v-325h-97v323q0 49 -17.5 71t-66.5 22q-62 0 -154 -39v-377h-97v563h-93v70h93v72l97 21v-93h159v-70z" />
    <glyph glyph-name="Imacron" unicode="&#x12a;" horiz-adv-x="305" 
d="M201 0h-97v716h97v-716zM327 825h-349v68h349v-68z" />
    <glyph glyph-name="imacron" unicode="&#x12b;" horiz-adv-x="283" 
d="M190 0h-97v486h97v-486zM316 628h-349v68h349v-68z" />
    <glyph glyph-name="Iogonek" unicode="&#x12e;" horiz-adv-x="305" 
d="M213 -159l12 -55q-47 -11 -89 -11q-16 0 -31.5 2.5t-36 10.5t-33 26.5t-12.5 46.5t24 67.5t57 71.5v716h97v-716h-22q-34 -37 -55.5 -73t-21.5 -54q0 -22 13 -30t41 -8q33 0 57 6z" />
    <glyph glyph-name="iogonek" unicode="&#x12f;" horiz-adv-x="283" 
d="M202 -159l12 -55q-47 -11 -89 -11q-16 0 -31.5 2.5t-36 10.5t-33 26.5t-12.5 46.5t24 67.5t57 71.5v486h97v-486h-22q-34 -37 -55.5 -73t-21.5 -54q0 -22 13 -30t41 -8q33 0 57 6zM194 643l-105 -23v98h105v-75z" />
    <glyph glyph-name="Idotaccent" unicode="&#x130;" horiz-adv-x="305" 
d="M201 0h-97v716h97v-716zM208 805l-111 -23v102h111v-79z" />
    <glyph glyph-name="dotlessi" unicode="&#x131;" horiz-adv-x="283" 
d="M190 0h-97v486h97v-486z" />
    <glyph glyph-name="Jcircumflex" unicode="&#x134;" horiz-adv-x="305" 
d="M24 -162l-27 69q63 22 85 53t22 97v659h97v-630q0 -30 -1.5 -50t-6.5 -48.5t-16.5 -49t-30.5 -41.5t-50 -36t-72 -23zM296 775l-145 84l-146 -84l-42 49l188 118l187 -118z" />
    <glyph glyph-name="jcircumflex" unicode="&#x135;" horiz-adv-x="283" 
d="M23 -245l-20 74q56 15 73 45.5t17 104.5v507h97v-496q0 -111 -34 -161.5t-133 -73.5zM286 582l-145 84l-146 -84l-42 49l188 118l187 -118z" />
    <glyph glyph-name="Kcommaaccent" unicode="&#x136;" horiz-adv-x="667" 
d="M645 0h-110l-197 359l-137 -165v-194h-97v716h97v-397l323 397h111l-236 -287zM354 -243h-78l40 198h97z" />
    <glyph glyph-name="kcommaaccent" unicode="&#x137;" horiz-adv-x="568" 
d="M544 0h-110l-157 242l-87 -87v-155h-97v705l97 21v-464l220 224h118l-189 -186zM292 -243h-78l40 198h97z" />
    <glyph glyph-name="Lacute" unicode="&#x139;" horiz-adv-x="584" 
d="M541 0h-437v716h97v-635h340v-81zM321 873l-230 -96l-30 55l221 109z" />
    <glyph glyph-name="lacute" unicode="&#x13a;" horiz-adv-x="328" 
d="M279 78l13 -71q-60 -16 -101 -16q-51 0 -75.5 26t-24.5 69v619l97 21v-607q0 -28 8 -38.5t36 -10.5q13 0 47 8zM307 910l-230 -96l-30 55l221 109z" />
    <glyph glyph-name="Lcommaaccent" unicode="&#x13b;" horiz-adv-x="584" 
d="M541 0h-437v716h97v-635h340v-81zM332 -243h-78l40 198h97z" />
    <glyph glyph-name="lcommaaccent" unicode="&#x13c;" horiz-adv-x="328" 
d="M279 78l13 -71q-60 -16 -101 -16q-51 0 -75.5 26t-24.5 69v619l97 21v-607q0 -28 8 -38.5t36 -10.5q13 0 47 8zM187 -243h-78l40 198h97z" />
    <glyph glyph-name="Lcaron" unicode="&#x13d;" horiz-adv-x="584" 
d="M541 0h-437v716h97v-635h340v-81zM348 528h-71l47 195h88z" />
    <glyph glyph-name="lcaron" unicode="&#x13e;" horiz-adv-x="328" 
d="M279 78l13 -71q-60 -16 -101 -16q-51 0 -75.5 26t-24.5 69v619l97 21v-607q0 -28 8 -38.5t36 -10.5q13 0 47 8zM313 528h-71l47 195h88z" />
    <glyph glyph-name="Lslash" unicode="&#x141;" horiz-adv-x="584" 
d="M541 0h-437v355l-73 -53l-31 42l104 74v298h97v-233l105 76l31 -41l-136 -97v-340h340v-81z" />
    <glyph glyph-name="lslash" unicode="&#x142;" horiz-adv-x="328" 
d="M279 78l13 -71q-60 -16 -101 -16q-51 0 -75.5 26t-24.5 69v269l-55 -38l-30 40l85 60v288l97 21v-241l91 64l30 -40l-121 -85v-305q0 -28 8 -38.5t36 -10.5q13 0 47 8z" />
    <glyph glyph-name="Nacute" unicode="&#x143;" horiz-adv-x="731" 
d="M627 0h-102l-328 565v-565h-93v716h97l333 -565v565h93v-716zM500 873l-230 -96l-30 55l221 109z" />
    <glyph glyph-name="nacute" unicode="&#x144;" horiz-adv-x="613" 
d="M525 0h-97v306q0 55 -16 82.5t-66 27.5q-57 0 -156 -39v-377h-97v486h71l15 -39q106 48 188 48q158 0 158 -168v-327zM439 680l-230 -96l-30 55l221 109z" />
    <glyph glyph-name="Ncommaaccent" unicode="&#x145;" horiz-adv-x="731" 
d="M627 0h-102l-328 565v-565h-93v716h97l333 -565v565h93v-716zM375 -243h-78l40 198h97z" />
    <glyph glyph-name="ncommaaccent" unicode="&#x146;" horiz-adv-x="613" 
d="M525 0h-97v306q0 55 -16 82.5t-66 27.5q-57 0 -156 -39v-377h-97v486h71l15 -39q106 48 188 48q158 0 158 -168v-327zM309 -243h-78l40 198h97z" />
    <glyph glyph-name="Ncaron" unicode="&#x147;" horiz-adv-x="731" 
d="M627 0h-102l-328 565v-565h-93v716h97l333 -565v565h93v-716zM554 893l-187 -118l-188 118l42 49l146 -84l145 84z" />
    <glyph glyph-name="ncaron" unicode="&#x148;" horiz-adv-x="613" 
d="M525 0h-97v306q0 55 -16 82.5t-66 27.5q-57 0 -156 -39v-377h-97v486h71l15 -39q106 48 188 48q158 0 158 -168v-327zM495 700l-187 -118l-188 118l42 49l146 -84l145 84z" />
    <glyph glyph-name="Omacron" unicode="&#x14c;" horiz-adv-x="697" 
d="M361 -9h-25q-250 0 -250 239v256q0 239 250 239h25q250 0 250 -239v-256q0 -239 -250 -239zM514 230v256q0 87 -35.5 124t-121.5 37h-17q-86 0 -121.5 -37t-35.5 -124v-256q0 -87 35.5 -124t121.5 -37h17q86 0 121.5 37t35.5 124zM523 825h-349v68h349v-68z" />
    <glyph glyph-name="omacron" unicode="&#x14d;" horiz-adv-x="594" 
d="M307 -9h-20q-120 0 -166.5 51.5t-46.5 150.5v100q0 99 46.5 150.5t166.5 51.5h20q120 0 166.5 -51.5t46.5 -150.5v-100q0 -99 -46.5 -150.5t-166.5 -51.5zM423 182v122q0 64 -26.5 90.5t-97.5 26.5h-4q-71 0 -97.5 -26.5t-26.5 -90.5v-122q0 -64 26.5 -90.5t97.5 -26.5h4
q71 0 97.5 26.5t26.5 90.5zM472 628h-349v68h349v-68z" />
    <glyph glyph-name="Ohungarumlaut" unicode="&#x150;" horiz-adv-x="697" 
d="M361 -9h-25q-250 0 -250 239v256q0 239 250 239h25q250 0 250 -239v-256q0 -239 -250 -239zM514 230v256q0 87 -35.5 124t-121.5 37h-17q-86 0 -121.5 -37t-35.5 -124v-256q0 -87 35.5 -124t121.5 -37h17q86 0 121.5 37t35.5 124zM358 871l-216 -94l-31 45l209 111z
M586 871l-216 -94l-31 45l209 111z" />
    <glyph glyph-name="ohungarumlaut" unicode="&#x151;" horiz-adv-x="594" 
d="M307 -9h-20q-120 0 -166.5 51.5t-46.5 150.5v100q0 99 46.5 150.5t166.5 51.5h20q120 0 166.5 -51.5t46.5 -150.5v-100q0 -99 -46.5 -150.5t-166.5 -51.5zM423 182v122q0 64 -26.5 90.5t-97.5 26.5h-4q-71 0 -97.5 -26.5t-26.5 -90.5v-122q0 -64 26.5 -90.5t97.5 -26.5h4
q71 0 97.5 26.5t26.5 90.5zM307 678l-216 -94l-31 45l209 111zM535 678l-216 -94l-31 45l209 111z" />
    <glyph glyph-name="OE" unicode="&#x152;" horiz-adv-x="1023" 
d="M950 0h-436v35q-46 -44 -153 -44h-25q-127 0 -188.5 58.5t-61.5 177.5v259q0 239 250 239h25q102 0 153 -41v32h434l-12 -81h-325v-218h312l-12 -81h-300v-255h339v-81zM514 223v271q0 82 -36.5 117.5t-122.5 35.5h-14q-87 0 -122.5 -36.5t-35.5 -123.5v-257
q0 -86 36 -123.5t121 -37.5h15q85 0 122 36t37 118z" />
    <glyph glyph-name="oe" unicode="&#x153;" horiz-adv-x="928" 
d="M832 102l24 -73q-36 -14 -102 -26t-134 -12q-119 0 -154 74q-41 -74 -158 -74h-22q-120 0 -166 53t-46 154v90q0 102 46 154.5t166 52.5h22q120 0 162 -76q39 76 148 76h43q194 0 194 -193v-81h-335v-52q0 -55 21.5 -77.5t81.5 -22.5q102 0 209 33zM423 187v110
q0 67 -26 95.5t-97 28.5h-6q-71 0 -97 -28t-26 -96v-110q0 -67 26 -94.5t97 -27.5h6q70 0 96.5 28.5t26.5 93.5zM758 291v32q0 52 -25 74.5t-85 22.5h-19q-57 0 -83 -23t-26 -74v-32h238z" />
    <glyph glyph-name="Racute" unicode="&#x154;" horiz-adv-x="659" 
d="M606 0h-108l-144 310h-154v-310h-97v716h253q112 0 168.5 -39.5t56.5 -152.5v-30q0 -147 -131 -177zM484 491v43q0 55 -29 78.5t-99 23.5h-156v-249h173q59 0 85 24.5t26 79.5zM471 873l-230 -96l-30 55l221 109z" />
    <glyph glyph-name="racute" unicode="&#x155;" horiz-adv-x="409" 
d="M190 0h-97v486h70l16 -46q55 55 135 55q40 0 68 -11l-22 -77q-28 9 -63 9q-62 0 -107 -45v-371zM361 680l-230 -96l-30 55l221 109z" />
    <glyph glyph-name="Rcommaaccent" unicode="&#x156;" horiz-adv-x="659" 
d="M606 0h-108l-144 310h-154v-310h-97v716h253q112 0 168.5 -39.5t56.5 -152.5v-30q0 -147 -131 -177zM484 491v43q0 55 -29 78.5t-99 23.5h-156v-249h173q59 0 85 24.5t26 79.5zM337 -243h-78l40 198h97z" />
    <glyph glyph-name="rcommaaccent" unicode="&#x157;" horiz-adv-x="409" 
d="M190 0h-97v486h70l16 -46q55 55 135 55q40 0 68 -11l-22 -77q-28 9 -63 9q-62 0 -107 -45v-371zM151 -243h-78l40 198h97z" />
    <glyph glyph-name="Rcaron" unicode="&#x158;" horiz-adv-x="659" 
d="M606 0h-108l-144 310h-154v-310h-97v716h253q112 0 168.5 -39.5t56.5 -152.5v-30q0 -147 -131 -177zM484 491v43q0 55 -29 78.5t-99 23.5h-156v-249h173q59 0 85 24.5t26 79.5zM510 893l-187 -118l-188 118l42 49l146 -84l145 84z" />
    <glyph glyph-name="rcaron" unicode="&#x159;" horiz-adv-x="409" 
d="M190 0h-97v486h70l16 -46q55 55 135 55q40 0 68 -11l-22 -77q-28 9 -63 9q-62 0 -107 -45v-371zM390 700l-187 -118l-188 118l42 49l146 -84l145 84z" />
    <glyph glyph-name="Sacute" unicode="&#x15a;" horiz-adv-x="631" 
d="M561 234v-46q0 -93 -63 -145t-188 -52q-123 0 -235 27l26 80q94 -26 206 -26q83 0 120 29t37 92v24q0 66 -27 90.5t-92 24.5h-110q-165 0 -165 172v37q1 89 50 136.5t142 47.5h23q119 0 267 -22l-27 -78q-126 17 -223 19h-26q-60 0 -84.5 -26.5t-24.5 -79.5v-28
q0 -49 18 -72t71 -23h113q93 0 142.5 -42.5t49.5 -138.5zM465 873l-230 -96l-30 55l221 109z" />
    <glyph glyph-name="sacute" unicode="&#x15b;" horiz-adv-x="541" 
d="M479 154v-22q0 -60 -48 -100.5t-150 -40.5q-96 0 -212 28l26 74q102 -24 179 -24q58 0 84 17.5t26 60.5q0 38 -21.5 52t-67.5 14h-79q-64 0 -106.5 31t-42.5 98v6q3 147 166 147q112 0 232 -19l-24 -76q-105 17 -197 17q-45 0 -63 -15.5t-18 -50.5q0 -34 16 -48t61 -14
h72q167 0 167 -135zM407 680l-230 -96l-30 55l221 109z" />
    <glyph glyph-name="Scircumflex" unicode="&#x15c;" horiz-adv-x="631" 
d="M561 234v-46q0 -93 -63 -145t-188 -52q-123 0 -235 27l26 80q94 -26 206 -26q83 0 120 29t37 92v24q0 66 -27 90.5t-92 24.5h-110q-165 0 -165 172v37q1 89 50 136.5t142 47.5h23q119 0 267 -22l-27 -78q-126 17 -223 19h-26q-60 0 -84.5 -26.5t-24.5 -79.5v-28
q0 -49 18 -72t71 -23h113q93 0 142.5 -42.5t49.5 -138.5zM468 775l-145 84l-146 -84l-42 49l188 118l187 -118z" />
    <glyph glyph-name="scircumflex" unicode="&#x15d;" horiz-adv-x="541" 
d="M479 154v-22q0 -60 -48 -100.5t-150 -40.5q-96 0 -212 28l26 74q102 -24 179 -24q58 0 84 17.5t26 60.5q0 38 -21.5 52t-67.5 14h-79q-64 0 -106.5 31t-42.5 98v6q3 147 166 147q112 0 232 -19l-24 -76q-105 17 -197 17q-45 0 -63 -15.5t-18 -50.5q0 -34 16 -48t61 -14
h72q167 0 167 -135zM422 582l-145 84l-146 -84l-42 49l188 118l187 -118z" />
    <glyph glyph-name="Scedilla" unicode="&#x15e;" horiz-adv-x="631" 
d="M194 -210l18 57q46 -12 84 -12q67 0 67 34q0 25 -37 25q-31 0 -93 -11l-11 35l35 75q-97 4 -182 25l26 80q94 -26 206 -26q83 0 120 29t37 92v24q0 66 -27 90.5t-92 24.5h-110q-165 0 -165 172v37q1 89 50 136.5t142 47.5h23q119 0 267 -22l-27 -78q-126 17 -223 19h-26
q-60 0 -84.5 -26.5t-24.5 -79.5v-28q0 -49 18 -72t71 -23h113q93 0 142.5 -42.5t49.5 -138.5v-46q0 -90 -59 -141.5t-174 -55.5l-28 -52q33 5 50 5q38 0 61 -18.5t23 -52.5q0 -31 -14.5 -52t-38.5 -30t-44 -12.5t-40 -3.5q-48 0 -103 15z" />
    <glyph glyph-name="scedilla" unicode="&#x15f;" horiz-adv-x="541" 
d="M158 -210l18 57q46 -12 84 -12q67 0 67 34q0 25 -37 25q-31 0 -93 -11l-11 35l36 75q-73 6 -153 26l26 74q102 -24 179 -24q58 0 84 17.5t26 60.5q0 38 -21.5 52t-67.5 14h-79q-64 0 -106.5 31t-42.5 98v6q3 147 166 147q112 0 232 -19l-24 -76q-105 17 -197 17
q-45 0 -63 -15.5t-18 -50.5q0 -34 16 -48t61 -14h72q167 0 167 -135v-22q0 -58 -45 -98t-142 -43l-28 -52q33 5 50 5q38 0 61 -18.5t23 -52.5q0 -31 -14.5 -52t-38.5 -30t-44 -12.5t-40 -3.5q-48 0 -103 15z" />
    <glyph glyph-name="Scaron" unicode="&#x160;" horiz-adv-x="631" 
d="M561 234v-46q0 -93 -63 -145t-188 -52q-123 0 -235 27l26 80q94 -26 206 -26q83 0 120 29t37 92v24q0 66 -27 90.5t-92 24.5h-110q-165 0 -165 172v37q1 89 50 136.5t142 47.5h23q119 0 267 -22l-27 -78q-126 17 -223 19h-26q-60 0 -84.5 -26.5t-24.5 -79.5v-28
q0 -49 18 -72t71 -23h113q93 0 142.5 -42.5t49.5 -138.5zM503 893l-187 -118l-188 118l42 49l146 -84l145 84z" />
    <glyph glyph-name="scaron" unicode="&#x161;" horiz-adv-x="541" 
d="M479 154v-22q0 -60 -48 -100.5t-150 -40.5q-96 0 -212 28l26 74q102 -24 179 -24q58 0 84 17.5t26 60.5q0 38 -21.5 52t-67.5 14h-79q-64 0 -106.5 31t-42.5 98v6q3 147 166 147q112 0 232 -19l-24 -76q-105 17 -197 17q-45 0 -63 -15.5t-18 -50.5q0 -34 16 -48t61 -14
h72q167 0 167 -135zM465 700l-187 -118l-188 118l42 49l146 -84l145 84z" />
    <glyph glyph-name="Tcommaaccent" unicode="&#x162;" horiz-adv-x="570" 
d="M335 0h-97v635h-206v81h518l-12 -81h-203v-635zM277 -243h-78l40 198h97z" />
    <glyph glyph-name="tcommaaccent" unicode="&#x163;" horiz-adv-x="466" 
d="M412 84l20 -68q-73 -25 -159 -25q-137 0 -137 133v286h-100v76h100v163l97 21v-184h190v-76h-190v-254q0 -55 12 -71.5t57 -16.5q55 0 110 16zM273 -243h-78l40 198h97z" />
    <glyph glyph-name="Tcaron" unicode="&#x164;" horiz-adv-x="570" 
d="M335 0h-97v635h-206v81h518l-12 -81h-203v-635zM475 893l-187 -118l-188 118l42 49l146 -84l145 84z" />
    <glyph glyph-name="tcaron" unicode="&#x165;" horiz-adv-x="466" 
d="M412 84l20 -68q-73 -25 -159 -25q-137 0 -137 133v286h-100v76h100v163l97 21v-184h190v-76h-190v-254q0 -55 12 -71.5t57 -16.5q55 0 110 16zM373 558h-71l47 195h88z" />
    <glyph glyph-name="Umacron" unicode="&#x16a;" horiz-adv-x="703" 
d="M374 -9h-46q-236 0 -236 236v489h97v-482q0 -82 29.5 -123t117.5 -41h31q88 0 117.5 41t29.5 123v482h97v-489q0 -236 -237 -236zM526 825h-349v68h349v-68z" />
    <glyph glyph-name="umacron" unicode="&#x16b;" horiz-adv-x="611" 
d="M518 0h-71l-17 41q-92 -50 -186 -50q-156 0 -156 168v327h97v-306q0 -28 2 -43.5t9.5 -32.5t25.5 -24.5t47 -7.5q61 0 152 40v374h97v-486zM479 628h-349v68h349v-68z" />
    <glyph glyph-name="Ubreve" unicode="&#x16c;" horiz-adv-x="703" 
d="M374 -9h-46q-236 0 -236 236v489h97v-482q0 -82 29.5 -123t117.5 -41h31q88 0 117.5 41t29.5 123v482h97v-489q0 -236 -237 -236zM487 930l42 -39q-68 -100 -178 -100t-178 100l42 39q69 -67 136 -67t136 67z" />
    <glyph glyph-name="ubreve" unicode="&#x16d;" horiz-adv-x="611" 
d="M518 0h-71l-17 41q-92 -50 -186 -50q-156 0 -156 168v327h97v-306q0 -28 2 -43.5t9.5 -32.5t25.5 -24.5t47 -7.5q61 0 152 40v374h97v-486zM440 721l42 -39q-68 -100 -178 -100t-178 100l42 39q69 -67 136 -67t136 67z" />
    <glyph glyph-name="Uring" unicode="&#x16e;" horiz-adv-x="703" 
d="M374 -9h-46q-236 0 -236 236v489h97v-482q0 -82 29.5 -123t117.5 -41h31q88 0 117.5 41t29.5 123v482h97v-489q0 -236 -237 -236zM452 856q0 -41 -29.5 -69t-71.5 -28q-41 0 -71 28t-30 69t30 69t71 28q42 0 71.5 -28t29.5 -69zM351 811q18 0 31 13t13 32t-13 31.5
t-31 12.5q-17 0 -30 -13t-13 -31q0 -19 12.5 -32t30.5 -13z" />
    <glyph glyph-name="uring" unicode="&#x16f;" horiz-adv-x="611" 
d="M518 0h-71l-17 41q-92 -50 -186 -50q-156 0 -156 168v327h97v-306q0 -28 2 -43.5t9.5 -32.5t25.5 -24.5t47 -7.5q61 0 152 40v374h97v-486zM405 671q0 -41 -29.5 -69t-71.5 -28q-41 0 -71 28t-30 69t30 69t71 28q42 0 71.5 -28t29.5 -69zM304 626q18 0 31 13t13 32
t-13 31.5t-31 12.5t-30.5 -12.5t-12.5 -31.5t12.5 -32t30.5 -13z" />
    <glyph glyph-name="Uhungarumlaut" unicode="&#x170;" horiz-adv-x="703" 
d="M374 -9h-46q-236 0 -236 236v489h97v-482q0 -82 29.5 -123t117.5 -41h31q88 0 117.5 41t29.5 123v482h97v-489q0 -236 -237 -236zM361 871l-216 -94l-31 45l209 111zM589 871l-216 -94l-31 45l209 111z" />
    <glyph glyph-name="uhungarumlaut" unicode="&#x171;" horiz-adv-x="611" 
d="M518 0h-71l-17 41q-92 -50 -186 -50q-156 0 -156 168v327h97v-306q0 -28 2 -43.5t9.5 -32.5t25.5 -24.5t47 -7.5q61 0 152 40v374h97v-486zM312 678l-216 -94l-31 45l209 111zM540 678l-216 -94l-31 45l209 111z" />
    <glyph glyph-name="Uogonek" unicode="&#x172;" horiz-adv-x="703" 
d="M437 -159l12 -55q-47 -11 -89 -11q-16 0 -31.5 2.5t-36 10.5t-33 26.5t-12.5 46.5q0 54 72 130q-113 2 -170 59.5t-57 176.5v489h97v-482q0 -82 29.5 -123t117.5 -41h31q88 0 117.5 41t29.5 123v482h97v-489q0 -226 -215 -235q-31 -36 -50.5 -69.5t-19.5 -49.5
q0 -22 13 -30t41 -8q33 0 57 6z" />
    <glyph glyph-name="uogonek" unicode="&#x173;" horiz-adv-x="611" 
d="M541 -159l12 -55q-47 -11 -89 -11q-16 0 -31.5 2.5t-36 10.5t-33 26.5t-12.5 46.5q0 30 27.5 73.5t63.5 75.5l-12 31q-92 -50 -186 -50q-156 0 -156 168v327h97v-306q0 -28 2 -43.5t9.5 -32.5t25.5 -24.5t47 -7.5q61 0 152 40v374h97v-486h-11q-34 -37 -55.5 -73
t-21.5 -54q0 -22 13 -30t41 -8q33 0 57 6z" />
    <glyph glyph-name="Ydieresis" unicode="&#x178;" horiz-adv-x="626" 
d="M361 0h-96v262l-242 454h110l180 -371l180 371h110l-242 -454v-262zM251 808l-101 -22v100h101v-78zM480 808l-101 -22v100h101v-78z" />
    <glyph glyph-name="Zacute" unicode="&#x179;" horiz-adv-x="596" 
d="M545 0h-494v76l366 559h-354v81h472v-71l-371 -564h381v-81zM429 873l-230 -96l-30 55l221 109z" />
    <glyph glyph-name="zacute" unicode="&#x17a;" horiz-adv-x="517" 
d="M456 0h-395v71l273 338h-259v77h369v-75l-267 -333h279v-78zM392 680l-230 -96l-30 55l221 109z" />
    <glyph glyph-name="Zdotaccent" unicode="&#x17b;" horiz-adv-x="596" 
d="M545 0h-494v76l366 559h-354v81h472v-71l-371 -564h381v-81zM355 805l-111 -23v102h111v-79z" />
    <glyph glyph-name="zdotaccent" unicode="&#x17c;" horiz-adv-x="517" 
d="M456 0h-395v71l273 338h-259v77h369v-75l-267 -333h279v-78zM312 643l-105 -23v98h105v-75z" />
    <glyph glyph-name="Zcaron" unicode="&#x17d;" horiz-adv-x="596" 
d="M545 0h-494v76l366 559h-354v81h472v-71l-371 -564h381v-81zM483 893l-187 -118l-188 118l42 49l146 -84l145 84z" />
    <glyph glyph-name="zcaron" unicode="&#x17e;" horiz-adv-x="517" 
d="M456 0h-395v71l273 338h-259v77h369v-75l-267 -333h279v-78zM448 700l-187 -118l-188 118l42 49l146 -84l145 84z" />
    <glyph glyph-name="florin" unicode="&#x192;" horiz-adv-x="544" 
d="M97 -78l89 501h-115l16 79h114l22 116q25 131 170 131q47 0 134 -16l-31 -72q-50 10 -95 10q-77 0 -90 -80l-16 -89h177l-16 -79h-175l-92 -519q-11 -63 -55 -102t-110 -39q-44 0 -89 11l28 71q24 -4 45 -4q40 0 61 20t28 61z" />
    <glyph glyph-name="Scommaaccent" unicode="&#x218;" horiz-adv-x="631" 
d="M561 234v-46q0 -93 -63 -145t-188 -52q-123 0 -235 27l26 80q94 -26 206 -26q83 0 120 29t37 92v24q0 66 -27 90.5t-92 24.5h-110q-165 0 -165 172v37q1 89 50 136.5t142 47.5h23q119 0 267 -22l-27 -78q-126 17 -223 19h-26q-60 0 -84.5 -26.5t-24.5 -79.5v-28
q0 -49 18 -72t71 -23h113q93 0 142.5 -42.5t49.5 -138.5zM320 -243h-78l40 198h97z" />
    <glyph glyph-name="scommaaccent" unicode="&#x219;" horiz-adv-x="541" 
d="M479 154v-22q0 -60 -48 -100.5t-150 -40.5q-96 0 -212 28l26 74q102 -24 179 -24q58 0 84 17.5t26 60.5q0 38 -21.5 52t-67.5 14h-79q-64 0 -106.5 31t-42.5 98v6q3 147 166 147q112 0 232 -19l-24 -76q-105 17 -197 17q-45 0 -63 -15.5t-18 -50.5q0 -34 16 -48t61 -14
h72q167 0 167 -135zM291 -243h-78l40 198h97z" />
    <glyph glyph-name="uni021A" unicode="&#x21a;" horiz-adv-x="570" 
d="M335 0h-97v635h-206v81h518l-12 -81h-203v-635zM281 -243h-78l40 198h97z" />
    <glyph glyph-name="uni021B" unicode="&#x21b;" horiz-adv-x="466" 
d="M412 84l20 -68q-73 -25 -159 -25q-137 0 -137 133v286h-100v76h100v163l97 21v-184h190v-76h-190v-254q0 -55 12 -71.5t57 -16.5q55 0 110 16zM253 -243h-78l40 198h97z" />
    <glyph glyph-name="dotlessj" unicode="&#x237;" horiz-adv-x="283" 
d="M23 -245l-20 74q56 15 73 45.5t17 104.5v507h97v-496q0 -111 -34 -161.5t-133 -73.5z" />
    <glyph glyph-name="circumflex" unicode="&#x2c6;" horiz-adv-x="549" 
d="M420 582l-145 84l-146 -84l-42 49l188 118l187 -118z" />
    <glyph glyph-name="caron" unicode="&#x2c7;" horiz-adv-x="549" 
d="M462 700l-187 -118l-188 118l42 49l146 -84l145 84z" />
    <glyph glyph-name="breve" unicode="&#x2d8;" horiz-adv-x="530" 
d="M401 736l42 -39q-68 -100 -178 -100t-178 100l42 39q69 -67 136 -67t136 67z" />
    <glyph glyph-name="dotaccent" unicode="&#x2d9;" horiz-adv-x="285" 
d="M198 632l-111 -23v102h111v-79z" />
    <glyph glyph-name="ring" unicode="&#x2da;" horiz-adv-x="376" 
d="M289 671q0 -41 -29.5 -69t-71.5 -28q-41 0 -71 28t-30 69t30 69t71 28q42 0 71.5 -28t29.5 -69zM188 626q18 0 31 13t13 32t-13 31.5t-31 12.5t-30.5 -12.5t-12.5 -31.5t12.5 -32t30.5 -13z" />
    <glyph glyph-name="ogonek" unicode="&#x2db;" horiz-adv-x="376" 
d="M277 -158l12 -55q-47 -11 -89 -11q-16 0 -31.5 2.5t-36 10.5t-33 26.5t-12.5 46.5q0 30 28 73t64 77h75q-38 -39 -63 -79t-25 -59q0 -22 13 -30t41 -8q33 0 57 6z" />
    <glyph glyph-name="tilde" unicode="&#x2dc;" horiz-adv-x="541" 
d="M415 716l39 -45q-50 -65 -112 -65q-24 0 -71 19t-66 19q-8 0 -15.5 -2t-12.5 -3.5t-13.5 -7.5t-11 -8t-13 -11t-12.5 -11l-40 44q57 69 112 69q28 0 76 -18.5t68 -18.5q30 0 72 39z" />
    <glyph glyph-name="hungarumlaut" unicode="&#x2dd;" horiz-adv-x="649" 
d="M334 682l-216 -94l-31 45l209 111zM562 682l-216 -94l-31 45l209 111z" />
    <glyph glyph-name="acutecomb" unicode="&#x301;" horiz-adv-x="1" 
d="M-163 680l-230 -96l-30 55l221 109z" />
    <glyph glyph-name="uni0302" unicode="&#x302;" horiz-adv-x="1" 
d="M-151 582l-145 84l-146 -84l-42 49l188 118l187 -118z" />
    <glyph glyph-name="uni0304" unicode="&#x304;" horiz-adv-x="1" 
d="M-86 628h-349v68h349v-68z" />
    <glyph glyph-name="uni0306" unicode="&#x306;" horiz-adv-x="1" 
d="M-128 721l42 -39q-68 -100 -178 -100t-178 100l42 39q69 -67 136 -67t136 67z" />
    <glyph glyph-name="uni0307" unicode="&#x307;" horiz-adv-x="1" 
d="M-88 643l-105 -23v98h105v-75z" />
    <glyph glyph-name="uni030A" unicode="&#x30a;" horiz-adv-x="1" 
d="M-86 671q0 -41 -29.5 -69t-71.5 -28q-41 0 -71 28t-30 69t30 69t71 28q42 0 71.5 -28t29.5 -69zM-187 626q18 0 31 13t13 32t-13 31.5t-31 12.5q-17 0 -30 -12.5t-13 -31.5t12.5 -32t30.5 -13z" />
    <glyph glyph-name="uni030B" unicode="&#x30b;" horiz-adv-x="1" 
d="M-314 678l-216 -94l-31 45l209 111zM-86 678l-216 -94l-31 45l209 111z" />
    <glyph glyph-name="uni030C" unicode="&#x30c;" horiz-adv-x="1" 
d="M-68 700l-187 -118l-188 118l42 49l146 -84l145 84z" />
    <glyph glyph-name="uni0312" unicode="&#x312;" horiz-adv-x="1" 
d="M-163 765h71l-47 -195h-88z" />
    <glyph glyph-name="uni0313" unicode="&#x313;" horiz-adv-x="1" 
d="M-157 528h-71l47 195h88z" />
    <glyph glyph-name="uni0326" unicode="&#x326;" horiz-adv-x="1" 
d="M-133 -243h-78l40 198h97z" />
    <glyph glyph-name="uni0327" unicode="&#x327;" horiz-adv-x="1" 
d="M-326 -210l18 57q46 -12 84 -12q67 0 67 34q0 25 -37 25q-31 0 -93 -11l-11 35l45 94h72l-39 -73q33 5 50 5q38 0 61 -18.5t23 -52.5q0 -31 -14.5 -52t-38.5 -30t-44 -12.5t-40 -3.5q-48 0 -103 15z" />
    <glyph glyph-name="uni0328" unicode="&#x328;" horiz-adv-x="1" 
d="M-98 -159l12 -55q-47 -11 -89 -11q-16 0 -31.5 2.5t-36 10.5t-33 26.5t-12.5 46.5q0 30 28 73t64 77h75q-38 -39 -63 -79t-25 -59q0 -22 13 -30t41 -8q33 0 57 6z" />
    <glyph glyph-name="uni0335" unicode="&#x335;" horiz-adv-x="1" 
d="M-86 208h-349v70h349v-70z" />
    <glyph glyph-name="uni0336" unicode="&#x336;" horiz-adv-x="1" 
d="M-74 205h-665v76h665v-76z" />
    <glyph glyph-name="Delta" unicode="&#x394;" horiz-adv-x="708" 
d="M679 0h-650l265 716h120zM544 83l-190 550l-190 -550h380z" />
    <glyph glyph-name="Omega" unicode="&#x3a9;" horiz-adv-x="736" 
d="M663 0h-235v82q80 33 104 87.5t24 166.5v81q0 133 -37 181t-151 48t-151 -48t-37 -181v-81q0 -112 24 -166.5t104 -87.5v-82h-235v80h115q-104 63 -104 233v121q0 162 64 226.5t220 64.5t220 -64.5t64 -226.5v-121q0 -170 -104 -233h115v-80z" />
    <glyph glyph-name="mu" unicode="&#x3bc;" horiz-adv-x="615" 
d="M522 0h-70l-17 41q-93 -51 -186 -51q-34 0 -59 20v-237l-97 -21v734h97v-325q0 -44 17.5 -66t65.5 -22q65 0 152 42v371h97v-486z" />
    <glyph glyph-name="pi" unicode="&#x3c0;" horiz-adv-x="597" 
d="M483 0h-96v409h-177v-409h-96v409h-84v77h537v-77h-84v-409z" />
    <glyph glyph-name="uni2000" unicode="&#x2000;" horiz-adv-x="500" 
 />
    <glyph glyph-name="uni2001" unicode="&#x2001;" horiz-adv-x="1000" 
 />
    <glyph glyph-name="uni2002" unicode="&#x2002;" horiz-adv-x="500" 
 />
    <glyph glyph-name="uni2003" unicode="&#x2003;" horiz-adv-x="1000" 
 />
    <glyph glyph-name="uni2004" unicode="&#x2004;" horiz-adv-x="333" 
 />
    <glyph glyph-name="uni2005" unicode="&#x2005;" horiz-adv-x="250" 
 />
    <glyph glyph-name="uni2006" unicode="&#x2006;" horiz-adv-x="166" 
 />
    <glyph glyph-name="uni2007" unicode="&#x2007;" horiz-adv-x="636" 
 />
    <glyph glyph-name="uni2008" unicode="&#x2008;" horiz-adv-x="301" 
 />
    <glyph glyph-name="uni2009" unicode="&#x2009;" horiz-adv-x="200" 
 />
    <glyph glyph-name="uni200A" unicode="&#x200a;" horiz-adv-x="83" 
 />
    <glyph glyph-name="uni200B" unicode="&#x200b;" horiz-adv-x="0" 
 />
    <glyph glyph-name="endash" unicode="&#x2013;" horiz-adv-x="568" 
d="M493 297h-418v82h418v-82z" />
    <glyph glyph-name="emdash" unicode="&#x2014;" horiz-adv-x="895" 
d="M820 297h-745v82h745v-82z" />
    <glyph glyph-name="quoteleft" unicode="&#x2018;" horiz-adv-x="287" 
d="M172 518h-97l59 198h78z" />
    <glyph glyph-name="quoteright" unicode="&#x2019;" horiz-adv-x="287" 
d="M153 518h-78l40 198h97z" />
    <glyph glyph-name="quotesinglbase" unicode="&#x201a;" horiz-adv-x="287" 
d="M153 -98h-78l40 198h97z" />
    <glyph glyph-name="quotedblleft" unicode="&#x201c;" horiz-adv-x="461" 
d="M346 518h-97l59 198h78zM172 518h-97l59 198h78z" />
    <glyph glyph-name="quotedblright" unicode="&#x201d;" horiz-adv-x="461" 
d="M153 518h-78l40 198h97zM327 518h-78l40 198h97z" />
    <glyph glyph-name="quotedblbase" unicode="&#x201e;" horiz-adv-x="461" 
d="M153 -98h-78l40 198h97zM327 -98h-78l40 198h97z" />
    <glyph glyph-name="dagger" unicode="&#x2020;" horiz-adv-x="571" 
d="M334 0h-96v439h-180v81h180v196h96v-196h179v-81h-179v-439z" />
    <glyph glyph-name="daggerdbl" unicode="&#x2021;" horiz-adv-x="571" 
d="M334 0h-96v197h-180v81h180v161h-180v81h180v196h96v-196h179v-81h-179v-161h179v-81h-179v-197z" />
    <glyph glyph-name="bullet" unicode="&#x2022;" horiz-adv-x="389" 
d="M200 260h-11q-48 0 -66 20.5t-18 60.5v26q0 40 18 60.5t66 20.5h11q48 0 66 -20.5t18 -60.5v-26q0 -40 -18 -60.5t-66 -20.5z" />
    <glyph glyph-name="ellipsis" unicode="&#x2026;" horiz-adv-x="891" 
d="M206 0h-111v106h111v-106zM796 0h-111v106h111v-106zM501 0h-111v106h111v-106z" />
    <glyph glyph-name="perthousand" unicode="&#x2030;" horiz-adv-x="1305" 
d="M1098 -9h-29q-132 0 -132 128v104q0 60 32.5 94t99.5 34h29q67 0 99.5 -34t32.5 -94v-104q0 -128 -132 -128zM1149 117v108q0 63 -56 63h-19q-56 0 -56 -63v-108q0 -63 56 -63h19q56 0 56 63zM236 365h-29q-132 0 -132 128v104q0 60 32.5 94t99.5 34h29q67 0 99.5 -34
t32.5 -94v-104q0 -128 -132 -128zM287 491v108q0 63 -56 63h-19q-56 0 -56 -63v-108q0 -63 56 -63h19q56 0 56 63zM716 -9h-29q-132 0 -132 128v104q0 60 32.5 94t99.5 34h29q67 0 99.5 -34t32.5 -94v-104q0 -128 -132 -128zM767 117v108q0 63 -56 63h-19q-56 0 -56 -63
v-108q0 -63 56 -63h19q56 0 56 63zM262 0h-94l493 716h95z" />
    <glyph glyph-name="guilsinglleft" unicode="&#x2039;" horiz-adv-x="327" 
d="M259 103h-94l-94 175l94 174h94l-97 -174z" />
    <glyph glyph-name="guilsinglright" unicode="&#x203a;" horiz-adv-x="327" 
d="M162 103h-94l97 175l-97 174h94l94 -174z" />
    <glyph glyph-name="fraction" unicode="&#x2044;" horiz-adv-x="208" 
d="M-96 0h-94l493 716h95z" />
    <glyph glyph-name="uni2070" unicode="&#x2070;" horiz-adv-x="413" 
d="M291 452v123q0 50 -16 67.5t-68 17.5q-53 0 -69 -17.5t-16 -67.5v-123q0 -51 16 -68t69 -17q52 0 68 17t16 68zM370 585v-144q0 -72 -36.5 -103.5t-126.5 -31.5q-91 0 -127.5 31.5t-36.5 103.5v144q0 73 36.5 104.5t127.5 31.5q90 0 126.5 -31.5t36.5 -104.5z" />
    <glyph glyph-name="uni2074" unicode="&#x2074;" horiz-adv-x="413" 
d="M327 311h-78v94h-222v51l203 260h97v-250h58v-61h-58v-94zM249 466v181l-143 -181h143z" />
    <glyph glyph-name="uni2075" unicode="&#x2075;" horiz-adv-x="413" 
d="M368 453v-32q0 -115 -166 -115q-83 0 -157 17l16 61q82 -16 127 -16q52 0 76.5 12.5t24.5 41.5v32q0 52 -73 52q-47 0 -132 -17l-35 37v190h307v-63h-228v-99q66 10 101 10q139 0 139 -111z" />
    <glyph glyph-name="uni2076" unicode="&#x2076;" horiz-adv-x="413" 
d="M227 306h-45q-70 0 -103.5 26t-33.5 89v184q0 63 34 90t106 27q84 0 184 -13l-16 -61q-86 11 -151 11q-48 0 -63 -12.5t-15 -50.5v-42q58 11 113 11q73 0 104 -26.5t31 -79.5v-38q0 -63 -36.5 -89t-108.5 -26zM293 414v42q0 27 -14.5 39t-54.5 12q-52 0 -100 -10v-83
q0 -25 14 -36t50 -11h35q70 0 70 47z" />
    <glyph glyph-name="uni2077" unicode="&#x2077;" horiz-adv-x="413" 
d="M173 311h-87l213 342h-260v63h350v-50z" />
    <glyph glyph-name="uni2078" unicode="&#x2078;" horiz-adv-x="413" 
d="M297 419v18q0 34 -22 46t-60 12h-16q-38 0 -60 -12t-22 -46v-18q0 -52 76 -52h28q76 0 76 52zM375 436v-22q0 -54 -35.5 -81t-115.5 -27h-34q-80 0 -116 27t-36 81v22q0 67 66 88q-26 9 -40 31t-14 48v7q0 57 34 84t108 27h29q75 0 109 -27t34 -84v-7q0 -26 -14.5 -48
t-40.5 -31q66 -20 66 -88zM285 602v8q0 50 -67 50h-22q-67 0 -67 -50v-8q0 -49 67 -49h22q67 0 67 49z" />
    <glyph glyph-name="uni2079" unicode="&#x2079;" horiz-adv-x="413" 
d="M289 432v41q-58 -11 -112 -11q-72 0 -103 27t-31 79v38q0 63 36.5 89t108.5 26h43q71 0 104 -26t33 -90v-182q0 -63 -34 -90t-106 -27t-183 13l16 63q109 -14 150 -14q48 0 63 13t15 51zM289 530v82q0 25 -14 36.5t-50 11.5h-32q-71 0 -71 -48v-42q0 -27 14 -38.5
t54 -11.5q51 0 99 10z" />
    <glyph glyph-name="uni2080" unicode="&#x2080;" horiz-adv-x="413" 
d="M291 -61v123q0 50 -16 67.5t-68 17.5q-53 0 -69 -17.5t-16 -67.5v-123q0 -51 16 -68t69 -17q52 0 68 17t16 68zM370 72v-144q0 -72 -36.5 -103.5t-126.5 -31.5q-91 0 -127.5 31.5t-36.5 103.5v144q0 73 36.5 104.5t127.5 31.5q90 0 126.5 -31.5t36.5 -104.5z" />
    <glyph glyph-name="uni2081" unicode="&#x2081;" horiz-adv-x="405" 
d="M266 -202h-79v329l-104 -63l-30 46l146 93h67v-405z" />
    <glyph glyph-name="uni2082" unicode="&#x2082;" horiz-adv-x="413" 
d="M367 -202h-320v74q0 61 17.5 88t74.5 51q19 8 60 23.5t59 23.5q32 12 32 34v18q0 21 -18 28t-52 7q-75 0 -154 -15l-19 60q92 18 180 18q140 0 140 -96v-20q0 -33 -17 -53t-53 -35q-20 -8 -63 -25t-65 -26q-42 -17 -42 -65v-27h240v-63z" />
    <glyph glyph-name="uni2083" unicode="&#x2083;" horiz-adv-x="413" 
d="M369 -73v-16q0 -63 -42 -90.5t-124 -27.5q-63 0 -162 15l16 62q85 -15 135 -15q98 0 98 52v28q0 27 -14.5 37t-44.5 10q-37 0 -97 -7l-26 47l151 118h-207v63h301v-62l-142 -109q24 3 45 3q113 0 113 -108z" />
    <glyph glyph-name="uni2084" unicode="&#x2084;" horiz-adv-x="413" 
d="M327 -202h-78v94h-222v51l203 260h97v-250h58v-61h-58v-94zM249 -47v181l-143 -181h143z" />
    <glyph glyph-name="uni2085" unicode="&#x2085;" horiz-adv-x="413" 
d="M368 -60v-32q0 -115 -166 -115q-83 0 -157 17l16 61q82 -16 127 -16q52 0 76.5 12.5t24.5 41.5v32q0 52 -73 52q-47 0 -132 -17l-35 37v190h307v-63h-228v-99q66 10 101 10q139 0 139 -111z" />
    <glyph glyph-name="uni2086" unicode="&#x2086;" horiz-adv-x="413" 
d="M227 -207h-45q-70 0 -103.5 26t-33.5 89v184q0 63 34 90t106 27q84 0 184 -13l-16 -61q-86 11 -151 11q-48 0 -63 -13t-15 -50v-42q58 11 113 11q73 0 104 -26.5t31 -79.5v-38q0 -63 -36.5 -89t-108.5 -26zM293 -99v42q0 27 -14.5 39t-54.5 12q-52 0 -100 -10v-83
q0 -25 14 -36t50 -11h35q70 0 70 47z" />
    <glyph glyph-name="uni2087" unicode="&#x2087;" horiz-adv-x="413" 
d="M173 -202h-87l213 342h-260v63h350v-50z" />
    <glyph glyph-name="uni2088" unicode="&#x2088;" horiz-adv-x="413" 
d="M297 -94v18q0 34 -22 46t-60 12h-16q-38 0 -60 -12t-22 -46v-18q0 -52 76 -52h28q76 0 76 52zM375 -77v-22q0 -54 -35.5 -81t-115.5 -27h-34q-80 0 -116 27t-36 81v22q0 67 66 88q-26 9 -40 31t-14 48v7q0 57 34 84t108 27h29q75 0 109 -27t34 -84v-7q0 -26 -14.5 -48
t-40.5 -31q66 -20 66 -88zM285 89v8q0 50 -67 50h-22q-67 0 -67 -50v-8q0 -49 67 -49h22q67 0 67 49z" />
    <glyph glyph-name="uni2089" unicode="&#x2089;" horiz-adv-x="413" 
d="M289 -81v41q-58 -11 -112 -11q-72 0 -103 27t-31 79v38q0 63 36.5 89t108.5 26h43q71 0 104 -26t33 -90v-182q0 -63 -34 -90t-106 -27t-183 13l16 63q109 -14 150 -14q48 0 63 13t15 51zM289 17v82q0 25 -14 36.5t-50 11.5h-32q-71 0 -71 -48v-42q0 -27 14 -38.5
t54 -11.5q51 0 99 10z" />
    <glyph glyph-name="Euro" unicode="&#x20ac;" horiz-adv-x="686" 
d="M585 99l24 -72q-126 -36 -231 -36q-124 0 -176.5 45.5t-52.5 163.5v63h-124l18 63h106v76h-87l18 63h69v42q0 116 48.5 167t175.5 51q108 0 242 -26l-23 -75q-120 21 -209 21q-48 0 -76.5 -8.5t-42 -29.5t-17 -44.5t-3.5 -66.5v-31h332l-17 -63h-315v-76h294l-17 -63
h-277v-53q0 -80 29 -109.5t121 -29.5q76 0 191 28z" />
    <glyph glyph-name="trademark" unicode="&#x2122;" horiz-adv-x="929" 
d="M253 357h-83v286h-111v73h305v-73h-111v-286zM836 357h-81v254l-102 -187h-47l-100 187v-254h-80v359h97l107 -205l113 205h93v-359z" />
    <glyph glyph-name="uni2126" unicode="&#x2126;" horiz-adv-x="736" 
d="M663 0h-235v82q80 33 104 87.5t24 166.5v81q0 133 -37 181t-151 48t-151 -48t-37 -181v-81q0 -112 24 -166.5t104 -87.5v-82h-235v80h115q-104 63 -104 233v121q0 162 64 226.5t220 64.5t220 -64.5t64 -226.5v-121q0 -170 -104 -233h115v-80z" />
    <glyph glyph-name="arrowleft" unicode="&#x2190;" horiz-adv-x="1098" 
d="M1018 290h-802l214 -222l-57 -56l-313 321l313 321l57 -56l-214 -222h802v-86z" />
    <glyph glyph-name="arrowright" unicode="&#x2192;" horiz-adv-x="1098" 
d="M725 12l-57 56l214 222h-802v86h802l-214 222l57 56l313 -321z" />
    <glyph glyph-name="uni2196" unicode="&#x2196;" horiz-adv-x="869" 
d="M755 9l-568 551l-12 -304h-83l15 446l446 15v-83l-304 -12l567 -548z" />
    <glyph glyph-name="uni2197" unicode="&#x2197;" horiz-adv-x="869" 
d="M777 256h-83l-12 304l-568 -551l-61 65l567 548l-304 12v83l446 -15z" />
    <glyph glyph-name="uni21B0" unicode="&#x21b0;" horiz-adv-x="1106" 
d="M1044 60l-78 -47l-178 308q-19 34 -43 47t-76 13h-453l214 -219l-57 -58l-313 322l313 320l57 -56l-214 -221h462q74 0 114 -20t68 -68z" />
    <glyph glyph-name="uni21B1" unicode="&#x21b1;" horiz-adv-x="1107" 
d="M733 104l-57 58l214 219h-452q-52 0 -76 -13t-44 -47l-178 -308l-78 47l185 321q27 48 67 68t114 20h462l-214 221l57 56l314 -320z" />
    <glyph glyph-name="partialdiff" unicode="&#x2202;" horiz-adv-x="613" 
d="M313 -9h-28q-118 0 -164.5 53t-46.5 153v87q0 100 46.5 153t164.5 53h28q81 0 117 -39v64q0 133 -191 133q-30 0 -96 -9l-18 74q74 13 142 13q127 0 192.5 -57t65.5 -154v-328q0 -99 -46 -147.5t-166 -48.5zM428 182v116q0 65 -26 92t-97 27h-12q-70 0 -96 -26.5
t-26 -90.5v-118q0 -64 26 -90t96 -26h12q71 0 97 26t26 90z" />
    <glyph glyph-name="uni2206" unicode="&#x2206;" horiz-adv-x="708" 
d="M679 0h-650l265 716h120zM544 83l-190 550l-190 -550h380z" />
    <glyph glyph-name="product" unicode="&#x220f;" horiz-adv-x="802" 
d="M631 -247h-94v881h-283v-881h-94v881h-101v82h684v-82h-112v-881z" />
    <glyph glyph-name="summation" unicode="&#x2211;" horiz-adv-x="604" 
d="M555 -246h-518v77l321 405l-303 398v82h488v-85h-369l302 -396l-314 -396h393v-85z" />
    <glyph glyph-name="minus" unicode="&#x2212;" horiz-adv-x="612" 
d="M551 297h-489v83h489v-83z" />
    <glyph glyph-name="uni2219" unicode="&#x2219;" horiz-adv-x="331" 
d="M221 310h-111v106h111v-106z" />
    <glyph glyph-name="radical" unicode="&#x221a;" horiz-adv-x="690" 
d="M328 0h-117l-164 486h106l116 -394l192 624h211v-79h-136z" />
    <glyph glyph-name="infinity" unicode="&#x221e;" horiz-adv-x="842" 
d="M416 276q-63 -101 -162 -101q-105 0 -148.5 44.5t-43.5 134.5q0 179 196 179q119 0 167 -101q36 59 73.5 80.5t89.5 21.5q106 0 149 -44.5t43 -134.5q0 -83 -49 -130.5t-147 -47.5q-62 0 -100 22t-68 77zM364 323l17 31q-17 55 -48 79t-85 24q-49 0 -71.5 -24.5
t-22.5 -78.5q0 -52 20 -77.5t74 -25.5q40 0 66 15.5t50 56.5zM460 352q19 -55 48.5 -77.5t84.5 -22.5q44 0 69.5 25.5t25.5 77.5t-21 77.5t-75 25.5q-36 0 -61.5 -15.5t-49.5 -53.5q-3 -4 -6 -10t-7.5 -14t-7.5 -13z" />
    <glyph glyph-name="uni2224" unicode="&#x2224;" horiz-adv-x="331" 
d="M221 310h-111v106h111v-106z" />
    <glyph glyph-name="logicaland" unicode="&#x2227;" horiz-adv-x="331" 
d="M221 310h-111v106h111v-106z" />
    <glyph glyph-name="integral" unicode="&#x222b;" horiz-adv-x="510" 
d="M104 -78l126 687q12 64 56 102t117 38q36 0 104 -17l-30 -70q-41 10 -66 10q-40 0 -61.5 -20.5t-28.5 -61.5l-122 -686q-11 -63 -55 -102t-110 -39q-44 0 -89 11l28 70q24 -4 42 -4q40 0 60.5 20t28.5 62z" />
    <glyph glyph-name="approxequal" unicode="&#x2248;" horiz-adv-x="612" 
d="M508 292l43 -55q-25 -26 -60.5 -43.5t-67.5 -17.5q-29 0 -114 20t-114 20q-30 0 -91 -45l-42 56q27 28 63.5 50t68.5 22q30 0 115 -21.5t113 -21.5q36 0 86 36zM508 501l43 -55q-25 -26 -60.5 -44t-67.5 -18q-29 0 -113.5 20.5t-114.5 20.5t-91 -45l-42 55q27 28 63.5 50
t68.5 22q30 0 115 -21t113 -21q36 0 86 36z" />
    <glyph glyph-name="notequal" unicode="&#x2260;" horiz-adv-x="612" 
d="M551 189h-281l-54 -154l-49 16l49 138h-154v81h182l47 133h-229v81h258l50 140l49 -16l-44 -124h176v-81h-205l-47 -133h252v-81z" />
    <glyph glyph-name="lessequal" unicode="&#x2264;" horiz-adv-x="612" 
d="M551 175l-489 168v94l489 168v-91l-406 -124l406 -124v-91zM551 0h-489v82h489v-82z" />
    <glyph glyph-name="greaterequal" unicode="&#x2265;" horiz-adv-x="612" 
d="M550 343l-489 -168v91l406 124l-406 124v91l489 -168v-94zM550 0h-489v82h489v-82z" />
    <glyph glyph-name="dotmath" unicode="&#x22c5;" horiz-adv-x="612" 
d="M361 310h-111v106h111v-106z" />
    <glyph glyph-name="lozenge" unicode="&#x25ca;" horiz-adv-x="661" 
d="M382 -105h-103l-234 411l234 410h103l234 -410zM331 -11l175 317l-175 316l-175 -316z" />
    <glyph glyph-name="i.latn_TRK" horiz-adv-x="283" 
d="M190 0h-97v486h97v-486zM194 643l-105 -23v98h105v-75z" />
    <glyph glyph-name="uni2009.latn_FRA" horiz-adv-x="125" 
 />
    <glyph glyph-name="zero.numr" horiz-adv-x="413" 
d="M291 452v123q0 50 -16 67.5t-68 17.5q-53 0 -69 -17.5t-16 -67.5v-123q0 -51 16 -68t69 -17q52 0 68 17t16 68zM370 585v-144q0 -72 -36.5 -103.5t-126.5 -31.5q-91 0 -127.5 31.5t-36.5 103.5v144q0 73 36.5 104.5t127.5 31.5q90 0 126.5 -31.5t36.5 -104.5z" />
    <glyph glyph-name="one.numr" horiz-adv-x="413" 
d="M388 311h-336v63h134v266l-103 -63l-30 46l146 93h67v-342h122v-63z" />
    <glyph glyph-name="two.numr" horiz-adv-x="413" 
d="M367 311h-320v74q0 61 17.5 88t74.5 51q19 8 60 23.5t59 23.5q32 12 32 34v18q0 21 -18 28t-52 7q-75 0 -154 -15l-19 60q92 18 180 18q140 0 140 -96v-20q0 -33 -17 -53t-53 -35q-20 -8 -63 -25t-65 -26q-42 -17 -42 -65v-27h240v-63z" />
    <glyph glyph-name="three.numr" horiz-adv-x="413" 
d="M369 440v-16q0 -63 -42 -90.5t-124 -27.5q-63 0 -162 15l16 62q85 -15 135 -15q98 0 98 52v28q0 27 -14.5 37t-44.5 10q-37 0 -97 -7l-26 47l151 118h-207v63h301v-62l-142 -109q24 3 45 3q113 0 113 -108z" />
    <glyph glyph-name="four.numr" horiz-adv-x="413" 
d="M327 311h-78v94h-222v51l203 260h97v-250h58v-61h-58v-94zM249 466v181l-143 -181h143z" />
    <glyph glyph-name="five.numr" horiz-adv-x="413" 
d="M368 453v-32q0 -115 -166 -115q-83 0 -157 17l16 61q82 -16 127 -16q52 0 76.5 12.5t24.5 41.5v32q0 52 -73 52q-47 0 -132 -17l-35 37v190h307v-63h-228v-99q66 10 101 10q139 0 139 -111z" />
    <glyph glyph-name="six.numr" horiz-adv-x="413" 
d="M227 306h-45q-70 0 -103.5 26t-33.5 89v184q0 63 34 90t106 27q84 0 184 -13l-16 -61q-86 11 -151 11q-48 0 -63 -12.5t-15 -50.5v-42q58 11 113 11q73 0 104 -26.5t31 -79.5v-38q0 -63 -36.5 -89t-108.5 -26zM293 414v42q0 27 -14.5 39t-54.5 12q-52 0 -100 -10v-83
q0 -25 14 -36t50 -11h35q70 0 70 47z" />
    <glyph glyph-name="seven.numr" horiz-adv-x="413" 
d="M173 311h-87l213 342h-260v63h350v-50z" />
    <glyph glyph-name="eight.numr" horiz-adv-x="413" 
d="M297 419v18q0 34 -22 46t-60 12h-16q-38 0 -60 -12t-22 -46v-18q0 -52 76 -52h28q76 0 76 52zM375 436v-22q0 -54 -35.5 -81t-115.5 -27h-34q-80 0 -116 27t-36 81v22q0 67 66 88q-26 9 -40 31t-14 48v7q0 57 34 84t108 27h29q75 0 109 -27t34 -84v-7q0 -26 -14.5 -48
t-40.5 -31q66 -20 66 -88zM285 602v8q0 50 -67 50h-22q-67 0 -67 -50v-8q0 -49 67 -49h22q67 0 67 49z" />
    <glyph glyph-name="nine.numr" horiz-adv-x="413" 
d="M289 432v41q-58 -11 -112 -11q-72 0 -103 27t-31 79v38q0 63 36.5 89t108.5 26h43q71 0 104 -26t33 -90v-182q0 -63 -34 -90t-106 -27t-183 13l16 63q109 -14 150 -14q48 0 63 13t15 51zM289 530v82q0 25 -14 36.5t-50 11.5h-32q-71 0 -71 -48v-42q0 -27 14 -38.5
t54 -11.5q51 0 99 10z" />
    <glyph glyph-name="zero.dnom" horiz-adv-x="413" 
d="M291 141v123q0 50 -16 67.5t-68 17.5q-53 0 -69 -17.5t-16 -67.5v-123q0 -51 16 -68t69 -17q52 0 68 17t16 68zM370 274v-144q0 -72 -36.5 -103.5t-126.5 -31.5q-91 0 -127.5 31.5t-36.5 103.5v144q0 73 36.5 104.5t127.5 31.5q90 0 126.5 -31.5t36.5 -104.5z" />
    <glyph glyph-name="one.dnom" horiz-adv-x="413" 
d="M388 0h-336v63h134v266l-103 -63l-30 46l146 93h67v-342h122v-63z" />
    <glyph glyph-name="two.dnom" horiz-adv-x="413" 
d="M367 0h-320v74q0 61 17.5 88t74.5 51q19 8 60 23.5t59 23.5q32 12 32 34v18q0 21 -18 28t-52 7q-75 0 -154 -15l-19 60q92 18 180 18q140 0 140 -96v-20q0 -33 -17 -53t-53 -35q-20 -8 -63 -25t-65 -26q-42 -17 -42 -65v-27h240v-63z" />
    <glyph glyph-name="three.dnom" horiz-adv-x="413" 
d="M369 129v-16q0 -63 -42 -90.5t-124 -27.5q-63 0 -162 15l16 62q85 -15 135 -15q98 0 98 52v28q0 27 -14.5 37t-44.5 10q-37 0 -97 -7l-26 47l151 118h-207v63h301v-62l-142 -109q24 3 45 3q113 0 113 -108z" />
    <glyph glyph-name="four.dnom" horiz-adv-x="413" 
d="M327 0h-78v94h-222v51l203 260h97v-250h58v-61h-58v-94zM249 155v181l-143 -181h143z" />
    <glyph glyph-name="five.dnom" horiz-adv-x="413" 
d="M368 142v-32q0 -115 -166 -115q-83 0 -157 17l16 61q82 -16 127 -16q52 0 76.5 12.5t24.5 41.5v32q0 52 -73 52q-47 0 -132 -17l-35 37v190h307v-63h-228v-99q66 10 101 10q139 0 139 -111z" />
    <glyph glyph-name="six.dnom" horiz-adv-x="413" 
d="M227 -5h-45q-70 0 -103.5 26t-33.5 89v184q0 63 34 90t106 27q84 0 184 -13l-16 -61q-86 11 -151 11q-48 0 -63 -13t-15 -50v-42q58 11 113 11q73 0 104 -26.5t31 -79.5v-38q0 -63 -36.5 -89t-108.5 -26zM293 103v42q0 27 -14.5 39t-54.5 12q-52 0 -100 -10v-83
q0 -25 14 -36t50 -11h35q70 0 70 47z" />
    <glyph glyph-name="seven.dnom" horiz-adv-x="413" 
d="M173 0h-87l213 342h-260v63h350v-50z" />
    <glyph glyph-name="eight.dnom" horiz-adv-x="413" 
d="M297 108v18q0 34 -22 46t-60 12h-16q-38 0 -60 -12t-22 -46v-18q0 -52 76 -52h28q76 0 76 52zM375 125v-22q0 -54 -35.5 -81t-115.5 -27h-34q-80 0 -116 27t-36 81v22q0 67 66 88q-26 9 -40 31t-14 48v7q0 57 34 84t108 27h29q75 0 109 -27t34 -84v-7q0 -26 -14.5 -48
t-40.5 -31q66 -20 66 -88zM285 291v8q0 50 -67 50h-22q-67 0 -67 -50v-8q0 -49 67 -49h22q67 0 67 49z" />
    <glyph glyph-name="nine.dnom" horiz-adv-x="413" 
d="M289 121v41q-58 -11 -112 -11q-72 0 -103 27t-31 79v38q0 63 36.5 89t108.5 26h43q71 0 104 -26t33 -90v-182q0 -63 -34 -90t-106 -27t-183 13l16 63q109 -14 150 -14q48 0 63 13t15 51zM289 219v82q0 25 -14 36.5t-50 11.5h-32q-71 0 -71 -48v-42q0 -27 14 -38.5
t54 -11.5q51 0 99 10z" />
    <glyph glyph-name="dollar.osf" horiz-adv-x="612" 
d="M331 -100h-47v91q-116 3 -209 27l26 76q89 -24 183 -25v192h-44q-84 0 -124.5 36t-40.5 116v16q0 158 188 158h21v88h47v-90q97 -4 197 -19l-27 -75q-93 12 -170 17v-168h11q97 0 147.5 -33t50.5 -120v-28q0 -82 -50 -122.5t-159 -44.5v-92zM449 164v6q0 58 -25 74.5
t-88 16.5h-5v-191q66 6 92 24.5t26 69.5zM284 340v169h-7q-61 0 -85.5 -17.5t-24.5 -65.5v-6q0 -46 16 -63t69 -17h32z" />
    <glyph glyph-name="percent.osf" horiz-adv-x="612" 
d="M189 314h-15q-130 0 -130 122v30q0 121 130 121h15q129 0 129 -121v-30q0 -122 -129 -122zM179 374h4q56 0 56 61v32q0 61 -56 61h-4q-56 0 -56 -61v-32q0 -61 56 -61zM440 -9h-15q-130 0 -130 122v30q0 121 130 121h15q129 0 129 -121v-30q0 -122 -129 -122zM430 51h4
q56 0 56 61v32q0 61 -56 61h-4q-56 0 -56 -61v-32q0 -61 56 -61zM115 44l-34 29l397 451l33 -28z" />
    <glyph glyph-name="zero.osf" horiz-adv-x="648" 
d="M576 354v-130q0 -121 -59.5 -177t-192.5 -56t-192.5 56t-59.5 177v130q0 121 59.5 177t192.5 56t192.5 -56t59.5 -177zM479 228v122q0 90 -33.5 124t-121.5 34t-121.5 -34t-33.5 -124v-122q0 -90 33.5 -124t121.5 -34t121.5 34t33.5 124z" />
    <glyph glyph-name="one.osf" horiz-adv-x="441" 
d="M337 0h-96v477l-169 -112l-42 62l221 151h86v-578z" />
    <glyph glyph-name="two.osf" horiz-adv-x="560" 
d="M500 0h-437v70q0 50 5 79.5t24 53t40 37t69 37.5q131 65 147 73q27 13 40 29.5t13 45.5q0 50 -28 65.5t-89 15.5q-73 0 -191 -25l-26 78q131 28 232 28q99 0 149.5 -37t50.5 -123q0 -54 -23.5 -85.5t-76.5 -58.5q-94 -46 -165 -84q-44 -24 -58.5 -45t-14.5 -65v-8h339
v-81z" />
    <glyph glyph-name="three.osf" horiz-adv-x="550" 
d="M492 109v-8q0 -107 -59 -153.5t-178 -46.5q-95 0 -225 25l19 78q118 -24 192 -24q83 0 118.5 26t35.5 82v31q0 58 -25 80.5t-80 22.5q-44 0 -116 -13l-37 64l220 225h-311v80h415v-86l-199 -201q32 6 65 6q77 0 121 -42t44 -146z" />
    <glyph glyph-name="four.osf" horiz-adv-x="604" 
d="M467 -90h-93v175h-336v69l300 424h129v-416h93v-77h-93v-175zM374 162v333l-236 -333h236z" />
    <glyph glyph-name="five.osf" horiz-adv-x="577" 
d="M513 136v-43q0 -192 -241 -192q-101 0 -209 27l21 77q98 -25 170 -25q86 0 124 25.5t38 86.5v40q0 56 -21.5 84t-89.5 28q-63 0 -179 -30l-46 55v309h410v-80h-314v-195q87 20 149 20q99 0 143.5 -45.5t44.5 -141.5z" />
    <glyph glyph-name="six.osf" horiz-adv-x="603" 
d="M337 -9h-63q-102 0 -151 43.5t-49 149.5v297q0 106 48 151t152 45q90 0 252 -20l-23 -77q-119 17 -202 17q-81 0 -105.5 -27t-24.5 -106v-77q93 23 182 23q103 0 143.5 -44.5t40.5 -135.5v-48q0 -105 -48.5 -148t-151.5 -43zM440 170v54q0 60 -20 83t-88 23
q-83 0 -161 -21v-139q0 -54 25 -77t88 -23h45q62 0 86.5 23t24.5 77z" />
    <glyph glyph-name="seven.osf" horiz-adv-x="528" 
d="M208 -90h-104l284 587h-352v81h456v-67z" />
    <glyph glyph-name="eight.osf" horiz-adv-x="605" 
d="M432 491v9q0 56 -32 77t-88 21h-19q-56 0 -88 -21t-32 -77v-9q0 -100 118 -100h23q118 0 118 100zM450 177v18q0 67 -36 91.5t-100 24.5h-23q-64 0 -100 -24.5t-36 -91.5v-18q0 -59 33.5 -83.5t96.5 -24.5h35q63 0 96.5 24.5t33.5 83.5zM547 198v-27q0 -180 -228 -180
h-33q-228 0 -228 180v27q0 121 115 153q-48 15 -72 53t-24 83v11q0 85 53.5 132t158.5 47h27q105 0 158.5 -47t53.5 -132v-11q0 -45 -24 -83t-72 -53q115 -32 115 -153z" />
    <glyph glyph-name="nine.osf" horiz-adv-x="600" 
d="M429 113v78q-93 -23 -169 -23q-105 0 -150 45.5t-45 134.5v48q0 104 53.5 147.5t157.5 43.5h50q102 0 150.5 -43.5t48.5 -149.5v-297q0 -105 -52 -150.5t-157 -45.5q-85 0 -237 18l22 77q126 -16 194 -16q82 0 108 27.5t26 105.5zM429 267v141q0 54 -25 77t-88 23h-31
q-65 0 -94.5 -24t-29.5 -76v-55q0 -58 25.5 -82t95.5 -24q73 0 147 20z" />
    <glyph glyph-name="cent.osf" horiz-adv-x="612" 
d="M368 -89h-49v81q-7 0 -20.5 -0.5t-19.5 -0.5q-111 0 -156 44t-45 135v233q0 184 199 184q5 0 19 -0.5t23 -0.5v81h49v-84q104 -7 178 -20l-23 -74q-83 12 -155 16v-432q103 9 165 23l19 -74q-55 -16 -184 -26v-85zM319 70v438q-10 1 -26 1q-68 0 -93.5 -25.5t-25.5 -89.5
v-218q0 -59 25 -82.5t94 -23.5h26z" />
    <glyph glyph-name="sterling.osf" horiz-adv-x="612" 
d="M560 0h-489v88q37 11 60 24.5t32 31t11.5 30t2.5 33.5q0 31 -9 71h-95v65h82q-12 69 -12 88q0 74 49.5 115t134.5 41q100 0 229 -23l-27 -74q-125 19 -184 19q-108 0 -108 -86q0 -25 10 -80h261v-65h-250q8 -50 8 -79q0 -25 -4 -42.5t-21 -39t-49 -36.5h368v-81z" />
    <glyph glyph-name="yen.osf" horiz-adv-x="612" 
d="M526 83h-172v-83h-95v83h-172v56h172v72h-172v56h144l-191 311h108l158 -291l159 291h107l-191 -311h145v-56h-172v-72h172v-56z" />
    <glyph glyph-name="section.osf" horiz-adv-x="612" 
d="M72 23l23 67q44 -11 115.5 -21.5t105.5 -10.5q64 0 88.5 8t24.5 32q0 26 -21 36.5t-79 23.5q-4 1 -63 14.5t-65 15.5q-70 17 -100.5 38.5t-30.5 62.5q0 84 94 88q-38 13 -53.5 35.5t-15.5 58.5q0 62 43 89t130 27q91 0 256 -23l-23 -68q-147 24 -228 24q-51 0 -70 -9.5
t-19 -35.5t14.5 -37.5t63.5 -23.5l155 -38q72 -18 100 -40t28 -70q0 -35 -27 -55.5t-72 -22.5q43 -17 57 -38.5t14 -58.5q0 -50 -45 -75t-148 -25q-128 0 -252 32zM457 263q0 17 -15 27t-56 20q-129 33 -143 33q-30 -1 -46.5 -4t-28.5 -12t-12 -25q0 -14 14 -25t57 -21
q118 -28 140 -28q90 0 90 35z" />
    <glyph glyph-name="perthousand.osf" horiz-adv-x="612" 
d="M172 357h-12q-112 0 -112 113v5q0 112 112 112h12q112 0 112 -112v-5q0 -113 -112 -113zM162 415h8q23 0 33.5 11.5t10.5 41.5v9q0 29 -10.5 40.5t-33.5 11.5h-8q-23 0 -33.5 -11.5t-10.5 -40.5v-9q0 -30 10.5 -41.5t33.5 -11.5zM576 380l-527 -145l-13 42l526 147z
M172 -9h-12q-112 0 -112 112v5q0 113 112 113h12q112 0 112 -113v-5q0 -112 -112 -112zM162 49h8q23 0 33.5 11.5t10.5 40.5v9q0 30 -10.5 41.5t-33.5 11.5h-8q-23 0 -33.5 -11.5t-10.5 -41.5v-9q0 -29 10.5 -40.5t33.5 -11.5zM452 -9h-11q-113 0 -113 112v5q0 113 113 113
h11q113 0 113 -113v-5q0 -112 -113 -112zM442 49h8q24 0 34 11.5t10 40.5v9q0 30 -10 41.5t-34 11.5h-8q-23 0 -33.5 -11.5t-10.5 -41.5v-9q0 -29 10.5 -40.5t33.5 -11.5z" />
    <glyph glyph-name="Euro.osf" horiz-adv-x="612" 
d="M562 94l23 -73q-105 -30 -212 -30q-126 0 -177.5 37.5t-51.5 146.5v23h-117l16 55h100v78h-83l15 54h69v18q0 99 51.5 141.5t171.5 42.5q107 0 223 -22l-23 -75q-103 18 -190 18q-48 0 -76.5 -6t-42.5 -22.5t-18 -35t-4 -52.5v-7h312l-14 -54h-297v-78h278l-14 -55h-265
v-13q0 -71 29 -93t124 -22q76 0 173 24z" />
    <glyph glyph-name="dollar.tf" 
d="M345 -100h-48v91q-116 3 -209 27l26 78q80 -23 183 -26v264h-44q-165 0 -165 170v38q2 183 184 183h25v85h48v-87q111 -6 196 -19l-27 -77q-95 13 -169 17v-229h13q94 0 144.5 -42.5t50.5 -138.5v-46q0 -182 -208 -196v-92zM461 194v23q0 65 -24.5 91t-83.5 26h-8v-263
q62 6 89 36t27 87zM297 415v230h-12q-58 0 -80.5 -25.5t-22.5 -79.5v-30q0 -49 16.5 -72t67.5 -23h31z" />
    <glyph glyph-name="percent.tf" 
d="M197 389h-15q-130 0 -130 127v83q0 126 130 126h15q129 0 129 -126v-83q0 -127 -129 -127zM187 451h4q56 0 56 61v90q0 61 -56 61h-4q-56 0 -56 -61v-90q0 -61 56 -61zM77 71l-31 35l517 540l32 -35zM464 -9h-15q-130 0 -130 127v83q0 126 130 126h15q129 0 129 -126v-83
q0 -127 -129 -127zM454 53h4q56 0 56 61v90q0 61 -56 61h-4q-56 0 -56 -61v-90q0 -61 56 -61z" />
    <glyph glyph-name="zero.tf" 
d="M557 491v-267q0 -124 -52.5 -178.5t-183.5 -54.5t-183.5 54.5t-52.5 178.5v267q0 124 52.5 179t183.5 55t183.5 -55t52.5 -179zM461 228v259q0 94 -27 126t-113 32t-113 -32t-27 -126v-259q0 -93 27 -125.5t113 -32.5t113 32.5t27 125.5z" />
    <glyph glyph-name="one.tf" 
d="M590 0h-505v81h218v534l-169 -112l-43 62l221 151h87v-635h191v-81z" />
    <glyph glyph-name="two.tf" 
d="M557 0h-469v121q0 106 25.5 152.5t109.5 90.5q15 8 88.5 42t87.5 42q28 14 42 31t14 47v38q0 47 -31.5 63.5t-93.5 16.5q-100 0 -213 -24l-26 77q131 28 253 28q100 0 154 -37t54 -122v-39q0 -55 -24.5 -88t-77.5 -60q-25 -13 -96 -47t-94 -46q-44 -23 -59.5 -55
t-15.5 -87v-63h372v-81z" />
    <glyph glyph-name="three.tf" 
d="M557 227v-35q0 -107 -62.5 -154t-183.5 -47q-91 0 -235 25l19 80q118 -24 199 -24q167 0 167 108v56q0 58 -26.5 81.5t-80.5 23.5q-66 0 -149 -13l-39 64l260 244h-336v80h442v-86l-240 -224q54 9 94 9q171 0 171 -188z" />
    <glyph glyph-name="four.tf" 
d="M491 0h-95v175h-336v70l297 471h134v-463h90v-78h-90v-175zM396 253v380l-237 -380h237z" />
    <glyph glyph-name="five.tf" 
d="M557 252v-68q0 -106 -64.5 -149.5t-181.5 -43.5q-123 0 -226 28l20 76q116 -25 184 -25q88 0 129.5 26t41.5 87v68q0 112 -126 112q-86 0 -204 -30l-46 54v329h453v-80h-357v-216q86 21 174 21q203 0 203 -189z" />
    <glyph glyph-name="six.tf" 
d="M349 -9h-66q-102 0 -150.5 43.5t-48.5 149.5v345q0 105 49.5 150.5t153.5 45.5q121 0 266 -21l-22 -77q-126 18 -217 18q-82 0 -108 -27t-26 -105v-97q93 23 185 23q104 0 149.5 -46t45.5 -134v-77q0 -104 -53.5 -147.5t-157.5 -43.5zM464 170v84q0 58 -25.5 82t-95.5 24
q-81 0 -163 -20v-170q0 -54 25 -77t88 -23h47q65 0 94.5 24t29.5 76z" />
    <glyph glyph-name="seven.tf" 
d="M256 0h-103l322 636h-408v80h508v-70z" />
    <glyph glyph-name="eight.tf" 
d="M470 177v35q0 70 -38.5 97t-103.5 27h-15q-65 0 -103.5 -27t-38.5 -97v-35q0 -59 35 -83t99 -24h31q64 0 99 24t35 83zM452 524v17q0 60 -31.5 82.5t-86.5 22.5h-27q-55 0 -86.5 -22.5t-31.5 -82.5v-17q0 -61 31.5 -83.5t86.5 -22.5h27q55 0 86.5 22.5t31.5 83.5zM346 -9
h-51q-116 0 -168.5 45.5t-52.5 134.5v45q0 124 116 160q-98 30 -98 144v19q0 95 49.5 140.5t157.5 45.5h43q108 0 157.5 -45.5t49.5 -140.5v-19q0 -114 -98 -144q116 -36 116 -160v-45q0 -89 -52.5 -134.5t-168.5 -45.5z" />
    <glyph glyph-name="nine.tf" 
d="M460 203v97q-95 -23 -185 -23q-104 0 -149.5 45.5t-45.5 134.5v77q0 104 53.5 147.5t158.5 43.5h65q103 0 151 -43.5t48 -149.5v-345q0 -105 -49.5 -150.5t-153.5 -45.5q-123 0 -266 21l22 77q128 -18 217 -18q82 0 108 27t26 105zM460 377v168q0 54 -25 77.5t-88 23.5
h-47q-64 0 -94 -24t-30 -77v-83q0 -58 24.5 -82t94.5 -24q87 0 165 21z" />
    <glyph glyph-name="cent.tf" 
d="M366 -13h-51v81h-16q-110 0 -156 43t-46 139v208q0 96 51 140t151 44h16v88h51v-91q113 -7 184 -21l-23 -74q-107 15 -161 18v-413q94 8 171 24l19 -74q-91 -22 -190 -29v-83zM315 147v417h-4q-68 0 -93 -26.5t-25 -94.5v-186q0 -62 24.5 -86t93.5 -24h4z" />
    <glyph glyph-name="sterling.tf" 
d="M579 0h-489v88q37 15 59.5 31.5t32 35t11.5 31t2 33.5t-13 118h-95v78h82q-16 140 -16 145q0 76 48 120.5t134 44.5q103 0 229 -24l-27 -75q-125 19 -182 19q-109 0 -109 -84q0 -31 17 -146h260v-78h-248q11 -102 11 -125q0 -20 -1.5 -33.5t-7.5 -32.5t-21 -35.5
t-39 -29.5h362v-81z" />
    <glyph glyph-name="yen.tf" 
d="M541 133h-172v-133h-95v133h-172v56h172v72h-172v56h143l-192 399h109l159 -377l160 377h109l-192 -399h143v-56h-172v-72h172v-56z" />
    <glyph glyph-name="section.tf" 
d="M83 24l23 76q126 -32 218 -32q66 0 89 13t23 51q0 26 -23 40.5t-77 26.5q-2 1 -32 7.5t-59 13.5t-33 8q-71 18 -101 42.5t-30 80.5q0 51 22.5 79.5t71.5 38.5q-39 14 -54 40.5t-15 74.5q0 141 178 141q86 0 251 -23l-23 -77q-154 22 -227 22q-48 0 -68.5 -16t-20.5 -48
q0 -33 14.5 -46t64.5 -25l153 -37q68 -16 98 -47.5t30 -91.5q0 -41 -25 -70.5t-74 -32.5q43 -17 57 -43t14 -65q0 -67 -45.5 -100.5t-149.5 -33.5q-122 0 -250 33zM395 401q-119 33 -140 33q-86 -3 -86 -66q0 -31 11.5 -43t59.5 -23q7 -2 42.5 -10.5t58 -12.5t35.5 -4
q90 0 90 55q0 34 -14 47t-57 24z" />
    <glyph glyph-name="uni2007.tf" 
 />
    <glyph glyph-name="perthousand.tf" 
d="M591 449l-526 -146l-14 45l526 147zM187 430h-12q-63 0 -87.5 32t-24.5 94v43q0 62 24.5 94t87.5 32h12q63 0 87.5 -32t24.5 -94v-43q0 -62 -24.5 -94t-87.5 -32zM177 491h8q26 0 34.5 14t8.5 47v50q0 33 -8.5 47t-34.5 14h-8q-27 0 -35 -13.5t-8 -47.5v-50q0 -33 8 -47
t35 -14zM187 -9h-12q-63 0 -87.5 32t-24.5 94v43q0 62 24.5 94t87.5 32h12q63 0 87.5 -32t24.5 -94v-43q0 -62 -24.5 -94t-87.5 -32zM177 52h8q26 0 34.5 14t8.5 47v50q0 33 -8.5 47t-34.5 14h-8q-27 0 -35 -13.5t-8 -47.5v-50q0 -33 8 -47t35 -14zM467 -9h-11
q-64 0 -88.5 32t-24.5 94v43q0 62 24.5 94t88.5 32h11q64 0 88.5 -32t24.5 -94v-43q0 -62 -24.5 -94t-88.5 -32zM458 52h7q27 0 35.5 14t8.5 47v50q0 33 -8.5 47t-35.5 14h-7q-27 0 -35.5 -14t-8.5 -47v-50q0 -33 8.5 -47t35.5 -14z" />
    <glyph glyph-name="Euro.tf" 
d="M569 95l23 -72q-105 -32 -212 -32q-124 0 -177 45.5t-53 163.5v62h-118l17 64h101v76h-83l17 63h66v42q0 116 48.5 167t175.5 51q106 0 223 -22l-23 -76q-103 18 -190 18q-48 0 -76 -8.5t-42 -29.5t-17.5 -44.5t-3.5 -66.5v-31h312l-17 -63h-294v-76h276l-17 -64h-260
v-52q0 -80 29.5 -109.5t120.5 -29.5q77 0 174 24z" />
    <glyph glyph-name="dollar.tosf" 
d="M344 -100h-47v91q-116 3 -209 27l26 76q89 -24 183 -25v192h-44q-84 0 -124.5 36t-40.5 116v16q0 158 188 158h21v88h47v-90q97 -4 197 -19l-27 -75q-93 12 -170 17v-168h11q97 0 147.5 -33t50.5 -120v-28q0 -82 -50 -122.5t-159 -44.5v-92zM462 164v6q0 58 -25 74.5
t-88 16.5h-5v-191q66 6 92 24.5t26 69.5zM297 340v169h-7q-61 0 -85.5 -17.5t-24.5 -65.5v-6q0 -46 16 -63t69 -17h32z" />
    <glyph glyph-name="percent.tosf" 
d="M203 314h-15q-130 0 -130 122v30q0 121 130 121h15q129 0 129 -121v-30q0 -122 -129 -122zM193 374h4q56 0 56 61v32q0 61 -56 61h-4q-56 0 -56 -61v-32q0 -61 56 -61zM454 -9h-15q-130 0 -130 122v30q0 121 130 121h15q129 0 129 -121v-30q0 -122 -129 -122zM444 51h4
q56 0 56 61v32q0 61 -56 61h-4q-56 0 -56 -61v-32q0 -61 56 -61zM129 44l-34 29l397 451l33 -28z" />
    <glyph glyph-name="zero.tosf" 
d="M557 354v-130q0 -124 -53 -178.5t-183 -54.5q-131 0 -183.5 54.5t-52.5 178.5v130q0 124 52.5 178.5t183.5 54.5q130 0 183 -54.5t53 -178.5zM461 228v122q0 93 -27 125.5t-113 32.5t-113 -32.5t-27 -125.5v-122q0 -93 27 -125.5t113 -32.5t113 32.5t27 125.5z" />
    <glyph glyph-name="one.tosf" 
d="M594 0h-504v81h217v396l-169 -112l-42 62l221 151h86v-497h191v-81z" />
    <glyph glyph-name="two.tosf" 
d="M551 0h-459v70q0 96 26 132.5t113 74.5q9 4 79 34.5t87 38.5q28 13 42 30t14 46q0 50 -29 65t-92 15q-90 0 -210 -25l-26 78q131 28 250 28q101 0 152.5 -36t51.5 -124q0 -57 -24 -87.5t-78 -55.5q-13 -6 -85 -39t-99 -46q-44 -21 -58.5 -43t-15.5 -67v-8h361v-81z" />
    <glyph glyph-name="three.tosf" 
d="M556 109v-7q0 -107 -63 -154t-183 -47q-113 0 -235 25l18 78q108 -22 203 -22q85 0 124 26.5t39 82.5v28q0 58 -27.5 81.5t-81.5 23.5q-74 0 -146 -13l-38 66l253 221h-331v80h435v-88l-232 -201q54 8 91 8q174 0 174 -188z" />
    <glyph glyph-name="four.tosf" 
d="M487 -90h-93v175h-335v69l300 424h128v-416h93v-77h-93v-175zM394 162v333l-235 -333h235z" />
    <glyph glyph-name="five.tosf" 
d="M558 134v-41q0 -105 -65.5 -148.5t-182.5 -43.5q-113 0 -226 26l20 77q107 -23 187 -23q88 0 129.5 26t41.5 86v39q0 112 -127 112q-88 0 -206 -30l-45 55v309h450v-81h-354v-194q88 20 175 20q203 0 203 -189z" />
    <glyph glyph-name="six.tosf" 
d="M350 -9h-68q-102 0 -150 43.5t-48 149.5v297q0 105 52 150.5t157 45.5t257 -18l-21 -79q-128 16 -215 16q-82 0 -108 -27t-26 -105v-77q92 23 186 23q105 0 151 -45.5t46 -134.5v-48q0 -104 -54 -147.5t-159 -43.5zM466 170v54q0 58 -25.5 83t-95.5 25q-87 0 -165 -21
v-141q0 -54 24.5 -77t88.5 -23h49q65 0 94.5 24t29.5 76z" />
    <glyph glyph-name="seven.tosf" 
d="M255 -90h-102l318 588h-401v80h501v-70z" />
    <glyph glyph-name="eight.tosf" 
d="M566 198v-27q0 -180 -228 -180h-33q-229 0 -229 180v27q0 121 115 153q-48 15 -72 53t-24 83v11q0 85 53.5 132t158.5 47h28q105 0 158.5 -47t53.5 -132v-11q0 -45 -24 -83t-72 -53q115 -32 115 -153zM451 491v9q0 56 -32 77t-88 21h-20q-56 0 -88 -21t-32 -77v-9
q0 -100 118 -100h24q118 0 118 100zM469 177v18q0 67 -37 91.5t-100 24.5h-22q-63 0 -100 -24.5t-37 -91.5v-18q0 -59 34 -83.5t96 -24.5h36q62 0 96 24.5t34 83.5z" />
    <glyph glyph-name="nine.tosf" 
d="M462 114v77q-93 -23 -187 -23q-105 0 -150 45.5t-45 134.5v48q0 104 53 147.5t158 43.5h68q102 0 150.5 -43.5t48.5 -149.5v-297q0 -105 -52 -150.5t-157 -45.5q-118 0 -258 19l22 77q126 -16 215 -16q82 0 108 27.5t26 105.5zM462 267v141q0 54 -25 77t-88 23h-50
q-64 0 -93.5 -24t-29.5 -76v-55q0 -58 25 -82t95 -24q92 0 166 20z" />
    <glyph glyph-name="cent.tosf" 
d="M383 -89h-49v81q-7 0 -20.5 -0.5t-19.5 -0.5q-111 0 -156 44t-45 135v233q0 184 199 184q6 0 20 -0.5t22 -0.5v81h49v-84q104 -7 178 -20l-23 -74q-83 12 -155 16v-432q103 9 165 23l19 -74q-55 -16 -184 -26v-85zM334 70v438q-10 1 -26 1q-68 0 -93.5 -25.5t-25.5 -89.5
v-218q0 -59 25 -82.5t94 -23.5h26z" />
    <glyph glyph-name="sterling.tosf" 
d="M575 0h-489v88q37 11 60 24.5t32 31t11.5 30t2.5 33.5q0 31 -9 71h-95v65h82q-12 69 -12 88q0 74 49.5 115t134.5 41q100 0 229 -23l-27 -74q-125 19 -184 19q-108 0 -108 -86q0 -25 10 -80h261v-65h-250q8 -50 8 -79q0 -25 -4 -42.5t-21 -39t-49 -36.5h368v-81z" />
    <glyph glyph-name="yen.tosf" 
d="M541 83h-172v-83h-95v83h-172v56h172v72h-172v56h144l-191 311h108l158 -291l159 291h107l-191 -311h145v-56h-172v-72h172v-56z" />
    <glyph glyph-name="section.tosf" 
d="M86 23l23 67q44 -11 115.5 -21.5t105.5 -10.5q64 0 88.5 8t24.5 32q0 26 -21 36.5t-79 23.5q-4 1 -63 14.5t-65 15.5q-70 17 -100.5 38.5t-30.5 62.5q0 84 94 88q-38 13 -53.5 35.5t-15.5 58.5q0 62 43 89t130 27q91 0 256 -23l-23 -68q-147 24 -228 24q-51 0 -70 -9.5
t-19 -35.5t14.5 -37.5t63.5 -23.5l155 -38q72 -18 100 -40t28 -70q0 -35 -27 -55.5t-72 -22.5q43 -17 57 -38.5t14 -58.5q0 -50 -45 -75t-148 -25q-128 0 -252 32zM471 263q0 17 -15 27t-56 20q-129 33 -143 33q-30 -1 -46.5 -4t-28.5 -12t-12 -25q0 -14 14 -25t57 -21
q118 -28 140 -28q90 0 90 35z" />
    <glyph glyph-name="uni2007.tosf" 
 />
    <glyph glyph-name="perthousand.tosf" 
d="M187 357h-12q-112 0 -112 113v5q0 112 112 112h12q112 0 112 -112v-5q0 -113 -112 -113zM177 415h8q23 0 33.5 11.5t10.5 41.5v9q0 29 -10.5 40.5t-33.5 11.5h-8q-23 0 -33.5 -11.5t-10.5 -40.5v-9q0 -30 10.5 -41.5t33.5 -11.5zM591 380l-527 -145l-13 42l526 147z
M187 -9h-12q-112 0 -112 112v5q0 113 112 113h12q112 0 112 -113v-5q0 -112 -112 -112zM177 49h8q23 0 33.5 11.5t10.5 40.5v9q0 30 -10.5 41.5t-33.5 11.5h-8q-23 0 -33.5 -11.5t-10.5 -41.5v-9q0 -29 10.5 -40.5t33.5 -11.5zM467 -9h-11q-113 0 -113 112v5q0 113 113 113
h11q113 0 113 -113v-5q0 -112 -113 -112zM457 49h8q24 0 34 11.5t10 40.5v9q0 30 -10 41.5t-34 11.5h-8q-23 0 -33.5 -11.5t-10.5 -41.5v-9q0 -29 10.5 -40.5t33.5 -11.5z" />
    <glyph glyph-name="Euro.tosf" 
d="M571 94l23 -73q-105 -30 -212 -30q-126 0 -177.5 37.5t-51.5 146.5v23h-117l16 55h100v78h-83l15 54h69v18q0 99 51.5 141.5t171.5 42.5q107 0 223 -22l-23 -75q-103 18 -190 18q-48 0 -76.5 -6t-42.5 -22.5t-18 -35t-4 -52.5v-7h312l-14 -54h-297v-78h278l-14 -55h-265
v-13q0 -71 29 -93t124 -22q76 0 173 24z" />
    <glyph glyph-name="hyphen.case" horiz-adv-x="457" 
d="M382 317h-307v82h307v-82z" />
    <glyph glyph-name="guillemotleft.case" horiz-adv-x="530" 
d="M462 183h-94l-94 175l94 174h94l-97 -174zM259 183h-94l-94 175l94 174h94l-97 -174z" />
    <glyph glyph-name="uni00AD.case" horiz-adv-x="457" 
d="M382 317h-307v82h307v-82z" />
    <glyph glyph-name="guillemotright.case" horiz-adv-x="530" 
d="M162 183h-94l97 175l-97 174h94l94 -174zM365 183h-94l97 175l-97 174h94l94 -174z" />
    <glyph glyph-name="acutecomb.case" horiz-adv-x="1" 
d="M-224 873l-230 -96l-30 55l221 109z" />
    <glyph glyph-name="uni0302.case" horiz-adv-x="1" 
d="M-204 775l-145 84l-146 -84l-42 49l188 118l187 -118z" />
    <glyph glyph-name="uni0304.case" horiz-adv-x="1" 
d="M-86 825h-349v68h349v-68z" />
    <glyph glyph-name="uni0306.case" horiz-adv-x="1" 
d="M-128 930l42 -39q-68 -100 -178 -100t-178 100l42 39q69 -67 136 -67t136 67z" />
    <glyph glyph-name="uni0307.case" horiz-adv-x="1" 
d="M-86 805l-111 -23v102h111v-79z" />
    <glyph glyph-name="uni030A.case" horiz-adv-x="1" 
d="M-86 856q0 -41 -29.5 -69t-71.5 -28q-41 0 -71 28t-30 69t30 69t71 28q42 0 71.5 -28t29.5 -69zM-187 811q18 0 31 13t13 32t-13 31.5t-31 12.5q-17 0 -30 -13t-13 -31q0 -19 12.5 -32t30.5 -13z" />
    <glyph glyph-name="uni030B.case" horiz-adv-x="1" 
d="M-314 871l-216 -94l-31 45l209 111zM-86 871l-216 -94l-31 45l209 111z" />
    <glyph glyph-name="uni030C.case" horiz-adv-x="1" 
d="M-112 893l-187 -118l-188 118l42 49l146 -84l145 84z" />
    <glyph glyph-name="uni0326.case" horiz-adv-x="1" 
d="M-133 -243h-78l40 198h97z" />
    <glyph glyph-name="uni0327.case" horiz-adv-x="1" 
d="M-326 -210l18 57q46 -12 84 -12q67 0 67 34q0 25 -37 25q-31 0 -93 -11l-11 35l45 94h72l-39 -73q33 5 50 5q38 0 61 -18.5t23 -52.5q0 -31 -14.5 -52t-38.5 -30t-44 -12.5t-40 -3.5q-48 0 -103 15z" />
    <glyph glyph-name="uni0328.case" horiz-adv-x="1" 
d="M-98 -159l12 -55q-47 -11 -89 -11q-16 0 -31.5 2.5t-36 10.5t-33 26.5t-12.5 46.5q0 30 28 73t64 77h75q-38 -39 -63 -79t-25 -59q0 -22 13 -30t41 -8q33 0 57 6z" />
    <glyph glyph-name="endash.case" horiz-adv-x="568" 
d="M493 317h-418v82h418v-82z" />
    <glyph glyph-name="emdash.case" horiz-adv-x="895" 
d="M820 317h-745v82h745v-82z" />
    <glyph glyph-name="guilsinglleft.case" horiz-adv-x="327" 
d="M259 183h-94l-94 175l94 174h94l-97 -174z" />
    <glyph glyph-name="guilsinglright.case" horiz-adv-x="327" 
d="M162 183h-94l97 175l-97 174h94l94 -174z" />
    <glyph glyph-name="a.ss01" horiz-adv-x="598" 
d="M505 464v-464h-71l-14 39q-98 -48 -174 -48q-50 0 -84.5 13.5t-52.5 39.5t-25 57t-7 72v147q0 92 48 133.5t143 41.5q66 0 134 -10t103 -21zM408 114v287q-64 16 -122 16q-68 0 -90 -23.5t-22 -83.5v-123q0 -63 16.5 -90t75.5 -27q52 0 142 44z" />
    <glyph glyph-name="g.ss01" horiz-adv-x="599" 
d="M409 92v309q-65 16 -122 16q-66 0 -89 -21.5t-23 -77.5v-139q0 -56 18 -82.5t74 -26.5t142 22zM409 -62v74q-121 -21 -162 -21q-96 0 -132.5 48t-36.5 134v148q0 92 48 133t143 41q66 0 134 -10t103 -21v-536q0 -85 -47.5 -130.5t-157.5 -45.5q-51 0 -117 9t-104 21
l23 76q108 -27 190 -27q67 0 91.5 25.5t24.5 81.5z" />
    <glyph glyph-name="agrave.ss01" horiz-adv-x="598" 
d="M400 584l-230 96l39 68l221 -109zM505 464v-464h-71l-14 39q-98 -48 -174 -48q-50 0 -84.5 13.5t-52.5 39.5t-25 57t-7 72v147q0 92 48 133.5t143 41.5q66 0 134 -10t103 -21zM408 114v287q-64 16 -122 16q-68 0 -90 -23.5t-22 -83.5v-123q0 -63 16.5 -90t75.5 -27
q52 0 142 44z" />
    <glyph glyph-name="aacute.ss01" horiz-adv-x="598" 
d="M433 680l-230 -96l-30 55l221 109zM505 464v-464h-71l-14 39q-98 -48 -174 -48q-50 0 -84.5 13.5t-52.5 39.5t-25 57t-7 72v147q0 92 48 133.5t143 41.5q66 0 134 -10t103 -21zM408 114v287q-64 16 -122 16q-68 0 -90 -23.5t-22 -83.5v-123q0 -63 16.5 -90t75.5 -27
q52 0 142 44z" />
    <glyph glyph-name="acircumflex.ss01" horiz-adv-x="598" 
d="M443 582l-145 84l-146 -84l-42 49l188 118l187 -118zM505 464v-464h-71l-14 39q-98 -48 -174 -48q-50 0 -84.5 13.5t-52.5 39.5t-25 57t-7 72v147q0 92 48 133.5t143 41.5q66 0 134 -10t103 -21zM408 114v287q-64 16 -122 16q-68 0 -90 -23.5t-22 -83.5v-123
q0 -63 16.5 -90t75.5 -27q52 0 142 44z" />
    <glyph glyph-name="atilde.ss01" horiz-adv-x="598" 
d="M437 716l39 -45q-50 -65 -112 -65q-24 0 -71 19t-66 19q-8 0 -15.5 -2t-12.5 -3.5t-13.5 -7.5t-11 -8t-13 -11t-12.5 -11l-40 44q57 69 112 69q28 0 76 -18.5t68 -18.5q30 0 72 39zM505 464v-464h-71l-14 39q-98 -48 -174 -48q-50 0 -84.5 13.5t-52.5 39.5t-25 57t-7 72
v147q0 92 48 133.5t143 41.5q66 0 134 -10t103 -21zM408 114v287q-64 16 -122 16q-68 0 -90 -23.5t-22 -83.5v-123q0 -63 16.5 -90t75.5 -27q52 0 142 44z" />
    <glyph glyph-name="adieresis.ss01" horiz-adv-x="598" 
d="M232 625l-101 -22v100h101v-78zM461 625l-101 -22v100h101v-78zM505 464v-464h-71l-14 39q-98 -48 -174 -48q-50 0 -84.5 13.5t-52.5 39.5t-25 57t-7 72v147q0 92 48 133.5t143 41.5q66 0 134 -10t103 -21zM408 114v287q-64 16 -122 16q-68 0 -90 -23.5t-22 -83.5v-123
q0 -63 16.5 -90t75.5 -27q52 0 142 44z" />
    <glyph glyph-name="aring.ss01" horiz-adv-x="598" 
d="M395 671q0 -41 -29.5 -69t-71.5 -28q-41 0 -71 28t-30 69t30 69t71 28q42 0 71.5 -28t29.5 -69zM294 626q18 0 31 13t13 32t-13 31.5t-31 12.5t-30.5 -12.5t-12.5 -31.5t12.5 -32t30.5 -13zM505 464v-464h-71l-14 39q-98 -48 -174 -48q-50 0 -84.5 13.5t-52.5 39.5
t-25 57t-7 72v147q0 92 48 133.5t143 41.5q66 0 134 -10t103 -21zM408 114v287q-64 16 -122 16q-68 0 -90 -23.5t-22 -83.5v-123q0 -63 16.5 -90t75.5 -27q52 0 142 44z" />
    <glyph glyph-name="ae.ss01" horiz-adv-x="913" 
d="M817 102l24 -73q-100 -38 -235 -38q-123 0 -162 61l-24 -12q-100 -49 -174 -49q-50 0 -84.5 13.5t-52.5 39.5t-25 57t-7 72v147q0 92 48 133.5t143 41.5q133 0 232 -30q41 30 105 30h42q193 0 193 -193v-81h-335v-52q0 -56 23 -78t83 -22q101 0 206 33zM408 114v287
q-64 16 -122 16q-68 0 -90 -23.5t-22 -83.5v-123q0 -63 16.5 -90t75.5 -27q52 0 142 44zM743 291v30q0 52 -24 75.5t-83 23.5h-21q-58 0 -84 -24t-26 -75v-30h238z" />
    <glyph glyph-name="amacron.ss01" horiz-adv-x="598" 
d="M471 628h-349v68h349v-68zM505 464v-464h-71l-14 39q-98 -48 -174 -48q-50 0 -84.5 13.5t-52.5 39.5t-25 57t-7 72v147q0 92 48 133.5t143 41.5q66 0 134 -10t103 -21zM408 114v287q-64 16 -122 16q-68 0 -90 -23.5t-22 -83.5v-123q0 -63 16.5 -90t75.5 -27q52 0 142 44z
" />
    <glyph glyph-name="abreve.ss01" horiz-adv-x="598" 
d="M431 721l42 -39q-68 -100 -178 -100t-178 100l42 39q69 -67 136 -67t136 67zM505 464v-464h-71l-14 39q-98 -48 -174 -48q-50 0 -84.5 13.5t-52.5 39.5t-25 57t-7 72v147q0 92 48 133.5t143 41.5q66 0 134 -10t103 -21zM408 114v287q-64 16 -122 16q-68 0 -90 -23.5
t-22 -83.5v-123q0 -63 16.5 -90t75.5 -27q52 0 142 44z" />
    <glyph glyph-name="aogonek.ss01" horiz-adv-x="598" 
d="M528 -158l12 -55q-47 -11 -89 -11q-16 0 -31.5 2.5t-36 10.5t-33 26.5t-12.5 46.5q0 30 28 73t64 77l-10 27q-98 -48 -174 -48q-50 0 -84.5 13.5t-52.5 39.5t-25 57t-7 72v147q0 92 48 133.5t143 41.5q66 0 134 -10t103 -21v-464h-12q-33 -36 -54.5 -72.5t-21.5 -53.5
q0 -22 13 -30t41 -8q33 0 57 6zM408 114v287q-64 16 -122 16q-68 0 -90 -23.5t-22 -83.5v-123q0 -63 16.5 -90t75.5 -27q52 0 142 44z" />
    <glyph glyph-name="gcircumflex.ss01" horiz-adv-x="599" 
d="M409 92v309q-65 16 -122 16q-66 0 -89 -21.5t-23 -77.5v-139q0 -56 18 -82.5t74 -26.5t142 22zM409 -62v74q-121 -21 -162 -21q-96 0 -132.5 48t-36.5 134v148q0 92 48 133t143 41q66 0 134 -10t103 -21v-536q0 -85 -47.5 -130.5t-157.5 -45.5q-51 0 -117 9t-104 21
l23 76q108 -27 190 -27q67 0 91.5 25.5t24.5 81.5zM449 582l-145 84l-146 -84l-42 49l188 118l187 -118z" />
    <glyph glyph-name="gbreve.ss01" horiz-adv-x="599" 
d="M409 92v309q-65 16 -122 16q-66 0 -89 -21.5t-23 -77.5v-139q0 -56 18 -82.5t74 -26.5t142 22zM409 -62v74q-121 -21 -162 -21q-96 0 -132.5 48t-36.5 134v148q0 92 48 133t143 41q66 0 134 -10t103 -21v-536q0 -85 -47.5 -130.5t-157.5 -45.5q-51 0 -117 9t-104 21
l23 76q108 -27 190 -27q67 0 91.5 25.5t24.5 81.5zM440 721l42 -39q-68 -100 -178 -100t-178 100l42 39q69 -67 136 -67t136 67z" />
    <glyph glyph-name="gdotaccent.ss01" horiz-adv-x="599" 
d="M409 92v309q-65 16 -122 16q-66 0 -89 -21.5t-23 -77.5v-139q0 -56 18 -82.5t74 -26.5t142 22zM409 -62v74q-121 -21 -162 -21q-96 0 -132.5 48t-36.5 134v148q0 92 48 133t143 41q66 0 134 -10t103 -21v-536q0 -85 -47.5 -130.5t-157.5 -45.5q-51 0 -117 9t-104 21
l23 76q108 -27 190 -27q67 0 91.5 25.5t24.5 81.5zM354 643l-105 -23v98h105v-75z" />
    <glyph glyph-name="gcommaaccent.ss01" horiz-adv-x="599" 
d="M409 92v309q-65 16 -122 16q-66 0 -89 -21.5t-23 -77.5v-139q0 -56 18 -82.5t74 -26.5t142 22zM409 -62v74q-121 -21 -162 -21q-96 0 -132.5 48t-36.5 134v148q0 92 48 133t143 41q66 0 134 -10t103 -21v-536q0 -85 -47.5 -130.5t-157.5 -45.5q-51 0 -117 9t-104 21
l23 76q108 -27 190 -27q67 0 91.5 25.5t24.5 81.5zM305 765h71l-47 -195h-88z" />
    <glyph glyph-name="a.ss02" horiz-adv-x="607" 
d="M514 486v-486h-71l-14 39q-98 -48 -186 -48q-82 0 -124 39t-42 126v168q0 82 35.5 126.5t122.5 44.5q83 0 192 -50l15 41h72zM417 112v261q-106 43 -159 43q-49 0 -67 -25.5t-18 -85.5v-133q0 -54 19.5 -78.5t74.5 -24.5q62 0 150 43z" />
    <glyph glyph-name="g.ss02" horiz-adv-x="609" 
d="M419 -62v83q-96 -30 -174 -30q-167 0 -167 164v169q0 82 35.5 126.5t122.5 44.5q83 0 192 -50l16 41h72v-558q0 -85 -47.5 -130.5t-156.5 -45.5q-51 0 -117.5 9t-104.5 21l23 76q108 -27 190 -27q67 0 91.5 25.5t24.5 81.5zM419 100v274q-111 42 -160 42q-48 0 -66 -24
t-18 -79v-149q0 -48 19.5 -71.5t73.5 -23.5q68 0 151 31z" />
    <glyph glyph-name="agrave.ss02" horiz-adv-x="607" 
d="M399 584l-230 96l39 68l221 -109zM514 486v-486h-71l-14 39q-98 -48 -186 -48q-82 0 -124 39t-42 126v168q0 82 35.5 126.5t122.5 44.5q83 0 192 -50l15 41h72zM417 112v261q-106 43 -159 43q-49 0 -67 -25.5t-18 -85.5v-133q0 -54 19.5 -78.5t74.5 -24.5q62 0 150 43z
" />
    <glyph glyph-name="aacute.ss02" horiz-adv-x="607" 
d="M428 680l-230 -96l-30 55l221 109zM514 486v-486h-71l-14 39q-98 -48 -186 -48q-82 0 -124 39t-42 126v168q0 82 35.5 126.5t122.5 44.5q83 0 192 -50l15 41h72zM417 112v261q-106 43 -159 43q-49 0 -67 -25.5t-18 -85.5v-133q0 -54 19.5 -78.5t74.5 -24.5q62 0 150 43z
" />
    <glyph glyph-name="acircumflex.ss02" horiz-adv-x="607" 
d="M441 582l-145 84l-146 -84l-42 49l188 118l187 -118zM514 486v-486h-71l-14 39q-98 -48 -186 -48q-82 0 -124 39t-42 126v168q0 82 35.5 126.5t122.5 44.5q83 0 192 -50l15 41h72zM417 112v261q-106 43 -159 43q-49 0 -67 -25.5t-18 -85.5v-133q0 -54 19.5 -78.5
t74.5 -24.5q62 0 150 43z" />
    <glyph glyph-name="atilde.ss02" horiz-adv-x="607" 
d="M444 716l39 -45q-50 -65 -112 -65q-25 0 -72 19t-65 19q-8 0 -15.5 -2t-12.5 -3.5t-13.5 -7.5t-11 -8t-13 -11t-12.5 -11l-40 44q57 69 112 69q28 0 76 -18.5t68 -18.5q30 0 72 39zM514 486v-486h-71l-14 39q-98 -48 -186 -48q-82 0 -124 39t-42 126v168q0 82 35.5 126.5
t122.5 44.5q83 0 192 -50l15 41h72zM417 112v261q-106 43 -159 43q-49 0 -67 -25.5t-18 -85.5v-133q0 -54 19.5 -78.5t74.5 -24.5q62 0 150 43z" />
    <glyph glyph-name="adieresis.ss02" horiz-adv-x="607" 
d="M248 625l-101 -22v100h101v-78zM477 625l-101 -22v100h101v-78zM514 486v-486h-71l-14 39q-98 -48 -186 -48q-82 0 -124 39t-42 126v168q0 82 35.5 126.5t122.5 44.5q83 0 192 -50l15 41h72zM417 112v261q-106 43 -159 43q-49 0 -67 -25.5t-18 -85.5v-133
q0 -54 19.5 -78.5t74.5 -24.5q62 0 150 43z" />
    <glyph glyph-name="aring.ss02" horiz-adv-x="607" 
d="M400 671q0 -41 -29.5 -69t-71.5 -28q-41 0 -71 28t-30 69t30 69t71 28q42 0 71.5 -28t29.5 -69zM299 626q18 0 31 13t13 32t-13 31.5t-31 12.5q-17 0 -30 -12.5t-13 -31.5t12.5 -32t30.5 -13zM514 486v-486h-71l-14 39q-98 -48 -186 -48q-82 0 -124 39t-42 126v168
q0 82 35.5 126.5t122.5 44.5q83 0 192 -50l15 41h72zM417 112v261q-106 43 -159 43q-49 0 -67 -25.5t-18 -85.5v-133q0 -54 19.5 -78.5t74.5 -24.5q62 0 150 43z" />
    <glyph glyph-name="ae.ss02" horiz-adv-x="922" 
d="M826 102l24 -73q-100 -38 -235 -38q-69 0 -111 18v-9h-61l-14 39q-98 -48 -186 -48q-82 0 -124 39t-42 126v168q0 82 35.5 126.5t122.5 44.5q83 0 192 -50l15 41h62v-25q42 34 110 34h42q193 0 193 -193v-81h-335v-52q0 -56 23 -78t83 -22q102 0 206 33zM417 112v261
q-106 43 -159 43q-49 0 -67 -25.5t-18 -85.5v-133q0 -54 19.5 -78.5t74.5 -24.5q62 0 150 43zM752 291v30q0 52 -24 75.5t-83 23.5h-21q-58 0 -84 -24t-26 -75v-30h238z" />
    <glyph glyph-name="amacron.ss02" horiz-adv-x="607" 
d="M475 628h-349v68h349v-68zM514 486v-486h-71l-14 39q-98 -48 -186 -48q-82 0 -124 39t-42 126v168q0 82 35.5 126.5t122.5 44.5q83 0 192 -50l15 41h72zM417 112v261q-106 43 -159 43q-49 0 -67 -25.5t-18 -85.5v-133q0 -54 19.5 -78.5t74.5 -24.5q62 0 150 43z" />
    <glyph glyph-name="abreve.ss02" horiz-adv-x="607" 
d="M437 721l42 -39q-68 -100 -178 -100t-178 100l42 39q69 -67 136 -67t136 67zM514 486v-486h-71l-14 39q-98 -48 -186 -48q-82 0 -124 39t-42 126v168q0 82 35.5 126.5t122.5 44.5q83 0 192 -50l15 41h72zM417 112v261q-106 43 -159 43q-49 0 -67 -25.5t-18 -85.5v-133
q0 -54 19.5 -78.5t74.5 -24.5q62 0 150 43z" />
    <glyph glyph-name="aogonek.ss02" horiz-adv-x="607" 
d="M537 -158l12 -55q-47 -11 -89 -11q-16 0 -31.5 2.5t-36 10.5t-33 26.5t-12.5 46.5q0 30 28 73t64 77l-10 27q-98 -48 -186 -48q-82 0 -124 39t-42 126v168q0 82 35.5 126.5t122.5 44.5q83 0 192 -50l15 41h72v-486h-12q-33 -36 -54.5 -72.5t-21.5 -53.5q0 -22 13 -30
t41 -8q33 0 57 6zM417 112v261q-106 43 -159 43q-49 0 -67 -25.5t-18 -85.5v-133q0 -54 19.5 -78.5t74.5 -24.5q62 0 150 43z" />
    <glyph glyph-name="gcircumflex.ss02" horiz-adv-x="609" 
d="M419 -62v83q-96 -30 -174 -30q-167 0 -167 164v169q0 82 35.5 126.5t122.5 44.5q83 0 192 -50l16 41h72v-558q0 -85 -47.5 -130.5t-156.5 -45.5q-51 0 -117.5 9t-104.5 21l23 76q108 -27 190 -27q67 0 91.5 25.5t24.5 81.5zM419 100v274q-111 42 -160 42q-48 0 -66 -24
t-18 -79v-149q0 -48 19.5 -71.5t73.5 -23.5q68 0 151 31zM448 582l-145 84l-146 -84l-42 49l188 118l187 -118z" />
    <glyph glyph-name="gbreve.ss02" horiz-adv-x="609" 
d="M419 -62v83q-96 -30 -174 -30q-167 0 -167 164v169q0 82 35.5 126.5t122.5 44.5q83 0 192 -50l16 41h72v-558q0 -85 -47.5 -130.5t-156.5 -45.5q-51 0 -117.5 9t-104.5 21l23 76q108 -27 190 -27q67 0 91.5 25.5t24.5 81.5zM419 100v274q-111 42 -160 42q-48 0 -66 -24
t-18 -79v-149q0 -48 19.5 -71.5t73.5 -23.5q68 0 151 31zM443 721l42 -39q-68 -100 -178 -100t-178 100l42 39q69 -67 136 -67t136 67z" />
    <glyph glyph-name="gdotaccent.ss02" horiz-adv-x="609" 
d="M419 -62v83q-96 -30 -174 -30q-167 0 -167 164v169q0 82 35.5 126.5t122.5 44.5q83 0 192 -50l16 41h72v-558q0 -85 -47.5 -130.5t-156.5 -45.5q-51 0 -117.5 9t-104.5 21l23 76q108 -27 190 -27q67 0 91.5 25.5t24.5 81.5zM419 100v274q-111 42 -160 42q-48 0 -66 -24
t-18 -79v-149q0 -48 19.5 -71.5t73.5 -23.5q68 0 151 31zM360 643l-105 -23v98h105v-75z" />
    <glyph glyph-name="gcommaaccent.ss02" horiz-adv-x="609" 
d="M419 -62v83q-96 -30 -174 -30q-167 0 -167 164v169q0 82 35.5 126.5t122.5 44.5q83 0 192 -50l16 41h72v-558q0 -85 -47.5 -130.5t-156.5 -45.5q-51 0 -117.5 9t-104.5 21l23 76q108 -27 190 -27q67 0 91.5 25.5t24.5 81.5zM419 100v274q-111 42 -160 42q-48 0 -66 -24
t-18 -79v-149q0 -48 19.5 -71.5t73.5 -23.5q68 0 151 31zM315 765h71l-47 -195h-88z" />
    <glyph glyph-name="orn001" horiz-adv-x="954" 
d="M620 152h-262v424h76v-363h186v-61zM779 221v274q0 84 -48 122t-126 38h-256q-78 0 -126 -38t-48 -122v-274q0 -85 48 -122.5t126 -37.5h256q78 0 126 37.5t48 122.5zM601 -9h-249q-261 0 -261 236v261q0 237 262 237h248q262 0 262 -237v-261q0 -236 -262 -236z" />
    </font>
</defs>
</svg>
