<?xml version="1.0" encoding="UTF-8"?>
<svg id="Layer_1" data-name="Layer 1" xmlns="http://www.w3.org/2000/svg" xmlns:xlink="http://www.w3.org/1999/xlink" viewBox="0 0 144 144">
  <defs>
    <style>
      .cls-1 {
        fill: url(#New_Gradient_Swatch_1-2);
      }

      .cls-2 {
        fill: url(#New_Gradient_Swatch_1-6);
      }

      .cls-3 {
        fill: url(#New_Gradient_Swatch_1-3);
      }

      .cls-4 {
        fill: url(#New_Gradient_Swatch_1-8);
      }

      .cls-5 {
        fill: url(#New_Gradient_Swatch_1-5);
      }

      .cls-6 {
        fill: url(#New_Gradient_Swatch_1-4);
      }

      .cls-7 {
        fill: url(#New_Gradient_Swatch_1-7);
      }

      .cls-8 {
        fill: url(#New_Gradient_Swatch_1);
      }
    </style>
    <linearGradient id="New_Gradient_Swatch_1" data-name="New Gradient Swatch 1" x1="22.5" y1="76.13" x2="48.24" y2="76.13" gradientUnits="userSpaceOnUse">
      <stop offset="0" stop-color="#80bf49"/>
      <stop offset=".22" stop-color="#67be5f"/>
      <stop offset=".7" stop-color="#2abc99"/>
      <stop offset="1" stop-color="#00bbc2"/>
    </linearGradient>
    <linearGradient id="New_Gradient_Swatch_1-2" data-name="New Gradient Swatch 1" x1="84.97" y1="109.61" x2="95.32" y2="109.61" xlink:href="#New_Gradient_Swatch_1"/>
    <linearGradient id="New_Gradient_Swatch_1-3" data-name="New Gradient Swatch 1" x1="41.89" y1="95.84" x2="98.16" y2="95.84" xlink:href="#New_Gradient_Swatch_1"/>
    <linearGradient id="New_Gradient_Swatch_1-4" data-name="New Gradient Swatch 1" x1="102.11" y1="53.86" x2="117.11" y2="53.86" xlink:href="#New_Gradient_Swatch_1"/>
    <linearGradient id="New_Gradient_Swatch_1-5" data-name="New Gradient Swatch 1" x1="64.1" y1="83.67" x2="119.08" y2="83.67" xlink:href="#New_Gradient_Swatch_1"/>
    <linearGradient id="New_Gradient_Swatch_1-6" data-name="New Gradient Swatch 1" x1="45.84" y1="52.41" x2="121.5" y2="52.41" xlink:href="#New_Gradient_Swatch_1"/>
    <linearGradient id="New_Gradient_Swatch_1-7" data-name="New Gradient Swatch 1" x1="48.68" y1="34.39" x2="59.03" y2="34.39" xlink:href="#New_Gradient_Swatch_1"/>
    <linearGradient id="New_Gradient_Swatch_1-8" data-name="New Gradient Swatch 1" x1="24.05" y1="60.33" x2="79.9" y2="60.33" xlink:href="#New_Gradient_Swatch_1"/>
  </defs>
  <path class="cls-8" d="M29.79,74.08c.08-.54.46-1.01,1.13-1.43.67-.42,1.29-.58,1.88-.49l.8.13c.39.06.72.17,1,.31.35.31.59.59.72.86.13.27.3.72.5,1.35l3.54,11.94,8.89,1.41c-1.48-5.08-2.97-10.15-4.48-15.24l-.29-1.02c-.02-.11-.07-.25-.1-.37-1.07-.74-2.18-1.5-3.37-2.32-2.22-1.52-4.7-3.23-7.43-5.12-1,0-1.98.14-2.95.41-1.33.37-2.55.93-3.64,1.71-1.1.78-2.02,1.7-2.76,2.78-.26.38-.48.78-.68,1.19-.18,4.86.34,9.61,1.51,14.15l4.01.64,1.72-10.88Z"/>
  <path class="cls-1" d="M86.75,104.65l-1.79,11.29,7.42,1.17c.2-.09.41-.18.61-.27l2.33-14.73-8.57,2.54Z"/>
  <path class="cls-3" d="M60.37,116.54c.55-.61,1.04-1.23,1.49-1.86.77-1.12,1.51-2.2,2.23-3.24,0-.37,0-.74.04-1.12l.11-1.18c.22-1.41.64-2.64,1.26-3.7.29-.55.69-1.1,1.2-1.65.51-.54,1.08-1.04,1.7-1.49.62-.45,1.24-.84,1.87-1.16.47-.24.88-.4,1.26-.5,1.16-1.68,2.23-3.23,3.18-4.6,1.56-2.25,2.86-4.15,3.9-5.71,1.05-1.56,1.93-2.85,2.64-3.89l2.73-3.99c.34-.59.84-1.04,1.49-1.34.65-.3,1.21-.41,1.7-.33l.66.1c.49.08,1.02.38,1.58.89.57.51.79,1.14.68,1.87l-1.92,12.13c1.15-.34,2.31-.68,3.46-1.02,1.7-.49,3.4-1,5.1-1.5l1.39-8.78c.13-1.13-.02-2.33-.44-3.59-.1-.3-.21-.59-.33-.87l-10.76-7.4c-.31,0-.62,0-.94.03-.89.08-1.7.24-2.43.48-1.27.45-2.42,1.15-3.44,2.11-1.03.96-1.87,1.92-2.51,2.86l-5.85,8.51c0,.55-.02,1.1-.1,1.63l-.25,1.09c-.2,1.27-.7,2.46-1.5,3.58-.8,1.12-1.75,2.09-2.86,2.92-.85.63-1.74,1.14-2.68,1.54l-9.14,13.3-.1-.32c-1.35-4.54-2.68-9.07-4-13.6l-8.87-1.4,5.06,17.06c.37,1.17.78,2.17,1.22,3.01,2.68,1.47,5.53,2.71,8.51,3.68.67-.23,1.31-.54,1.9-.95.64-.45,1.24-.98,1.79-1.59Z"/>
  <path class="cls-6" d="M104.65,57.25l11.29,1.79,1.17-7.41c-.09-.2-.18-.41-.27-.61l-14.73-2.33,2.54,8.57Z"/>
  <path class="cls-5" d="M116.54,83.63c-.61-.55-1.23-1.04-1.86-1.49-1.12-.77-2.2-1.51-3.24-2.23-.37,0-.74,0-1.12-.04l-1.18-.11c-1.41-.22-2.64-.64-3.7-1.26-.55-.29-1.1-.69-1.65-1.2-.54-.51-1.04-1.08-1.49-1.7-.45-.62-.84-1.24-1.16-1.87-.24-.47-.4-.88-.5-1.26-1.68-1.16-3.23-2.23-4.6-3.18-2.25-1.56-4.15-2.86-5.71-3.9-1.56-1.05-2.85-1.93-3.89-2.64l-3.99-2.73c-.59-.34-1.04-.84-1.34-1.49-.3-.65-.41-1.21-.33-1.7l.1-.66c.08-.49.38-1.02.89-1.58.51-.57,1.14-.79,1.87-.68l12.13,1.92c-.34-1.15-.68-2.31-1.02-3.46-.49-1.7-1-3.4-1.5-5.1l-8.78-1.39c-1.13-.13-2.33.02-3.59.44-.3.1-.59.21-.87.33l-7.4,10.76c0,.31,0,.62.03.94.08.89.24,1.7.48,2.43.45,1.27,1.15,2.42,2.11,3.44.96,1.03,1.92,1.87,2.86,2.51l8.51,5.85,10.76,7.4,13.3,9.14-.32.1c-4.54,1.35-9.07,2.68-13.6,4-1.7.5-3.4,1.01-5.1,1.5-1.15.34-2.31.68-3.46,1.02-5.08,1.48-10.15,2.97-15.24,4.48l-1.02.29c-.11.02-.25.07-.37.1-.38.1-.79.26-1.26.5-.62.33-1.25.71-1.87,1.16-.62.45-1.19.95-1.7,1.49-.51.55-.91,1.09-1.2,1.65-.62,1.05-1.04,2.28-1.26,3.7l-.11,1.18c-.03.37-.04.75-.04,1.12,0,1,.14,1.98.41,2.95.37,1.33.93,2.55,1.71,3.64.78,1.1,1.7,2.02,2.78,2.76.38.26.78.48,1.19.68,7.83.3,15.39-1.27,22.2-4.35l-7.42-1.17-10.88-1.72c-.54-.08-1.01-.46-1.43-1.13-.42-.67-.58-1.29-.49-1.88l.13-.8c.06-.39.17-.72.31-1,.31-.35.59-.59.87-.72.27-.13.72-.3,1.35-.5l11.94-3.54,8.57-2.54,17.06-5.06c1.17-.37,2.17-.78,3.01-1.22,1.47-2.68,2.71-5.53,3.68-8.51-.23-.67-.54-1.31-.95-1.9-.45-.64-.98-1.24-1.59-1.79Z"/>
  <path class="cls-2" d="M83.63,27.46c-.55.61-1.04,1.23-1.49,1.86-.77,1.12-1.51,2.2-2.23,3.24,0,.37,0,.74-.04,1.12l-.11,1.18c-.22,1.41-.64,2.64-1.26,3.7-.29.55-.69,1.1-1.2,1.65-.51.54-1.08,1.04-1.7,1.49-.62.45-1.24.84-1.87,1.16-.47.24-.88.4-1.26.5-1.16,1.68-2.23,3.23-3.18,4.6-1.56,2.25-2.86,4.15-3.9,5.71-1.05,1.56-1.93,2.85-2.64,3.89l-2.73,3.99c-.34.59-.84,1.04-1.49,1.34-.65.3-1.21.41-1.7.33l-.66-.1c-.49-.08-1.02-.38-1.58-.89-.57-.51-.79-1.14-.68-1.87l1.92-12.13c-1.15.34-2.31.68-3.46,1.02-1.7.49-3.4,1-5.1,1.5l-1.39,8.78c-.13,1.13.02,2.33.44,3.59.1.3.21.59.33.87l10.76,7.4c.31,0,.62,0,.94-.03.89-.08,1.7-.24,2.43-.48,1.27-.45,2.42-1.15,3.44-2.11,1.03-.96,1.87-1.92,2.51-2.86l5.85-8.51,7.4-10.76,9.14-13.3.1.32c1.35,4.54,2.68,9.07,4,13.6.5,1.7,1.01,3.4,1.5,5.1.34,1.15.68,2.31,1.02,3.46,1.48,5.08,2.97,10.15,4.48,15.24l.29,1.02c.02.11.07.25.1.37.1.38.26.79.5,1.26.33.62.71,1.25,1.16,1.87.45.62.95,1.19,1.49,1.7.55.51,1.09.91,1.65,1.2,1.05.62,2.28,1.04,3.7,1.26l1.18.11c.37.03.75.04,1.12.04,1,0,1.98-.14,2.95-.41,1.33-.37,2.55-.93,3.64-1.71,1.1-.77,2.02-1.7,2.76-2.78.26-.38.48-.78.68-1.19.3-7.83-1.27-15.39-4.35-22.2l-1.17,7.41-1.72,10.88c-.08.54-.46,1.01-1.13,1.43-.67.42-1.29.58-1.88.49l-.8-.13c-.39-.06-.72-.17-1-.31-.35-.31-.59-.59-.72-.86-.13-.27-.3-.72-.5-1.35l-3.54-11.94-2.54-8.57-5.06-17.06c-.37-1.17-.78-2.17-1.22-3.01-2.68-1.47-5.53-2.71-8.51-3.68-.67.23-1.31.54-1.9.95-.64.45-1.24.98-1.79,1.59Z"/>
  <path class="cls-7" d="M57.25,39.35l1.79-11.29-7.42-1.17c-.2.09-.41.18-.61.27l-2.33,14.73,8.57-2.54Z"/>
  <path class="cls-4" d="M50.76,96.73l8.78,1.39c1.13.13,2.33-.02,3.59-.44.3-.1.59-.21.87-.33.94-.4,1.84-.91,2.68-1.54,1.11-.83,2.06-1.8,2.86-2.92.8-1.12,1.3-2.32,1.5-3.58l.25-1.09c.08-.53.11-1.08.1-1.63,0-.31,0-.62-.03-.94-.08-.89-.24-1.7-.48-2.43-.45-1.27-1.15-2.42-2.11-3.44-.96-1.03-1.92-1.87-2.86-2.51l-8.51-5.85-10.76-7.4-13.3-9.14.32-.1c4.54-1.35,9.07-2.68,13.6-4,1.7-.5,3.4-1.01,5.1-1.5,1.15-.34,2.31-.68,3.46-1.02,5.08-1.48,10.15-2.97,15.24-4.48l1.02-.29c.11-.02.25-.07.37-.1.38-.1.79-.26,1.26-.5.62-.33,1.25-.71,1.87-1.16.62-.45,1.19-.95,1.7-1.49.51-.55.91-1.09,1.2-1.65.62-1.05,1.04-2.28,1.26-3.7l.11-1.18c.03-.37.04-.75.04-1.12,0-1-.14-1.98-.41-2.95-.37-1.33-.93-2.55-1.71-3.64-.78-1.1-1.7-2.02-2.78-2.76-.38-.26-.78-.48-1.19-.68-7.83-.3-15.39,1.27-22.2,4.35l7.42,1.17,10.88,1.72c.54.08,1.01.46,1.43,1.13.42.67.58,1.29.49,1.88l-.13.8c-.06.39-.17.72-.31,1-.31.35-.59.59-.87.72-.27.13-.72.3-1.35.5l-11.94,3.54-8.57,2.54-17.06,5.06c-1.17.37-2.17.78-3.01,1.22-1.47,2.68-2.71,5.53-3.68,8.51.23.67.54,1.31.95,1.9.45.64.98,1.24,1.59,1.79.61.55,1.23,1.04,1.86,1.49,1.12.77,2.2,1.51,3.24,2.23,2.73,1.88,5.22,3.59,7.43,5.12,1.19.82,2.3,1.58,3.37,2.32,1.68,1.16,3.23,2.23,4.6,3.18,2.25,1.56,4.15,2.86,5.71,3.9,1.56,1.05,2.85,1.93,3.89,2.64l3.99,2.73c.59.34,1.04.84,1.34,1.49.3.65.41,1.21.33,1.7l-.1.66c-.08.49-.38,1.02-.89,1.58-.51.57-1.14.79-1.87.68l-12.13-1.92-8.89-1.41-11.29-1.79-4.01-.64c.77,2.99,1.81,5.89,3.11,8.66l14.73,2.33,8.87,1.4Z"/>
</svg>