<svg width="1229" height="832" viewBox="0 0 1229 832" fill="none" xmlns="http://www.w3.org/2000/svg">
<g clip-path="url(#clip0_465_3747)">
<mask id="path-1-inside-1_465_3747" fill="white">
<path d="M864.602 19C864.602 12.3726 869.974 7 876.602 7H1210C1216.63 7 1222 12.3726 1222 19V813C1222 819.627 1216.63 825 1210 825H876.602C869.974 825 864.602 819.627 864.602 813V19Z"/>
</mask>
<path d="M876.602 7V8H1210V7V6H876.602V7ZM1222 19H1221V813H1222H1223V19H1222ZM1210 825V824H876.602V825V826H1210V825ZM864.602 813H865.602V19H864.602H863.602V813H864.602ZM876.602 825V824C870.526 824 865.602 819.075 865.602 813H864.602H863.602C863.602 820.18 869.422 826 876.602 826V825ZM1222 813H1221C1221 819.075 1216.08 824 1210 824V825V826C1217.18 826 1223 820.18 1223 813H1222ZM1210 7V8C1216.08 8 1221 12.9249 1221 19H1222H1223C1223 11.8203 1217.18 6 1210 6V7ZM876.602 7V6C869.422 6 863.602 11.8203 863.602 19H864.602H865.602C865.602 12.9249 870.526 8 876.602 8V7Z" fill="#3A3A3A" mask="url(#path-1-inside-1_465_3747)"/>
<path d="M865.602 98C865.602 93.5817 869.183 90 873.602 90H1213C1217.42 90 1221 93.5817 1221 98V174C1221 178.418 1217.42 182 1213 182H873.602C869.183 182 865.602 178.418 865.602 174V98Z" fill="#1D2128"/>
<path d="M874.658 111.5V102.773H877.607C878.292 102.773 878.852 102.896 879.286 103.143C879.724 103.388 880.048 103.719 880.258 104.136C880.468 104.554 880.573 105.02 880.573 105.534C880.573 106.048 880.468 106.516 880.258 106.936C880.05 107.357 879.729 107.692 879.295 107.942C878.86 108.189 878.303 108.312 877.624 108.312H875.511V107.375H877.59C878.059 107.375 878.435 107.294 878.719 107.132C879.004 106.97 879.21 106.751 879.337 106.476C879.468 106.197 879.533 105.884 879.533 105.534C879.533 105.185 879.468 104.872 879.337 104.597C879.21 104.321 879.002 104.105 878.715 103.949C878.428 103.79 878.048 103.71 877.573 103.71H875.715V111.5H874.658ZM883.145 102.773V111.5H882.139V102.773H883.145ZM886.913 111.653C886.498 111.653 886.122 111.575 885.784 111.419C885.446 111.26 885.177 111.031 884.978 110.733C884.779 110.432 884.68 110.068 884.68 109.642C884.68 109.267 884.754 108.963 884.902 108.73C885.049 108.494 885.247 108.31 885.494 108.176C885.741 108.043 886.014 107.943 886.312 107.878C886.613 107.81 886.916 107.756 887.22 107.716C887.618 107.665 887.94 107.626 888.187 107.601C888.437 107.572 888.619 107.526 888.733 107.46C888.849 107.395 888.907 107.281 888.907 107.119V107.085C888.907 106.665 888.792 106.338 888.562 106.105C888.335 105.872 887.99 105.756 887.527 105.756C887.047 105.756 886.67 105.861 886.397 106.071C886.125 106.281 885.933 106.506 885.822 106.744L884.868 106.403C885.038 106.006 885.265 105.696 885.549 105.474C885.836 105.25 886.149 105.094 886.487 105.006C886.828 104.915 887.163 104.869 887.493 104.869C887.703 104.869 887.944 104.895 888.217 104.946C888.493 104.994 888.758 105.095 889.014 105.249C889.272 105.402 889.487 105.634 889.657 105.943C889.828 106.253 889.913 106.668 889.913 107.188V111.5H888.907V110.614H888.856C888.788 110.756 888.674 110.908 888.515 111.07C888.356 111.232 888.145 111.369 887.88 111.483C887.616 111.597 887.294 111.653 886.913 111.653ZM887.066 110.75C887.464 110.75 887.799 110.672 888.072 110.516C888.348 110.359 888.555 110.158 888.694 109.911C888.836 109.663 888.907 109.403 888.907 109.131V108.21C888.865 108.261 888.771 108.308 888.626 108.351C888.484 108.391 888.319 108.426 888.132 108.457C887.947 108.486 887.767 108.511 887.591 108.534C887.417 108.554 887.277 108.571 887.169 108.585C886.907 108.619 886.663 108.675 886.436 108.751C886.211 108.825 886.029 108.937 885.89 109.088C885.754 109.236 885.686 109.437 885.686 109.693C885.686 110.043 885.815 110.307 886.074 110.486C886.335 110.662 886.666 110.75 887.066 110.75ZM892.754 107.562V111.5H891.749V104.955H892.72V105.977H892.805C892.959 105.645 893.192 105.378 893.504 105.176C893.817 104.972 894.22 104.869 894.714 104.869C895.158 104.869 895.545 104.96 895.878 105.142C896.21 105.321 896.469 105.594 896.653 105.96C896.838 106.324 896.93 106.784 896.93 107.341V111.5H895.925V107.409C895.925 106.895 895.791 106.494 895.524 106.207C895.257 105.918 894.891 105.773 894.425 105.773C894.104 105.773 893.817 105.842 893.564 105.982C893.314 106.121 893.116 106.324 892.972 106.591C892.827 106.858 892.754 107.182 892.754 107.562ZM900.268 110.307L900.2 110.767C900.152 111.091 900.078 111.438 899.978 111.807C899.882 112.176 899.781 112.524 899.676 112.851C899.571 113.178 899.484 113.438 899.416 113.631H898.649C898.686 113.449 898.734 113.209 898.794 112.911C898.853 112.612 898.913 112.278 898.973 111.909C899.035 111.543 899.086 111.168 899.126 110.784L899.177 110.307H900.268ZM910.143 106.42L909.239 106.676C909.183 106.526 909.099 106.379 908.988 106.237C908.88 106.092 908.732 105.973 908.545 105.879C908.357 105.786 908.117 105.739 907.825 105.739C907.424 105.739 907.09 105.831 906.823 106.016C906.559 106.197 906.427 106.429 906.427 106.71C906.427 106.96 906.518 107.158 906.7 107.303C906.881 107.447 907.165 107.568 907.552 107.665L908.523 107.903C909.109 108.045 909.545 108.263 909.832 108.555C910.119 108.845 910.262 109.219 910.262 109.676C910.262 110.051 910.154 110.386 909.938 110.682C909.725 110.977 909.427 111.21 909.043 111.381C908.66 111.551 908.214 111.636 907.705 111.636C907.038 111.636 906.485 111.491 906.048 111.202C905.61 110.912 905.333 110.489 905.217 109.932L906.171 109.693C906.262 110.045 906.434 110.31 906.687 110.486C906.942 110.662 907.276 110.75 907.688 110.75C908.157 110.75 908.529 110.651 908.805 110.452C909.083 110.25 909.222 110.009 909.222 109.727C909.222 109.5 909.143 109.31 908.984 109.156C908.825 109 908.58 108.884 908.251 108.807L907.16 108.551C906.56 108.409 906.12 108.189 905.839 107.891C905.56 107.589 905.421 107.213 905.421 106.761C905.421 106.392 905.525 106.065 905.732 105.781C905.942 105.497 906.228 105.274 906.589 105.112C906.952 104.95 907.364 104.869 907.825 104.869C908.472 104.869 908.981 105.011 909.35 105.295C909.722 105.58 909.987 105.955 910.143 106.42ZM914.52 111.636C913.89 111.636 913.346 111.497 912.888 111.219C912.434 110.938 912.083 110.545 911.836 110.043C911.591 109.537 911.469 108.949 911.469 108.278C911.469 107.608 911.591 107.017 911.836 106.506C912.083 105.991 912.426 105.591 912.867 105.304C913.31 105.014 913.827 104.869 914.418 104.869C914.759 104.869 915.096 104.926 915.428 105.04C915.76 105.153 916.063 105.338 916.336 105.594C916.608 105.847 916.826 106.182 916.988 106.599C917.15 107.017 917.23 107.531 917.23 108.142V108.568H912.185V107.699H916.208C916.208 107.33 916.134 107 915.986 106.71C915.841 106.42 915.634 106.192 915.364 106.024C915.097 105.857 914.782 105.773 914.418 105.773C914.017 105.773 913.671 105.872 913.378 106.071C913.088 106.267 912.865 106.523 912.709 106.838C912.553 107.153 912.475 107.491 912.475 107.852V108.432C912.475 108.926 912.56 109.345 912.73 109.689C912.904 110.03 913.144 110.29 913.451 110.469C913.757 110.645 914.114 110.733 914.52 110.733C914.784 110.733 915.023 110.696 915.236 110.622C915.452 110.545 915.638 110.432 915.794 110.281C915.951 110.128 916.071 109.937 916.157 109.71L917.128 109.983C917.026 110.312 916.854 110.602 916.613 110.852C916.371 111.099 916.073 111.293 915.718 111.432C915.363 111.568 914.963 111.636 914.52 111.636ZM920.686 111.653C920.272 111.653 919.895 111.575 919.557 111.419C919.219 111.26 918.951 111.031 918.752 110.733C918.553 110.432 918.453 110.068 918.453 109.642C918.453 109.267 918.527 108.963 918.675 108.73C918.823 108.494 919.02 108.31 919.267 108.176C919.515 108.043 919.787 107.943 920.086 107.878C920.387 107.81 920.689 107.756 920.993 107.716C921.391 107.665 921.713 107.626 921.961 107.601C922.211 107.572 922.392 107.526 922.506 107.46C922.623 107.395 922.681 107.281 922.681 107.119V107.085C922.681 106.665 922.566 106.338 922.336 106.105C922.108 105.872 921.763 105.756 921.3 105.756C920.82 105.756 920.444 105.861 920.171 106.071C919.898 106.281 919.706 106.506 919.596 106.744L918.641 106.403C918.811 106.006 919.039 105.696 919.323 105.474C919.61 105.25 919.922 105.094 920.26 105.006C920.601 104.915 920.936 104.869 921.266 104.869C921.476 104.869 921.718 104.895 921.99 104.946C922.266 104.994 922.532 105.095 922.787 105.249C923.046 105.402 923.26 105.634 923.431 105.943C923.601 106.253 923.686 106.668 923.686 107.188V111.5H922.681V110.614H922.63C922.561 110.756 922.448 110.908 922.289 111.07C922.13 111.232 921.918 111.369 921.654 111.483C921.39 111.597 921.067 111.653 920.686 111.653ZM920.84 110.75C921.238 110.75 921.573 110.672 921.846 110.516C922.121 110.359 922.328 110.158 922.468 109.911C922.61 109.663 922.681 109.403 922.681 109.131V108.21C922.638 108.261 922.544 108.308 922.4 108.351C922.257 108.391 922.093 108.426 921.905 108.457C921.721 108.486 921.54 108.511 921.364 108.534C921.191 108.554 921.05 108.571 920.942 108.585C920.681 108.619 920.436 108.675 920.209 108.751C919.985 108.825 919.803 108.937 919.664 109.088C919.527 109.236 919.459 109.437 919.459 109.693C919.459 110.043 919.588 110.307 919.847 110.486C920.108 110.662 920.439 110.75 920.84 110.75ZM925.522 111.5V104.955H926.494V105.943H926.562C926.681 105.619 926.897 105.357 927.21 105.155C927.522 104.953 927.874 104.852 928.266 104.852C928.34 104.852 928.433 104.854 928.543 104.857C928.654 104.859 928.738 104.864 928.795 104.869V105.892C928.761 105.884 928.683 105.871 928.56 105.854C928.441 105.834 928.315 105.824 928.181 105.824C927.863 105.824 927.579 105.891 927.329 106.024C927.082 106.155 926.886 106.337 926.741 106.57C926.599 106.8 926.528 107.062 926.528 107.358V111.5H925.522ZM932.447 111.636C931.833 111.636 931.305 111.491 930.862 111.202C930.418 110.912 930.077 110.513 929.839 110.004C929.6 109.496 929.481 108.915 929.481 108.261C929.481 107.597 929.603 107.01 929.847 106.501C930.094 105.99 930.438 105.591 930.879 105.304C931.322 105.014 931.839 104.869 932.43 104.869C932.89 104.869 933.305 104.955 933.674 105.125C934.043 105.295 934.346 105.534 934.582 105.841C934.817 106.148 934.964 106.506 935.021 106.915H934.015C933.938 106.616 933.768 106.352 933.504 106.122C933.242 105.889 932.89 105.773 932.447 105.773C932.055 105.773 931.711 105.875 931.415 106.08C931.123 106.281 930.894 106.567 930.729 106.936C930.567 107.303 930.487 107.733 930.487 108.227C930.487 108.733 930.566 109.173 930.725 109.548C930.887 109.923 931.114 110.214 931.407 110.422C931.702 110.629 932.049 110.733 932.447 110.733C932.708 110.733 932.945 110.688 933.158 110.597C933.371 110.506 933.552 110.375 933.7 110.205C933.847 110.034 933.952 109.83 934.015 109.591H935.021C934.964 109.977 934.823 110.325 934.599 110.635C934.377 110.942 934.083 111.186 933.717 111.368C933.353 111.547 932.93 111.636 932.447 111.636ZM937.496 107.562V111.5H936.491V102.773H937.496V105.977H937.582C937.735 105.639 937.965 105.371 938.272 105.172C938.582 104.97 938.994 104.869 939.508 104.869C939.954 104.869 940.344 104.959 940.68 105.138C941.015 105.314 941.275 105.585 941.46 105.952C941.647 106.315 941.741 106.778 941.741 107.341V111.5H940.735V107.409C940.735 106.889 940.6 106.487 940.33 106.203C940.063 105.916 939.692 105.773 939.218 105.773C938.888 105.773 938.593 105.842 938.332 105.982C938.073 106.121 937.869 106.324 937.718 106.591C937.57 106.858 937.496 107.182 937.496 107.562ZM945.081 110.307L945.012 110.767C944.964 111.091 944.89 111.438 944.791 111.807C944.694 112.176 944.593 112.524 944.488 112.851C944.383 113.178 944.297 113.438 944.228 113.631H943.461C943.498 113.449 943.547 113.209 943.606 112.911C943.666 112.612 943.725 112.278 943.785 111.909C943.848 111.543 943.899 111.168 943.939 110.784L943.99 110.307H945.081ZM951.325 102.773V111.5H950.319V102.773H951.325ZM955.911 111.636C955.28 111.636 954.736 111.497 954.279 111.219C953.824 110.938 953.473 110.545 953.226 110.043C952.982 109.537 952.86 108.949 952.86 108.278C952.86 107.608 952.982 107.017 953.226 106.506C953.473 105.991 953.817 105.591 954.257 105.304C954.701 105.014 955.218 104.869 955.809 104.869C956.15 104.869 956.486 104.926 956.819 105.04C957.151 105.153 957.453 105.338 957.726 105.594C957.999 105.847 958.216 106.182 958.378 106.599C958.54 107.017 958.621 107.531 958.621 108.142V108.568H953.576V107.699H957.598C957.598 107.33 957.525 107 957.377 106.71C957.232 106.42 957.025 106.192 956.755 106.024C956.488 105.857 956.172 105.773 955.809 105.773C955.408 105.773 955.061 105.872 954.769 106.071C954.479 106.267 954.256 106.523 954.1 106.838C953.944 107.153 953.865 107.491 953.865 107.852V108.432C953.865 108.926 953.951 109.345 954.121 109.689C954.294 110.03 954.534 110.29 954.841 110.469C955.148 110.645 955.505 110.733 955.911 110.733C956.175 110.733 956.414 110.696 956.627 110.622C956.843 110.545 957.029 110.432 957.185 110.281C957.341 110.128 957.462 109.937 957.547 109.71L958.519 109.983C958.417 110.312 958.245 110.602 958.003 110.852C957.762 111.099 957.463 111.293 957.108 111.432C956.753 111.568 956.354 111.636 955.911 111.636ZM962.077 111.653C961.662 111.653 961.286 111.575 960.948 111.419C960.61 111.26 960.341 111.031 960.142 110.733C959.944 110.432 959.844 110.068 959.844 109.642C959.844 109.267 959.918 108.963 960.066 108.73C960.213 108.494 960.411 108.31 960.658 108.176C960.905 108.043 961.178 107.943 961.476 107.878C961.777 107.81 962.08 107.756 962.384 107.716C962.782 107.665 963.104 107.626 963.351 107.601C963.601 107.572 963.783 107.526 963.897 107.46C964.013 107.395 964.071 107.281 964.071 107.119V107.085C964.071 106.665 963.956 106.338 963.726 106.105C963.499 105.872 963.154 105.756 962.691 105.756C962.211 105.756 961.834 105.861 961.561 106.071C961.289 106.281 961.097 106.506 960.986 106.744L960.032 106.403C960.202 106.006 960.429 105.696 960.713 105.474C961 105.25 961.313 105.094 961.651 105.006C961.992 104.915 962.327 104.869 962.657 104.869C962.867 104.869 963.108 104.895 963.381 104.946C963.657 104.994 963.922 105.095 964.178 105.249C964.436 105.402 964.651 105.634 964.821 105.943C964.992 106.253 965.077 106.668 965.077 107.188V111.5H964.071V110.614H964.02C963.952 110.756 963.838 110.908 963.679 111.07C963.52 111.232 963.309 111.369 963.044 111.483C962.78 111.597 962.458 111.653 962.077 111.653ZM962.23 110.75C962.628 110.75 962.963 110.672 963.236 110.516C963.512 110.359 963.719 110.158 963.858 109.911C964 109.663 964.071 109.403 964.071 109.131V108.21C964.029 108.261 963.935 108.308 963.79 108.351C963.648 108.391 963.483 108.426 963.296 108.457C963.111 108.486 962.931 108.511 962.755 108.534C962.581 108.554 962.441 108.571 962.333 108.585C962.071 108.619 961.827 108.675 961.6 108.751C961.375 108.825 961.194 108.937 961.054 109.088C960.918 109.236 960.85 109.437 960.85 109.693C960.85 110.043 960.979 110.307 961.238 110.486C961.499 110.662 961.83 110.75 962.23 110.75ZM966.913 111.5V104.955H967.884V105.943H967.952C968.072 105.619 968.288 105.357 968.6 105.155C968.913 104.953 969.265 104.852 969.657 104.852C969.731 104.852 969.823 104.854 969.934 104.857C970.045 104.859 970.129 104.864 970.185 104.869V105.892C970.151 105.884 970.073 105.871 969.951 105.854C969.832 105.834 969.705 105.824 969.572 105.824C969.254 105.824 968.969 105.891 968.719 106.024C968.472 106.155 968.276 106.337 968.131 106.57C967.989 106.8 967.918 107.062 967.918 107.358V111.5H966.913ZM972.383 107.562V111.5H971.377V104.955H972.349V105.977H972.434C972.588 105.645 972.821 105.378 973.133 105.176C973.446 104.972 973.849 104.869 974.343 104.869C974.787 104.869 975.174 104.96 975.507 105.142C975.839 105.321 976.098 105.594 976.282 105.96C976.467 106.324 976.559 106.784 976.559 107.341V111.5H975.554V107.409C975.554 106.895 975.42 106.494 975.153 106.207C974.886 105.918 974.52 105.773 974.054 105.773C973.733 105.773 973.446 105.842 973.193 105.982C972.943 106.121 972.745 106.324 972.6 106.591C972.456 106.858 972.383 107.182 972.383 107.562ZM979.897 110.307L979.829 110.767C979.781 111.091 979.707 111.438 979.607 111.807C979.511 112.176 979.41 112.524 979.305 112.851C979.2 113.178 979.113 113.438 979.045 113.631H978.278C978.315 113.449 978.363 113.209 978.423 112.911C978.482 112.612 978.542 112.278 978.602 111.909C978.664 111.543 978.715 111.168 978.755 110.784L978.806 110.307H979.897ZM985.272 111.5V102.773H986.277V105.994H986.363C986.436 105.881 986.539 105.736 986.669 105.56C986.803 105.381 986.993 105.222 987.24 105.082C987.49 104.94 987.828 104.869 988.255 104.869C988.806 104.869 989.292 105.007 989.712 105.283C990.132 105.558 990.461 105.949 990.696 106.455C990.932 106.96 991.05 107.557 991.05 108.244C991.05 108.938 990.932 109.538 990.696 110.047C990.461 110.553 990.134 110.945 989.716 111.223C989.299 111.499 988.817 111.636 988.272 111.636C987.851 111.636 987.515 111.567 987.262 111.428C987.009 111.286 986.814 111.125 986.678 110.946C986.542 110.764 986.436 110.614 986.363 110.494H986.243V111.5H985.272ZM986.26 108.227C986.26 108.722 986.333 109.158 986.478 109.536C986.623 109.911 986.834 110.205 987.113 110.418C987.391 110.628 987.732 110.733 988.135 110.733C988.556 110.733 988.907 110.622 989.188 110.401C989.472 110.176 989.685 109.875 989.827 109.497C989.972 109.116 990.044 108.693 990.044 108.227C990.044 107.767 989.973 107.352 989.831 106.983C989.692 106.611 989.48 106.317 989.196 106.101C988.915 105.882 988.561 105.773 988.135 105.773C987.726 105.773 987.382 105.876 987.104 106.084C986.826 106.288 986.615 106.575 986.473 106.945C986.331 107.311 986.26 107.739 986.26 108.227ZM996.713 108.824V104.955H997.719V111.5H996.713V110.392H996.645C996.492 110.724 996.253 111.007 995.929 111.24C995.605 111.47 995.196 111.585 994.702 111.585C994.293 111.585 993.929 111.496 993.611 111.317C993.293 111.135 993.043 110.862 992.861 110.499C992.679 110.132 992.588 109.67 992.588 109.114V104.955H993.594V109.045C993.594 109.523 993.728 109.903 993.995 110.188C994.265 110.472 994.608 110.614 995.026 110.614C995.276 110.614 995.53 110.55 995.789 110.422C996.05 110.294 996.269 110.098 996.445 109.834C996.624 109.57 996.713 109.233 996.713 108.824ZM999.561 111.5V104.955H1000.57V111.5H999.561ZM1000.07 103.864C999.876 103.864 999.707 103.797 999.565 103.663C999.426 103.53 999.357 103.369 999.357 103.182C999.357 102.994 999.426 102.834 999.565 102.7C999.707 102.567 999.876 102.5 1000.07 102.5C1000.27 102.5 1000.44 102.567 1000.58 102.7C1000.72 102.834 1000.79 102.994 1000.79 103.182C1000.79 103.369 1000.72 103.53 1000.58 103.663C1000.44 103.797 1000.27 103.864 1000.07 103.864ZM1003.41 102.773V111.5H1002.41V102.773H1003.41ZM1007.73 111.636C1007.18 111.636 1006.7 111.499 1006.28 111.223C1005.87 110.945 1005.54 110.553 1005.3 110.047C1005.07 109.538 1004.95 108.938 1004.95 108.244C1004.95 107.557 1005.07 106.96 1005.3 106.455C1005.54 105.949 1005.87 105.558 1006.29 105.283C1006.71 105.007 1007.19 104.869 1007.75 104.869C1008.17 104.869 1008.51 104.94 1008.75 105.082C1009 105.222 1009.2 105.381 1009.33 105.56C1009.46 105.736 1009.56 105.881 1009.64 105.994H1009.72V102.773H1010.73V111.5H1009.76V110.494H1009.64C1009.56 110.614 1009.46 110.764 1009.32 110.946C1009.19 111.125 1008.99 111.286 1008.74 111.428C1008.49 111.567 1008.15 111.636 1007.73 111.636ZM1007.86 110.733C1008.27 110.733 1008.61 110.628 1008.89 110.418C1009.17 110.205 1009.38 109.911 1009.52 109.536C1009.67 109.158 1009.74 108.722 1009.74 108.227C1009.74 107.739 1009.67 107.311 1009.53 106.945C1009.38 106.575 1009.17 106.288 1008.9 106.084C1008.62 105.876 1008.27 105.773 1007.86 105.773C1007.44 105.773 1007.08 105.882 1006.8 106.101C1006.52 106.317 1006.31 106.611 1006.16 106.983C1006.02 107.352 1005.96 107.767 1005.96 108.227C1005.96 108.693 1006.03 109.116 1006.17 109.497C1006.31 109.875 1006.53 110.176 1006.81 110.401C1007.09 110.622 1007.44 110.733 1007.86 110.733ZM1018.01 111.653C1017.6 111.653 1017.22 111.575 1016.88 111.419C1016.54 111.26 1016.27 111.031 1016.08 110.733C1015.88 110.432 1015.78 110.068 1015.78 109.642C1015.78 109.267 1015.85 108.963 1016 108.73C1016.15 108.494 1016.34 108.31 1016.59 108.176C1016.84 108.043 1017.11 107.943 1017.41 107.878C1017.71 107.81 1018.01 107.756 1018.32 107.716C1018.72 107.665 1019.04 107.626 1019.28 107.601C1019.53 107.572 1019.72 107.526 1019.83 107.46C1019.95 107.395 1020 107.281 1020 107.119V107.085C1020 106.665 1019.89 106.338 1019.66 106.105C1019.43 105.872 1019.09 105.756 1018.62 105.756C1018.14 105.756 1017.77 105.861 1017.5 106.071C1017.22 106.281 1017.03 106.506 1016.92 106.744L1015.97 106.403C1016.14 106.006 1016.36 105.696 1016.65 105.474C1016.93 105.25 1017.25 105.094 1017.58 105.006C1017.93 104.915 1018.26 104.869 1018.59 104.869C1018.8 104.869 1019.04 104.895 1019.31 104.946C1019.59 104.994 1019.86 105.095 1020.11 105.249C1020.37 105.402 1020.58 105.634 1020.75 105.943C1020.93 106.253 1021.01 106.668 1021.01 107.188V111.5H1020V110.614H1019.95C1019.89 110.756 1019.77 110.908 1019.61 111.07C1019.45 111.232 1019.24 111.369 1018.98 111.483C1018.71 111.597 1018.39 111.653 1018.01 111.653ZM1018.16 110.75C1018.56 110.75 1018.9 110.672 1019.17 110.516C1019.45 110.359 1019.65 110.158 1019.79 109.911C1019.93 109.663 1020 109.403 1020 109.131V108.21C1019.96 108.261 1019.87 108.308 1019.72 108.351C1019.58 108.391 1019.42 108.426 1019.23 108.457C1019.04 108.486 1018.86 108.511 1018.69 108.534C1018.51 108.554 1018.37 108.571 1018.27 108.585C1018 108.619 1017.76 108.675 1017.53 108.751C1017.31 108.825 1017.13 108.937 1016.99 109.088C1016.85 109.236 1016.78 109.437 1016.78 109.693C1016.78 110.043 1016.91 110.307 1017.17 110.486C1017.43 110.662 1017.76 110.75 1018.16 110.75ZM1023.85 107.562V111.5H1022.85V104.955H1023.82V105.977H1023.9C1024.06 105.645 1024.29 105.378 1024.6 105.176C1024.91 104.972 1025.32 104.869 1025.81 104.869C1026.26 104.869 1026.64 104.96 1026.98 105.142C1027.31 105.321 1027.57 105.594 1027.75 105.96C1027.94 106.324 1028.03 106.784 1028.03 107.341V111.5H1027.02V107.409C1027.02 106.895 1026.89 106.494 1026.62 106.207C1026.35 105.918 1025.99 105.773 1025.52 105.773C1025.2 105.773 1024.91 105.842 1024.66 105.982C1024.41 106.121 1024.21 106.324 1024.07 106.591C1023.92 106.858 1023.85 107.182 1023.85 107.562ZM1030.28 113.955C1030.11 113.955 1029.96 113.94 1029.82 113.912C1029.69 113.886 1029.6 113.861 1029.55 113.835L1029.8 112.949C1030.05 113.011 1030.26 113.034 1030.45 113.017C1030.64 113 1030.8 112.916 1030.95 112.766C1031.1 112.618 1031.23 112.378 1031.35 112.045L1031.54 111.534L1029.12 104.955H1030.21L1032.02 110.17H1032.09L1033.89 104.955H1034.98L1032.21 112.455C1032.08 112.793 1031.93 113.072 1031.74 113.294C1031.56 113.518 1031.34 113.685 1031.1 113.793C1030.86 113.901 1030.58 113.955 1030.28 113.955ZM1039.16 104.955V105.807H1035.77V104.955H1039.16ZM1036.75 103.386H1037.76V109.625C1037.76 109.909 1037.8 110.122 1037.88 110.264C1037.97 110.403 1038.08 110.497 1038.21 110.545C1038.34 110.591 1038.48 110.614 1038.63 110.614C1038.74 110.614 1038.83 110.608 1038.9 110.597C1038.97 110.582 1039.03 110.571 1039.07 110.562L1039.28 111.466C1039.21 111.491 1039.11 111.517 1038.99 111.543C1038.87 111.571 1038.71 111.585 1038.53 111.585C1038.24 111.585 1037.96 111.524 1037.69 111.402C1037.42 111.28 1037.2 111.094 1037.02 110.844C1036.84 110.594 1036.75 110.278 1036.75 109.898V103.386ZM1041.82 107.562V111.5H1040.81V102.773H1041.82V105.977H1041.9C1042.06 105.639 1042.29 105.371 1042.59 105.172C1042.9 104.97 1043.31 104.869 1043.83 104.869C1044.27 104.869 1044.66 104.959 1045 105.138C1045.34 105.314 1045.6 105.585 1045.78 105.952C1045.97 106.315 1046.06 106.778 1046.06 107.341V111.5H1045.06V107.409C1045.06 106.889 1044.92 106.487 1044.65 106.203C1044.38 105.916 1044.01 105.773 1043.54 105.773C1043.21 105.773 1042.91 105.842 1042.65 105.982C1042.39 106.121 1042.19 106.324 1042.04 106.591C1041.89 106.858 1041.82 107.182 1041.82 107.562ZM1047.9 111.5V104.955H1048.91V111.5H1047.9ZM1048.41 103.864C1048.22 103.864 1048.05 103.797 1047.91 103.663C1047.77 103.53 1047.7 103.369 1047.7 103.182C1047.7 102.994 1047.77 102.834 1047.91 102.7C1048.05 102.567 1048.22 102.5 1048.41 102.5C1048.61 102.5 1048.78 102.567 1048.92 102.7C1049.06 102.834 1049.13 102.994 1049.13 103.182C1049.13 103.369 1049.06 103.53 1048.92 103.663C1048.78 103.797 1048.61 103.864 1048.41 103.864ZM1051.75 107.562V111.5H1050.75V104.955H1051.72V105.977H1051.81C1051.96 105.645 1052.19 105.378 1052.5 105.176C1052.82 104.972 1053.22 104.869 1053.71 104.869C1054.16 104.869 1054.55 104.96 1054.88 105.142C1055.21 105.321 1055.47 105.594 1055.65 105.96C1055.84 106.324 1055.93 106.784 1055.93 107.341V111.5H1054.92V107.409C1054.92 106.895 1054.79 106.494 1054.52 106.207C1054.26 105.918 1053.89 105.773 1053.42 105.773C1053.1 105.773 1052.82 105.842 1052.56 105.982C1052.31 106.121 1052.12 106.324 1051.97 106.591C1051.83 106.858 1051.75 107.182 1051.75 107.562ZM1060.41 114.091C1059.92 114.091 1059.51 114.028 1059.16 113.903C1058.81 113.781 1058.52 113.619 1058.28 113.418C1058.05 113.219 1057.87 113.006 1057.73 112.778L1058.54 112.216C1058.63 112.335 1058.74 112.472 1058.88 112.625C1059.02 112.781 1059.21 112.916 1059.45 113.03C1059.7 113.146 1060.02 113.205 1060.41 113.205C1060.94 113.205 1061.37 113.077 1061.72 112.821C1062.06 112.565 1062.23 112.165 1062.23 111.619V110.29H1062.15C1062.07 110.409 1061.97 110.557 1061.83 110.733C1061.7 110.906 1061.51 111.061 1061.25 111.197C1061 111.331 1060.67 111.398 1060.24 111.398C1059.71 111.398 1059.24 111.273 1058.82 111.023C1058.4 110.773 1058.07 110.409 1057.82 109.932C1057.58 109.455 1057.46 108.875 1057.46 108.193C1057.46 107.523 1057.58 106.939 1057.81 106.442C1058.05 105.942 1058.38 105.555 1058.8 105.283C1059.22 105.007 1059.71 104.869 1060.26 104.869C1060.68 104.869 1061.02 104.94 1061.27 105.082C1061.52 105.222 1061.72 105.381 1061.85 105.56C1061.99 105.736 1062.09 105.881 1062.17 105.994H1062.27V104.955H1063.24V111.688C1063.24 112.25 1063.11 112.707 1062.86 113.06C1062.6 113.415 1062.26 113.675 1061.83 113.839C1061.41 114.007 1060.93 114.091 1060.41 114.091ZM1060.38 110.494C1060.78 110.494 1061.12 110.402 1061.4 110.217C1061.68 110.033 1061.89 109.767 1062.03 109.42C1062.18 109.074 1062.25 108.659 1062.25 108.176C1062.25 107.705 1062.18 107.288 1062.04 106.928C1061.9 106.567 1061.69 106.284 1061.41 106.08C1061.13 105.875 1060.79 105.773 1060.38 105.773C1059.95 105.773 1059.59 105.881 1059.31 106.097C1059.03 106.312 1058.82 106.602 1058.68 106.966C1058.54 107.33 1058.47 107.733 1058.47 108.176C1058.47 108.631 1058.54 109.033 1058.68 109.382C1058.82 109.729 1059.04 110.001 1059.32 110.2C1059.6 110.396 1059.96 110.494 1060.38 110.494Z" fill="#565A62"/>
<path d="M873.602 164C873.602 158.477 878.079 154 883.602 154H901.602C907.124 154 911.602 158.477 911.602 164C911.602 169.523 907.124 174 901.602 174H883.602C878.079 174 873.602 169.523 873.602 164Z" fill="#252931"/>
<g clip-path="url(#clip1_465_3747)">
<path d="M886.115 165.063H882.528C882.294 165.063 882.105 165.252 882.105 165.486V169.073C882.105 169.306 882.294 169.495 882.528 169.495H886.115C886.348 169.495 886.537 169.306 886.537 169.073V165.486C886.537 165.252 886.348 165.063 886.115 165.063Z" stroke="#8A8F99" stroke-width="1.00862" stroke-linecap="round"/>
<path d="M892.675 165.063H889.087C888.854 165.063 888.665 165.252 888.665 165.486V169.073C888.665 169.306 888.854 169.495 889.087 169.495H892.675C892.908 169.495 893.097 169.306 893.097 169.073V165.486C893.097 165.252 892.908 165.063 892.675 165.063Z" stroke="#8A8F99" stroke-width="1.00862" stroke-linecap="round" stroke-linejoin="round"/>
<path d="M886.115 158.504H882.528C882.294 158.504 882.105 158.693 882.105 158.926V162.513C882.105 162.746 882.294 162.935 882.528 162.935H886.115C886.348 162.935 886.537 162.746 886.537 162.513V158.926C886.537 158.693 886.348 158.504 886.115 158.504Z" stroke="#8A8F99" stroke-width="1.00862" stroke-linecap="round" stroke-linejoin="round"/>
<path d="M888.591 161.047C888.332 161.002 888.332 160.628 888.591 160.583C889.533 160.419 890.282 159.702 890.486 158.769L890.502 158.697C890.558 158.441 890.924 158.439 890.982 158.695L891.001 158.779C891.213 159.708 891.962 160.419 892.901 160.582C893.162 160.628 893.162 161.002 892.901 161.048C891.962 161.211 891.213 161.922 891.001 162.851L890.982 162.935C890.924 163.191 890.558 163.189 890.502 162.933L890.486 162.861C890.282 161.928 889.533 161.211 888.591 161.047Z" stroke="#8A8F99" stroke-width="1.00862" stroke-linecap="round" stroke-linejoin="round"/>
</g>
<g clip-path="url(#clip2_465_3747)">
<path d="M903.435 162.65L900.602 165.199L897.768 162.65" stroke="#8A8F99" stroke-width="0.44791"/>
</g>
<g opacity="0.5">
<path d="M1193 164C1193 158.477 1197.48 154 1203 154C1208.52 154 1213 158.477 1213 164C1213 169.523 1208.52 174 1203 174C1197.48 174 1193 169.523 1193 164Z" fill="#343945"/>
<path d="M1198.86 159.524C1198.81 159.502 1198.76 159.494 1198.71 159.502C1198.66 159.509 1198.62 159.531 1198.58 159.565C1198.54 159.598 1198.52 159.643 1198.51 159.691C1198.49 159.74 1198.5 159.791 1198.52 159.838L1199.94 163.651C1200.02 163.876 1200.02 164.124 1199.94 164.349L1198.52 168.163C1198.5 168.209 1198.49 168.26 1198.51 168.309C1198.52 168.358 1198.54 168.402 1198.58 168.436C1198.62 168.469 1198.66 168.491 1198.71 168.499C1198.76 168.506 1198.81 168.498 1198.86 168.476L1207.86 164.226C1207.9 164.206 1207.94 164.174 1207.96 164.134C1207.99 164.094 1208 164.048 1208 164C1208 163.953 1207.99 163.907 1207.96 163.867C1207.94 163.827 1207.9 163.795 1207.86 163.774L1198.86 159.524Z" stroke="#1D2128" stroke-linecap="round" stroke-linejoin="round"/>
<path d="M1200 164H1208" stroke="#1D2128" stroke-linecap="round" stroke-linejoin="round"/>
</g>
</g>
<defs>
<clipPath id="clip0_465_3747">
<rect width="1229" height="832" fill="white"/>
</clipPath>
<clipPath id="clip1_465_3747">
<rect width="12" height="12" fill="white" transform="translate(881.602 158)"/>
</clipPath>
<clipPath id="clip2_465_3747">
<rect width="6" height="3" fill="white" transform="matrix(-1 0 0 -1 903.602 165.5)"/>
</clipPath>
</defs>
</svg>
