<svg width="1229" height="832" viewBox="0 0 1229 832" fill="none" xmlns="http://www.w3.org/2000/svg">
<g clip-path="url(#clip0_465_2877)">
<g clip-path="url(#clip1_465_2877)">
<g clip-path="url(#clip2_465_2877)">
<g clip-path="url(#clip3_465_2877)">
<mask id="path-1-inside-1_465_2877" fill="white">
<path d="M7 521.398C7 516.98 10.5817 513.398 15 513.398H847.602C852.02 513.398 855.602 516.98 855.602 521.398V817C855.602 821.418 852.02 825 847.602 825H15C10.5817 825 7 821.418 7 817V521.398Z"/>
</mask>
<path d="M7 521.398C7 516.98 10.5817 513.398 15 513.398H847.602C852.02 513.398 855.602 516.98 855.602 521.398V817C855.602 821.418 852.02 825 847.602 825H15C10.5817 825 7 821.418 7 817V521.398Z" fill="#010000"/>
<g clip-path="url(#clip4_465_2877)">
<path d="M854.602 514.398H8V824H854.602V514.398Z" fill="#010000"/>
</g>
<path d="M21.0376 530.898H22.5024L25.0493 537.117H25.1431L27.6899 530.898H29.1548V538.898H28.0063V533.109H27.9321L25.5728 538.887H24.6196L22.2603 533.105H22.186V538.898H21.0376V530.898ZM33.3433 539.02C32.7808 539.02 32.2899 538.891 31.8706 538.633C31.4513 538.375 31.1258 538.014 30.894 537.551C30.6623 537.087 30.5464 536.546 30.5464 535.926C30.5464 535.303 30.6623 534.759 30.894 534.293C31.1258 533.827 31.4513 533.465 31.8706 533.207C32.2899 532.949 32.7808 532.82 33.3433 532.82C33.9058 532.82 34.3966 532.949 34.8159 533.207C35.2352 533.465 35.5607 533.827 35.7925 534.293C36.0243 534.759 36.1401 535.303 36.1401 535.926C36.1401 536.546 36.0243 537.087 35.7925 537.551C35.5607 538.014 35.2352 538.375 34.8159 538.633C34.3966 538.891 33.9058 539.02 33.3433 539.02ZM33.3472 538.039C33.7118 538.039 34.0138 537.943 34.2534 537.75C34.493 537.557 34.6701 537.301 34.7847 536.98C34.9019 536.66 34.9604 536.307 34.9604 535.922C34.9604 535.539 34.9019 535.187 34.7847 534.867C34.6701 534.544 34.493 534.285 34.2534 534.09C34.0138 533.895 33.7118 533.797 33.3472 533.797C32.98 533.797 32.6753 533.895 32.4331 534.09C32.1935 534.285 32.0151 534.544 31.8979 534.867C31.7834 535.187 31.7261 535.539 31.7261 535.922C31.7261 536.307 31.7834 536.66 31.8979 536.98C32.0151 537.301 32.1935 537.557 32.4331 537.75C32.6753 537.943 32.98 538.039 33.3472 538.039ZM39.9712 539.02C39.4087 539.02 38.9178 538.891 38.4985 538.633C38.0793 538.375 37.7537 538.014 37.522 537.551C37.2902 537.087 37.1743 536.546 37.1743 535.926C37.1743 535.303 37.2902 534.759 37.522 534.293C37.7537 533.827 38.0793 533.465 38.4985 533.207C38.9178 532.949 39.4087 532.82 39.9712 532.82C40.5337 532.82 41.0246 532.949 41.4438 533.207C41.8631 533.465 42.1886 533.827 42.4204 534.293C42.6522 534.759 42.7681 535.303 42.7681 535.926C42.7681 536.546 42.6522 537.087 42.4204 537.551C42.1886 538.014 41.8631 538.375 41.4438 538.633C41.0246 538.891 40.5337 539.02 39.9712 539.02ZM39.9751 538.039C40.3397 538.039 40.6418 537.943 40.8813 537.75C41.1209 537.557 41.298 537.301 41.4126 536.98C41.5298 536.66 41.5884 536.307 41.5884 535.922C41.5884 535.539 41.5298 535.187 41.4126 534.867C41.298 534.544 41.1209 534.285 40.8813 534.09C40.6418 533.895 40.3397 533.797 39.9751 533.797C39.6079 533.797 39.3032 533.895 39.061 534.09C38.8215 534.285 38.6431 534.544 38.5259 534.867C38.4113 535.187 38.354 535.539 38.354 535.922C38.354 536.307 38.4113 536.66 38.5259 536.98C38.6431 537.301 38.8215 537.557 39.061 537.75C39.3032 537.943 39.6079 538.039 39.9751 538.039ZM46.3179 539.016C45.8335 539.016 45.4012 538.892 45.021 538.645C44.6434 538.395 44.3465 538.039 44.1304 537.578C43.9168 537.115 43.8101 536.559 43.8101 535.91C43.8101 535.262 43.9181 534.707 44.1343 534.246C44.353 533.785 44.6525 533.432 45.0327 533.188C45.4129 532.943 45.8439 532.82 46.3257 532.82C46.6981 532.82 46.9976 532.883 47.2241 533.008C47.4533 533.13 47.6304 533.273 47.7554 533.437C47.883 533.602 47.9819 533.746 48.0522 533.871H48.1226V530.898H49.2905V538.898H48.1499V537.965H48.0522C47.9819 538.092 47.8804 538.238 47.7476 538.402C47.6174 538.566 47.4377 538.71 47.2085 538.832C46.9793 538.954 46.6825 539.016 46.3179 539.016ZM46.5757 538.02C46.9116 538.02 47.1955 537.931 47.4272 537.754C47.6616 537.574 47.8387 537.326 47.9585 537.008C48.0809 536.69 48.1421 536.32 48.1421 535.898C48.1421 535.482 48.0822 535.117 47.9624 534.805C47.8426 534.492 47.6668 534.249 47.4351 534.074C47.2033 533.9 46.9168 533.812 46.5757 533.812C46.2241 533.812 45.9312 533.904 45.6968 534.086C45.4624 534.268 45.2853 534.517 45.1655 534.832C45.0483 535.147 44.9897 535.503 44.9897 535.898C44.9897 536.299 45.0496 536.66 45.1694 536.98C45.2892 537.301 45.4663 537.555 45.7007 537.742C45.9377 537.927 46.2293 538.02 46.5757 538.02ZM51.0513 538.898V530.898H52.2192V533.871H52.2896C52.3573 533.746 52.4549 533.602 52.5825 533.437C52.7101 533.273 52.8872 533.13 53.1138 533.008C53.3403 532.883 53.6398 532.82 54.0122 532.82C54.4966 532.82 54.9289 532.943 55.3091 533.188C55.6893 533.432 55.9875 533.785 56.2036 534.246C56.4224 534.707 56.5317 535.262 56.5317 535.91C56.5317 536.559 56.4237 537.115 56.2075 537.578C55.9914 538.039 55.6945 538.395 55.3169 538.645C54.9393 538.892 54.5083 539.016 54.0239 539.016C53.6593 539.016 53.3612 538.954 53.1294 538.832C52.9002 538.71 52.7205 538.566 52.5903 538.402C52.4601 538.238 52.3599 538.092 52.2896 537.965H52.1919V538.898H51.0513ZM52.1958 535.898C52.1958 536.32 52.257 536.69 52.3794 537.008C52.5018 537.326 52.6789 537.574 52.9106 537.754C53.1424 537.931 53.4263 538.02 53.7622 538.02C54.1112 538.02 54.4028 537.927 54.6372 537.742C54.8716 537.555 55.0487 537.301 55.1685 536.98C55.2909 536.66 55.3521 536.299 55.3521 535.898C55.3521 535.503 55.2922 535.147 55.1724 534.832C55.0552 534.517 54.8781 534.268 54.6411 534.086C54.4067 533.904 54.1138 533.812 53.7622 533.812C53.4237 533.812 53.1372 533.9 52.9028 534.074C52.6711 534.249 52.4953 534.492 52.3755 534.805C52.2557 535.117 52.1958 535.482 52.1958 535.898ZM60.3706 539.02C59.8081 539.02 59.3172 538.891 58.8979 538.633C58.4787 538.375 58.1532 538.014 57.9214 537.551C57.6896 537.087 57.5737 536.546 57.5737 535.926C57.5737 535.303 57.6896 534.759 57.9214 534.293C58.1532 533.827 58.4787 533.465 58.8979 533.207C59.3172 532.949 59.8081 532.82 60.3706 532.82C60.9331 532.82 61.424 532.949 61.8433 533.207C62.2625 533.465 62.5881 533.827 62.8198 534.293C63.0516 534.759 63.1675 535.303 63.1675 535.926C63.1675 536.546 63.0516 537.087 62.8198 537.551C62.5881 538.014 62.2625 538.375 61.8433 538.633C61.424 538.891 60.9331 539.02 60.3706 539.02ZM60.3745 538.039C60.7391 538.039 61.0412 537.943 61.2808 537.75C61.5203 537.557 61.6974 537.301 61.812 536.98C61.9292 536.66 61.9878 536.307 61.9878 535.922C61.9878 535.539 61.9292 535.187 61.812 534.867C61.6974 534.544 61.5203 534.285 61.2808 534.09C61.0412 533.895 60.7391 533.797 60.3745 533.797C60.0073 533.797 59.7026 533.895 59.4604 534.09C59.2209 534.285 59.0425 534.544 58.9253 534.867C58.8107 535.187 58.7534 535.539 58.7534 535.922C58.7534 536.307 58.8107 536.66 58.9253 536.98C59.0425 537.301 59.2209 537.557 59.4604 537.75C59.7026 537.943 60.0073 538.039 60.3745 538.039ZM66.2173 539.031C65.8371 539.031 65.4933 538.961 65.186 538.82C64.8787 538.677 64.6353 538.47 64.4556 538.199C64.2785 537.928 64.1899 537.596 64.1899 537.203C64.1899 536.865 64.255 536.586 64.3853 536.367C64.5155 536.148 64.6912 535.975 64.9126 535.848C65.134 535.72 65.3813 535.624 65.6548 535.559C65.9282 535.493 66.2069 535.444 66.4907 535.41C66.8501 535.368 67.1418 535.335 67.3657 535.309C67.5897 535.28 67.7524 535.234 67.854 535.172C67.9556 535.109 68.0063 535.008 68.0063 534.867V534.84C68.0063 534.499 67.91 534.234 67.7173 534.047C67.5272 533.859 67.2433 533.766 66.8657 533.766C66.4725 533.766 66.1626 533.853 65.936 534.027C65.7121 534.199 65.5571 534.391 65.4712 534.602L64.3735 534.352C64.5037 533.987 64.6938 533.693 64.9438 533.469C65.1965 533.242 65.4868 533.078 65.8149 532.977C66.1431 532.872 66.4881 532.82 66.8501 532.82C67.0897 532.82 67.3436 532.849 67.6118 532.906C67.8826 532.961 68.1353 533.062 68.3696 533.211C68.6066 533.359 68.8006 533.572 68.9517 533.848C69.1027 534.121 69.1782 534.477 69.1782 534.914V538.898H68.0376V538.078H67.9907C67.9152 538.229 67.8019 538.378 67.6509 538.523C67.4998 538.669 67.3058 538.79 67.0688 538.887C66.8319 538.983 66.548 539.031 66.2173 539.031ZM66.4712 538.094C66.7941 538.094 67.0701 538.03 67.2993 537.902C67.5311 537.775 67.7069 537.608 67.8267 537.402C67.9491 537.194 68.0103 536.971 68.0103 536.734V535.961C67.9686 536.003 67.8879 536.042 67.7681 536.078C67.6509 536.112 67.5168 536.142 67.3657 536.168C67.2147 536.191 67.0675 536.214 66.9243 536.234C66.7811 536.253 66.6613 536.268 66.5649 536.281C66.3384 536.31 66.1313 536.358 65.9438 536.426C65.759 536.493 65.6105 536.591 65.4985 536.719C65.3892 536.844 65.3345 537.01 65.3345 537.219C65.3345 537.508 65.4412 537.727 65.6548 537.875C65.8683 538.021 66.1405 538.094 66.4712 538.094ZM70.7339 538.898V532.898H71.8628V533.852H71.9253C72.0347 533.529 72.2274 533.275 72.5034 533.09C72.7821 532.902 73.0972 532.809 73.4487 532.809C73.5216 532.809 73.6076 532.811 73.7065 532.816C73.8081 532.822 73.8875 532.828 73.9448 532.836V533.953C73.8979 533.94 73.8146 533.926 73.6948 533.91C73.575 533.892 73.4552 533.883 73.3354 533.883C73.0594 533.883 72.8133 533.941 72.5972 534.059C72.3836 534.173 72.2144 534.333 72.0894 534.539C71.9644 534.742 71.9019 534.974 71.9019 535.234V538.898H70.7339ZM76.9868 539.016C76.5024 539.016 76.0701 538.892 75.6899 538.645C75.3123 538.395 75.0155 538.039 74.7993 537.578C74.5858 537.115 74.479 536.559 74.479 535.91C74.479 535.262 74.5871 534.707 74.8032 534.246C75.022 533.785 75.3215 533.432 75.7017 533.188C76.0819 532.943 76.5129 532.82 76.9946 532.82C77.367 532.82 77.6665 532.883 77.8931 533.008C78.1222 533.13 78.2993 533.273 78.4243 533.437C78.5519 533.602 78.6509 533.746 78.7212 533.871H78.7915V530.898H79.9595V538.898H78.8188V537.965H78.7212C78.6509 538.092 78.5493 538.238 78.4165 538.402C78.2863 538.566 78.1066 538.71 77.8774 538.832C77.6483 538.954 77.3514 539.016 76.9868 539.016ZM77.2446 538.02C77.5806 538.02 77.8644 537.931 78.0962 537.754C78.3306 537.574 78.5076 537.326 78.6274 537.008C78.7498 536.69 78.811 536.32 78.811 535.898C78.811 535.482 78.7511 535.117 78.6313 534.805C78.5116 534.492 78.3358 534.249 78.104 534.074C77.8722 533.9 77.5858 533.812 77.2446 533.812C76.8931 533.812 76.6001 533.904 76.3657 534.086C76.1313 534.268 75.9543 534.517 75.8345 534.832C75.7173 535.147 75.6587 535.503 75.6587 535.898C75.6587 536.299 75.7186 536.66 75.8384 536.98C75.9582 537.301 76.1353 537.555 76.3696 537.742C76.6066 537.927 76.8983 538.02 77.2446 538.02Z" fill="white" fill-opacity="0.8"/>
<path d="M89.7812 533.148L92.7812 536.148L95.7812 533.148" stroke="white" stroke-opacity="0.8" stroke-linecap="round" stroke-linejoin="round"/>
<path d="M108.377 530.898L110.604 537.414H110.694L112.92 530.898H114.225L111.346 538.898H109.952L107.073 530.898H108.377ZM115.287 538.898V532.898H116.455V538.898H115.287ZM115.876 531.973C115.673 531.973 115.499 531.905 115.353 531.77C115.21 531.632 115.138 531.467 115.138 531.277C115.138 531.085 115.21 530.921 115.353 530.785C115.499 530.647 115.673 530.578 115.876 530.578C116.08 530.578 116.253 530.647 116.396 530.785C116.542 530.921 116.615 531.085 116.615 531.277C116.615 531.467 116.542 531.632 116.396 531.77C116.253 531.905 116.08 531.973 115.876 531.973ZM120.612 539.02C120.021 539.02 119.512 538.893 119.084 538.641C118.66 538.385 118.332 538.027 118.1 537.566C117.871 537.103 117.756 536.56 117.756 535.937C117.756 535.323 117.871 534.781 118.1 534.312C118.332 533.844 118.655 533.478 119.069 533.215C119.486 532.952 119.972 532.82 120.53 532.82C120.868 532.82 121.196 532.876 121.514 532.988C121.832 533.1 122.117 533.276 122.37 533.516C122.622 533.755 122.821 534.066 122.967 534.449C123.113 534.829 123.186 535.292 123.186 535.836V536.25H118.417V535.375H122.042C122.042 535.068 121.979 534.796 121.854 534.559C121.729 534.319 121.553 534.13 121.327 533.992C121.103 533.854 120.84 533.785 120.538 533.785C120.209 533.785 119.923 533.866 119.678 534.027C119.436 534.186 119.249 534.395 119.116 534.652C118.986 534.908 118.92 535.185 118.92 535.484V536.168C118.92 536.569 118.991 536.91 119.131 537.191C119.275 537.473 119.474 537.687 119.729 537.836C119.984 537.982 120.282 538.055 120.624 538.055C120.845 538.055 121.047 538.023 121.229 537.961C121.411 537.896 121.569 537.799 121.702 537.672C121.834 537.544 121.936 537.387 122.006 537.199L123.112 537.398C123.023 537.724 122.864 538.009 122.635 538.254C122.409 538.496 122.124 538.685 121.78 538.82C121.439 538.953 121.049 539.02 120.612 539.02ZM125.772 538.898L124.006 532.898H125.213L126.389 537.305H126.448L127.627 532.898H128.834L130.006 537.285H130.065L131.233 532.898H132.44L130.678 538.898H129.487L128.268 534.566H128.178L126.959 538.898H125.772Z" fill="white" fill-opacity="0.8"/>
<path d="M141.75 533.148L144.75 536.148L147.75 533.148" stroke="white" stroke-opacity="0.8" stroke-linecap="round" stroke-linejoin="round"/>
<path d="M725.82 526.398C725.82 524.189 727.611 522.398 729.82 522.398H838.602C840.811 522.398 842.602 524.189 842.602 526.398V542.898C842.602 545.108 840.811 546.898 838.602 546.898H729.82C727.611 546.898 725.82 545.108 725.82 542.898V526.398Z" fill="#252525"/>
<path d="M740.32 537.648L743.32 534.648L740.32 531.648" stroke="white" stroke-opacity="0.7" stroke-linecap="round" stroke-linejoin="round"/>
<path d="M754.858 530.898H756.323L758.87 537.117H758.963L761.51 530.898H762.975V538.898H761.827V533.109H761.752L759.393 538.887H758.44L756.081 533.105H756.006V538.898H754.858V530.898ZM767.164 539.02C766.601 539.02 766.11 538.891 765.691 538.633C765.272 538.375 764.946 538.014 764.714 537.551C764.483 537.087 764.367 536.546 764.367 535.926C764.367 535.303 764.483 534.759 764.714 534.293C764.946 533.827 765.272 533.465 765.691 533.207C766.11 532.949 766.601 532.82 767.164 532.82C767.726 532.82 768.217 532.949 768.636 533.207C769.056 533.465 769.381 533.827 769.613 534.293C769.845 534.759 769.96 535.303 769.96 535.926C769.96 536.546 769.845 537.087 769.613 537.551C769.381 538.014 769.056 538.375 768.636 538.633C768.217 538.891 767.726 539.02 767.164 539.02ZM767.167 538.039C767.532 538.039 767.834 537.943 768.074 537.75C768.313 537.557 768.49 537.301 768.605 536.98C768.722 536.66 768.781 536.307 768.781 535.922C768.781 535.539 768.722 535.187 768.605 534.867C768.49 534.544 768.313 534.285 768.074 534.09C767.834 533.895 767.532 533.797 767.167 533.797C766.8 533.797 766.496 533.895 766.253 534.09C766.014 534.285 765.835 534.544 765.718 534.867C765.604 535.187 765.546 535.539 765.546 535.922C765.546 536.307 765.604 536.66 765.718 536.98C765.835 537.301 766.014 537.557 766.253 537.75C766.496 537.943 766.8 538.039 767.167 538.039ZM773.792 539.02C773.229 539.02 772.738 538.891 772.319 538.633C771.9 538.375 771.574 538.014 771.342 537.551C771.111 537.087 770.995 536.546 770.995 535.926C770.995 535.303 771.111 534.759 771.342 534.293C771.574 533.827 771.9 533.465 772.319 533.207C772.738 532.949 773.229 532.82 773.792 532.82C774.354 532.82 774.845 532.949 775.264 533.207C775.683 533.465 776.009 533.827 776.241 534.293C776.472 534.759 776.588 535.303 776.588 535.926C776.588 536.546 776.472 537.087 776.241 537.551C776.009 538.014 775.683 538.375 775.264 538.633C774.845 538.891 774.354 539.02 773.792 539.02ZM773.795 538.039C774.16 538.039 774.462 537.943 774.702 537.75C774.941 537.557 775.118 537.301 775.233 536.98C775.35 536.66 775.409 536.307 775.409 535.922C775.409 535.539 775.35 535.187 775.233 534.867C775.118 534.544 774.941 534.285 774.702 534.09C774.462 533.895 774.16 533.797 773.795 533.797C773.428 533.797 773.124 533.895 772.881 534.09C772.642 534.285 772.463 534.544 772.346 534.867C772.232 535.187 772.174 535.539 772.174 535.922C772.174 536.307 772.232 536.66 772.346 536.98C772.463 537.301 772.642 537.557 772.881 537.75C773.124 537.943 773.428 538.039 773.795 538.039ZM780.138 539.016C779.654 539.016 779.222 538.892 778.841 538.645C778.464 538.395 778.167 538.039 777.951 537.578C777.737 537.115 777.63 536.559 777.63 535.91C777.63 535.262 777.738 534.707 777.955 534.246C778.173 533.785 778.473 533.432 778.853 533.188C779.233 532.943 779.664 532.82 780.146 532.82C780.518 532.82 780.818 532.883 781.044 533.008C781.274 533.13 781.451 533.273 781.576 533.437C781.703 533.602 781.802 533.746 781.873 533.871H781.943V530.898H783.111V538.898H781.97V537.965H781.873C781.802 538.092 781.701 538.238 781.568 538.402C781.438 538.566 781.258 538.71 781.029 538.832C780.8 538.954 780.503 539.016 780.138 539.016ZM780.396 538.02C780.732 538.02 781.016 537.931 781.248 537.754C781.482 537.574 781.659 537.326 781.779 537.008C781.901 536.69 781.962 536.32 781.962 535.898C781.962 535.482 781.903 535.117 781.783 534.805C781.663 534.492 781.487 534.249 781.255 534.074C781.024 533.9 780.737 533.812 780.396 533.812C780.044 533.812 779.751 533.904 779.517 534.086C779.283 534.268 779.106 534.517 778.986 534.832C778.869 535.147 778.81 535.503 778.81 535.898C778.81 536.299 778.87 536.66 778.99 536.98C779.11 537.301 779.287 537.555 779.521 537.742C779.758 537.927 780.05 538.02 780.396 538.02ZM784.872 538.898V530.898H786.04V533.871H786.11C786.178 533.746 786.275 533.602 786.403 533.437C786.53 533.273 786.708 533.13 786.934 533.008C787.161 532.883 787.46 532.82 787.833 532.82C788.317 532.82 788.749 532.943 789.129 533.188C789.51 533.432 789.808 533.785 790.024 534.246C790.243 534.707 790.352 535.262 790.352 535.91C790.352 536.559 790.244 537.115 790.028 537.578C789.812 538.039 789.515 538.395 789.137 538.645C788.76 538.892 788.329 539.016 787.844 539.016C787.48 539.016 787.181 538.954 786.95 538.832C786.721 538.71 786.541 538.566 786.411 538.402C786.28 538.238 786.18 538.092 786.11 537.965H786.012V538.898H784.872ZM786.016 535.898C786.016 536.32 786.077 536.69 786.2 537.008C786.322 537.326 786.499 537.574 786.731 537.754C786.963 537.931 787.247 538.02 787.583 538.02C787.931 538.02 788.223 537.927 788.458 537.742C788.692 537.555 788.869 537.301 788.989 536.98C789.111 536.66 789.172 536.299 789.172 535.898C789.172 535.503 789.112 535.147 788.993 534.832C788.875 534.517 788.698 534.268 788.461 534.086C788.227 533.904 787.934 533.812 787.583 533.812C787.244 533.812 786.958 533.9 786.723 534.074C786.491 534.249 786.316 534.492 786.196 534.805C786.076 535.117 786.016 535.482 786.016 535.898ZM794.191 539.02C793.628 539.02 793.138 538.891 792.718 538.633C792.299 538.375 791.973 538.014 791.742 537.551C791.51 537.087 791.394 536.546 791.394 535.926C791.394 535.303 791.51 534.759 791.742 534.293C791.973 533.827 792.299 533.465 792.718 533.207C793.138 532.949 793.628 532.82 794.191 532.82C794.753 532.82 795.244 532.949 795.664 533.207C796.083 533.465 796.408 533.827 796.64 534.293C796.872 534.759 796.988 535.303 796.988 535.926C796.988 536.546 796.872 537.087 796.64 537.551C796.408 538.014 796.083 538.375 795.664 538.633C795.244 538.891 794.753 539.02 794.191 539.02ZM794.195 538.039C794.559 538.039 794.861 537.943 795.101 537.75C795.341 537.557 795.518 537.301 795.632 536.98C795.75 536.66 795.808 536.307 795.808 535.922C795.808 535.539 795.75 535.187 795.632 534.867C795.518 534.544 795.341 534.285 795.101 534.09C794.861 533.895 794.559 533.797 794.195 533.797C793.828 533.797 793.523 533.895 793.281 534.09C793.041 534.285 792.863 534.544 792.746 534.867C792.631 535.187 792.574 535.539 792.574 535.922C792.574 536.307 792.631 536.66 792.746 536.98C792.863 537.301 793.041 537.557 793.281 537.75C793.523 537.943 793.828 538.039 794.195 538.039ZM800.038 539.031C799.657 539.031 799.314 538.961 799.006 538.82C798.699 538.677 798.456 538.47 798.276 538.199C798.099 537.928 798.01 537.596 798.01 537.203C798.01 536.865 798.075 536.586 798.206 536.367C798.336 536.148 798.512 535.975 798.733 535.848C798.954 535.72 799.202 535.624 799.475 535.559C799.749 535.493 800.027 535.444 800.311 535.41C800.67 535.368 800.962 535.335 801.186 535.309C801.41 535.28 801.573 535.234 801.674 535.172C801.776 535.109 801.827 535.008 801.827 534.867V534.84C801.827 534.499 801.73 534.234 801.538 534.047C801.347 533.859 801.064 533.766 800.686 533.766C800.293 533.766 799.983 533.853 799.756 534.027C799.532 534.199 799.377 534.391 799.292 534.602L798.194 534.352C798.324 533.987 798.514 533.693 798.764 533.469C799.017 533.242 799.307 533.078 799.635 532.977C799.963 532.872 800.308 532.82 800.67 532.82C800.91 532.82 801.164 532.849 801.432 532.906C801.703 532.961 801.956 533.062 802.19 533.211C802.427 533.359 802.621 533.572 802.772 533.848C802.923 534.121 802.999 534.477 802.999 534.914V538.898H801.858V538.078H801.811C801.736 538.229 801.622 538.378 801.471 538.523C801.32 538.669 801.126 538.79 800.889 538.887C800.652 538.983 800.368 539.031 800.038 539.031ZM800.292 538.094C800.614 538.094 800.89 538.03 801.12 537.902C801.351 537.775 801.527 537.608 801.647 537.402C801.769 537.194 801.831 536.971 801.831 536.734V535.961C801.789 536.003 801.708 536.042 801.588 536.078C801.471 536.112 801.337 536.142 801.186 536.168C801.035 536.191 800.888 536.214 800.745 536.234C800.601 536.253 800.482 536.268 800.385 536.281C800.159 536.31 799.952 536.358 799.764 536.426C799.579 536.493 799.431 536.591 799.319 536.719C799.209 536.844 799.155 537.01 799.155 537.219C799.155 537.508 799.262 537.727 799.475 537.875C799.689 538.021 799.961 538.094 800.292 538.094ZM804.554 538.898V532.898H805.683V533.852H805.746C805.855 533.529 806.048 533.275 806.324 533.09C806.602 532.902 806.917 532.809 807.269 532.809C807.342 532.809 807.428 532.811 807.527 532.816C807.628 532.822 807.708 532.828 807.765 532.836V533.953C807.718 533.94 807.635 533.926 807.515 533.91C807.395 533.892 807.276 533.883 807.156 533.883C806.88 533.883 806.634 533.941 806.417 534.059C806.204 534.173 806.035 534.333 805.91 534.539C805.785 534.742 805.722 534.974 805.722 535.234V538.898H804.554ZM810.807 539.016C810.323 539.016 809.89 538.892 809.51 538.645C809.133 538.395 808.836 538.039 808.62 537.578C808.406 537.115 808.299 536.559 808.299 535.91C808.299 535.262 808.407 534.707 808.624 534.246C808.842 533.785 809.142 533.432 809.522 533.188C809.902 532.943 810.333 532.82 810.815 532.82C811.187 532.82 811.487 532.883 811.713 533.008C811.943 533.13 812.12 533.273 812.245 533.437C812.372 533.602 812.471 533.746 812.542 533.871H812.612V530.898H813.78V538.898H812.639V537.965H812.542C812.471 538.092 812.37 538.238 812.237 538.402C812.107 538.566 811.927 538.71 811.698 538.832C811.469 538.954 811.172 539.016 810.807 539.016ZM811.065 538.02C811.401 538.02 811.685 537.931 811.917 537.754C812.151 537.574 812.328 537.326 812.448 537.008C812.57 536.69 812.631 536.32 812.631 535.898C812.631 535.482 812.571 535.117 812.452 534.805C812.332 534.492 812.156 534.249 811.924 534.074C811.693 533.9 811.406 533.812 811.065 533.812C810.713 533.812 810.42 533.904 810.186 534.086C809.952 534.268 809.775 534.517 809.655 534.832C809.538 535.147 809.479 535.503 809.479 535.898C809.479 536.299 809.539 536.66 809.659 536.98C809.778 537.301 809.956 537.555 810.19 537.742C810.427 537.927 810.719 538.02 811.065 538.02Z" fill="white" fill-opacity="0.9"/>
<path d="M826.602 535.148C826.878 535.148 827.102 534.925 827.102 534.648C827.102 534.372 826.878 534.148 826.602 534.148C826.325 534.148 826.102 534.372 826.102 534.648C826.102 534.925 826.325 535.148 826.602 535.148Z" stroke="white" stroke-opacity="0.5" stroke-linecap="round" stroke-linejoin="round"/>
<path d="M830.102 535.148C830.378 535.148 830.602 534.925 830.602 534.648C830.602 534.372 830.378 534.148 830.102 534.148C829.825 534.148 829.602 534.372 829.602 534.648C829.602 534.925 829.825 535.148 830.102 535.148Z" stroke="white" stroke-opacity="0.5" stroke-linecap="round" stroke-linejoin="round"/>
<path d="M823.102 535.148C823.378 535.148 823.602 534.925 823.602 534.648C823.602 534.372 823.378 534.148 823.102 534.148C822.825 534.148 822.602 534.372 822.602 534.648C822.602 534.925 822.825 535.148 823.102 535.148Z" stroke="white" stroke-opacity="0.5" stroke-linecap="round" stroke-linejoin="round"/>
<path d="M20 568.398C20 566.189 21.7909 564.398 24 564.398H44C46.2091 564.398 48 566.189 48 568.398V588.398C48 590.608 46.2091 592.398 44 592.398H24C21.7909 592.398 20 590.608 20 588.398V568.398Z" fill="#1A1A1A"/>
<g clip-path="url(#clip5_465_2877)">
<path d="M39 575.398H29" stroke="white" stroke-opacity="0.7" stroke-linecap="round" stroke-linejoin="round"/>
<path d="M39 581.398H29" stroke="white" stroke-opacity="0.7" stroke-linecap="round" stroke-linejoin="round"/>
<path d="M31 573.398V583.398" stroke="white" stroke-opacity="0.7" stroke-linecap="round" stroke-linejoin="round"/>
<path d="M37 573.398V583.398" stroke="white" stroke-opacity="0.7" stroke-linecap="round" stroke-linejoin="round"/>
</g>
<path d="M20 602.398C20 600.189 21.7909 598.398 24 598.398H44C46.2091 598.398 48 600.189 48 602.398V622.398C48 624.608 46.2091 626.398 44 626.398H24C21.7909 626.398 20 624.608 20 622.398V602.398Z" fill="#1A1A1A"/>
<path d="M30 609.898V608.398H38V609.898" stroke="white" stroke-opacity="0.7" stroke-linecap="round" stroke-linejoin="round"/>
<path d="M32.5 616.398H35.5" stroke="white" stroke-opacity="0.7" stroke-linecap="round" stroke-linejoin="round"/>
<path d="M34 608.398V616.398" stroke="white" stroke-opacity="0.7" stroke-linecap="round" stroke-linejoin="round"/>
<path d="M20 636.398C20 634.189 21.7909 632.398 24 632.398H44C46.2091 632.398 48 634.189 48 636.398V656.398C48 658.608 46.2091 660.398 44 660.398H24C21.7909 660.398 20 658.608 20 656.398V636.398Z" fill="#1A1A1A"/>
<path d="M35.5 641.898H38.5V644.898" stroke="white" stroke-opacity="0.7" stroke-linecap="round" stroke-linejoin="round"/>
<path d="M32.5 650.898H29.5V647.898" stroke="white" stroke-opacity="0.7" stroke-linecap="round" stroke-linejoin="round"/>
<path d="M38.5 641.898L35 645.398" stroke="white" stroke-opacity="0.7" stroke-linecap="round" stroke-linejoin="round"/>
<path d="M29.5 650.898L33 647.398" stroke="white" stroke-opacity="0.7" stroke-linecap="round" stroke-linejoin="round"/>
<path d="M20 670.398C20 668.189 21.7909 666.398 24 666.398H44C46.2091 666.398 48 668.189 48 670.398V690.398C48 692.608 46.2091 694.398 44 694.398H24C21.7909 694.398 20 692.608 20 690.398V670.398Z" fill="#1A1A1A"/>
<path d="M30.5 675.898C30.2348 675.898 29.9804 676.004 29.7929 676.191C29.6054 676.379 29.5 676.633 29.5 676.898" stroke="white" stroke-opacity="0.7" stroke-linecap="round" stroke-linejoin="round"/>
<path d="M37.5 675.898C37.7652 675.898 38.0196 676.004 38.2071 676.191C38.3946 676.379 38.5 676.633 38.5 676.898" stroke="white" stroke-opacity="0.7" stroke-linecap="round" stroke-linejoin="round"/>
<path d="M38.5 683.898C38.5 684.164 38.3946 684.418 38.2071 684.606C38.0196 684.793 37.7652 684.898 37.5 684.898" stroke="white" stroke-opacity="0.7" stroke-linecap="round" stroke-linejoin="round"/>
<path d="M30.5 684.898C30.2348 684.898 29.9804 684.793 29.7929 684.606C29.6054 684.418 29.5 684.164 29.5 683.898" stroke="white" stroke-opacity="0.7" stroke-linecap="round" stroke-linejoin="round"/>
<path d="M32.5 675.898H33" stroke="white" stroke-opacity="0.7" stroke-linecap="round" stroke-linejoin="round"/>
<path d="M32.5 684.898H33" stroke="white" stroke-opacity="0.7" stroke-linecap="round" stroke-linejoin="round"/>
<path d="M35 675.898H35.5" stroke="white" stroke-opacity="0.7" stroke-linecap="round" stroke-linejoin="round"/>
<path d="M35 684.898H35.5" stroke="white" stroke-opacity="0.7" stroke-linecap="round" stroke-linejoin="round"/>
<path d="M29.5 678.898V679.398" stroke="white" stroke-opacity="0.7" stroke-linecap="round" stroke-linejoin="round"/>
<path d="M38.5 678.898V679.398" stroke="white" stroke-opacity="0.7" stroke-linecap="round" stroke-linejoin="round"/>
<path d="M29.5 681.398V681.898" stroke="white" stroke-opacity="0.7" stroke-linecap="round" stroke-linejoin="round"/>
<path d="M38.5 681.398V681.898" stroke="white" stroke-opacity="0.7" stroke-linecap="round" stroke-linejoin="round"/>
<path d="M20 704.398C20 702.189 21.7909 700.398 24 700.398H44C46.2091 700.398 48 702.189 48 704.398V724.398C48 726.608 46.2091 728.398 44 728.398H24C21.7909 728.398 20 726.608 20 724.398V704.398Z" fill="#1A1A1A"/>
<path d="M31 715.398L31.75 713.948C31.8315 713.787 31.9556 713.65 32.1088 713.553C32.262 713.456 32.4387 713.403 32.62 713.398H38M38 713.398C38.1528 713.398 38.3036 713.433 38.4408 713.5C38.5781 713.567 38.6981 713.665 38.7918 713.785C38.8854 713.906 38.9502 714.047 38.9811 714.196C39.012 714.346 39.0082 714.501 38.97 714.648L38.2 717.648C38.1443 717.864 38.0181 718.055 37.8415 718.191C37.6648 718.327 37.4479 718.4 37.225 718.398H30C29.7348 718.398 29.4804 718.293 29.2929 718.106C29.1054 717.918 29 717.664 29 717.398V710.898C29 710.633 29.1054 710.379 29.2929 710.191C29.4804 710.004 29.7348 709.898 30 709.898H31.95C32.1172 709.897 32.2822 709.937 32.4298 710.016C32.5775 710.094 32.703 710.209 32.795 710.348L33.2 710.948C33.2911 711.087 33.415 711.2 33.5608 711.279C33.7065 711.357 33.8694 711.398 34.035 711.398H37C37.2652 711.398 37.5196 711.504 37.7071 711.691C37.8946 711.879 38 712.133 38 712.398V713.398Z" stroke="white" stroke-opacity="0.7" stroke-linecap="round" stroke-linejoin="round"/>
<path d="M20 738.398C20 736.189 21.7909 734.398 24 734.398H44C46.2091 734.398 48 736.189 48 738.398V758.398C48 760.608 46.2091 762.398 44 762.398H24C21.7909 762.398 20 760.608 20 758.398V738.398Z" fill="#1A1A1A"/>
<path d="M29.5 748.398C29.5 749.288 29.7639 750.158 30.2584 750.899C30.7529 751.639 31.4557 752.215 32.2779 752.556C33.1002 752.896 34.005 752.986 34.8779 752.812C35.7508 752.638 36.5526 752.21 37.182 751.58C37.8113 750.951 38.2399 750.149 38.4135 749.276C38.5872 748.403 38.4981 747.499 38.1575 746.676C37.8169 745.854 37.2401 745.151 36.5001 744.657C35.76 744.162 34.89 743.898 34 743.898C32.742 743.903 31.5345 744.394 30.63 745.268L29.5 746.398" stroke="white" stroke-opacity="0.7" stroke-linecap="round" stroke-linejoin="round"/>
<path d="M29.5 743.898V746.398H32" stroke="white" stroke-opacity="0.7" stroke-linecap="round" stroke-linejoin="round"/>
<path d="M20 772.398C20 770.189 21.7909 768.398 24 768.398H44C46.2091 768.398 48 770.189 48 772.398V792.398C48 794.608 46.2091 796.398 44 796.398H24C21.7909 796.398 20 794.608 20 792.398V772.398Z" fill="#1A1A1A"/>
<g clip-path="url(#clip6_465_2877)">
<path d="M29.5 779.398H38.5" stroke="white" stroke-opacity="0.7" stroke-linecap="round" stroke-linejoin="round"/>
<path d="M37.5 779.398V786.398C37.5 786.898 37 787.398 36.5 787.398H31.5C31 787.398 30.5 786.898 30.5 786.398V779.398" stroke="white" stroke-opacity="0.7" stroke-linecap="round" stroke-linejoin="round"/>
<path d="M32 779.398V778.398C32 777.898 32.5 777.398 33 777.398H35C35.5 777.398 36 777.898 36 778.398V779.398" stroke="white" stroke-opacity="0.7" stroke-linecap="round" stroke-linejoin="round"/>
<path d="M33 781.898V784.898" stroke="white" stroke-opacity="0.7" stroke-linecap="round" stroke-linejoin="round"/>
<path d="M35 781.898V784.898" stroke="white" stroke-opacity="0.7" stroke-linecap="round" stroke-linejoin="round"/>
</g>
<path d="M20 806.398C20 804.189 21.7909 802.398 24 802.398H44C46.2091 802.398 48 804.189 48 806.398V826.398C48 828.608 46.2091 830.398 44 830.398H24C21.7909 830.398 20 828.608 20 826.398V806.398Z" fill="#1A1A1A"/>
<path d="M37 813.398L31 819.398" stroke="white" stroke-opacity="0.7" stroke-linecap="round" stroke-linejoin="round"/>
<path d="M31 813.398L37 819.398" stroke="white" stroke-opacity="0.7" stroke-linecap="round" stroke-linejoin="round"/>
</g>
<path d="M15 513.398V514.398H847.602V513.398V512.398H15V513.398ZM855.602 521.398H854.602V817H855.602H856.602V521.398H855.602ZM847.602 825V824H15V825V826H847.602V825ZM7 817H8V521.398H7H6V817H7ZM15 825V824C11.134 824 8 820.866 8 817H7H6C6 821.971 10.0294 826 15 826V825ZM855.602 817H854.602C854.602 820.866 851.468 824 847.602 824V825V826C852.572 826 856.602 821.971 856.602 817H855.602ZM847.602 513.398V514.398C851.468 514.398 854.602 517.532 854.602 521.398H855.602H856.602C856.602 516.428 852.572 512.398 847.602 512.398V513.398ZM15 513.398V512.398C10.0294 512.398 6 516.428 6 521.398H7H8C8 517.532 11.134 514.398 15 514.398V513.398Z" fill="#3A3A3A" mask="url(#path-1-inside-1_465_2877)"/>
</g>
</g>
</g>
<defs>
<clipPath id="clip0_465_2877">
<rect width="1229" height="832" fill="white"/>
</clipPath>
<clipPath id="clip1_465_2877">
<rect width="848.602" height="790" fill="white" transform="translate(7 35)"/>
</clipPath>
<clipPath id="clip2_465_2877">
<rect width="848.602" height="315.602" fill="white" transform="translate(7 509.398)"/>
</clipPath>
<clipPath id="clip3_465_2877">
<path d="M7 521.398C7 516.98 10.5817 513.398 15 513.398H847.602C852.02 513.398 855.602 516.98 855.602 521.398V817C855.602 821.418 852.02 825 847.602 825H15C10.5817 825 7 821.418 7 817V521.398Z" fill="white"/>
</clipPath>
<clipPath id="clip4_465_2877">
<rect width="846.602" height="309.602" fill="white" transform="translate(8 514.398)"/>
</clipPath>
<clipPath id="clip5_465_2877">
<rect width="12" height="12" fill="white" transform="translate(28 572.398)"/>
</clipPath>
<clipPath id="clip6_465_2877">
<rect width="12" height="12" fill="white" transform="translate(28 776.398)"/>
</clipPath>
</defs>
</svg>
