<svg width="1229" height="832" viewBox="0 0 1229 832" fill="none" xmlns="http://www.w3.org/2000/svg">
<g clip-path="url(#clip0_465_2442)">
<g clip-path="url(#clip1_465_2442)">
<g clip-path="url(#clip2_465_2442)">
<mask id="path-1-inside-1_465_2442" fill="white">
<path d="M7 47C7 42.5817 10.5817 39 15 39H847.602C852.02 39 855.602 42.5817 855.602 47V496.398C855.602 500.817 852.02 504.398 847.602 504.398H15C10.5817 504.398 7 500.817 7 496.398V47Z"/>
</mask>
<path d="M7 47C7 42.5817 10.5817 39 15 39H847.602C852.02 39 855.602 42.5817 855.602 47V496.398C855.602 500.817 852.02 504.398 847.602 504.398H15C10.5817 504.398 7 500.817 7 496.398V47Z" fill="#010000"/>
<path d="M15 39V40H847.602V39V38H15V39ZM855.602 47H854.602V496.398H855.602H856.602V47H855.602ZM847.602 504.398V503.398H15V504.398V505.398H847.602V504.398ZM7 496.398H8V47H7H6V496.398H7ZM15 504.398V503.398C11.134 503.398 8 500.264 8 496.398H7H6C6 501.369 10.0294 505.398 15 505.398V504.398ZM855.602 496.398H854.602C854.602 500.264 851.468 503.398 847.602 503.398V504.398V505.398C852.572 505.398 856.602 501.369 856.602 496.398H855.602ZM847.602 39V40C851.468 40 854.602 43.134 854.602 47H855.602H856.602C856.602 42.0294 852.572 38 847.602 38V39ZM15 39V38C10.0294 38 6 42.0294 6 47H7H8C8 43.134 11.134 40 15 40V39Z" fill="#3A3A3A" mask="url(#path-1-inside-1_465_2442)"/>
<g clip-path="url(#clip3_465_2442)">
<path d="M854.602 40H8V503.398H854.602V40Z" fill="#010000"/>
<path d="M8 40H854.602" stroke="#A0A0A0" stroke-opacity="0.2" stroke-width="0.626349"/>
<path d="M8 41.3105H854.602" stroke="#A0A0A0" stroke-opacity="0.204" stroke-width="0.626349"/>
<path d="M8 43.707H854.602" stroke="#A0A0A0" stroke-opacity="0.208" stroke-width="0.626349"/>
<path d="M8 46.8105H854.602" stroke="#A0A0A0" stroke-opacity="0.21" stroke-width="0.626349"/>
<path d="M8 50.4854H854.602" stroke="#A0A0A0" stroke-opacity="0.216" stroke-width="0.626349"/>
<path d="M8 54.6543H854.602" stroke="#A0A0A0" stroke-opacity="0.22" stroke-width="0.626349"/>
<path d="M8 59.2627H854.602" stroke="#A0A0A0" stroke-opacity="0.224" stroke-width="0.626349"/>
<path d="M8 64.2744H854.602" stroke="#A0A0A0" stroke-opacity="0.227" stroke-width="0.626349"/>
<path d="M8 69.6572H854.602" stroke="#A0A0A0" stroke-opacity="0.23" stroke-width="0.626349"/>
<path d="M8 75.3887H854.602" stroke="#A0A0A0" stroke-opacity="0.235" stroke-width="0.626349"/>
<path d="M8 81.4473H854.602" stroke="#A0A0A0" stroke-opacity="0.24" stroke-width="0.626349"/>
<path d="M8 87.8174H854.602" stroke="#A0A0A0" stroke-opacity="0.243" stroke-width="0.626349"/>
<path d="M8 94.4844H854.602" stroke="#A0A0A0" stroke-opacity="0.247" stroke-width="0.626349"/>
<path d="M8 101.435H854.602" stroke="#A0A0A0" stroke-opacity="0.25" stroke-width="0.626349"/>
<path d="M8 108.658H854.602" stroke="#A0A0A0" stroke-opacity="0.255" stroke-width="0.626349"/>
<path d="M8 116.144H854.602" stroke="#A0A0A0" stroke-opacity="0.26" stroke-width="0.626349"/>
<path d="M8 123.884H854.602" stroke="#A0A0A0" stroke-opacity="0.263" stroke-width="0.626349"/>
<path d="M8 131.87H854.602" stroke="#A0A0A0" stroke-opacity="0.267" stroke-width="0.626349"/>
<path d="M8 140.094H854.602" stroke="#A0A0A0" stroke-opacity="0.27" stroke-width="0.626349"/>
<path d="M8 148.55H854.602" stroke="#A0A0A0" stroke-opacity="0.275" stroke-width="0.626349"/>
<path d="M8 157.231H854.602" stroke="#A0A0A0" stroke-opacity="0.28" stroke-width="0.626349"/>
<path d="M8 166.133H854.602" stroke="#A0A0A0" stroke-opacity="0.282" stroke-width="0.626349"/>
<path d="M8 175.249H854.602" stroke="#A0A0A0" stroke-opacity="0.286" stroke-width="0.626349"/>
<path d="M8 184.574H854.602" stroke="#A0A0A0" stroke-opacity="0.29" stroke-width="0.626349"/>
<path d="M8 194.104H854.602" stroke="#A0A0A0" stroke-opacity="0.294" stroke-width="0.626349"/>
<path d="M8 203.836H854.602" stroke="#A0A0A0" stroke-opacity="0.3" stroke-width="0.626349"/>
<path d="M8 213.764H854.602" stroke="#A0A0A0" stroke-opacity="0.306" stroke-width="0.626349"/>
<path d="M8 223.885H854.602" stroke="#A0A0A0" stroke-opacity="0.31" stroke-width="0.626349"/>
<path d="M8 234.194H854.602" stroke="#A0A0A0" stroke-opacity="0.314" stroke-width="0.626349"/>
<path d="M8 244.689H854.602" stroke="#A0A0A0" stroke-opacity="0.318" stroke-width="0.626349"/>
<path d="M8 255.368H854.602" stroke="#A0A0A0" stroke-opacity="0.32" stroke-width="0.626349"/>
<path d="M8 266.226H854.602" stroke="#A0A0A0" stroke-opacity="0.325" stroke-width="0.626349"/>
<path d="M8 277.26H854.602" stroke="#A0A0A0" stroke-opacity="0.33" stroke-width="0.626349"/>
<path d="M8 288.468H854.602" stroke="#A0A0A0" stroke-opacity="0.333" stroke-width="0.626349"/>
<path d="M8 299.847H854.602" stroke="#A0A0A0" stroke-opacity="0.337" stroke-width="0.626349"/>
<path d="M8 311.395H854.602" stroke="#A0A0A0" stroke-opacity="0.34" stroke-width="0.626349"/>
<path d="M8 323.108H854.602" stroke="#A0A0A0" stroke-opacity="0.345" stroke-width="0.626349"/>
<path d="M8 334.986H854.602" stroke="#A0A0A0" stroke-opacity="0.35" stroke-width="0.626349"/>
<path d="M8 347.025H854.602" stroke="#A0A0A0" stroke-opacity="0.353" stroke-width="0.626349"/>
<path d="M8 359.225H854.602" stroke="#A0A0A0" stroke-opacity="0.357" stroke-width="0.626349"/>
<path d="M8 371.58H854.602" stroke="#A0A0A0" stroke-opacity="0.36" stroke-width="0.626349"/>
<path d="M8 384.092H854.602" stroke="#A0A0A0" stroke-opacity="0.365" stroke-width="0.626349"/>
<path d="M8 396.757H854.602" stroke="#A0A0A0" stroke-opacity="0.37" stroke-width="0.626349"/>
<path d="M8 409.574H854.602" stroke="#A0A0A0" stroke-opacity="0.373" stroke-width="0.626349"/>
<path d="M8 422.541H854.602" stroke="#A0A0A0" stroke-opacity="0.376" stroke-width="0.626349"/>
<path d="M8 435.656H854.602" stroke="#A0A0A0" stroke-opacity="0.38" stroke-width="0.626349"/>
<path d="M8 448.918H854.602" stroke="#A0A0A0" stroke-opacity="0.384" stroke-width="0.626349"/>
<path d="M8 462.324H854.602" stroke="#A0A0A0" stroke-opacity="0.39" stroke-width="0.626349"/>
<path d="M8 475.874H854.602" stroke="#A0A0A0" stroke-opacity="0.392" stroke-width="0.626349"/>
<path d="M8 489.565H854.602" stroke="#A0A0A0" stroke-opacity="0.396" stroke-width="0.626349"/>
<path d="M380.505 40L-584.621 503.398" stroke="#A0A0A0" stroke-opacity="0.15" stroke-width="0.626349"/>
<path d="M383.892 40L-516.893 503.398" stroke="#A0A0A0" stroke-opacity="0.16" stroke-width="0.626349"/>
<path d="M387.279 40L-449.164 503.398" stroke="#A0A0A0" stroke-opacity="0.17" stroke-width="0.626349"/>
<path d="M390.663 40L-381.438 503.398" stroke="#A0A0A0" stroke-opacity="0.18" stroke-width="0.626349"/>
<path d="M394.05 40L-313.709 503.398" stroke="#A0A0A0" stroke-opacity="0.19" stroke-width="0.626349"/>
<path d="M397.437 40L-245.98 503.398" stroke="#A0A0A0" stroke-opacity="0.2" stroke-width="0.626349"/>
<path d="M400.824 40L-178.252 503.398" stroke="#A0A0A0" stroke-opacity="0.21" stroke-width="0.626349"/>
<path d="M404.211 40L-110.523 503.398" stroke="#A0A0A0" stroke-opacity="0.22" stroke-width="0.626349"/>
<path d="M407.595 40L-42.7969 503.398" stroke="#A0A0A0" stroke-opacity="0.23" stroke-width="0.626349"/>
<path d="M410.982 40L24.9316 503.398" stroke="#A0A0A0" stroke-opacity="0.24" stroke-width="0.626349"/>
<path d="M414.369 40L92.6602 503.398" stroke="#A0A0A0" stroke-opacity="0.25" stroke-width="0.626349"/>
<path d="M417.756 40L160.389 503.398" stroke="#A0A0A0" stroke-opacity="0.26" stroke-width="0.626349"/>
<path d="M421.142 40L228.117 503.398" stroke="#A0A0A0" stroke-opacity="0.27" stroke-width="0.626349"/>
<path d="M424.527 40L295.844 503.398" stroke="#A0A0A0" stroke-opacity="0.28" stroke-width="0.626349"/>
<path d="M427.914 40L363.572 503.398" stroke="#A0A0A0" stroke-opacity="0.29" stroke-width="0.626349"/>
<path d="M431.301 40V503.398" stroke="#A0A0A0" stroke-opacity="0.3" stroke-width="0.626349"/>
<path d="M434.688 40L499.029 503.398" stroke="#A0A0A0" stroke-opacity="0.29" stroke-width="0.626349"/>
<path d="M438.074 40L566.758 503.398" stroke="#A0A0A0" stroke-opacity="0.28" stroke-width="0.626349"/>
<path d="M441.461 40L634.486 503.398" stroke="#A0A0A0" stroke-opacity="0.27" stroke-width="0.626349"/>
<path d="M444.846 40L702.213 503.398" stroke="#A0A0A0" stroke-opacity="0.26" stroke-width="0.626349"/>
<path d="M448.232 40L769.941 503.398" stroke="#A0A0A0" stroke-opacity="0.25" stroke-width="0.626349"/>
<path d="M451.619 40L837.67 503.398" stroke="#A0A0A0" stroke-opacity="0.24" stroke-width="0.626349"/>
<path d="M455.006 40L905.398 503.398" stroke="#A0A0A0" stroke-opacity="0.23" stroke-width="0.626349"/>
<path d="M458.393 40L973.127 503.398" stroke="#A0A0A0" stroke-opacity="0.22" stroke-width="0.626349"/>
<path d="M461.779 40L1040.86 503.398" stroke="#A0A0A0" stroke-opacity="0.21" stroke-width="0.626349"/>
<path d="M465.164 40L1108.58 503.398" stroke="#A0A0A0" stroke-opacity="0.2" stroke-width="0.626349"/>
<path d="M468.551 40L1176.31 503.398" stroke="#A0A0A0" stroke-opacity="0.19" stroke-width="0.626349"/>
<path d="M471.938 40L1244.04 503.398" stroke="#A0A0A0" stroke-opacity="0.18" stroke-width="0.626349"/>
<path d="M475.324 40L1311.77 503.398" stroke="#A0A0A0" stroke-opacity="0.17" stroke-width="0.626349"/>
<path d="M478.711 40L1379.5 503.398" stroke="#A0A0A0" stroke-opacity="0.16" stroke-width="0.626349"/>
</g>
<mask id="path-84-inside-2_465_2442" fill="white">
<path d="M8 72H50V503.398H8V72Z"/>
</mask>
<path d="M8 72H50V503.398H8V72Z" fill="#1A1A1A"/>
<path d="M50 72H49V503.398H50H51V72H50Z" fill="#3A3A3A" mask="url(#path-84-inside-2_465_2442)"/>
<mask id="path-86-inside-3_465_2442" fill="white">
<path d="M9.5 83C9.5 81.3431 10.8431 80 12.5 80H44.5C46.1569 80 47.5 81.3431 47.5 83V115C47.5 116.657 46.1569 118 44.5 118H12.5C10.8431 118 9.5 116.657 9.5 115V83Z"/>
</mask>
<path d="M9.5 83C9.5 81.3431 10.8431 80 12.5 80H44.5C46.1569 80 47.5 81.3431 47.5 83V115C47.5 116.657 46.1569 118 44.5 118H12.5C10.8431 118 9.5 116.657 9.5 115V83Z" fill="#2A2A2A"/>
<path d="M9.5 80H47.5H9.5ZM47.5 118H9.5H47.5ZM12.5 118C9.73858 118 7.5 115.761 7.5 113V85C7.5 82.2386 9.73858 80 12.5 80C11.9477 80 11.5 81.3431 11.5 83V115C11.5 116.657 11.9477 118 12.5 118ZM47.5 80V118V80Z" fill="#FF6B35" mask="url(#path-86-inside-3_465_2442)"/>
<path d="M23.5287 93.5159C23.4991 93.4476 23.4907 93.372 23.5046 93.2988C23.5185 93.2257 23.5541 93.1585 23.6068 93.1058C23.6594 93.0532 23.7267 93.0176 23.7998 93.0036C23.873 92.9897 23.9486 92.9981 24.0169 93.0277L36.0169 97.9027C36.0899 97.9324 36.1516 97.9844 36.1934 98.0512C36.2352 98.118 36.2548 98.1962 36.2496 98.2749C36.2444 98.3535 36.2145 98.4284 36.1642 98.4891C36.114 98.5498 36.0459 98.5931 35.9697 98.6129L31.3767 99.7979C31.1171 99.8646 30.8802 99.9996 30.6906 100.189C30.5009 100.378 30.3654 100.615 30.2982 100.874L29.1139 105.469C29.0941 105.545 29.0508 105.613 28.9901 105.663C28.9294 105.714 28.8544 105.743 28.7758 105.749C28.6972 105.754 28.6189 105.734 28.5521 105.692C28.4853 105.651 28.4334 105.589 28.4037 105.516L23.5287 93.5159Z" stroke="white" stroke-opacity="0.95" stroke-width="1.5" stroke-linecap="round" stroke-linejoin="round"/>
<path d="M28.5 146.5C32.6421 146.5 36 143.142 36 139C36 134.858 32.6421 131.5 28.5 131.5C24.3579 131.5 21 134.858 21 139C21 143.142 24.3579 146.5 28.5 146.5Z" stroke="white" stroke-opacity="0.8" stroke-width="1.5" stroke-linecap="round" stroke-linejoin="round"/>
<path d="M36 139H33" stroke="white" stroke-opacity="0.8" stroke-width="1.5" stroke-linecap="round" stroke-linejoin="round"/>
<path d="M24 139H21" stroke="white" stroke-opacity="0.8" stroke-width="1.5" stroke-linecap="round" stroke-linejoin="round"/>
<path d="M28.5 134.5V131.5" stroke="white" stroke-opacity="0.8" stroke-width="1.5" stroke-linecap="round" stroke-linejoin="round"/>
<path d="M28.5 146.5V143.5" stroke="white" stroke-opacity="0.8" stroke-width="1.5" stroke-linecap="round" stroke-linejoin="round"/>
<path d="M28.5 171.5V186.5" stroke="white" stroke-opacity="0.8" stroke-width="1.5" stroke-linecap="round" stroke-linejoin="round"/>
<path d="M30.75 184.25L28.5 186.5L26.25 184.25" stroke="white" stroke-opacity="0.8" stroke-width="1.5" stroke-linecap="round" stroke-linejoin="round"/>
<path d="M33.75 176.75L36 179L33.75 181.25" stroke="white" stroke-opacity="0.8" stroke-width="1.5" stroke-linecap="round" stroke-linejoin="round"/>
<path d="M21 179H36" stroke="white" stroke-opacity="0.8" stroke-width="1.5" stroke-linecap="round" stroke-linejoin="round"/>
<path d="M23.25 176.75L21 179L23.25 181.25" stroke="white" stroke-opacity="0.8" stroke-width="1.5" stroke-linecap="round" stroke-linejoin="round"/>
<path d="M26.25 173.75L28.5 171.5L30.75 173.75" stroke="white" stroke-opacity="0.8" stroke-width="1.5" stroke-linecap="round" stroke-linejoin="round"/>
<path d="M35.25 219C35.25 220.335 34.8541 221.64 34.1124 222.75C33.3707 223.86 32.3165 224.725 31.0831 225.236C29.8497 225.747 28.4925 225.881 27.1831 225.62C25.8738 225.36 24.671 224.717 23.727 223.773C22.783 222.829 22.1402 221.626 21.8797 220.317C21.6193 219.007 21.7529 217.65 22.2638 216.417C22.7747 215.183 23.6399 214.129 24.7499 213.388C25.8599 212.646 27.165 212.25 28.5 212.25C30.39 212.25 32.1975 213 33.555 214.305L35.25 216" stroke="white" stroke-opacity="0.8" stroke-width="1.5" stroke-linecap="round" stroke-linejoin="round"/>
<path d="M35.25 212.25V216H31.5" stroke="white" stroke-opacity="0.8" stroke-width="1.5" stroke-linecap="round" stroke-linejoin="round"/>
<path d="M31.5 262L33.75 256L36 262C35.3475 262.487 34.56 262.75 33.75 262.75C32.94 262.75 32.1525 262.487 31.5 262Z" stroke="white" stroke-opacity="0.8" stroke-width="1.5" stroke-linecap="round" stroke-linejoin="round"/>
<path d="M21 262L23.25 256L25.5 262C24.8475 262.487 24.06 262.75 23.25 262.75C22.44 262.75 21.6525 262.487 21 262Z" stroke="white" stroke-opacity="0.8" stroke-width="1.5" stroke-linecap="round" stroke-linejoin="round"/>
<path d="M24.75 265.75H32.25" stroke="white" stroke-opacity="0.8" stroke-width="1.5" stroke-linecap="round" stroke-linejoin="round"/>
<path d="M28.5 252.25V265.75" stroke="white" stroke-opacity="0.8" stroke-width="1.5" stroke-linecap="round" stroke-linejoin="round"/>
<path d="M21.75 255.25H23.25C24.75 255.25 27 254.5 28.5 253.75C30 254.5 32.25 255.25 33.75 255.25H35.25" stroke="white" stroke-opacity="0.8" stroke-width="1.5" stroke-linecap="round" stroke-linejoin="round"/>
<path d="M23.25 292.25V304.25H35.25" stroke="white" stroke-opacity="0.8" stroke-width="1.5" stroke-linecap="round" stroke-linejoin="round"/>
<path d="M23.25 304.25L27.75 299.75" stroke="white" stroke-opacity="0.8" stroke-width="1.5" stroke-linecap="round" stroke-linejoin="round"/>
<path d="M21 294.5L23.25 292.25L25.5 294.5" stroke="white" stroke-opacity="0.8" stroke-width="1.5" stroke-linecap="round" stroke-linejoin="round"/>
<path d="M33 302L35.25 304.25L33 306.5" stroke="white" stroke-opacity="0.8" stroke-width="1.5" stroke-linecap="round" stroke-linejoin="round"/>
<rect width="30" height="1" transform="translate(13.5 324)" fill="#3A3A3A"/>
<path d="M35.3805 346.109C35.777 345.713 35.9998 345.175 35.9999 344.614C35.9999 344.054 35.7773 343.516 35.3808 343.119C34.9844 342.723 34.4467 342.5 33.886 342.5C33.3253 342.5 32.7875 342.723 32.391 343.119L22.3815 353.131C22.2073 353.304 22.0785 353.518 22.0065 353.753L21.0157 357.017C20.9963 357.082 20.9949 357.151 21.0115 357.217C21.0281 357.282 21.0621 357.342 21.11 357.39C21.158 357.438 21.2179 357.472 21.2836 357.488C21.3492 357.505 21.4181 357.503 21.483 357.484L24.7477 356.494C24.9826 356.422 25.1963 356.294 25.3702 356.121L35.3805 346.109Z" stroke="white" stroke-opacity="0.8" stroke-width="1.5" stroke-linecap="round" stroke-linejoin="round"/>
<path d="M30.75 344.75L33.75 347.75" stroke="white" stroke-opacity="0.8" stroke-width="1.5" stroke-linecap="round" stroke-linejoin="round"/>
<path d="M35.4744 392.475C35.6422 392.643 35.7753 392.841 35.8662 393.06C35.957 393.279 36.0038 393.513 36.0038 393.75C36.0038 393.987 35.957 394.222 35.8662 394.441C35.7753 394.659 35.6422 394.858 35.4744 395.025L33.5244 396.975C33.3571 397.143 33.1584 397.276 32.9396 397.367C32.7208 397.458 32.4863 397.505 32.2494 397.505C32.0125 397.505 31.7779 397.458 31.5591 397.367C31.3403 397.276 31.1416 397.143 30.9744 396.975L21.5244 387.525C21.1873 387.187 20.998 386.728 20.998 386.25C20.998 385.772 21.1873 385.314 21.5244 384.975L23.4744 383.025C23.8131 382.688 24.2715 382.499 24.7494 382.499C25.2272 382.499 25.6856 382.688 26.0244 383.025L35.4744 392.475Z" stroke="white" stroke-opacity="0.8" stroke-width="1.5" stroke-linecap="round" stroke-linejoin="round"/>
<path d="M30.375 390.375L31.875 388.875" stroke="white" stroke-opacity="0.8" stroke-width="1.5" stroke-linecap="round" stroke-linejoin="round"/>
<path d="M28.125 388.125L29.625 386.625" stroke="white" stroke-opacity="0.8" stroke-width="1.5" stroke-linecap="round" stroke-linejoin="round"/>
<path d="M25.875 385.875L27.375 384.375" stroke="white" stroke-opacity="0.8" stroke-width="1.5" stroke-linecap="round" stroke-linejoin="round"/>
<path d="M32.625 392.625L34.125 391.125" stroke="white" stroke-opacity="0.8" stroke-width="1.5" stroke-linecap="round" stroke-linejoin="round"/>
<path d="M30.75 422.5H24C23.6022 422.5 23.2206 422.658 22.9393 422.939C22.658 423.221 22.5 423.602 22.5 424V436C22.5 436.398 22.658 436.779 22.9393 437.061C23.2206 437.342 23.6022 437.5 24 437.5H33C33.3978 437.5 33.7794 437.342 34.0607 437.061C34.342 436.779 34.5 436.398 34.5 436V426.25L30.75 422.5Z" stroke="white" stroke-opacity="0.8" stroke-width="1.5" stroke-linecap="round" stroke-linejoin="round"/>
<path d="M30 422.5V425.5C30 425.898 30.158 426.279 30.4393 426.561C30.7206 426.842 31.1022 427 31.5 427H34.5" stroke="white" stroke-opacity="0.8" stroke-width="1.5" stroke-linecap="round" stroke-linejoin="round"/>
<path d="M27 427.75H25.5" stroke="white" stroke-opacity="0.8" stroke-width="1.5" stroke-linecap="round" stroke-linejoin="round"/>
<path d="M31.5 430.75H25.5" stroke="white" stroke-opacity="0.8" stroke-width="1.5" stroke-linecap="round" stroke-linejoin="round"/>
<path d="M31.5 433.75H25.5" stroke="white" stroke-opacity="0.8" stroke-width="1.5" stroke-linecap="round" stroke-linejoin="round"/>
<path d="M65.5547 96.6094C65.0182 96.6094 64.5391 96.5169 64.1172 96.332C63.6979 96.1471 63.3659 95.8906 63.1211 95.5625C62.8789 95.2318 62.7487 94.849 62.7305 94.4141H63.957C63.9727 94.651 64.0521 94.8568 64.1953 95.0312C64.3411 95.2031 64.5313 95.3359 64.7656 95.4297C65 95.5234 65.2604 95.5703 65.5469 95.5703C65.862 95.5703 66.1406 95.5156 66.3828 95.4062C66.6276 95.2969 66.819 95.1445 66.957 94.9492C67.0951 94.7513 67.1641 94.5234 67.1641 94.2656C67.1641 93.9974 67.0951 93.7617 66.957 93.5586C66.8216 93.3529 66.6224 93.1914 66.3594 93.0742C66.099 92.957 65.7839 92.8984 65.4141 92.8984H64.7383V91.9141H65.4141C65.7109 91.9141 65.9714 91.8607 66.1953 91.7539C66.4219 91.6471 66.599 91.4987 66.7266 91.3086C66.8542 91.1159 66.918 90.8906 66.918 90.6328C66.918 90.3854 66.862 90.1706 66.75 89.9883C66.6406 89.8034 66.4844 89.6589 66.2813 89.5547C66.0807 89.4505 65.8438 89.3984 65.5703 89.3984C65.3099 89.3984 65.0664 89.4466 64.8398 89.543C64.6159 89.6367 64.4336 89.7721 64.293 89.9492C64.1523 90.1237 64.0768 90.3333 64.0664 90.5781H62.8984C62.9115 90.1458 63.0391 89.7656 63.2813 89.4375C63.526 89.1094 63.849 88.8529 64.25 88.668C64.651 88.4831 65.0964 88.3906 65.5859 88.3906C66.099 88.3906 66.5417 88.4909 66.9141 88.6914C67.2891 88.8893 67.5781 89.1536 67.7813 89.4844C67.987 89.8151 68.0885 90.1771 68.0859 90.5703C68.0885 91.0182 67.9635 91.3984 67.7109 91.7109C67.4609 92.0234 67.1276 92.2331 66.7109 92.3398V92.4023C67.2422 92.4831 67.6536 92.694 67.9453 93.0352C68.2396 93.3763 68.3854 93.7995 68.3828 94.3047C68.3854 94.7448 68.263 95.1393 68.0156 95.4883C67.7708 95.8372 67.4362 96.112 67.0117 96.3125C66.5872 96.5104 66.1016 96.6094 65.5547 96.6094ZM72.5586 96.5H69.9688V88.5H72.6406C73.4245 88.5 74.0977 88.6602 74.6602 88.9805C75.2227 89.2982 75.6536 89.7552 75.9531 90.3516C76.2552 90.9453 76.4063 91.6576 76.4063 92.4883C76.4063 93.3216 76.2539 94.0378 75.9492 94.6367C75.6471 95.2357 75.2096 95.6966 74.6367 96.0195C74.0638 96.3398 73.3711 96.5 72.5586 96.5ZM71.1758 95.4453H72.4922C73.1016 95.4453 73.6081 95.3307 74.0117 95.1016C74.4154 94.8698 74.7174 94.5352 74.918 94.0977C75.1185 93.6576 75.2188 93.1211 75.2188 92.4883C75.2188 91.8607 75.1185 91.3281 74.918 90.8906C74.7201 90.4531 74.4245 90.1211 74.0312 89.8945C73.638 89.668 73.1497 89.5547 72.5664 89.5547H71.1758V95.4453ZM81.5176 88.5L83.7441 95.0156H83.834L86.0605 88.5H87.3652L84.4863 96.5H83.0918L80.2129 88.5H81.5176ZM88.4268 96.5V90.5H89.5947V96.5H88.4268ZM89.0166 89.5742C88.8135 89.5742 88.639 89.5065 88.4932 89.3711C88.3499 89.2331 88.2783 89.069 88.2783 88.8789C88.2783 88.6862 88.3499 88.5221 88.4932 88.3867C88.639 88.2487 88.8135 88.1797 89.0166 88.1797C89.2197 88.1797 89.3929 88.2487 89.5361 88.3867C89.682 88.5221 89.7549 88.6862 89.7549 88.8789C89.7549 89.069 89.682 89.2331 89.5361 89.3711C89.3929 89.5065 89.2197 89.5742 89.0166 89.5742ZM93.752 96.6211C93.1608 96.6211 92.6517 96.4948 92.2246 96.2422C91.8001 95.987 91.472 95.6289 91.2402 95.168C91.0111 94.7044 90.8965 94.1615 90.8965 93.5391C90.8965 92.9245 91.0111 92.3828 91.2402 91.9141C91.472 91.4453 91.7949 91.0794 92.209 90.8164C92.6257 90.5534 93.1126 90.4219 93.6699 90.4219C94.0085 90.4219 94.3366 90.4779 94.6543 90.5898C94.972 90.7018 95.2572 90.8776 95.5098 91.1172C95.7624 91.3568 95.9616 91.668 96.1074 92.0508C96.2533 92.431 96.3262 92.8932 96.3262 93.4375V93.8516H91.5566V92.9766H95.1816C95.1816 92.6693 95.1191 92.3971 94.9941 92.1602C94.8691 91.9206 94.6934 91.7318 94.4668 91.5937C94.2428 91.4557 93.9798 91.3867 93.6777 91.3867C93.3496 91.3867 93.0632 91.4674 92.8184 91.6289C92.5762 91.7878 92.3887 91.9961 92.2559 92.2539C92.1257 92.5091 92.0605 92.7865 92.0605 93.0859V93.7695C92.0605 94.1706 92.1309 94.5117 92.2715 94.793C92.4147 95.0742 92.6139 95.2891 92.8691 95.4375C93.1243 95.5833 93.4225 95.6562 93.7637 95.6562C93.985 95.6562 94.1868 95.625 94.3691 95.5625C94.5514 95.4974 94.709 95.401 94.8418 95.2734C94.9746 95.1458 95.0762 94.9883 95.1465 94.8008L96.252 95C96.1634 95.3255 96.0046 95.6107 95.7754 95.8555C95.5488 96.0977 95.2637 96.2865 94.9199 96.4219C94.5788 96.5547 94.1895 96.6211 93.752 96.6211ZM98.9121 96.5L97.1465 90.5H98.3535L99.5293 94.9062H99.5879L100.768 90.5H101.975L103.146 94.8867H103.205L104.373 90.5H105.58L103.818 96.5H102.627L101.408 92.168H101.318L100.1 96.5H98.9121ZM106.688 98.75V90.5H107.829V91.4727H107.927C107.994 91.3477 108.092 91.2031 108.22 91.0391C108.347 90.875 108.524 90.7318 108.751 90.6094C108.978 90.4844 109.277 90.4219 109.649 90.4219C110.134 90.4219 110.566 90.5443 110.946 90.7891C111.326 91.0339 111.625 91.3867 111.841 91.8477C112.06 92.3086 112.169 92.8633 112.169 93.5117C112.169 94.1602 112.061 94.7161 111.845 95.1797C111.629 95.6406 111.332 95.9961 110.954 96.2461C110.576 96.4935 110.146 96.6172 109.661 96.6172C109.297 96.6172 108.998 96.556 108.767 96.4336C108.537 96.3112 108.358 96.168 108.228 96.0039C108.097 95.8398 107.997 95.694 107.927 95.5664H107.856V98.75H106.688ZM107.833 93.5C107.833 93.9219 107.894 94.2917 108.017 94.6094C108.139 94.9271 108.316 95.1758 108.548 95.3555C108.78 95.5326 109.063 95.6211 109.399 95.6211C109.748 95.6211 110.04 95.5286 110.274 95.3437C110.509 95.1562 110.686 94.9023 110.806 94.582C110.928 94.2617 110.989 93.901 110.989 93.5C110.989 93.1042 110.929 92.7487 110.81 92.4336C110.692 92.1185 110.515 91.8698 110.278 91.6875C110.044 91.5052 109.751 91.4141 109.399 91.4141C109.061 91.4141 108.774 91.5013 108.54 91.6758C108.308 91.8503 108.132 92.0937 108.013 92.4062C107.893 92.7187 107.833 93.0833 107.833 93.5ZM116.005 96.6211C115.442 96.6211 114.951 96.4922 114.532 96.2344C114.113 95.9766 113.787 95.6159 113.556 95.1523C113.324 94.6888 113.208 94.1471 113.208 93.5273C113.208 92.9049 113.324 92.3607 113.556 91.8945C113.787 91.4284 114.113 91.0664 114.532 90.8086C114.951 90.5508 115.442 90.4219 116.005 90.4219C116.567 90.4219 117.058 90.5508 117.478 90.8086C117.897 91.0664 118.222 91.4284 118.454 91.8945C118.686 92.3607 118.802 92.9049 118.802 93.5273C118.802 94.1471 118.686 94.6888 118.454 95.1523C118.222 95.6159 117.897 95.9766 117.478 96.2344C117.058 96.4922 116.567 96.6211 116.005 96.6211ZM116.009 95.6406C116.373 95.6406 116.675 95.5443 116.915 95.3516C117.155 95.1589 117.332 94.9023 117.446 94.582C117.563 94.2617 117.622 93.9089 117.622 93.5234C117.622 93.1406 117.563 92.7891 117.446 92.4687C117.332 92.1458 117.155 91.8867 116.915 91.6914C116.675 91.4961 116.373 91.3984 116.009 91.3984C115.642 91.3984 115.337 91.4961 115.095 91.6914C114.855 91.8867 114.677 92.1458 114.56 92.4687C114.445 92.7891 114.388 93.1406 114.388 93.5234C114.388 93.9089 114.445 94.2617 114.56 94.582C114.677 94.9023 114.855 95.1589 115.095 95.3516C115.337 95.5443 115.642 95.6406 116.009 95.6406ZM120.105 96.5V90.5H121.234V91.4531H121.297C121.406 91.1302 121.599 90.8763 121.875 90.6914C122.154 90.5039 122.469 90.4102 122.82 90.4102C122.893 90.4102 122.979 90.4128 123.078 90.418C123.18 90.4232 123.259 90.4297 123.316 90.4375V91.5547C123.27 91.5417 123.186 91.5273 123.066 91.5117C122.947 91.4935 122.827 91.4844 122.707 91.4844C122.431 91.4844 122.185 91.543 121.969 91.6602C121.755 91.7747 121.586 91.9349 121.461 92.1406C121.336 92.3437 121.273 92.5755 121.273 92.8359V96.5H120.105ZM127.482 90.5V91.4375H124.205V90.5H127.482ZM125.084 89.0625H126.252V94.7383C126.252 94.9648 126.286 95.1354 126.354 95.25C126.421 95.362 126.508 95.4388 126.615 95.4805C126.725 95.5195 126.843 95.5391 126.971 95.5391C127.064 95.5391 127.146 95.5326 127.217 95.5195C127.287 95.5065 127.342 95.4961 127.381 95.4883L127.592 96.4531C127.524 96.4792 127.428 96.5052 127.303 96.5313C127.178 96.5599 127.021 96.5755 126.834 96.5781C126.527 96.5833 126.24 96.5286 125.975 96.4141C125.709 96.2995 125.494 96.1224 125.33 95.8828C125.166 95.6432 125.084 95.3424 125.084 94.9805V89.0625Z" fill="white" fill-opacity="0.6"/>
<path d="M816.602 88C816.602 85.7909 818.392 84 820.602 84H838.602C840.811 84 842.602 85.7909 842.602 88V106C842.602 108.209 840.811 110 838.602 110H820.602C818.392 110 816.602 108.209 816.602 106V88Z" fill="#1A1A1A" fill-opacity="0.8"/>
<path d="M831.352 91.75H834.852V95.25" stroke="white" stroke-opacity="0.8" stroke-width="1.16667" stroke-linecap="round" stroke-linejoin="round"/>
<path d="M827.852 102.25H824.352V98.75" stroke="white" stroke-opacity="0.8" stroke-width="1.16667" stroke-linecap="round" stroke-linejoin="round"/>
<path d="M834.851 91.75L830.768 95.8333" stroke="white" stroke-opacity="0.8" stroke-width="1.16667" stroke-linecap="round" stroke-linejoin="round"/>
<path d="M824.352 102.25L828.435 98.167" stroke="white" stroke-opacity="0.8" stroke-width="1.16667" stroke-linecap="round" stroke-linejoin="round"/>
<path d="M752.602 469.398C752.602 467.189 754.392 465.398 756.602 465.398H774.602C776.811 465.398 778.602 467.189 778.602 469.398V487.398C778.602 489.608 776.811 491.398 774.602 491.398H756.602C754.392 491.398 752.602 489.608 752.602 487.398V469.398Z" fill="#1A1A1A" fill-opacity="0.8"/>
<path d="M765.018 482.482C767.596 482.482 769.685 480.392 769.685 477.815C769.685 475.238 767.596 473.148 765.018 473.148C762.441 473.148 760.352 475.238 760.352 477.815C760.352 480.392 762.441 482.482 765.018 482.482Z" stroke="white" stroke-opacity="0.8" stroke-width="1.16667" stroke-linecap="round" stroke-linejoin="round"/>
<path d="M770.852 483.649L768.314 481.111" stroke="white" stroke-opacity="0.8" stroke-width="1.16667" stroke-linecap="round" stroke-linejoin="round"/>
<path d="M765.018 476.065V479.565" stroke="white" stroke-opacity="0.8" stroke-width="1.16667" stroke-linecap="round" stroke-linejoin="round"/>
<path d="M763.268 477.815H766.768" stroke="white" stroke-opacity="0.8" stroke-width="1.16667" stroke-linecap="round" stroke-linejoin="round"/>
<path d="M784.602 469.398C784.602 467.189 786.392 465.398 788.602 465.398H806.602C808.811 465.398 810.602 467.189 810.602 469.398V487.398C810.602 489.608 808.811 491.398 806.602 491.398H788.602C786.392 491.398 784.602 489.608 784.602 487.398V469.398Z" fill="#1A1A1A" fill-opacity="0.8"/>
<path d="M797.018 482.482C799.596 482.482 801.685 480.392 801.685 477.815C801.685 475.238 799.596 473.148 797.018 473.148C794.441 473.148 792.352 475.238 792.352 477.815C792.352 480.392 794.441 482.482 797.018 482.482Z" stroke="white" stroke-opacity="0.8" stroke-width="1.16667" stroke-linecap="round" stroke-linejoin="round"/>
<path d="M802.852 483.649L800.314 481.111" stroke="white" stroke-opacity="0.8" stroke-width="1.16667" stroke-linecap="round" stroke-linejoin="round"/>
<path d="M795.268 477.815H798.768" stroke="white" stroke-opacity="0.8" stroke-width="1.16667" stroke-linecap="round" stroke-linejoin="round"/>
<path d="M816.602 469.398C816.602 467.189 818.392 465.398 820.602 465.398H838.602C840.811 465.398 842.602 467.189 842.602 469.398V487.398C842.602 489.608 840.811 491.398 838.602 491.398H820.602C818.392 491.398 816.602 489.608 816.602 487.398V469.398Z" fill="#1A1A1A" fill-opacity="0.8"/>
<path d="M825.518 473.148V482.482H834.851" stroke="white" stroke-opacity="0.8" stroke-width="1.16667" stroke-linecap="round" stroke-linejoin="round"/>
<path d="M825.518 482.481L829.018 478.981" stroke="white" stroke-opacity="0.8" stroke-width="1.16667" stroke-linecap="round" stroke-linejoin="round"/>
<path d="M823.768 474.898L825.518 473.148L827.268 474.898" stroke="white" stroke-opacity="0.8" stroke-width="1.16667" stroke-linecap="round" stroke-linejoin="round"/>
<path d="M833.102 480.731L834.852 482.481L833.102 484.231" stroke="white" stroke-opacity="0.8" stroke-width="1.16667" stroke-linecap="round" stroke-linejoin="round"/>
<path d="M20 468.398C20 466.189 21.7909 464.398 24 464.398H121.664C123.873 464.398 125.664 466.189 125.664 468.398V487.398C125.664 489.608 123.873 491.398 121.664 491.398H24C21.7909 491.398 20 489.608 20 487.398V468.398Z" fill="#1A1A1A" fill-opacity="0.8"/>
<path d="M32.8807 481.898V474.626H35.3381C35.9086 474.626 36.375 474.729 36.7372 474.935C37.1018 475.138 37.3717 475.414 37.5469 475.762C37.7221 476.11 37.8097 476.498 37.8097 476.927C37.8097 477.355 37.7221 477.745 37.5469 478.095C37.3741 478.446 37.1065 478.725 36.7443 478.933C36.3821 479.139 35.9181 479.242 35.3523 479.242H33.5909V478.461H35.3239C35.7145 478.461 36.0282 478.393 36.2649 478.259C36.5017 478.124 36.6733 477.941 36.7798 477.712C36.8887 477.48 36.9432 477.218 36.9432 476.927C36.9432 476.636 36.8887 476.375 36.7798 476.146C36.6733 475.916 36.5005 475.736 36.2614 475.606C36.0223 475.473 35.705 475.407 35.3097 475.407H33.7614V481.898H32.8807ZM41.343 482.012C40.8175 482.012 40.3641 481.896 39.983 481.664C39.6042 481.43 39.3118 481.103 39.1058 480.684C38.9022 480.263 38.8004 479.772 38.8004 479.214C38.8004 478.655 38.9022 478.163 39.1058 477.737C39.3118 477.308 39.5982 476.974 39.9652 476.735C40.3345 476.494 40.7654 476.373 41.2578 476.373C41.5419 476.373 41.8224 476.42 42.0994 476.515C42.3764 476.61 42.6286 476.763 42.8558 476.977C43.0831 477.187 43.2642 477.467 43.3991 477.815C43.5341 478.163 43.6016 478.591 43.6016 479.1V479.455H39.397V478.731H42.7493C42.7493 478.423 42.6877 478.148 42.5646 477.907C42.4439 477.665 42.2711 477.475 42.0462 477.335C41.8236 477.196 41.5608 477.126 41.2578 477.126C40.924 477.126 40.6352 477.209 40.3913 477.374C40.1499 477.538 39.964 477.751 39.8338 478.013C39.7036 478.276 39.6385 478.558 39.6385 478.859V479.342C39.6385 479.754 39.7095 480.103 39.8516 480.389C39.996 480.673 40.196 480.89 40.4517 481.039C40.7074 481.186 41.0045 481.259 41.343 481.259C41.5632 481.259 41.7621 481.228 41.9396 481.167C42.1196 481.103 42.2746 481.008 42.4048 480.883C42.535 480.755 42.6357 480.596 42.7067 480.407L43.5163 480.634C43.4311 480.909 43.2879 481.15 43.0866 481.359C42.8854 481.565 42.6368 481.726 42.3409 481.842C42.045 481.955 41.7124 482.012 41.343 482.012ZM44.8764 481.898V476.444H45.6861V477.268H45.7429C45.8423 476.998 46.0223 476.779 46.2827 476.611C46.5431 476.443 46.8366 476.359 47.1634 476.359C47.2249 476.359 47.3018 476.36 47.3942 476.362C47.4865 476.365 47.5563 476.368 47.6037 476.373V477.225C47.5753 477.218 47.5102 477.207 47.4084 477.193C47.3089 477.177 47.2036 477.168 47.0923 477.168C46.8272 477.168 46.5904 477.224 46.3821 477.335C46.1761 477.444 46.0128 477.596 45.892 477.79C45.7737 477.982 45.7145 478.201 45.7145 478.447V481.898H44.8764ZM52.4608 477.665L51.7079 477.879C51.6606 477.753 51.5907 477.631 51.4984 477.513C51.4084 477.392 51.2853 477.293 51.1291 477.214C50.9728 477.136 50.7728 477.097 50.5289 477.097C50.1951 477.097 49.917 477.174 49.6944 477.328C49.4743 477.48 49.3642 477.673 49.3642 477.907C49.3642 478.115 49.4399 478.28 49.5914 478.401C49.743 478.521 49.9797 478.622 50.3017 478.702L51.1113 478.901C51.599 479.02 51.9624 479.201 52.2015 479.445C52.4406 479.686 52.5602 479.997 52.5602 480.379C52.5602 480.691 52.4702 480.97 52.2903 481.217C52.1127 481.463 51.8642 481.657 51.5446 481.799C51.225 481.941 50.8533 482.012 50.4295 482.012C49.8732 482.012 49.4127 481.891 49.0481 481.65C48.6835 481.408 48.4527 481.056 48.3556 480.592L49.1511 480.393C49.2269 480.686 49.3701 480.906 49.5808 481.053C49.7939 481.2 50.072 481.273 50.4153 481.273C50.8059 481.273 51.1161 481.191 51.3457 481.025C51.5777 480.857 51.6937 480.656 51.6937 480.421C51.6937 480.232 51.6274 480.073 51.4949 479.945C51.3623 479.815 51.1587 479.718 50.8841 479.654L49.975 479.441C49.4754 479.323 49.1085 479.139 48.8741 478.891C48.6421 478.64 48.5261 478.326 48.5261 477.95C48.5261 477.642 48.6125 477.37 48.7853 477.133C48.9605 476.896 49.1984 476.71 49.4991 476.575C49.8021 476.44 50.1454 476.373 50.5289 476.373C51.0687 476.373 51.4925 476.491 51.8002 476.728C52.1104 476.965 52.3306 477.277 52.4608 477.665ZM53.8217 483.944V476.444H54.6314V477.31H54.7308C54.7924 477.216 54.8776 477.095 54.9865 476.948C55.0978 476.799 55.2564 476.666 55.4624 476.55C55.6707 476.432 55.9524 476.373 56.3075 476.373C56.7668 476.373 57.1716 476.488 57.522 476.717C57.8724 476.947 58.1458 477.272 58.3423 477.694C58.5388 478.115 58.6371 478.612 58.6371 479.185C58.6371 479.763 58.5388 480.264 58.3423 480.688C58.1458 481.109 57.8736 481.436 57.5256 481.668C57.1776 481.897 56.7763 482.012 56.3217 482.012C55.9714 482.012 55.6908 481.954 55.4801 481.838C55.2694 481.72 55.1072 481.586 54.9936 481.437C54.88 481.285 54.7924 481.16 54.7308 481.06H54.6598V483.944H53.8217ZM54.6456 479.171C54.6456 479.583 54.706 479.946 54.8267 480.261C54.9474 480.574 55.1238 480.819 55.3558 480.996C55.5878 481.172 55.8719 481.259 56.2081 481.259C56.5585 481.259 56.8509 481.167 57.0852 480.982C57.322 480.795 57.4995 480.544 57.6179 480.229C57.7386 479.912 57.799 479.559 57.799 479.171C57.799 478.788 57.7398 478.442 57.6214 478.134C57.5054 477.824 57.3291 477.579 57.0923 477.399C56.858 477.217 56.5632 477.126 56.2081 477.126C55.8672 477.126 55.5807 477.212 55.3487 477.385C55.1167 477.555 54.9415 477.795 54.8232 478.102C54.7048 478.408 54.6456 478.764 54.6456 479.171ZM62.2024 482.012C61.6768 482.012 61.2235 481.896 60.8423 481.664C60.4635 481.43 60.1712 481.103 59.9652 480.684C59.7616 480.263 59.6598 479.772 59.6598 479.214C59.6598 478.655 59.7616 478.163 59.9652 477.737C60.1712 477.308 60.4576 476.974 60.8246 476.735C61.1939 476.494 61.6248 476.373 62.1172 476.373C62.4013 476.373 62.6818 476.42 62.9588 476.515C63.2358 476.61 63.4879 476.763 63.7152 476.977C63.9425 477.187 64.1236 477.467 64.2585 477.815C64.3935 478.163 64.4609 478.591 64.4609 479.1V479.455H60.2564V478.731H63.6087C63.6087 478.423 63.5471 478.148 63.424 477.907C63.3033 477.665 63.1304 477.475 62.9055 477.335C62.683 477.196 62.4202 477.126 62.1172 477.126C61.7834 477.126 61.4946 477.209 61.2507 477.374C61.0092 477.538 60.8234 477.751 60.6932 478.013C60.563 478.276 60.4979 478.558 60.4979 478.859V479.342C60.4979 479.754 60.5689 480.103 60.7109 480.389C60.8554 480.673 61.0554 480.89 61.3111 481.039C61.5668 481.186 61.8639 481.259 62.2024 481.259C62.4226 481.259 62.6214 481.228 62.799 481.167C62.9789 481.103 63.134 481.008 63.2642 480.883C63.3944 480.755 63.495 480.596 63.5661 480.407L64.3757 480.634C64.2905 480.909 64.1473 481.15 63.946 481.359C63.7448 481.565 63.4962 481.726 63.2003 481.842C62.9044 481.955 62.5717 482.012 62.2024 482.012ZM67.9517 482.012C67.4403 482.012 67 481.891 66.6307 481.65C66.2614 481.408 65.9773 481.076 65.7784 480.652C65.5795 480.228 65.4801 479.744 65.4801 479.2C65.4801 478.646 65.5819 478.157 65.7855 477.733C65.9915 477.307 66.2779 476.974 66.6449 476.735C67.0142 476.494 67.4451 476.373 67.9375 476.373C68.321 476.373 68.6667 476.444 68.9744 476.586C69.2822 476.728 69.5343 476.927 69.7308 477.183C69.9273 477.438 70.0492 477.737 70.0966 478.077H69.2585C69.1946 477.829 69.0526 477.609 68.8324 477.417C68.6146 477.223 68.321 477.126 67.9517 477.126C67.625 477.126 67.3385 477.211 67.0923 477.381C66.8485 477.549 66.6579 477.787 66.5206 478.095C66.3857 478.401 66.3182 478.759 66.3182 479.171C66.3182 479.593 66.3845 479.96 66.517 480.272C66.652 480.585 66.8414 480.827 67.0852 481C67.3314 481.173 67.6203 481.259 67.9517 481.259C68.1695 481.259 68.3672 481.221 68.5447 481.146C68.7223 481.07 68.8726 480.961 68.9957 480.819C69.1188 480.677 69.2064 480.506 69.2585 480.308H70.0966C70.0492 480.629 69.9321 480.92 69.745 481.178C69.5604 481.433 69.3153 481.637 69.0099 481.788C68.7069 481.938 68.3542 482.012 67.9517 482.012ZM73.6939 476.444V477.154H70.8672V476.444H73.6939ZM71.6911 475.137H72.5291V480.336C72.5291 480.573 72.5634 480.75 72.6321 480.869C72.7031 480.985 72.7931 481.063 72.902 481.103C73.0133 481.141 73.1304 481.16 73.2536 481.16C73.3459 481.16 73.4216 481.155 73.4808 481.146C73.54 481.134 73.5874 481.124 73.6229 481.117L73.7933 481.87C73.7365 481.891 73.6572 481.913 73.5554 481.934C73.4536 481.958 73.3246 481.969 73.1683 481.969C72.9316 481.969 72.6996 481.919 72.4723 481.817C72.2474 481.715 72.0604 481.56 71.9112 481.352C71.7644 481.143 71.6911 480.88 71.6911 480.563V475.137ZM74.9545 481.898V476.444H75.7926V481.898H74.9545ZM75.3807 475.535C75.2173 475.535 75.0765 475.479 74.9581 475.368C74.8421 475.257 74.7841 475.123 74.7841 474.967C74.7841 474.81 74.8421 474.677 74.9581 474.565C75.0765 474.454 75.2173 474.398 75.3807 474.398C75.544 474.398 75.6837 474.454 75.7997 474.565C75.9181 474.677 75.9773 474.81 75.9773 474.967C75.9773 475.123 75.9181 475.257 75.7997 475.368C75.6837 475.479 75.544 475.535 75.3807 475.535ZM81.7878 476.444L79.7708 481.898H78.9185L76.9015 476.444H77.8105L79.3162 480.79H79.373L80.8787 476.444H81.7878ZM84.9856 482.012C84.46 482.012 84.0067 481.896 83.6255 481.664C83.2467 481.43 82.9544 481.103 82.7484 480.684C82.5448 480.263 82.443 479.772 82.443 479.214C82.443 478.655 82.5448 478.163 82.7484 477.737C82.9544 477.308 83.2408 476.974 83.6078 476.735C83.9771 476.494 84.408 476.373 84.9004 476.373C85.1845 476.373 85.465 476.42 85.742 476.515C86.019 476.61 86.2711 476.763 86.4984 476.977C86.7257 477.187 86.9068 477.467 87.0417 477.815C87.1767 478.163 87.2441 478.591 87.2441 479.1V479.455H83.0396V478.731H86.3919C86.3919 478.423 86.3303 478.148 86.2072 477.907C86.0865 477.665 85.9136 477.475 85.6887 477.335C85.4662 477.196 85.2034 477.126 84.9004 477.126C84.5666 477.126 84.2778 477.209 84.0339 477.374C83.7924 477.538 83.6066 477.751 83.4764 478.013C83.3462 478.276 83.2811 478.558 83.2811 478.859V479.342C83.2811 479.754 83.3521 480.103 83.4941 480.389C83.6386 480.673 83.8386 480.89 84.0943 481.039C84.35 481.186 84.6471 481.259 84.9856 481.259C85.2058 481.259 85.4047 481.228 85.5822 481.167C85.7621 481.103 85.9172 481.008 86.0474 480.883C86.1776 480.755 86.2782 480.596 86.3493 480.407L87.1589 480.634C87.0737 480.909 86.9305 481.15 86.7292 481.359C86.528 481.565 86.2794 481.726 85.9835 481.842C85.6876 481.955 85.3549 482.012 84.9856 482.012ZM91.7434 474.626L93.9025 480.748H93.9877L96.1468 474.626H97.0701L94.3997 481.898H93.4906L90.8201 474.626H91.7434ZM98.0893 481.898V476.444H98.9274V481.898H98.0893ZM98.5154 475.535C98.3521 475.535 98.2112 475.479 98.0929 475.368C97.9769 475.257 97.9189 475.123 97.9189 474.967C97.9189 474.81 97.9769 474.677 98.0929 474.565C98.2112 474.454 98.3521 474.398 98.5154 474.398C98.6788 474.398 98.8185 474.454 98.9345 474.565C99.0529 474.677 99.112 474.81 99.112 474.967C99.112 475.123 99.0529 475.257 98.9345 475.368C98.8185 475.479 98.6788 475.535 98.5154 475.535ZM102.749 482.012C102.224 482.012 101.77 481.896 101.389 481.664C101.01 481.43 100.718 481.103 100.512 480.684C100.308 480.263 100.207 479.772 100.207 479.214C100.207 478.655 100.308 478.163 100.512 477.737C100.718 477.308 101.004 476.974 101.371 476.735C101.741 476.494 102.172 476.373 102.664 476.373C102.948 476.373 103.229 476.42 103.506 476.515C103.783 476.61 104.035 476.763 104.262 476.977C104.489 477.187 104.67 477.467 104.805 477.815C104.94 478.163 105.008 478.591 105.008 479.1V479.455H100.803V478.731H104.156C104.156 478.423 104.094 478.148 103.971 477.907C103.85 477.665 103.677 477.475 103.452 477.335C103.23 477.196 102.967 477.126 102.664 477.126C102.33 477.126 102.041 477.209 101.798 477.374C101.556 477.538 101.37 477.751 101.24 478.013C101.11 478.276 101.045 478.558 101.045 478.859V479.342C101.045 479.754 101.116 480.103 101.258 480.389C101.402 480.673 101.602 480.89 101.858 481.039C102.114 481.186 102.411 481.259 102.749 481.259C102.969 481.259 103.168 481.228 103.346 481.167C103.526 481.103 103.681 481.008 103.811 480.883C103.941 480.755 104.042 480.596 104.113 480.407L104.923 480.634C104.837 480.909 104.694 481.15 104.493 481.359C104.292 481.565 104.043 481.726 103.747 481.842C103.451 481.955 103.119 482.012 102.749 482.012ZM107.518 481.898L105.857 476.444H106.737L107.916 480.62H107.973L109.138 476.444H110.033L111.183 480.606H111.24L112.419 476.444H113.3L111.638 481.898H110.814L109.621 477.708H109.536L108.342 481.898H107.518Z" fill="white" fill-opacity="0.8"/>
<mask id="path-153-inside-4_465_2442" fill="white">
<path d="M8 40H854.602V72H8V40Z"/>
</mask>
<path d="M8 40H854.602V72H8V40Z" fill="#1A1A1A"/>
<path d="M854.602 72V71H8V72V73H854.602V72Z" fill="#3A3A3A" mask="url(#path-153-inside-4_465_2442)"/>
<path d="M21.3558 51.2346C21.3328 51.1815 21.3263 51.1226 21.3371 51.0658C21.348 51.0089 21.3757 50.9566 21.4166 50.9156C21.4575 50.8747 21.5099 50.847 21.5667 50.8362C21.6236 50.8253 21.6825 50.8318 21.7356 50.8549L31.0689 54.6465C31.1257 54.6696 31.1737 54.7101 31.2062 54.762C31.2387 54.814 31.254 54.8748 31.2499 54.936C31.2458 54.9971 31.2226 55.0555 31.1835 55.1027C31.1444 55.1499 31.0915 55.1835 31.0322 55.1989L27.4598 56.1206C27.258 56.1725 27.0737 56.2775 26.9262 56.4247C26.7787 56.5719 26.6733 56.756 26.621 56.9577L25.6999 60.5312C25.6845 60.5905 25.6508 60.6435 25.6036 60.6825C25.5564 60.7216 25.4981 60.7449 25.437 60.7489C25.3758 60.753 25.315 60.7377 25.263 60.7052C25.211 60.6727 25.1706 60.6247 25.1475 60.5679L21.3558 51.2346Z" stroke="white" stroke-opacity="0.9" stroke-width="1.16667" stroke-linecap="round" stroke-linejoin="round"/>
<path d="M59.25 53.1668C59.2498 52.9622 59.1958 52.7612 59.0934 52.5841C58.991 52.407 58.8438 52.2599 58.6667 52.1576L54.5833 49.8243C54.406 49.7219 54.2048 49.668 54 49.668C53.7952 49.668 53.594 49.7219 53.4167 49.8243L49.3333 52.1576C49.1562 52.2599 49.009 52.407 48.9066 52.5841C48.8042 52.7612 48.7502 52.9622 48.75 53.1668V57.8334C48.7502 58.038 48.8042 58.239 48.9066 58.4161C49.009 58.5932 49.1562 58.7403 49.3333 58.8426L53.4167 61.1759C53.594 61.2783 53.7952 61.3322 54 61.3322C54.2048 61.3322 54.406 61.2783 54.5833 61.1759L58.6667 58.8426C58.8438 58.7403 58.991 58.5932 59.0934 58.4161C59.1958 58.239 59.2498 58.038 59.25 57.8334V53.1668Z" stroke="white" stroke-opacity="0.9" stroke-width="1.16667" stroke-linecap="round" stroke-linejoin="round"/>
<path d="M48.9258 52.583L54.0008 55.4997L59.0758 52.583" stroke="white" stroke-opacity="0.9" stroke-width="1.16667" stroke-linecap="round" stroke-linejoin="round"/>
<path d="M54 61.3333V55.5" stroke="white" stroke-opacity="0.9" stroke-width="1.16667" stroke-linecap="round" stroke-linejoin="round"/>
<path d="M88.0171 55.75C88.0171 56.6042 87.8608 57.3385 87.5483 57.9531C87.2358 58.5651 86.8075 59.0365 86.2632 59.3672C85.7215 59.6953 85.1056 59.8594 84.4155 59.8594C83.7228 59.8594 83.1043 59.6953 82.5601 59.3672C82.0184 59.0365 81.5913 58.5638 81.2788 57.9492C80.9663 57.3346 80.8101 56.6016 80.8101 55.75C80.8101 54.8958 80.9663 54.1628 81.2788 53.5508C81.5913 52.9362 82.0184 52.4648 82.5601 52.1367C83.1043 51.806 83.7228 51.6406 84.4155 51.6406C85.1056 51.6406 85.7215 51.806 86.2632 52.1367C86.8075 52.4648 87.2358 52.9362 87.5483 53.5508C87.8608 54.1628 88.0171 54.8958 88.0171 55.75ZM86.8218 55.75C86.8218 55.099 86.7163 54.5508 86.5054 54.1055C86.297 53.6576 86.0106 53.319 85.646 53.0898C85.284 52.8581 84.8739 52.7422 84.4155 52.7422C83.9546 52.7422 83.5431 52.8581 83.1812 53.0898C82.8192 53.319 82.5327 53.6576 82.3218 54.1055C82.1134 54.5508 82.0093 55.099 82.0093 55.75C82.0093 56.401 82.1134 56.9505 82.3218 57.3984C82.5327 57.8437 82.8192 58.1823 83.1812 58.4141C83.5431 58.6432 83.9546 58.7578 84.4155 58.7578C84.8739 58.7578 85.284 58.6432 85.646 58.4141C86.0106 58.1823 86.297 57.8437 86.5054 57.3984C86.7163 56.9505 86.8218 56.401 86.8218 55.75ZM89.522 59.75V51.75H90.6899V54.7227H90.7603C90.828 54.5977 90.9256 54.4531 91.0532 54.2891C91.1808 54.125 91.3579 53.9818 91.5845 53.8594C91.811 53.7344 92.1105 53.6719 92.4829 53.6719C92.9673 53.6719 93.3996 53.7943 93.7798 54.0391C94.16 54.2839 94.4582 54.6367 94.6743 55.0977C94.8931 55.5586 95.0024 56.1133 95.0024 56.7617C95.0024 57.4102 94.8944 57.9661 94.6782 58.4297C94.4621 58.8906 94.1652 59.2461 93.7876 59.4961C93.41 59.7435 92.979 59.8672 92.4946 59.8672C92.13 59.8672 91.8319 59.806 91.6001 59.6836C91.3709 59.5612 91.1912 59.418 91.061 59.2539C90.9308 59.0898 90.8306 58.944 90.7603 58.8164H90.6626V59.75H89.522ZM90.6665 56.75C90.6665 57.1719 90.7277 57.5417 90.8501 57.8594C90.9725 58.1771 91.1496 58.4258 91.3813 58.6055C91.6131 58.7826 91.897 58.8711 92.2329 58.8711C92.5819 58.8711 92.8735 58.7786 93.1079 58.5937C93.3423 58.4062 93.5194 58.1523 93.6392 57.832C93.7616 57.5117 93.8228 57.151 93.8228 56.75C93.8228 56.3542 93.7629 55.9987 93.6431 55.6836C93.5259 55.3685 93.3488 55.1198 93.1118 54.9375C92.8774 54.7552 92.5845 54.6641 92.2329 54.6641C91.8944 54.6641 91.6079 54.7513 91.3735 54.9258C91.1418 55.1003 90.966 55.3437 90.8462 55.6562C90.7264 55.9687 90.6665 56.3333 90.6665 56.75ZM96.314 53.75H97.4819V60.1406C97.4819 60.5417 97.409 60.8802 97.2632 61.1562C97.12 61.4323 96.9064 61.6419 96.6226 61.7852C96.3413 61.9284 95.9937 62 95.5796 62C95.5379 62 95.4989 62 95.4624 62C95.4233 62 95.383 61.9987 95.3413 61.9961V60.9922C95.3778 60.9922 95.4103 60.9922 95.439 60.9922C95.465 60.9922 95.495 60.9922 95.5288 60.9922C95.8049 60.9922 96.0041 60.918 96.1265 60.7695C96.2515 60.6237 96.314 60.4115 96.314 60.1328V53.75ZM96.8921 52.8242C96.689 52.8242 96.5145 52.7565 96.3687 52.6211C96.2254 52.4831 96.1538 52.319 96.1538 52.1289C96.1538 51.9362 96.2254 51.7721 96.3687 51.6367C96.5145 51.4987 96.689 51.4297 96.8921 51.4297C97.0952 51.4297 97.2684 51.4987 97.4116 51.6367C97.5575 51.7721 97.6304 51.9362 97.6304 52.1289C97.6304 52.319 97.5575 52.4831 97.4116 52.6211C97.2684 52.7565 97.0952 52.8242 96.8921 52.8242ZM101.639 59.8711C101.048 59.8711 100.539 59.7448 100.112 59.4922C99.6873 59.237 99.3592 58.8789 99.1274 58.418C98.8983 57.9544 98.7837 57.4115 98.7837 56.7891C98.7837 56.1745 98.8983 55.6328 99.1274 55.1641C99.3592 54.6953 99.6821 54.3294 100.096 54.0664C100.513 53.8034 101 53.6719 101.557 53.6719C101.896 53.6719 102.224 53.7279 102.542 53.8398C102.859 53.9518 103.144 54.1276 103.397 54.3672C103.65 54.6068 103.849 54.918 103.995 55.3008C104.14 55.681 104.213 56.1432 104.213 56.6875V57.1016H99.4438V56.2266H103.069C103.069 55.9193 103.006 55.6471 102.881 55.4102C102.756 55.1706 102.581 54.9818 102.354 54.8437C102.13 54.7057 101.867 54.6367 101.565 54.6367C101.237 54.6367 100.95 54.7174 100.706 54.8789C100.463 55.0378 100.276 55.2461 100.143 55.5039C100.013 55.7591 99.9478 56.0365 99.9478 56.3359V57.0195C99.9478 57.4206 100.018 57.7617 100.159 58.043C100.302 58.3242 100.501 58.5391 100.756 58.6875C101.012 58.8333 101.31 58.9062 101.651 58.9062C101.872 58.9062 102.074 58.875 102.256 58.8125C102.439 58.7474 102.596 58.651 102.729 58.5234C102.862 58.3958 102.963 58.2383 103.034 58.0508L104.139 58.25C104.051 58.5755 103.892 58.8607 103.663 59.1055C103.436 59.3477 103.151 59.5365 102.807 59.6719C102.466 59.8047 102.077 59.8711 101.639 59.8711ZM108.037 59.8711C107.456 59.8711 106.956 59.7396 106.537 59.4766C106.12 59.2109 105.8 58.8451 105.576 58.3789C105.352 57.9128 105.24 57.3789 105.24 56.7773C105.24 56.168 105.354 55.6302 105.583 55.1641C105.813 54.6953 106.136 54.3294 106.552 54.0664C106.969 53.8034 107.46 53.6719 108.025 53.6719C108.481 53.6719 108.887 53.7565 109.244 53.9258C109.6 54.0924 109.888 54.3268 110.107 54.6289C110.328 54.931 110.46 55.2839 110.501 55.6875H109.365C109.302 55.4062 109.159 55.1641 108.935 54.9609C108.714 54.7578 108.417 54.6562 108.044 54.6562C107.719 54.6562 107.434 54.7422 107.189 54.9141C106.947 55.0833 106.758 55.3255 106.623 55.6406C106.487 55.9531 106.419 56.3229 106.419 56.75C106.419 57.1875 106.486 57.5651 106.619 57.8828C106.751 58.2005 106.939 58.4466 107.181 58.6211C107.426 58.7956 107.714 58.8828 108.044 58.8828C108.266 58.8828 108.466 58.8424 108.646 58.7617C108.828 58.6784 108.981 58.5599 109.103 58.4062C109.228 58.2526 109.315 58.0677 109.365 57.8516H110.501C110.46 58.2396 110.333 58.5859 110.123 58.8906C109.912 59.1953 109.629 59.4349 109.275 59.6094C108.923 59.7839 108.511 59.8711 108.037 59.8711ZM114.551 53.75V54.6875H111.274V53.75H114.551ZM112.153 52.3125H113.321V57.9883C113.321 58.2148 113.355 58.3854 113.422 58.5C113.49 58.612 113.577 58.6888 113.684 58.7305C113.793 58.7695 113.912 58.7891 114.04 58.7891C114.133 58.7891 114.215 58.7826 114.286 58.7695C114.356 58.7565 114.411 58.7461 114.45 58.7383L114.661 59.7031C114.593 59.7292 114.497 59.7552 114.372 59.7813C114.247 59.8099 114.09 59.8255 113.903 59.8281C113.596 59.8333 113.309 59.7786 113.043 59.6641C112.778 59.5495 112.563 59.3724 112.399 59.1328C112.235 58.8932 112.153 58.5924 112.153 58.2305V52.3125ZM118.848 51.75H120.313L122.86 57.9687H122.954L125.5 51.75H126.965V59.75H125.817V53.9609H125.743L123.383 59.7383H122.43L120.071 53.957H119.997V59.75H118.848V51.75ZM131.154 59.8711C130.591 59.8711 130.1 59.7422 129.681 59.4844C129.262 59.2266 128.936 58.8659 128.705 58.4023C128.473 57.9388 128.357 57.3971 128.357 56.7773C128.357 56.1549 128.473 55.6107 128.705 55.1445C128.936 54.6784 129.262 54.3164 129.681 54.0586C130.1 53.8008 130.591 53.6719 131.154 53.6719C131.716 53.6719 132.207 53.8008 132.626 54.0586C133.046 54.3164 133.371 54.6784 133.603 55.1445C133.835 55.6107 133.951 56.1549 133.951 56.7773C133.951 57.3971 133.835 57.9388 133.603 58.4023C133.371 58.8659 133.046 59.2266 132.626 59.4844C132.207 59.7422 131.716 59.8711 131.154 59.8711ZM131.158 58.8906C131.522 58.8906 131.824 58.7943 132.064 58.6016C132.304 58.4089 132.481 58.1523 132.595 57.832C132.712 57.5117 132.771 57.1589 132.771 56.7734C132.771 56.3906 132.712 56.0391 132.595 55.7187C132.481 55.3958 132.304 55.1367 132.064 54.9414C131.824 54.7461 131.522 54.6484 131.158 54.6484C130.791 54.6484 130.486 54.7461 130.244 54.9414C130.004 55.1367 129.826 55.3958 129.708 55.7187C129.594 56.0391 129.537 56.3906 129.537 56.7734C129.537 57.1589 129.594 57.5117 129.708 57.832C129.826 58.1523 130.004 58.4089 130.244 58.6016C130.486 58.7943 130.791 58.8906 131.158 58.8906ZM137.5 59.8672C137.016 59.8672 136.584 59.7435 136.204 59.4961C135.826 59.2461 135.529 58.8906 135.313 58.4297C135.099 57.9661 134.993 57.4102 134.993 56.7617C134.993 56.1133 135.101 55.5586 135.317 55.0977C135.536 54.6367 135.835 54.2839 136.215 54.0391C136.596 53.7943 137.027 53.6719 137.508 53.6719C137.881 53.6719 138.18 53.7344 138.407 53.8594C138.636 53.9818 138.813 54.125 138.938 54.2891C139.066 54.4531 139.165 54.5977 139.235 54.7227H139.305V51.75H140.473V59.75H139.333V58.8164H139.235C139.165 58.944 139.063 59.0898 138.93 59.2539C138.8 59.418 138.62 59.5612 138.391 59.6836C138.162 59.806 137.865 59.8672 137.5 59.8672ZM137.758 58.8711C138.094 58.8711 138.378 58.7826 138.61 58.6055C138.844 58.4258 139.021 58.1771 139.141 57.8594C139.264 57.5417 139.325 57.1719 139.325 56.75C139.325 56.3333 139.265 55.9687 139.145 55.6562C139.025 55.3437 138.849 55.1003 138.618 54.9258C138.386 54.7513 138.099 54.6641 137.758 54.6641C137.407 54.6641 137.114 54.7552 136.879 54.9375C136.645 55.1198 136.468 55.3685 136.348 55.6836C136.231 55.9987 136.172 56.3542 136.172 56.75C136.172 57.151 136.232 57.5117 136.352 57.832C136.472 58.1523 136.649 58.4062 136.883 58.5937C137.12 58.7786 137.412 58.8711 137.758 58.8711ZM144.726 59.8711C144.135 59.8711 143.626 59.7448 143.199 59.4922C142.774 59.237 142.446 58.8789 142.214 58.418C141.985 57.9544 141.871 57.4115 141.871 56.7891C141.871 56.1745 141.985 55.6328 142.214 55.1641C142.446 54.6953 142.769 54.3294 143.183 54.0664C143.6 53.8034 144.087 53.6719 144.644 53.6719C144.983 53.6719 145.311 53.7279 145.628 53.8398C145.946 53.9518 146.231 54.1276 146.484 54.3672C146.736 54.6068 146.936 54.918 147.082 55.3008C147.227 55.681 147.3 56.1432 147.3 56.6875V57.1016H142.531V56.2266H146.156C146.156 55.9193 146.093 55.6471 145.968 55.4102C145.843 55.1706 145.667 54.9818 145.441 54.8437C145.217 54.7057 144.954 54.6367 144.652 54.6367C144.324 54.6367 144.037 54.7174 143.792 54.8789C143.55 55.0378 143.363 55.2461 143.23 55.5039C143.1 55.7591 143.035 56.0365 143.035 56.3359V57.0195C143.035 57.4206 143.105 57.7617 143.246 58.043C143.389 58.3242 143.588 58.5391 143.843 58.6875C144.098 58.8333 144.397 58.9062 144.738 58.9062C144.959 58.9062 145.161 58.875 145.343 58.8125C145.526 58.7474 145.683 58.651 145.816 58.5234C145.949 58.3958 146.05 58.2383 146.121 58.0508L147.226 58.25C147.138 58.5755 146.979 58.8607 146.75 59.1055C146.523 59.3477 146.238 59.5365 145.894 59.6719C145.553 59.8047 145.164 59.8711 144.726 59.8711Z" fill="white" fill-opacity="0.95"/>
<path d="M156.438 54L159.438 57L162.438 54" stroke="white" stroke-opacity="0.7" stroke-linecap="round" stroke-linejoin="round"/>
<path d="M191.034 51.75L193.26 58.2656H193.35L195.577 51.75H196.881L194.002 59.75H192.608L189.729 51.75H191.034ZM197.943 59.75V53.75H199.111V59.75H197.943ZM198.533 52.8242C198.33 52.8242 198.155 52.7565 198.009 52.6211C197.866 52.4831 197.794 52.319 197.794 52.1289C197.794 51.9362 197.866 51.7721 198.009 51.6367C198.155 51.4987 198.33 51.4297 198.533 51.4297C198.736 51.4297 198.909 51.4987 199.052 51.6367C199.198 51.7721 199.271 51.9362 199.271 52.1289C199.271 52.319 199.198 52.4831 199.052 52.6211C198.909 52.7565 198.736 52.8242 198.533 52.8242ZM203.268 59.8711C202.677 59.8711 202.168 59.7448 201.741 59.4922C201.316 59.237 200.988 58.8789 200.756 58.418C200.527 57.9544 200.413 57.4115 200.413 56.7891C200.413 56.1745 200.527 55.6328 200.756 55.1641C200.988 54.6953 201.311 54.3294 201.725 54.0664C202.142 53.8034 202.629 53.6719 203.186 53.6719C203.525 53.6719 203.853 53.7279 204.17 53.8398C204.488 53.9518 204.773 54.1276 205.026 54.3672C205.278 54.6068 205.478 54.918 205.624 55.3008C205.769 55.681 205.842 56.1432 205.842 56.6875V57.1016H201.073V56.2266H204.698C204.698 55.9193 204.635 55.6471 204.51 55.4102C204.385 55.1706 204.209 54.9818 203.983 54.8437C203.759 54.7057 203.496 54.6367 203.194 54.6367C202.866 54.6367 202.579 54.7174 202.334 54.8789C202.092 55.0378 201.905 55.2461 201.772 55.5039C201.642 55.7591 201.577 56.0365 201.577 56.3359V57.0195C201.577 57.4206 201.647 57.7617 201.788 58.043C201.931 58.3242 202.13 58.5391 202.385 58.6875C202.64 58.8333 202.939 58.9062 203.28 58.9062C203.501 58.9062 203.703 58.875 203.885 58.8125C204.068 58.7474 204.225 58.651 204.358 58.5234C204.491 58.3958 204.592 58.2383 204.663 58.0508L205.768 58.25C205.68 58.5755 205.521 58.8607 205.292 59.1055C205.065 59.3477 204.78 59.5365 204.436 59.6719C204.095 59.8047 203.706 59.8711 203.268 59.8711ZM208.428 59.75L206.663 53.75H207.87L209.045 58.1562H209.104L210.284 53.75H211.491L212.663 58.1367H212.721L213.889 53.75H215.096L213.334 59.75H212.143L210.924 55.418H210.834L209.616 59.75H208.428Z" fill="white" fill-opacity="0.95"/>
<path d="M244.116 53.8516C244.075 53.4818 243.903 53.1953 243.601 52.9922C243.299 52.7865 242.918 52.6836 242.46 52.6836C242.132 52.6836 241.848 52.7357 241.608 52.8398C241.369 52.9414 241.183 53.082 241.05 53.2617C240.92 53.4388 240.854 53.6406 240.854 53.8672C240.854 54.0573 240.899 54.2214 240.987 54.3594C241.078 54.4974 241.197 54.6133 241.343 54.707C241.491 54.7982 241.65 54.875 241.819 54.9375C241.989 54.9974 242.151 55.0469 242.308 55.0859L243.089 55.2891C243.344 55.3516 243.606 55.4362 243.874 55.543C244.142 55.6497 244.391 55.7904 244.62 55.9648C244.849 56.1393 245.034 56.3555 245.175 56.6133C245.318 56.8711 245.39 57.1797 245.39 57.5391C245.39 57.9922 245.272 58.3945 245.038 58.7461C244.806 59.0977 244.469 59.375 244.026 59.5781C243.586 59.7813 243.054 59.8828 242.429 59.8828C241.83 59.8828 241.312 59.7878 240.874 59.5977C240.437 59.4076 240.094 59.138 239.847 58.7891C239.599 58.4375 239.463 58.0208 239.437 57.5391H240.647C240.671 57.8281 240.765 58.069 240.929 58.2617C241.095 58.4518 241.308 58.5937 241.565 58.6875C241.826 58.7786 242.111 58.8242 242.421 58.8242C242.762 58.8242 243.065 58.7708 243.331 58.6641C243.599 58.5547 243.81 58.4036 243.964 58.2109C244.118 58.0156 244.194 57.7878 244.194 57.5273C244.194 57.2904 244.127 57.0964 243.991 56.9453C243.858 56.7943 243.677 56.6693 243.448 56.5703C243.222 56.4714 242.965 56.3841 242.679 56.3086L241.733 56.0508C241.093 55.8763 240.585 55.6198 240.21 55.2812C239.838 54.9427 239.651 54.4948 239.651 53.9375C239.651 53.4766 239.776 53.0742 240.026 52.7305C240.276 52.3867 240.615 52.1198 241.042 51.9297C241.469 51.737 241.951 51.6406 242.487 51.6406C243.029 51.6406 243.507 51.7357 243.921 51.9258C244.338 52.1159 244.666 52.3776 244.905 52.7109C245.145 53.0417 245.27 53.4219 245.28 53.8516H244.116ZM249.324 59.8711C248.733 59.8711 248.224 59.7448 247.797 59.4922C247.372 59.237 247.044 58.8789 246.812 58.418C246.583 57.9544 246.469 57.4115 246.469 56.7891C246.469 56.1745 246.583 55.6328 246.812 55.1641C247.044 54.6953 247.367 54.3294 247.781 54.0664C248.198 53.8034 248.685 53.6719 249.242 53.6719C249.581 53.6719 249.909 53.7279 250.227 53.8398C250.544 53.9518 250.829 54.1276 251.082 54.3672C251.335 54.6068 251.534 54.918 251.68 55.3008C251.826 55.681 251.898 56.1432 251.898 56.6875V57.1016H247.129V56.2266H250.754C250.754 55.9193 250.691 55.6471 250.566 55.4102C250.441 55.1706 250.266 54.9818 250.039 54.8437C249.815 54.7057 249.552 54.6367 249.25 54.6367C248.922 54.6367 248.635 54.7174 248.391 54.8789C248.148 55.0378 247.961 55.2461 247.828 55.5039C247.698 55.7591 247.633 56.0365 247.633 56.3359V57.0195C247.633 57.4206 247.703 57.7617 247.844 58.043C247.987 58.3242 248.186 58.5391 248.441 58.6875C248.697 58.8333 248.995 58.9062 249.336 58.9062C249.557 58.9062 249.759 58.875 249.941 58.8125C250.124 58.7474 250.281 58.651 250.414 58.5234C250.547 58.3958 250.648 58.2383 250.719 58.0508L251.824 58.25C251.736 58.5755 251.577 58.8607 251.348 59.1055C251.121 59.3477 250.836 59.5365 250.492 59.6719C250.151 59.8047 249.762 59.8711 249.324 59.8711ZM254.362 51.75V59.75H253.194V51.75H254.362ZM258.52 59.8711C257.928 59.8711 257.419 59.7448 256.992 59.4922C256.568 59.237 256.24 58.8789 256.008 58.418C255.779 57.9544 255.664 57.4115 255.664 56.7891C255.664 56.1745 255.779 55.6328 256.008 55.1641C256.24 54.6953 256.563 54.3294 256.977 54.0664C257.393 53.8034 257.88 53.6719 258.438 53.6719C258.776 53.6719 259.104 53.7279 259.422 53.8398C259.74 53.9518 260.025 54.1276 260.277 54.3672C260.53 54.6068 260.729 54.918 260.875 55.3008C261.021 55.681 261.094 56.1432 261.094 56.6875V57.1016H256.324V56.2266H259.949C259.949 55.9193 259.887 55.6471 259.762 55.4102C259.637 55.1706 259.461 54.9818 259.234 54.8437C259.01 54.7057 258.747 54.6367 258.445 54.6367C258.117 54.6367 257.831 54.7174 257.586 54.8789C257.344 55.0378 257.156 55.2461 257.023 55.5039C256.893 55.7591 256.828 56.0365 256.828 56.3359V57.0195C256.828 57.4206 256.898 57.7617 257.039 58.043C257.182 58.3242 257.382 58.5391 257.637 58.6875C257.892 58.8333 258.19 58.9062 258.531 58.9062C258.753 58.9062 258.954 58.875 259.137 58.8125C259.319 58.7474 259.477 58.651 259.609 58.5234C259.742 58.3958 259.844 58.2383 259.914 58.0508L261.02 58.25C260.931 58.5755 260.772 58.8607 260.543 59.1055C260.316 59.3477 260.031 59.5365 259.688 59.6719C259.346 59.8047 258.957 59.8711 258.52 59.8711ZM264.917 59.8711C264.336 59.8711 263.836 59.7396 263.417 59.4766C263 59.2109 262.68 58.8451 262.456 58.3789C262.232 57.9128 262.12 57.3789 262.12 56.7773C262.12 56.168 262.235 55.6302 262.464 55.1641C262.693 54.6953 263.016 54.3294 263.433 54.0664C263.849 53.8034 264.34 53.6719 264.905 53.6719C265.361 53.6719 265.767 53.7565 266.124 53.9258C266.481 54.0924 266.769 54.3268 266.987 54.6289C267.209 54.931 267.34 55.2839 267.382 55.6875H266.245C266.183 55.4062 266.039 55.1641 265.815 54.9609C265.594 54.7578 265.297 54.6562 264.925 54.6562C264.599 54.6562 264.314 54.7422 264.069 54.9141C263.827 55.0833 263.638 55.3255 263.503 55.6406C263.368 55.9531 263.3 56.3229 263.3 56.75C263.3 57.1875 263.366 57.5651 263.499 57.8828C263.632 58.2005 263.819 58.4466 264.062 58.6211C264.306 58.7956 264.594 58.8828 264.925 58.8828C265.146 58.8828 265.347 58.8424 265.526 58.7617C265.709 58.6784 265.861 58.5599 265.983 58.4062C266.108 58.2526 266.196 58.0677 266.245 57.8516H267.382C267.34 58.2396 267.214 58.5859 267.003 58.8906C266.792 59.1953 266.509 59.4349 266.155 59.6094C265.804 59.7839 265.391 59.8711 264.917 59.8711ZM271.432 53.75V54.6875H268.154V53.75H271.432ZM269.033 52.3125H270.201V57.9883C270.201 58.2148 270.235 58.3854 270.303 58.5C270.37 58.612 270.458 58.6888 270.564 58.7305C270.674 58.7695 270.792 58.7891 270.92 58.7891C271.014 58.7891 271.096 58.7826 271.166 58.7695C271.236 58.7565 271.291 58.7461 271.33 58.7383L271.541 59.7031C271.473 59.7292 271.377 59.7552 271.252 59.7813C271.127 59.8099 270.971 59.8255 270.783 59.8281C270.476 59.8333 270.189 59.7786 269.924 59.6641C269.658 59.5495 269.443 59.3724 269.279 59.1328C269.115 58.8932 269.033 58.5924 269.033 58.2305V52.3125Z" fill="white" fill-opacity="0.95"/>
<path d="M298.163 59.75H296.882L299.761 51.75H301.155L304.034 59.75H302.753L300.491 53.2031H300.429L298.163 59.75ZM298.378 56.6172H302.534V57.6328H298.378V56.6172ZM307.245 59.8672C306.761 59.8672 306.328 59.7435 305.948 59.4961C305.571 59.2461 305.274 58.8906 305.058 58.4297C304.844 57.9661 304.737 57.4102 304.737 56.7617C304.737 56.1133 304.845 55.5586 305.062 55.0977C305.28 54.6367 305.58 54.2839 305.96 54.0391C306.34 53.7943 306.771 53.6719 307.253 53.6719C307.625 53.6719 307.925 53.7344 308.151 53.8594C308.381 53.9818 308.558 54.125 308.683 54.2891C308.81 54.4531 308.909 54.5977 308.979 54.7227H309.05V51.75H310.218V59.75H309.077V58.8164H308.979C308.909 58.944 308.808 59.0898 308.675 59.2539C308.545 59.418 308.365 59.5612 308.136 59.6836C307.907 59.806 307.61 59.8672 307.245 59.8672ZM307.503 58.8711C307.839 58.8711 308.123 58.7826 308.354 58.6055C308.589 58.4258 308.766 58.1771 308.886 57.8594C309.008 57.5417 309.069 57.1719 309.069 56.75C309.069 56.3333 309.009 55.9687 308.89 55.6562C308.77 55.3437 308.594 55.1003 308.362 54.9258C308.131 54.7513 307.844 54.6641 307.503 54.6641C307.151 54.6641 306.858 54.7552 306.624 54.9375C306.39 55.1198 306.213 55.3685 306.093 55.6836C305.976 55.9987 305.917 56.3542 305.917 56.75C305.917 57.151 305.977 57.5117 306.097 57.832C306.216 58.1523 306.394 58.4062 306.628 58.5937C306.865 58.7786 307.157 58.8711 307.503 58.8711ZM314.131 59.8672C313.646 59.8672 313.214 59.7435 312.834 59.4961C312.456 59.2461 312.16 58.8906 311.943 58.4297C311.73 57.9661 311.623 57.4102 311.623 56.7617C311.623 56.1133 311.731 55.5586 311.947 55.0977C312.166 54.6367 312.465 54.2839 312.846 54.0391C313.226 53.7943 313.657 53.6719 314.139 53.6719C314.511 53.6719 314.811 53.7344 315.037 53.8594C315.266 53.9818 315.443 54.125 315.568 54.2891C315.696 54.4531 315.795 54.5977 315.865 54.7227H315.936V51.75H317.104V59.75H315.963V58.8164H315.865C315.795 58.944 315.693 59.0898 315.561 59.2539C315.43 59.418 315.251 59.5612 315.021 59.6836C314.792 59.806 314.495 59.8672 314.131 59.8672ZM314.389 58.8711C314.725 58.8711 315.008 58.7826 315.24 58.6055C315.475 58.4258 315.652 58.1771 315.771 57.8594C315.894 57.5417 315.955 57.1719 315.955 56.75C315.955 56.3333 315.895 55.9687 315.775 55.6562C315.656 55.3437 315.48 55.1003 315.248 54.9258C315.016 54.7513 314.73 54.6641 314.389 54.6641C314.037 54.6641 313.744 54.7552 313.51 54.9375C313.275 55.1198 313.098 55.3685 312.979 55.6836C312.861 55.9987 312.803 56.3542 312.803 56.75C312.803 57.151 312.863 57.5117 312.982 57.832C313.102 58.1523 313.279 58.4062 313.514 58.5937C313.751 58.7786 314.042 58.8711 314.389 58.8711Z" fill="white" fill-opacity="0.95"/>
<path d="M349.511 55.75C349.511 56.6042 349.354 57.3385 349.042 57.9531C348.729 58.5651 348.301 59.0365 347.757 59.3672C347.215 59.6953 346.599 59.8594 345.909 59.8594C345.216 59.8594 344.598 59.6953 344.054 59.3672C343.512 59.0365 343.085 58.5638 342.772 57.9492C342.46 57.3346 342.304 56.6016 342.304 55.75C342.304 54.8958 342.46 54.1628 342.772 53.5508C343.085 52.9362 343.512 52.4648 344.054 52.1367C344.598 51.806 345.216 51.6406 345.909 51.6406C346.599 51.6406 347.215 51.806 347.757 52.1367C348.301 52.4648 348.729 52.9362 349.042 53.5508C349.354 54.1628 349.511 54.8958 349.511 55.75ZM348.315 55.75C348.315 55.099 348.21 54.5508 347.999 54.1055C347.791 53.6576 347.504 53.319 347.14 53.0898C346.778 52.8581 346.368 52.7422 345.909 52.7422C345.448 52.7422 345.037 52.8581 344.675 53.0898C344.313 53.319 344.026 53.6576 343.815 54.1055C343.607 54.5508 343.503 55.099 343.503 55.75C343.503 56.401 343.607 56.9505 343.815 57.3984C344.026 57.8437 344.313 58.1823 344.675 58.4141C345.037 58.6432 345.448 58.7578 345.909 58.7578C346.368 58.7578 346.778 58.6432 347.14 58.4141C347.504 58.1823 347.791 57.8437 347.999 57.3984C348.21 56.9505 348.315 56.401 348.315 55.75ZM351.016 59.75V51.75H352.184V54.7227H352.254C352.322 54.5977 352.419 54.4531 352.547 54.2891C352.674 54.125 352.852 53.9818 353.078 53.8594C353.305 53.7344 353.604 53.6719 353.977 53.6719C354.461 53.6719 354.893 53.7943 355.273 54.0391C355.654 54.2839 355.952 54.6367 356.168 55.0977C356.387 55.5586 356.496 56.1133 356.496 56.7617C356.496 57.4102 356.388 57.9661 356.172 58.4297C355.956 58.8906 355.659 59.2461 355.281 59.4961C354.904 59.7435 354.473 59.8672 353.988 59.8672C353.624 59.8672 353.326 59.806 353.094 59.6836C352.865 59.5612 352.685 59.418 352.555 59.2539C352.424 59.0898 352.324 58.944 352.254 58.8164H352.156V59.75H351.016ZM352.16 56.75C352.16 57.1719 352.221 57.5417 352.344 57.8594C352.466 58.1771 352.643 58.4258 352.875 58.6055C353.107 58.7826 353.391 58.8711 353.727 58.8711C354.076 58.8711 354.367 58.7786 354.602 58.5937C354.836 58.4062 355.013 58.1523 355.133 57.832C355.255 57.5117 355.316 57.151 355.316 56.75C355.316 56.3542 355.257 55.9987 355.137 55.6836C355.02 55.3685 354.842 55.1198 354.605 54.9375C354.371 54.7552 354.078 54.6641 353.727 54.6641C353.388 54.6641 353.102 54.7513 352.867 54.9258C352.635 55.1003 352.46 55.3437 352.34 55.6562C352.22 55.9687 352.16 56.3333 352.16 56.75ZM357.808 53.75H358.976V60.1406C358.976 60.5417 358.903 60.8802 358.757 61.1562C358.614 61.4323 358.4 61.6419 358.116 61.7852C357.835 61.9284 357.487 62 357.073 62C357.032 62 356.993 62 356.956 62C356.917 62 356.877 61.9987 356.835 61.9961V60.9922C356.871 60.9922 356.904 60.9922 356.933 60.9922C356.959 60.9922 356.989 60.9922 357.022 60.9922C357.299 60.9922 357.498 60.918 357.62 60.7695C357.745 60.6237 357.808 60.4115 357.808 60.1328V53.75ZM358.386 52.8242C358.183 52.8242 358.008 52.7565 357.862 52.6211C357.719 52.4831 357.647 52.319 357.647 52.1289C357.647 51.9362 357.719 51.7721 357.862 51.6367C358.008 51.4987 358.183 51.4297 358.386 51.4297C358.589 51.4297 358.762 51.4987 358.905 51.6367C359.051 51.7721 359.124 51.9362 359.124 52.1289C359.124 52.319 359.051 52.4831 358.905 52.6211C358.762 52.7565 358.589 52.8242 358.386 52.8242ZM363.133 59.8711C362.542 59.8711 362.033 59.7448 361.605 59.4922C361.181 59.237 360.853 58.8789 360.621 58.418C360.392 57.9544 360.277 57.4115 360.277 56.7891C360.277 56.1745 360.392 55.6328 360.621 55.1641C360.853 54.6953 361.176 54.3294 361.59 54.0664C362.007 53.8034 362.493 53.6719 363.051 53.6719C363.389 53.6719 363.717 53.7279 364.035 53.8398C364.353 53.9518 364.638 54.1276 364.891 54.3672C365.143 54.6068 365.342 54.918 365.488 55.3008C365.634 55.681 365.707 56.1432 365.707 56.6875V57.1016H360.938V56.2266H364.563C364.563 55.9193 364.5 55.6471 364.375 55.4102C364.25 55.1706 364.074 54.9818 363.848 54.8437C363.624 54.7057 363.361 54.6367 363.059 54.6367C362.73 54.6367 362.444 54.7174 362.199 54.8789C361.957 55.0378 361.77 55.2461 361.637 55.5039C361.507 55.7591 361.441 56.0365 361.441 56.3359V57.0195C361.441 57.4206 361.512 57.7617 361.652 58.043C361.796 58.3242 361.995 58.5391 362.25 58.6875C362.505 58.8333 362.803 58.9062 363.145 58.9062C363.366 58.9062 363.568 58.875 363.75 58.8125C363.932 58.7474 364.09 58.651 364.223 58.5234C364.355 58.3958 364.457 58.2383 364.527 58.0508L365.633 58.25C365.544 58.5755 365.385 58.8607 365.156 59.1055C364.93 59.3477 364.645 59.5365 364.301 59.6719C363.96 59.8047 363.57 59.8711 363.133 59.8711ZM369.53 59.8711C368.95 59.8711 368.45 59.7396 368.03 59.4766C367.614 59.2109 367.293 58.8451 367.069 58.3789C366.845 57.9128 366.733 57.3789 366.733 56.7773C366.733 56.168 366.848 55.6302 367.077 55.1641C367.306 54.6953 367.629 54.3294 368.046 54.0664C368.463 53.8034 368.953 53.6719 369.519 53.6719C369.974 53.6719 370.381 53.7565 370.737 53.9258C371.094 54.0924 371.382 54.3268 371.601 54.6289C371.822 54.931 371.953 55.2839 371.995 55.6875H370.858C370.796 55.4062 370.653 55.1641 370.429 54.9609C370.207 54.7578 369.91 54.6562 369.538 54.6562C369.213 54.6562 368.927 54.7422 368.683 54.9141C368.44 55.0833 368.252 55.3255 368.116 55.6406C367.981 55.9531 367.913 56.3229 367.913 56.75C367.913 57.1875 367.979 57.5651 368.112 57.8828C368.245 58.2005 368.433 58.4466 368.675 58.6211C368.92 58.7956 369.207 58.8828 369.538 58.8828C369.759 58.8828 369.96 58.8424 370.14 58.7617C370.322 58.6784 370.474 58.5599 370.597 58.4062C370.722 58.2526 370.809 58.0677 370.858 57.8516H371.995C371.953 58.2396 371.827 58.5859 371.616 58.8906C371.405 59.1953 371.123 59.4349 370.769 59.6094C370.417 59.7839 370.004 59.8711 369.53 59.8711ZM376.045 53.75V54.6875H372.768V53.75H376.045ZM373.646 52.3125H374.814V57.9883C374.814 58.2148 374.848 58.3854 374.916 58.5C374.984 58.612 375.071 58.6888 375.178 58.7305C375.287 58.7695 375.406 58.7891 375.533 58.7891C375.627 58.7891 375.709 58.7826 375.779 58.7695C375.85 58.7565 375.904 58.7461 375.943 58.7383L376.154 59.7031C376.087 59.7292 375.99 59.7552 375.865 59.7813C375.74 59.8099 375.584 59.8255 375.396 59.8281C375.089 59.8333 374.803 59.7786 374.537 59.6641C374.271 59.5495 374.057 59.3724 373.893 59.1328C373.729 58.8932 373.646 58.5924 373.646 58.2305V52.3125Z" fill="white" fill-opacity="0.95"/>
<path d="M408.718 54.2773C408.642 54.0404 408.541 53.8281 408.413 53.6406C408.288 53.4505 408.138 53.2891 407.964 53.1563C407.789 53.0208 407.59 52.918 407.366 52.8477C407.145 52.7773 406.901 52.7422 406.636 52.7422C406.185 52.7422 405.779 52.8581 405.417 53.0898C405.055 53.3216 404.769 53.6615 404.558 54.1094C404.349 54.5547 404.245 55.1003 404.245 55.7461C404.245 56.3945 404.351 56.9427 404.562 57.3906C404.772 57.8385 405.062 58.1784 405.429 58.4102C405.796 58.6419 406.214 58.7578 406.683 58.7578C407.118 58.7578 407.496 58.6693 407.819 58.4922C408.145 58.3151 408.396 58.0651 408.573 57.7422C408.753 57.4167 408.843 57.0339 408.843 56.5938L409.155 56.6523H406.866V55.6562H410.011V56.5664C410.011 57.2383 409.868 57.8216 409.581 58.3164C409.297 58.8086 408.904 59.1888 408.401 59.457C407.901 59.7253 407.328 59.8594 406.683 59.8594C405.959 59.8594 405.323 59.6927 404.776 59.3594C404.232 59.026 403.808 58.5534 403.503 57.9414C403.198 57.3268 403.046 56.5977 403.046 55.7539C403.046 55.1159 403.134 54.543 403.312 54.0352C403.489 53.5273 403.737 53.0964 404.058 52.7422C404.381 52.3854 404.759 52.1133 405.194 51.9258C405.632 51.7357 406.11 51.6406 406.628 51.6406C407.06 51.6406 407.463 51.7044 407.835 51.832C408.21 51.9596 408.543 52.1406 408.835 52.375C409.129 52.6094 409.373 52.888 409.565 53.2109C409.758 53.5312 409.888 53.8867 409.956 54.2773H408.718ZM412.617 51.75V59.75H411.449V51.75H412.617ZM416.716 59.8711C416.153 59.8711 415.662 59.7422 415.243 59.4844C414.824 59.2266 414.498 58.8659 414.267 58.4023C414.035 57.9388 413.919 57.3971 413.919 56.7773C413.919 56.1549 414.035 55.6107 414.267 55.1445C414.498 54.6784 414.824 54.3164 415.243 54.0586C415.662 53.8008 416.153 53.6719 416.716 53.6719C417.278 53.6719 417.769 53.8008 418.188 54.0586C418.608 54.3164 418.933 54.6784 419.165 55.1445C419.397 55.6107 419.513 56.1549 419.513 56.7773C419.513 57.3971 419.397 57.9388 419.165 58.4023C418.933 58.8659 418.608 59.2266 418.188 59.4844C417.769 59.7422 417.278 59.8711 416.716 59.8711ZM416.72 58.8906C417.084 58.8906 417.386 58.7943 417.626 58.6016C417.866 58.4089 418.043 58.1523 418.157 57.832C418.274 57.5117 418.333 57.1589 418.333 56.7734C418.333 56.3906 418.274 56.0391 418.157 55.7187C418.043 55.3958 417.866 55.1367 417.626 54.9414C417.386 54.7461 417.084 54.6484 416.72 54.6484C416.353 54.6484 416.048 54.7461 415.806 54.9414C415.566 55.1367 415.388 55.3958 415.271 55.7187C415.156 56.0391 415.099 56.3906 415.099 56.7734C415.099 57.1589 415.156 57.5117 415.271 57.832C415.388 58.1523 415.566 58.4089 415.806 58.6016C416.048 58.7943 416.353 58.8906 416.72 58.8906ZM420.91 59.75V51.75H422.078V54.7227H422.148C422.216 54.5977 422.314 54.4531 422.441 54.2891C422.569 54.125 422.746 53.9818 422.973 53.8594C423.199 53.7344 423.499 53.6719 423.871 53.6719C424.355 53.6719 424.788 53.7943 425.168 54.0391C425.548 54.2839 425.846 54.6367 426.063 55.0977C426.281 55.5586 426.391 56.1133 426.391 56.7617C426.391 57.4102 426.283 57.9661 426.066 58.4297C425.85 58.8906 425.553 59.2461 425.176 59.4961C424.798 59.7435 424.367 59.8672 423.883 59.8672C423.518 59.8672 423.22 59.806 422.988 59.6836C422.759 59.5612 422.579 59.418 422.449 59.2539C422.319 59.0898 422.219 58.944 422.148 58.8164H422.051V59.75H420.91ZM422.055 56.75C422.055 57.1719 422.116 57.5417 422.238 57.8594C422.361 58.1771 422.538 58.4258 422.77 58.6055C423.001 58.7826 423.285 58.8711 423.621 58.8711C423.97 58.8711 424.262 58.7786 424.496 58.5937C424.73 58.4062 424.908 58.1523 425.027 57.832C425.15 57.5117 425.211 57.151 425.211 56.75C425.211 56.3542 425.151 55.9987 425.031 55.6836C424.914 55.3685 424.737 55.1198 424.5 54.9375C424.266 54.7552 423.973 54.6641 423.621 54.6641C423.283 54.6641 422.996 54.7513 422.762 54.9258C422.53 55.1003 422.354 55.3437 422.234 55.6562C422.115 55.9687 422.055 56.3333 422.055 56.75ZM429.448 59.8828C429.068 59.8828 428.724 59.8125 428.417 59.6719C428.11 59.5286 427.866 59.3216 427.687 59.0508C427.509 58.7799 427.421 58.4479 427.421 58.0547C427.421 57.7161 427.486 57.4375 427.616 57.2187C427.746 57 427.922 56.8268 428.144 56.6992C428.365 56.5716 428.612 56.4753 428.886 56.4102C429.159 56.3451 429.438 56.2956 429.722 56.2617C430.081 56.2201 430.373 56.1862 430.597 56.1602C430.821 56.1315 430.983 56.0859 431.085 56.0234C431.187 55.9609 431.237 55.8594 431.237 55.7187V55.6914C431.237 55.3503 431.141 55.0859 430.948 54.8984C430.758 54.7109 430.474 54.6172 430.097 54.6172C429.703 54.6172 429.394 54.7044 429.167 54.8789C428.943 55.0508 428.788 55.2422 428.702 55.4531L427.604 55.2031C427.735 54.8385 427.925 54.5443 428.175 54.3203C428.427 54.0937 428.718 53.9297 429.046 53.8281C429.374 53.724 429.719 53.6719 430.081 53.6719C430.321 53.6719 430.575 53.7005 430.843 53.7578C431.114 53.8125 431.366 53.9141 431.601 54.0625C431.838 54.2109 432.032 54.4232 432.183 54.6992C432.334 54.9727 432.409 55.3281 432.409 55.7656V59.75H431.269V58.9297H431.222C431.146 59.0807 431.033 59.2292 430.882 59.375C430.731 59.5208 430.537 59.6419 430.3 59.7383C430.063 59.8346 429.779 59.8828 429.448 59.8828ZM429.702 58.9453C430.025 58.9453 430.301 58.8815 430.53 58.7539C430.762 58.6263 430.938 58.4596 431.058 58.2539C431.18 58.0456 431.241 57.8229 431.241 57.5859V56.8125C431.2 56.8542 431.119 56.8932 430.999 56.9297C430.882 56.9635 430.748 56.9935 430.597 57.0195C430.446 57.043 430.299 57.0651 430.155 57.0859C430.012 57.1042 429.892 57.1198 429.796 57.1328C429.569 57.1615 429.362 57.2096 429.175 57.2773C428.99 57.3451 428.841 57.4427 428.729 57.5703C428.62 57.6953 428.565 57.862 428.565 58.0703C428.565 58.3594 428.672 58.5781 428.886 58.7266C429.099 58.8724 429.371 58.9453 429.702 58.9453ZM435.133 51.75V59.75H433.965V51.75H435.133Z" fill="white" fill-opacity="0.95"/>
<path d="M444.742 54L447.742 57L450.742 54" stroke="white" stroke-opacity="0.7" stroke-linecap="round" stroke-linejoin="round"/>
<g clip-path="url(#clip4_465_2442)">
<path d="M480.742 49.667V61.3337" stroke="white" stroke-opacity="0.9" stroke-width="1.16667" stroke-linecap="round" stroke-linejoin="round"/>
<path d="M482.492 59.583L480.742 61.333L478.992 59.583" stroke="white" stroke-opacity="0.9" stroke-width="1.16667" stroke-linecap="round" stroke-linejoin="round"/>
<path d="M484.826 53.75L486.576 55.5L484.826 57.25" stroke="white" stroke-opacity="0.9" stroke-width="1.16667" stroke-linecap="round" stroke-linejoin="round"/>
<path d="M474.908 55.5H486.575" stroke="white" stroke-opacity="0.9" stroke-width="1.16667" stroke-linecap="round" stroke-linejoin="round"/>
<path d="M476.658 53.75L474.908 55.5L476.658 57.25" stroke="white" stroke-opacity="0.9" stroke-width="1.16667" stroke-linecap="round" stroke-linejoin="round"/>
<path d="M478.992 51.417L480.742 49.667L482.492 51.417" stroke="white" stroke-opacity="0.9" stroke-width="1.16667" stroke-linecap="round" stroke-linejoin="round"/>
</g>
<path d="M494.492 54.125L497.242 56.875L499.992 54.125" stroke="white" stroke-opacity="0.7" stroke-width="0.916667" stroke-linecap="round" stroke-linejoin="round"/>
<g clip-path="url(#clip5_465_2442)">
<path d="M600.804 55.703C600.755 55.572 600.755 55.4279 600.804 55.297C601.278 54.1489 602.081 53.1672 603.113 52.4765C604.145 51.7857 605.359 51.417 606.601 51.417C607.843 51.417 609.057 51.7857 610.089 52.4765C611.121 53.1672 611.925 54.1489 612.398 55.297C612.447 55.4279 612.447 55.572 612.398 55.703C611.925 56.8511 611.121 57.8327 610.089 58.5234C609.057 59.2142 607.843 59.5829 606.601 59.5829C605.359 59.5829 604.145 59.2142 603.113 58.5234C602.081 57.8327 601.278 56.8511 600.804 55.703Z" stroke="white" stroke-opacity="0.9" stroke-width="1.16667" stroke-linecap="round" stroke-linejoin="round"/>
<path d="M606.602 57.25C607.568 57.25 608.352 56.4665 608.352 55.5C608.352 54.5335 607.568 53.75 606.602 53.75C605.635 53.75 604.852 54.5335 604.852 55.5C604.852 56.4665 605.635 57.25 606.602 57.25Z" stroke="white" stroke-opacity="0.9" stroke-width="1.16667" stroke-linecap="round" stroke-linejoin="round"/>
</g>
<g clip-path="url(#clip6_465_2442)">
<path d="M637.059 50.833H634.143L632.684 52.583H630.934C630.625 52.583 630.328 52.7059 630.109 52.9247C629.89 53.1435 629.768 53.4403 629.768 53.7497V58.9997C629.768 59.3091 629.89 59.6058 630.109 59.8246C630.328 60.0434 630.625 60.1663 630.934 60.1663H640.268C640.577 60.1663 640.874 60.0434 641.093 59.8246C641.311 59.6058 641.434 59.3091 641.434 58.9997V53.7497C641.434 53.4403 641.311 53.1435 641.093 52.9247C640.874 52.7059 640.577 52.583 640.268 52.583H638.518L637.059 50.833Z" stroke="#00D5FF" stroke-width="1.16667" stroke-linecap="round" stroke-linejoin="round"/>
<path d="M635.602 57.833C636.568 57.833 637.352 57.0495 637.352 56.083C637.352 55.1165 636.568 54.333 635.602 54.333C634.635 54.333 633.852 55.1165 633.852 56.083C633.852 57.0495 634.635 57.833 635.602 57.833Z" stroke="#00D5FF" stroke-width="1.16667" stroke-linecap="round" stroke-linejoin="round"/>
</g>
<path d="M649.352 54.125L652.102 56.875L654.852 54.125" stroke="white" stroke-opacity="0.7" stroke-width="0.916667" stroke-linecap="round" stroke-linejoin="round"/>
<path d="M682.352 56.667C682.468 56.0837 682.76 55.6753 683.227 55.2087C683.81 54.6837 684.102 53.9253 684.102 53.167C684.102 52.2387 683.733 51.3485 683.076 50.6921C682.42 50.0357 681.53 49.667 680.602 49.667C679.673 49.667 678.783 50.0357 678.127 50.6921C677.47 51.3485 677.102 52.2387 677.102 53.167C677.102 53.7503 677.218 54.4503 677.977 55.2087C678.385 55.617 678.735 56.0837 678.852 56.667" stroke="#00D5FF" stroke-width="1.16667" stroke-linecap="round" stroke-linejoin="round"/>
<path d="M678.852 59H682.352" stroke="#00D5FF" stroke-width="1.16667" stroke-linecap="round" stroke-linejoin="round"/>
<path d="M679.436 61.333H681.769" stroke="#00D5FF" stroke-width="1.16667" stroke-linecap="round" stroke-linejoin="round"/>
<path d="M694.352 54.125L697.102 56.875L699.852 54.125" stroke="white" stroke-opacity="0.7" stroke-width="0.916667" stroke-linecap="round" stroke-linejoin="round"/>
<path d="M720.518 53.1667V51.4167C720.518 50.8333 721.101 50.25 721.684 50.25H727.518C728.101 50.25 728.684 50.8333 728.684 51.4167V53.1667" stroke="white" stroke-opacity="0.9" stroke-width="1.16667" stroke-linecap="round" stroke-linejoin="round"/>
<path d="M728.684 57.833V59.583C728.684 60.1663 728.101 60.7497 727.518 60.7497H721.684C721.101 60.7497 720.518 60.1663 720.518 59.583V57.833" stroke="white" stroke-opacity="0.9" stroke-width="1.16667" stroke-linecap="round" stroke-linejoin="round"/>
<path d="M719.936 55.5H729.269" stroke="white" stroke-opacity="0.9" stroke-width="1.16667" stroke-linecap="round" stroke-linejoin="round"/>
<mask id="path-200-inside-5_465_2442" fill="white">
<path d="M745.602 55.5C745.602 51.634 748.736 48.5 752.602 48.5C756.468 48.5 759.602 51.634 759.602 55.5C759.602 59.366 756.468 62.5 752.602 62.5C748.736 62.5 745.602 59.366 745.602 55.5Z"/>
</mask>
<path d="M752.602 62.5V60.5C749.84 60.5 747.602 58.2614 747.602 55.5H745.602H743.602C743.602 60.4706 747.631 64.5 752.602 64.5V62.5ZM759.602 55.5H757.602C757.602 58.2614 755.363 60.5 752.602 60.5V62.5V64.5C757.572 64.5 761.602 60.4706 761.602 55.5H759.602ZM752.602 48.5V50.5C755.363 50.5 757.602 52.7386 757.602 55.5H759.602H761.602C761.602 50.5294 757.572 46.5 752.602 46.5V48.5ZM752.602 48.5V46.5C747.631 46.5 743.602 50.5294 743.602 55.5H745.602H747.602C747.602 52.7386 749.84 50.5 752.602 50.5V48.5Z" fill="white" fill-opacity="0.9" mask="url(#path-200-inside-5_465_2442)"/>
<rect width="10" height="10" transform="translate(747.602 50.5)" fill="white" fill-opacity="0.9"/>
<path d="M768.602 46.5C768.602 44.8431 769.945 43.5 771.602 43.5H789.602C791.258 43.5 792.602 44.8431 792.602 46.5V64.5C792.602 66.1569 791.258 67.5 789.602 67.5H771.602C769.945 67.5 768.602 66.1569 768.602 64.5V46.5Z" fill="#70C62D" fill-opacity="0.2"/>
<path d="M773.602 55.5C773.602 51.634 776.736 48.5 780.602 48.5C784.468 48.5 787.602 51.634 787.602 55.5C787.602 59.366 784.468 62.5 780.602 62.5C776.736 62.5 773.602 59.366 773.602 55.5Z" fill="#70C62D"/>
<g clip-path="url(#clip7_465_2442)">
<path d="M808.601 61.3337C811.823 61.3337 814.434 58.722 814.434 55.5003C814.434 52.2787 811.823 49.667 808.601 49.667C805.379 49.667 802.768 52.2787 802.768 55.5003C802.768 58.722 805.379 61.3337 808.601 61.3337Z" stroke="white" stroke-opacity="0.5" stroke-width="1.16667" stroke-linecap="round" stroke-linejoin="round"/>
</g>
<path d="M833.602 54L836.602 57L839.602 54" stroke="white" stroke-opacity="0.7" stroke-linecap="round" stroke-linejoin="round"/>
</g>
</g>
</g>
<defs>
<clipPath id="clip0_465_2442">
<rect width="1229" height="832" fill="white"/>
</clipPath>
<clipPath id="clip1_465_2442">
<rect width="848.602" height="790" fill="white" transform="translate(7 35)"/>
</clipPath>
<clipPath id="clip2_465_2442">
<rect width="848.602" height="473.398" fill="white" transform="translate(7 35)"/>
</clipPath>
<clipPath id="clip3_465_2442">
<rect width="846.602" height="463.398" fill="white" transform="translate(8 40)"/>
</clipPath>
<clipPath id="clip4_465_2442">
<rect width="14" height="14" fill="white" transform="translate(473.742 48.5)"/>
</clipPath>
<clipPath id="clip5_465_2442">
<rect width="14" height="14" fill="white" transform="translate(599.602 48.5)"/>
</clipPath>
<clipPath id="clip6_465_2442">
<rect width="14" height="14" fill="white" transform="translate(628.602 48.5)"/>
</clipPath>
<clipPath id="clip7_465_2442">
<rect width="14" height="14" fill="white" transform="translate(801.602 48.5)"/>
</clipPath>
</defs>
</svg>
