<svg width="1229" height="832" viewBox="0 0 1229 832" fill="none" xmlns="http://www.w3.org/2000/svg">
<g clip-path="url(#clip0_465_4182)">
<path d="M876.658 213.5V204.773H877.715V208.659H882.369V204.773H883.425V213.5H882.369V209.597H877.715V213.5H876.658ZM885.405 213.5V206.955H886.411V213.5H885.405ZM885.916 205.864C885.72 205.864 885.551 205.797 885.409 205.663C885.27 205.53 885.2 205.369 885.2 205.182C885.2 204.994 885.27 204.834 885.409 204.7C885.551 204.567 885.72 204.5 885.916 204.5C886.112 204.5 886.28 204.567 886.419 204.7C886.561 204.834 886.632 204.994 886.632 205.182C886.632 205.369 886.561 205.53 886.419 205.663C886.28 205.797 886.112 205.864 885.916 205.864ZM898.684 204.773V213.5H897.662L892.906 206.648H892.821V213.5H891.764V204.773H892.787L897.559 211.642H897.645V204.773H898.684ZM902.589 213.653C902.174 213.653 901.798 213.575 901.46 213.419C901.121 213.26 900.853 213.031 900.654 212.733C900.455 212.432 900.356 212.068 900.356 211.642C900.356 211.267 900.43 210.963 900.577 210.73C900.725 210.494 900.923 210.31 901.17 210.176C901.417 210.043 901.69 209.943 901.988 209.878C902.289 209.81 902.592 209.756 902.896 209.716C903.293 209.665 903.616 209.626 903.863 209.601C904.113 209.572 904.295 209.526 904.408 209.46C904.525 209.395 904.583 209.281 904.583 209.119V209.085C904.583 208.665 904.468 208.338 904.238 208.105C904.011 207.872 903.665 207.756 903.202 207.756C902.722 207.756 902.346 207.861 902.073 208.071C901.8 208.281 901.609 208.506 901.498 208.744L900.543 208.403C900.714 208.006 900.941 207.696 901.225 207.474C901.512 207.25 901.825 207.094 902.163 207.006C902.504 206.915 902.839 206.869 903.168 206.869C903.379 206.869 903.62 206.895 903.893 206.946C904.168 206.994 904.434 207.095 904.69 207.249C904.948 207.402 905.163 207.634 905.333 207.943C905.504 208.253 905.589 208.668 905.589 209.188V213.5H904.583V212.614H904.532C904.464 212.756 904.35 212.908 904.191 213.07C904.032 213.232 903.82 213.369 903.556 213.483C903.292 213.597 902.969 213.653 902.589 213.653ZM902.742 212.75C903.14 212.75 903.475 212.672 903.748 212.516C904.023 212.359 904.231 212.158 904.37 211.911C904.512 211.663 904.583 211.403 904.583 211.131V210.21C904.54 210.261 904.447 210.308 904.302 210.351C904.16 210.391 903.995 210.426 903.808 210.457C903.623 210.486 903.442 210.511 903.266 210.534C903.093 210.554 902.952 210.571 902.844 210.585C902.583 210.619 902.339 210.675 902.112 210.751C901.887 210.825 901.705 210.937 901.566 211.088C901.43 211.236 901.362 211.437 901.362 211.693C901.362 212.043 901.491 212.307 901.749 212.486C902.011 212.662 902.342 212.75 902.742 212.75ZM907.838 215.955C907.667 215.955 907.515 215.94 907.382 215.912C907.248 215.886 907.156 215.861 907.105 215.835L907.36 214.949C907.605 215.011 907.821 215.034 908.008 215.017C908.196 215 908.362 214.916 908.507 214.766C908.654 214.618 908.789 214.378 908.912 214.045L909.099 213.534L906.679 206.955H907.77L909.576 212.17H909.645L911.451 206.955H912.542L909.764 214.455C909.639 214.793 909.484 215.072 909.299 215.294C909.115 215.518 908.9 215.685 908.656 215.793C908.414 215.901 908.142 215.955 907.838 215.955ZM915.597 213.653C915.182 213.653 914.805 213.575 914.467 213.419C914.129 213.26 913.861 213.031 913.662 212.733C913.463 212.432 913.364 212.068 913.364 211.642C913.364 211.267 913.438 210.963 913.585 210.73C913.733 210.494 913.93 210.31 914.178 210.176C914.425 210.043 914.697 209.943 914.996 209.878C915.297 209.81 915.599 209.756 915.903 209.716C916.301 209.665 916.624 209.626 916.871 209.601C917.121 209.572 917.303 209.526 917.416 209.46C917.533 209.395 917.591 209.281 917.591 209.119V209.085C917.591 208.665 917.476 208.338 917.246 208.105C917.018 207.872 916.673 207.756 916.21 207.756C915.73 207.756 915.354 207.861 915.081 208.071C914.808 208.281 914.616 208.506 914.506 208.744L913.551 208.403C913.722 208.006 913.949 207.696 914.233 207.474C914.52 207.25 914.832 207.094 915.17 207.006C915.511 206.915 915.847 206.869 916.176 206.869C916.386 206.869 916.628 206.895 916.901 206.946C917.176 206.994 917.442 207.095 917.697 207.249C917.956 207.402 918.17 207.634 918.341 207.943C918.511 208.253 918.597 208.668 918.597 209.188V213.5H917.591V212.614H917.54C917.472 212.756 917.358 212.908 917.199 213.07C917.04 213.232 916.828 213.369 916.564 213.483C916.3 213.597 915.977 213.653 915.597 213.653ZM915.75 212.75C916.148 212.75 916.483 212.672 916.756 212.516C917.031 212.359 917.239 212.158 917.378 211.911C917.52 211.663 917.591 211.403 917.591 211.131V210.21C917.548 210.261 917.455 210.308 917.31 210.351C917.168 210.391 917.003 210.426 916.815 210.457C916.631 210.486 916.45 210.511 916.274 210.534C916.101 210.554 915.96 210.571 915.852 210.585C915.591 210.619 915.347 210.675 915.119 210.751C914.895 210.825 914.713 210.937 914.574 211.088C914.438 211.236 914.369 211.437 914.369 211.693C914.369 212.043 914.499 212.307 914.757 212.486C915.018 212.662 915.349 212.75 915.75 212.75ZM921.438 209.562V213.5H920.432V206.955H921.404V207.977H921.489C921.642 207.645 921.875 207.378 922.188 207.176C922.5 206.972 922.904 206.869 923.398 206.869C923.841 206.869 924.229 206.96 924.561 207.142C924.894 207.321 925.152 207.594 925.337 207.96C925.522 208.324 925.614 208.784 925.614 209.341V213.5H924.608V209.409C924.608 208.895 924.475 208.494 924.208 208.207C923.941 207.918 923.574 207.773 923.108 207.773C922.787 207.773 922.5 207.842 922.248 207.982C921.998 208.121 921.8 208.324 921.655 208.591C921.51 208.858 921.438 209.182 921.438 209.562ZM927.452 213.5V206.955H928.457V213.5H927.452ZM927.963 205.864C927.767 205.864 927.598 205.797 927.456 205.663C927.317 205.53 927.247 205.369 927.247 205.182C927.247 204.994 927.317 204.834 927.456 204.7C927.598 204.567 927.767 204.5 927.963 204.5C928.159 204.5 928.327 204.567 928.466 204.7C928.608 204.834 928.679 204.994 928.679 205.182C928.679 205.369 928.608 205.53 928.466 205.663C928.327 205.797 928.159 205.864 927.963 205.864ZM931.237 211.114L931.22 209.869H931.424L934.288 206.955H935.532L932.481 210.04H932.396L931.237 211.114ZM930.299 213.5V204.773H931.305V213.5H930.299ZM934.458 213.5L931.902 210.261L932.618 209.562L935.737 213.5H934.458ZM938.753 213.653C938.338 213.653 937.962 213.575 937.624 213.419C937.286 213.26 937.017 213.031 936.818 212.733C936.619 212.432 936.52 212.068 936.52 211.642C936.52 211.267 936.594 210.963 936.741 210.73C936.889 210.494 937.087 210.31 937.334 210.176C937.581 210.043 937.854 209.943 938.152 209.878C938.453 209.81 938.756 209.756 939.06 209.716C939.457 209.665 939.78 209.626 940.027 209.601C940.277 209.572 940.459 209.526 940.572 209.46C940.689 209.395 940.747 209.281 940.747 209.119V209.085C940.747 208.665 940.632 208.338 940.402 208.105C940.175 207.872 939.83 207.756 939.366 207.756C938.886 207.756 938.51 207.861 938.237 208.071C937.964 208.281 937.773 208.506 937.662 208.744L936.707 208.403C936.878 208.006 937.105 207.696 937.389 207.474C937.676 207.25 937.989 207.094 938.327 207.006C938.668 206.915 939.003 206.869 939.332 206.869C939.543 206.869 939.784 206.895 940.057 206.946C940.332 206.994 940.598 207.095 940.854 207.249C941.112 207.402 941.327 207.634 941.497 207.943C941.668 208.253 941.753 208.668 941.753 209.188V213.5H940.747V212.614H940.696C940.628 212.756 940.514 212.908 940.355 213.07C940.196 213.232 939.984 213.369 939.72 213.483C939.456 213.597 939.134 213.653 938.753 213.653ZM938.906 212.75C939.304 212.75 939.639 212.672 939.912 212.516C940.188 212.359 940.395 212.158 940.534 211.911C940.676 211.663 940.747 211.403 940.747 211.131V210.21C940.705 210.261 940.611 210.308 940.466 210.351C940.324 210.391 940.159 210.426 939.972 210.457C939.787 210.486 939.607 210.511 939.43 210.534C939.257 210.554 939.116 210.571 939.009 210.585C938.747 210.619 938.503 210.675 938.276 210.751C938.051 210.825 937.869 210.937 937.73 211.088C937.594 211.236 937.526 211.437 937.526 211.693C937.526 212.043 937.655 212.307 937.913 212.486C938.175 212.662 938.506 212.75 938.906 212.75ZM944.918 204.773L944.833 211.045H943.844L943.759 204.773H944.918ZM944.338 213.568C944.128 213.568 943.948 213.493 943.797 213.342C943.647 213.192 943.571 213.011 943.571 212.801C943.571 212.591 943.647 212.411 943.797 212.26C943.948 212.109 944.128 212.034 944.338 212.034C944.549 212.034 944.729 212.109 944.88 212.26C945.03 212.411 945.105 212.591 945.105 212.801C945.105 212.94 945.07 213.068 944.999 213.185C944.931 213.301 944.838 213.395 944.722 213.466C944.608 213.534 944.48 213.568 944.338 213.568Z" fill="white"/>
<path d="M878.244 241.5L875.857 232.773H876.931L878.755 239.881H878.84L880.698 232.773H881.891L883.749 239.881H883.835L885.658 232.773H886.732L884.346 241.5H883.255L881.329 234.545H881.261L879.335 241.5H878.244ZM888.918 237.562V241.5H887.913V232.773H888.918V235.977H889.004C889.157 235.639 889.387 235.371 889.694 235.172C890.004 234.97 890.415 234.869 890.93 234.869C891.376 234.869 891.766 234.959 892.102 235.138C892.437 235.314 892.697 235.585 892.881 235.952C893.069 236.315 893.163 236.778 893.163 237.341V241.5H892.157V237.409C892.157 236.889 892.022 236.487 891.752 236.203C891.485 235.916 891.114 235.773 890.64 235.773C890.31 235.773 890.015 235.842 889.754 235.982C889.495 236.121 889.29 236.324 889.14 236.591C888.992 236.858 888.918 237.182 888.918 237.562ZM896.929 241.653C896.514 241.653 896.137 241.575 895.799 241.419C895.461 241.26 895.193 241.031 894.994 240.733C894.795 240.432 894.696 240.068 894.696 239.642C894.696 239.267 894.77 238.963 894.917 238.73C895.065 238.494 895.262 238.31 895.51 238.176C895.757 238.043 896.029 237.943 896.328 237.878C896.629 237.81 896.931 237.756 897.235 237.716C897.633 237.665 897.956 237.626 898.203 237.601C898.453 237.572 898.635 237.526 898.748 237.46C898.865 237.395 898.923 237.281 898.923 237.119V237.085C898.923 236.665 898.808 236.338 898.578 236.105C898.35 235.872 898.005 235.756 897.542 235.756C897.062 235.756 896.686 235.861 896.413 236.071C896.14 236.281 895.949 236.506 895.838 236.744L894.883 236.403C895.054 236.006 895.281 235.696 895.565 235.474C895.852 235.25 896.164 235.094 896.502 235.006C896.843 234.915 897.179 234.869 897.508 234.869C897.718 234.869 897.96 234.895 898.233 234.946C898.508 234.994 898.774 235.095 899.029 235.249C899.288 235.402 899.502 235.634 899.673 235.943C899.843 236.253 899.929 236.668 899.929 237.188V241.5H898.923V240.614H898.872C898.804 240.756 898.69 240.908 898.531 241.07C898.372 241.232 898.16 241.369 897.896 241.483C897.632 241.597 897.309 241.653 896.929 241.653ZM897.082 240.75C897.48 240.75 897.815 240.672 898.088 240.516C898.363 240.359 898.571 240.158 898.71 239.911C898.852 239.663 898.923 239.403 898.923 239.131V238.21C898.88 238.261 898.787 238.308 898.642 238.351C898.5 238.391 898.335 238.426 898.147 238.457C897.963 238.486 897.782 238.511 897.606 238.534C897.433 238.554 897.292 238.571 897.184 238.585C896.923 238.619 896.679 238.675 896.451 238.751C896.227 238.825 896.045 238.937 895.906 239.088C895.77 239.236 895.701 239.437 895.701 239.693C895.701 240.043 895.831 240.307 896.089 240.486C896.35 240.662 896.681 240.75 897.082 240.75ZM904.611 234.955V235.807H901.219V234.955H904.611ZM902.207 233.386H903.213V239.625C903.213 239.909 903.254 240.122 903.337 240.264C903.422 240.403 903.53 240.497 903.661 240.545C903.794 240.591 903.935 240.614 904.082 240.614C904.193 240.614 904.284 240.608 904.355 240.597C904.426 240.582 904.483 240.571 904.526 240.562L904.73 241.466C904.662 241.491 904.567 241.517 904.445 241.543C904.322 241.571 904.168 241.585 903.98 241.585C903.696 241.585 903.418 241.524 903.145 241.402C902.875 241.28 902.651 241.094 902.472 240.844C902.295 240.594 902.207 240.278 902.207 239.898V233.386ZM910.982 241.5L908.987 234.955H910.044L911.459 239.966H911.527L912.925 234.955H913.999L915.379 239.949H915.447L916.862 234.955H917.919L915.925 241.5H914.936L913.504 236.472H913.402L911.97 241.5H910.982ZM921.685 241.636C921.094 241.636 920.576 241.496 920.13 241.214C919.686 240.933 919.34 240.54 919.09 240.034C918.843 239.528 918.719 238.937 918.719 238.261C918.719 237.58 918.843 236.984 919.09 236.476C919.34 235.967 919.686 235.572 920.13 235.291C920.576 235.01 921.094 234.869 921.685 234.869C922.276 234.869 922.793 235.01 923.236 235.291C923.682 235.572 924.029 235.967 924.276 236.476C924.526 236.984 924.651 237.58 924.651 238.261C924.651 238.937 924.526 239.528 924.276 240.034C924.029 240.54 923.682 240.933 923.236 241.214C922.793 241.496 922.276 241.636 921.685 241.636ZM921.685 240.733C922.134 240.733 922.503 240.618 922.793 240.388C923.083 240.158 923.297 239.855 923.436 239.48C923.576 239.105 923.645 238.699 923.645 238.261C923.645 237.824 923.576 237.416 923.436 237.038C923.297 236.661 923.083 236.355 922.793 236.122C922.503 235.889 922.134 235.773 921.685 235.773C921.236 235.773 920.867 235.889 920.577 236.122C920.287 236.355 920.073 236.661 919.934 237.038C919.794 237.416 919.725 237.824 919.725 238.261C919.725 238.699 919.794 239.105 919.934 239.48C920.073 239.855 920.287 240.158 920.577 240.388C920.867 240.618 921.236 240.733 921.685 240.733ZM930.311 238.824V234.955H931.317V241.5H930.311V240.392H930.243C930.089 240.724 929.851 241.007 929.527 241.24C929.203 241.47 928.794 241.585 928.3 241.585C927.891 241.585 927.527 241.496 927.209 241.317C926.891 241.135 926.641 240.862 926.459 240.499C926.277 240.132 926.186 239.67 926.186 239.114V234.955H927.192V239.045C927.192 239.523 927.325 239.903 927.592 240.188C927.862 240.472 928.206 240.614 928.624 240.614C928.874 240.614 929.128 240.55 929.386 240.422C929.648 240.294 929.866 240.098 930.043 239.834C930.222 239.57 930.311 239.233 930.311 238.824ZM934.164 232.773V241.5H933.159V232.773H934.164ZM938.478 241.636C937.933 241.636 937.451 241.499 937.033 241.223C936.616 240.945 936.289 240.553 936.053 240.047C935.817 239.538 935.7 238.938 935.7 238.244C935.7 237.557 935.817 236.96 936.053 236.455C936.289 235.949 936.617 235.558 937.038 235.283C937.458 235.007 937.944 234.869 938.495 234.869C938.921 234.869 939.258 234.94 939.505 235.082C939.755 235.222 939.945 235.381 940.076 235.56C940.21 235.736 940.313 235.881 940.387 235.994H940.472V232.773H941.478V241.5H940.506V240.494H940.387C940.313 240.614 940.208 240.764 940.072 240.946C939.935 241.125 939.741 241.286 939.488 241.428C939.235 241.567 938.898 241.636 938.478 241.636ZM938.614 240.733C939.018 240.733 939.359 240.628 939.637 240.418C939.915 240.205 940.127 239.911 940.272 239.536C940.417 239.158 940.489 238.722 940.489 238.227C940.489 237.739 940.418 237.311 940.276 236.945C940.134 236.575 939.924 236.288 939.646 236.084C939.367 235.876 939.023 235.773 938.614 235.773C938.188 235.773 937.833 235.882 937.549 236.101C937.268 236.317 937.056 236.611 936.914 236.983C936.775 237.352 936.705 237.767 936.705 238.227C936.705 238.693 936.776 239.116 936.918 239.497C937.063 239.875 937.276 240.176 937.558 240.401C937.842 240.622 938.194 240.733 938.614 240.733ZM947.482 243.955C947.312 243.955 947.16 243.94 947.026 243.912C946.893 243.886 946.8 243.861 946.749 243.835L947.005 242.949C947.249 243.011 947.465 243.034 947.653 243.017C947.84 243 948.006 242.916 948.151 242.766C948.299 242.618 948.434 242.378 948.556 242.045L948.744 241.534L946.323 234.955H947.414L949.221 240.17H949.289L951.096 234.955H952.187L949.408 242.455C949.283 242.793 949.129 243.072 948.944 243.294C948.759 243.518 948.545 243.685 948.3 243.793C948.059 243.901 947.786 243.955 947.482 243.955ZM955.939 241.636C955.348 241.636 954.83 241.496 954.384 241.214C953.94 240.933 953.594 240.54 953.344 240.034C953.097 239.528 952.973 238.937 952.973 238.261C952.973 237.58 953.097 236.984 953.344 236.476C953.594 235.967 953.94 235.572 954.384 235.291C954.83 235.01 955.348 234.869 955.939 234.869C956.53 234.869 957.047 235.01 957.49 235.291C957.936 235.572 958.283 235.967 958.53 236.476C958.78 236.984 958.905 237.58 958.905 238.261C958.905 238.937 958.78 239.528 958.53 240.034C958.283 240.54 957.936 240.933 957.49 241.214C957.047 241.496 956.53 241.636 955.939 241.636ZM955.939 240.733C956.388 240.733 956.757 240.618 957.047 240.388C957.337 240.158 957.551 239.855 957.69 239.48C957.83 239.105 957.899 238.699 957.899 238.261C957.899 237.824 957.83 237.416 957.69 237.038C957.551 236.661 957.337 236.355 957.047 236.122C956.757 235.889 956.388 235.773 955.939 235.773C955.49 235.773 955.121 235.889 954.831 236.122C954.541 236.355 954.327 236.661 954.188 237.038C954.048 237.416 953.979 237.824 953.979 238.261C953.979 238.699 954.048 239.105 954.188 239.48C954.327 239.855 954.541 240.158 954.831 240.388C955.121 240.618 955.49 240.733 955.939 240.733ZM964.565 238.824V234.955H965.571V241.5H964.565V240.392H964.497C964.343 240.724 964.105 241.007 963.781 241.24C963.457 241.47 963.048 241.585 962.554 241.585C962.145 241.585 961.781 241.496 961.463 241.317C961.145 241.135 960.895 240.862 960.713 240.499C960.531 240.132 960.44 239.67 960.44 239.114V234.955H961.446V239.045C961.446 239.523 961.579 239.903 961.846 240.188C962.116 240.472 962.46 240.614 962.877 240.614C963.127 240.614 963.382 240.55 963.64 240.422C963.902 240.294 964.12 240.098 964.297 239.834C964.475 239.57 964.565 239.233 964.565 238.824ZM971.793 232.773V241.5H970.788V232.773H971.793ZM973.635 241.5V234.955H974.641V241.5H973.635ZM974.147 233.864C973.951 233.864 973.782 233.797 973.64 233.663C973.5 233.53 973.431 233.369 973.431 233.182C973.431 232.994 973.5 232.834 973.64 232.7C973.782 232.567 973.951 232.5 974.147 232.5C974.343 232.5 974.51 232.567 974.65 232.7C974.792 232.834 974.863 232.994 974.863 233.182C974.863 233.369 974.792 233.53 974.65 233.663C974.51 233.797 974.343 233.864 974.147 233.864ZM977.42 239.114L977.403 237.869H977.608L980.472 234.955H981.716L978.665 238.04H978.58L977.42 239.114ZM976.483 241.5V232.773H977.489V241.5H976.483ZM980.642 241.5L978.085 238.261L978.801 237.562L981.92 241.5H980.642ZM985.485 241.636C984.854 241.636 984.31 241.497 983.853 241.219C983.398 240.938 983.048 240.545 982.8 240.043C982.556 239.537 982.434 238.949 982.434 238.278C982.434 237.608 982.556 237.017 982.8 236.506C983.048 235.991 983.391 235.591 983.832 235.304C984.275 235.014 984.792 234.869 985.383 234.869C985.724 234.869 986.06 234.926 986.393 235.04C986.725 235.153 987.028 235.338 987.3 235.594C987.573 235.847 987.79 236.182 987.952 236.599C988.114 237.017 988.195 237.531 988.195 238.142V238.568H983.15V237.699H987.173C987.173 237.33 987.099 237 986.951 236.71C986.806 236.42 986.599 236.192 986.329 236.024C986.062 235.857 985.746 235.773 985.383 235.773C984.982 235.773 984.636 235.872 984.343 236.071C984.053 236.267 983.83 236.523 983.674 236.838C983.518 237.153 983.44 237.491 983.44 237.852V238.432C983.44 238.926 983.525 239.345 983.695 239.689C983.869 240.03 984.109 240.29 984.415 240.469C984.722 240.645 985.079 240.733 985.485 240.733C985.749 240.733 985.988 240.696 986.201 240.622C986.417 240.545 986.603 240.432 986.759 240.281C986.915 240.128 987.036 239.937 987.121 239.71L988.093 239.983C987.991 240.312 987.819 240.602 987.577 240.852C987.336 241.099 987.038 241.293 986.683 241.432C986.327 241.568 985.928 241.636 985.485 241.636ZM995.947 234.955V235.807H992.555V234.955H995.947ZM993.543 233.386H994.549V239.625C994.549 239.909 994.59 240.122 994.673 240.264C994.758 240.403 994.866 240.497 994.996 240.545C995.13 240.591 995.271 240.614 995.418 240.614C995.529 240.614 995.62 240.608 995.691 240.597C995.762 240.582 995.819 240.571 995.862 240.562L996.066 241.466C995.998 241.491 995.903 241.517 995.781 241.543C995.658 241.571 995.504 241.585 995.316 241.585C995.032 241.585 994.754 241.524 994.481 241.402C994.211 241.28 993.987 241.094 993.808 240.844C993.631 240.594 993.543 240.278 993.543 239.898V233.386ZM1000.05 241.636C999.457 241.636 998.939 241.496 998.493 241.214C998.05 240.933 997.703 240.54 997.453 240.034C997.206 239.528 997.082 238.937 997.082 238.261C997.082 237.58 997.206 236.984 997.453 236.476C997.703 235.967 998.05 235.572 998.493 235.291C998.939 235.01 999.457 234.869 1000.05 234.869C1000.64 234.869 1001.16 235.01 1001.6 235.291C1002.05 235.572 1002.39 235.967 1002.64 236.476C1002.89 236.984 1003.01 237.58 1003.01 238.261C1003.01 238.937 1002.89 239.528 1002.64 240.034C1002.39 240.54 1002.05 240.933 1001.6 241.214C1001.16 241.496 1000.64 241.636 1000.05 241.636ZM1000.05 240.733C1000.5 240.733 1000.87 240.618 1001.16 240.388C1001.45 240.158 1001.66 239.855 1001.8 239.48C1001.94 239.105 1002.01 238.699 1002.01 238.261C1002.01 237.824 1001.94 237.416 1001.8 237.038C1001.66 236.661 1001.45 236.355 1001.16 236.122C1000.87 235.889 1000.5 235.773 1000.05 235.773C999.599 235.773 999.23 235.889 998.94 236.122C998.651 236.355 998.436 236.661 998.297 237.038C998.158 237.416 998.088 237.824 998.088 238.261C998.088 238.699 998.158 239.105 998.297 239.48C998.436 239.855 998.651 240.158 998.94 240.388C999.23 240.618 999.599 240.733 1000.05 240.733ZM1010.57 244.091C1010.08 244.091 1009.66 244.028 1009.31 243.903C1008.96 243.781 1008.67 243.619 1008.44 243.418C1008.21 243.219 1008.03 243.006 1007.89 242.778L1008.69 242.216C1008.78 242.335 1008.9 242.472 1009.04 242.625C1009.18 242.781 1009.37 242.916 1009.61 243.03C1009.85 243.146 1010.17 243.205 1010.57 243.205C1011.09 243.205 1011.53 243.077 1011.87 242.821C1012.22 242.565 1012.39 242.165 1012.39 241.619V240.29H1012.31C1012.23 240.409 1012.13 240.557 1011.99 240.733C1011.86 240.906 1011.66 241.061 1011.41 241.197C1011.16 241.331 1010.82 241.398 1010.4 241.398C1009.87 241.398 1009.39 241.273 1008.97 241.023C1008.56 240.773 1008.22 240.409 1007.98 239.932C1007.74 239.455 1007.62 238.875 1007.62 238.193C1007.62 237.523 1007.74 236.939 1007.97 236.442C1008.21 235.942 1008.54 235.555 1008.96 235.283C1009.38 235.007 1009.86 234.869 1010.41 234.869C1010.84 234.869 1011.18 234.94 1011.43 235.082C1011.68 235.222 1011.87 235.381 1012.01 235.56C1012.14 235.736 1012.25 235.881 1012.32 235.994H1012.42V234.955H1013.4V241.688C1013.4 242.25 1013.27 242.707 1013.01 243.06C1012.76 243.415 1012.42 243.675 1011.99 243.839C1011.56 244.007 1011.09 244.091 1010.57 244.091ZM1010.53 240.494C1010.94 240.494 1011.28 240.402 1011.56 240.217C1011.83 240.033 1012.05 239.767 1012.19 239.42C1012.33 239.074 1012.41 238.659 1012.41 238.176C1012.41 237.705 1012.34 237.288 1012.19 236.928C1012.05 236.567 1011.84 236.284 1011.56 236.08C1011.29 235.875 1010.94 235.773 1010.53 235.773C1010.11 235.773 1009.75 235.881 1009.47 236.097C1009.19 236.312 1008.97 236.602 1008.83 236.966C1008.69 237.33 1008.62 237.733 1008.62 238.176C1008.62 238.631 1008.69 239.033 1008.84 239.382C1008.98 239.729 1009.19 240.001 1009.48 240.2C1009.76 240.396 1010.11 240.494 1010.53 240.494ZM1017.98 241.636C1017.35 241.636 1016.81 241.497 1016.35 241.219C1015.89 240.938 1015.54 240.545 1015.3 240.043C1015.05 239.537 1014.93 238.949 1014.93 238.278C1014.93 237.608 1015.05 237.017 1015.3 236.506C1015.54 235.991 1015.89 235.591 1016.33 235.304C1016.77 235.014 1017.29 234.869 1017.88 234.869C1018.22 234.869 1018.56 234.926 1018.89 235.04C1019.22 235.153 1019.52 235.338 1019.8 235.594C1020.07 235.847 1020.29 236.182 1020.45 236.599C1020.61 237.017 1020.69 237.531 1020.69 238.142V238.568H1015.65V237.699H1019.67C1019.67 237.33 1019.59 237 1019.45 236.71C1019.3 236.42 1019.09 236.192 1018.82 236.024C1018.56 235.857 1018.24 235.773 1017.88 235.773C1017.48 235.773 1017.13 235.872 1016.84 236.071C1016.55 236.267 1016.33 236.523 1016.17 236.838C1016.01 237.153 1015.94 237.491 1015.94 237.852V238.432C1015.94 238.926 1016.02 239.345 1016.19 239.689C1016.36 240.03 1016.6 240.29 1016.91 240.469C1017.22 240.645 1017.57 240.733 1017.98 240.733C1018.25 240.733 1018.48 240.696 1018.7 240.622C1018.91 240.545 1019.1 240.432 1019.26 240.281C1019.41 240.128 1019.53 239.937 1019.62 239.71L1020.59 239.983C1020.49 240.312 1020.31 240.602 1020.07 240.852C1019.83 241.099 1019.53 241.293 1019.18 241.432C1018.82 241.568 1018.42 241.636 1017.98 241.636ZM1023.23 237.562V241.5H1022.22V234.955H1023.19V235.977H1023.28C1023.43 235.645 1023.66 235.378 1023.98 235.176C1024.29 234.972 1024.69 234.869 1025.19 234.869C1025.63 234.869 1026.02 234.96 1026.35 235.142C1026.68 235.321 1026.94 235.594 1027.13 235.96C1027.31 236.324 1027.4 236.784 1027.4 237.341V241.5H1026.4V237.409C1026.4 236.895 1026.26 236.494 1026 236.207C1025.73 235.918 1025.36 235.773 1024.9 235.773C1024.58 235.773 1024.29 235.842 1024.04 235.982C1023.79 236.121 1023.59 236.324 1023.44 236.591C1023.3 236.858 1023.23 237.182 1023.23 237.562ZM1031.99 241.636C1031.35 241.636 1030.81 241.497 1030.35 241.219C1029.9 240.938 1029.55 240.545 1029.3 240.043C1029.06 239.537 1028.93 238.949 1028.93 238.278C1028.93 237.608 1029.06 237.017 1029.3 236.506C1029.55 235.991 1029.89 235.591 1030.33 235.304C1030.77 235.014 1031.29 234.869 1031.88 234.869C1032.22 234.869 1032.56 234.926 1032.89 235.04C1033.23 235.153 1033.53 235.338 1033.8 235.594C1034.07 235.847 1034.29 236.182 1034.45 236.599C1034.61 237.017 1034.7 237.531 1034.7 238.142V238.568H1029.65V237.699H1033.67C1033.67 237.33 1033.6 237 1033.45 236.71C1033.31 236.42 1033.1 236.192 1032.83 236.024C1032.56 235.857 1032.25 235.773 1031.88 235.773C1031.48 235.773 1031.14 235.872 1030.84 236.071C1030.55 236.267 1030.33 236.523 1030.17 236.838C1030.02 237.153 1029.94 237.491 1029.94 237.852V238.432C1029.94 238.926 1030.02 239.345 1030.2 239.689C1030.37 240.03 1030.61 240.29 1030.92 240.469C1031.22 240.645 1031.58 240.733 1031.99 240.733C1032.25 240.733 1032.49 240.696 1032.7 240.622C1032.92 240.545 1033.1 240.432 1033.26 240.281C1033.42 240.128 1033.54 239.937 1033.62 239.71L1034.59 239.983C1034.49 240.312 1034.32 240.602 1034.08 240.852C1033.84 241.099 1033.54 241.293 1033.18 241.432C1032.83 241.568 1032.43 241.636 1031.99 241.636ZM1036.23 241.5V234.955H1037.2V235.943H1037.26C1037.38 235.619 1037.6 235.357 1037.91 235.155C1038.23 234.953 1038.58 234.852 1038.97 234.852C1039.04 234.852 1039.14 234.854 1039.25 234.857C1039.36 234.859 1039.44 234.864 1039.5 234.869V235.892C1039.46 235.884 1039.39 235.871 1039.26 235.854C1039.14 235.834 1039.02 235.824 1038.88 235.824C1038.57 235.824 1038.28 235.891 1038.03 236.024C1037.78 236.155 1037.59 236.337 1037.44 236.57C1037.3 236.8 1037.23 237.062 1037.23 237.358V241.5H1036.23ZM1042.62 241.653C1042.2 241.653 1041.82 241.575 1041.49 241.419C1041.15 241.26 1040.88 241.031 1040.68 240.733C1040.48 240.432 1040.38 240.068 1040.38 239.642C1040.38 239.267 1040.46 238.963 1040.6 238.73C1040.75 238.494 1040.95 238.31 1041.2 238.176C1041.44 238.043 1041.72 237.943 1042.02 237.878C1042.32 237.81 1042.62 237.756 1042.92 237.716C1043.32 237.665 1043.64 237.626 1043.89 237.601C1044.14 237.572 1044.32 237.526 1044.44 237.46C1044.55 237.395 1044.61 237.281 1044.61 237.119V237.085C1044.61 236.665 1044.5 236.338 1044.27 236.105C1044.04 235.872 1043.69 235.756 1043.23 235.756C1042.75 235.756 1042.37 235.861 1042.1 236.071C1041.83 236.281 1041.64 236.506 1041.53 236.744L1040.57 236.403C1040.74 236.006 1040.97 235.696 1041.25 235.474C1041.54 235.25 1041.85 235.094 1042.19 235.006C1042.53 234.915 1042.87 234.869 1043.2 234.869C1043.41 234.869 1043.65 234.895 1043.92 234.946C1044.2 234.994 1044.46 235.095 1044.72 235.249C1044.98 235.402 1045.19 235.634 1045.36 235.943C1045.53 236.253 1045.62 236.668 1045.62 237.188V241.5H1044.61V240.614H1044.56C1044.49 240.756 1044.38 240.908 1044.22 241.07C1044.06 241.232 1043.85 241.369 1043.58 241.483C1043.32 241.597 1043 241.653 1042.62 241.653ZM1042.77 240.75C1043.17 240.75 1043.5 240.672 1043.78 240.516C1044.05 240.359 1044.26 240.158 1044.4 239.911C1044.54 239.663 1044.61 239.403 1044.61 239.131V238.21C1044.57 238.261 1044.47 238.308 1044.33 238.351C1044.19 238.391 1044.02 238.426 1043.83 238.457C1043.65 238.486 1043.47 238.511 1043.29 238.534C1043.12 238.554 1042.98 238.571 1042.87 238.585C1042.61 238.619 1042.37 238.675 1042.14 238.751C1041.91 238.825 1041.73 238.937 1041.59 239.088C1041.46 239.236 1041.39 239.437 1041.39 239.693C1041.39 240.043 1041.52 240.307 1041.78 240.486C1042.04 240.662 1042.37 240.75 1042.77 240.75ZM1050.3 234.955V235.807H1046.91V234.955H1050.3ZM1047.89 233.386H1048.9V239.625C1048.9 239.909 1048.94 240.122 1049.02 240.264C1049.11 240.403 1049.22 240.497 1049.35 240.545C1049.48 240.591 1049.62 240.614 1049.77 240.614C1049.88 240.614 1049.97 240.608 1050.04 240.597C1050.11 240.582 1050.17 240.571 1050.21 240.562L1050.42 241.466C1050.35 241.491 1050.25 241.517 1050.13 241.543C1050.01 241.571 1049.86 241.585 1049.67 241.585C1049.38 241.585 1049.11 241.524 1048.83 241.402C1048.56 241.28 1048.34 241.094 1048.16 240.844C1047.98 240.594 1047.89 240.278 1047.89 239.898V233.386ZM1054.49 241.636C1053.85 241.636 1053.31 241.497 1052.85 241.219C1052.4 240.938 1052.05 240.545 1051.8 240.043C1051.56 239.537 1051.43 238.949 1051.43 238.278C1051.43 237.608 1051.56 237.017 1051.8 236.506C1052.05 235.991 1052.39 235.591 1052.83 235.304C1053.27 235.014 1053.79 234.869 1054.38 234.869C1054.72 234.869 1055.06 234.926 1055.39 235.04C1055.73 235.153 1056.03 235.338 1056.3 235.594C1056.57 235.847 1056.79 236.182 1056.95 236.599C1057.11 237.017 1057.2 237.531 1057.2 238.142V238.568H1052.15V237.699H1056.17C1056.17 237.33 1056.1 237 1055.95 236.71C1055.81 236.42 1055.6 236.192 1055.33 236.024C1055.06 235.857 1054.75 235.773 1054.38 235.773C1053.98 235.773 1053.64 235.872 1053.34 236.071C1053.05 236.267 1052.83 236.523 1052.67 236.838C1052.52 237.153 1052.44 237.491 1052.44 237.852V238.432C1052.44 238.926 1052.52 239.345 1052.7 239.689C1052.87 240.03 1053.11 240.29 1053.42 240.469C1053.72 240.645 1054.08 240.733 1054.49 240.733C1054.75 240.733 1054.99 240.696 1055.2 240.622C1055.42 240.545 1055.6 240.432 1055.76 240.281C1055.92 240.128 1056.04 239.937 1056.12 239.71L1057.09 239.983C1056.99 240.312 1056.82 240.602 1056.58 240.852C1056.34 241.099 1056.04 241.293 1055.68 241.432C1055.33 241.568 1054.93 241.636 1054.49 241.636ZM1064.95 234.955V235.807H1061.55V234.955H1064.95ZM1062.54 233.386H1063.55V239.625C1063.55 239.909 1063.59 240.122 1063.67 240.264C1063.76 240.403 1063.87 240.497 1064 240.545C1064.13 240.591 1064.27 240.614 1064.42 240.614C1064.53 240.614 1064.62 240.608 1064.69 240.597C1064.76 240.582 1064.82 240.571 1064.86 240.562L1065.07 241.466C1065 241.491 1064.9 241.517 1064.78 241.543C1064.66 241.571 1064.5 241.585 1064.32 241.585C1064.03 241.585 1063.75 241.524 1063.48 241.402C1063.21 241.28 1062.99 241.094 1062.81 240.844C1062.63 240.594 1062.54 240.278 1062.54 239.898V233.386ZM1069.05 241.636C1068.46 241.636 1067.94 241.496 1067.49 241.214C1067.05 240.933 1066.7 240.54 1066.45 240.034C1066.21 239.528 1066.08 238.937 1066.08 238.261C1066.08 237.58 1066.21 236.984 1066.45 236.476C1066.7 235.967 1067.05 235.572 1067.49 235.291C1067.94 235.01 1068.46 234.869 1069.05 234.869C1069.64 234.869 1070.16 235.01 1070.6 235.291C1071.05 235.572 1071.39 235.967 1071.64 236.476C1071.89 236.984 1072.01 237.58 1072.01 238.261C1072.01 238.937 1071.89 239.528 1071.64 240.034C1071.39 240.54 1071.05 240.933 1070.6 241.214C1070.16 241.496 1069.64 241.636 1069.05 241.636ZM1069.05 240.733C1069.5 240.733 1069.87 240.618 1070.16 240.388C1070.45 240.158 1070.66 239.855 1070.8 239.48C1070.94 239.105 1071.01 238.699 1071.01 238.261C1071.01 237.824 1070.94 237.416 1070.8 237.038C1070.66 236.661 1070.45 236.355 1070.16 236.122C1069.87 235.889 1069.5 235.773 1069.05 235.773C1068.6 235.773 1068.23 235.889 1067.94 236.122C1067.65 236.355 1067.44 236.661 1067.3 237.038C1067.16 237.416 1067.09 237.824 1067.09 238.261C1067.09 238.699 1067.16 239.105 1067.3 239.48C1067.44 239.855 1067.65 240.158 1067.94 240.388C1068.23 240.618 1068.6 240.733 1069.05 240.733ZM1076.02 241.636C1075.48 241.636 1074.99 241.499 1074.58 241.223C1074.16 240.945 1073.83 240.553 1073.6 240.047C1073.36 239.538 1073.24 238.938 1073.24 238.244C1073.24 237.557 1073.36 236.96 1073.6 236.455C1073.83 235.949 1074.16 235.558 1074.58 235.283C1075 235.007 1075.49 234.869 1076.04 234.869C1076.46 234.869 1076.8 234.94 1077.05 235.082C1077.3 235.222 1077.49 235.381 1077.62 235.56C1077.75 235.736 1077.86 235.881 1077.93 235.994H1078.02V232.773H1079.02V241.5H1078.05V240.494H1077.93C1077.86 240.614 1077.75 240.764 1077.61 240.946C1077.48 241.125 1077.28 241.286 1077.03 241.428C1076.78 241.567 1076.44 241.636 1076.02 241.636ZM1076.16 240.733C1076.56 240.733 1076.9 240.628 1077.18 240.418C1077.46 240.205 1077.67 239.911 1077.81 239.536C1077.96 239.158 1078.03 238.722 1078.03 238.227C1078.03 237.739 1077.96 237.311 1077.82 236.945C1077.68 236.575 1077.47 236.288 1077.19 236.084C1076.91 235.876 1076.57 235.773 1076.16 235.773C1075.73 235.773 1075.38 235.882 1075.09 236.101C1074.81 236.317 1074.6 236.611 1074.46 236.983C1074.32 237.352 1074.25 237.767 1074.25 238.227C1074.25 238.693 1074.32 239.116 1074.46 239.497C1074.61 239.875 1074.82 240.176 1075.1 240.401C1075.38 240.622 1075.74 240.733 1076.16 240.733ZM1082.93 241.653C1082.51 241.653 1082.14 241.575 1081.8 241.419C1081.46 241.26 1081.19 241.031 1080.99 240.733C1080.8 240.432 1080.7 240.068 1080.7 239.642C1080.7 239.267 1080.77 238.963 1080.92 238.73C1081.06 238.494 1081.26 238.31 1081.51 238.176C1081.76 238.043 1082.03 237.943 1082.33 237.878C1082.63 237.81 1082.93 237.756 1083.24 237.716C1083.63 237.665 1083.96 237.626 1084.2 237.601C1084.45 237.572 1084.63 237.526 1084.75 237.46C1084.86 237.395 1084.92 237.281 1084.92 237.119V237.085C1084.92 236.665 1084.81 236.338 1084.58 236.105C1084.35 235.872 1084.01 235.756 1083.54 235.756C1083.06 235.756 1082.69 235.861 1082.41 236.071C1082.14 236.281 1081.95 236.506 1081.84 236.744L1080.88 236.403C1081.05 236.006 1081.28 235.696 1081.56 235.474C1081.85 235.25 1082.16 235.094 1082.5 235.006C1082.84 234.915 1083.18 234.869 1083.51 234.869C1083.72 234.869 1083.96 234.895 1084.23 234.946C1084.51 234.994 1084.77 235.095 1085.03 235.249C1085.29 235.402 1085.5 235.634 1085.67 235.943C1085.84 236.253 1085.93 236.668 1085.93 237.188V241.5H1084.92V240.614H1084.87C1084.8 240.756 1084.69 240.908 1084.53 241.07C1084.37 241.232 1084.16 241.369 1083.9 241.483C1083.63 241.597 1083.31 241.653 1082.93 241.653ZM1083.08 240.75C1083.48 240.75 1083.81 240.672 1084.09 240.516C1084.36 240.359 1084.57 240.158 1084.71 239.911C1084.85 239.663 1084.92 239.403 1084.92 239.131V238.21C1084.88 238.261 1084.79 238.308 1084.64 238.351C1084.5 238.391 1084.33 238.426 1084.15 238.457C1083.96 238.486 1083.78 238.511 1083.61 238.534C1083.43 238.554 1083.29 238.571 1083.18 238.585C1082.92 238.619 1082.68 238.675 1082.45 238.751C1082.23 238.825 1082.05 238.937 1081.91 239.088C1081.77 239.236 1081.7 239.437 1081.7 239.693C1081.7 240.043 1081.83 240.307 1082.09 240.486C1082.35 240.662 1082.68 240.75 1083.08 240.75ZM1088.18 243.955C1088.01 243.955 1087.86 243.94 1087.72 243.912C1087.59 243.886 1087.5 243.861 1087.44 243.835L1087.7 242.949C1087.94 243.011 1088.16 243.034 1088.35 243.017C1088.54 243 1088.7 242.916 1088.85 242.766C1088.99 242.618 1089.13 242.378 1089.25 242.045L1089.44 241.534L1087.02 234.955H1088.11L1089.92 240.17H1089.98L1091.79 234.955H1092.88L1090.1 242.455C1089.98 242.793 1089.82 243.072 1089.64 243.294C1089.45 243.518 1089.24 243.685 1089 243.793C1088.75 243.901 1088.48 243.955 1088.18 243.955ZM1095.52 239.045V238.994C1095.53 238.452 1095.58 238.02 1095.69 237.699C1095.8 237.378 1095.95 237.118 1096.15 236.919C1096.35 236.72 1096.59 236.537 1096.87 236.369C1097.04 236.267 1097.19 236.146 1097.32 236.007C1097.45 235.865 1097.56 235.702 1097.64 235.517C1097.72 235.332 1097.75 235.128 1097.75 234.903C1097.75 234.625 1097.69 234.384 1097.56 234.179C1097.43 233.974 1097.25 233.817 1097.03 233.706C1096.82 233.595 1096.57 233.54 1096.31 233.54C1096.07 233.54 1095.85 233.588 1095.63 233.685C1095.42 233.781 1095.24 233.933 1095.09 234.141C1094.95 234.348 1094.86 234.619 1094.84 234.955H1093.77C1093.79 234.472 1093.91 234.058 1094.14 233.714C1094.37 233.371 1094.67 233.108 1095.05 232.926C1095.43 232.744 1095.85 232.653 1096.31 232.653C1096.81 232.653 1097.24 232.753 1097.61 232.952C1097.98 233.151 1098.27 233.423 1098.47 233.77C1098.68 234.116 1098.78 234.511 1098.78 234.955C1098.78 235.267 1098.73 235.55 1098.63 235.803C1098.54 236.055 1098.4 236.281 1098.22 236.48C1098.05 236.679 1097.83 236.855 1097.58 237.009C1097.33 237.165 1097.13 237.33 1096.98 237.503C1096.83 237.673 1096.72 237.876 1096.66 238.112C1096.59 238.348 1096.55 238.642 1096.54 238.994V239.045H1095.52ZM1096.07 241.568C1095.86 241.568 1095.68 241.493 1095.53 241.342C1095.38 241.192 1095.3 241.011 1095.3 240.801C1095.3 240.591 1095.38 240.411 1095.53 240.26C1095.68 240.109 1095.86 240.034 1096.07 240.034C1096.28 240.034 1096.46 240.109 1096.61 240.26C1096.76 240.411 1096.83 240.591 1096.83 240.801C1096.83 240.94 1096.8 241.068 1096.73 241.185C1096.66 241.301 1096.57 241.395 1096.45 241.466C1096.34 241.534 1096.21 241.568 1096.07 241.568Z" fill="white"/>
<mask id="path-5-inside-1_465_4182" fill="white">
<path d="M875.602 264C875.602 259.582 879.183 256 883.602 256H953.602C958.02 256 961.602 259.582 961.602 264V304C961.602 308.418 958.02 312 953.602 312H883.602C879.183 312 875.602 308.418 875.602 304V264Z"/>
</mask>
<path d="M875.602 264C875.602 259.582 879.183 256 883.602 256H953.602C958.02 256 961.602 259.582 961.602 264V304C961.602 308.418 958.02 312 953.602 312H883.602C879.183 312 875.602 308.418 875.602 304V264Z" fill="#70C62D" fill-opacity="0.2"/>
<path d="M883.602 256V257H953.602V256V255H883.602V256ZM961.602 264H960.602V304H961.602H962.602V264H961.602ZM953.602 312V311H883.602V312V313H953.602V312ZM875.602 304H876.602V264H875.602H874.602V304H875.602ZM883.602 312V311C879.736 311 876.602 307.866 876.602 304H875.602H874.602C874.602 308.971 878.631 313 883.602 313V312ZM961.602 304H960.602C960.602 307.866 957.468 311 953.602 311V312V313C958.572 313 962.602 308.971 962.602 304H961.602ZM953.602 256V257C957.468 257 960.602 260.134 960.602 264H961.602H962.602C962.602 259.029 958.572 255 953.602 255V256ZM883.602 256V255C878.631 255 874.602 259.029 874.602 264H875.602H876.602C876.602 260.134 879.736 257 883.602 257V256Z" fill="#70C62D" mask="url(#path-5-inside-1_465_4182)"/>
<path d="M888.535 276.383H896.685L894.235 273.117L892.035 275.967L890.485 273.85L888.535 276.383ZM886.602 279V267H898.602V279H886.602ZM887.602 278H897.602V268H887.602V278Z" fill="#C7C7C7"/>
<path d="M886.748 289.773V298.5H885.692V289.773H886.748ZM888.731 298.5V291.955H889.703V292.977H889.788C889.924 292.628 890.144 292.357 890.448 292.163C890.752 291.967 891.117 291.869 891.544 291.869C891.975 291.869 892.335 291.967 892.622 292.163C892.911 292.357 893.137 292.628 893.299 292.977H893.367C893.535 292.639 893.786 292.371 894.122 292.172C894.457 291.97 894.859 291.869 895.328 291.869C895.913 291.869 896.392 292.053 896.764 292.419C897.136 292.783 897.322 293.349 897.322 294.119V298.5H896.316V294.119C896.316 293.636 896.184 293.291 895.92 293.084C895.656 292.876 895.345 292.773 894.987 292.773C894.526 292.773 894.17 292.912 893.917 293.19C893.664 293.466 893.538 293.815 893.538 294.239V298.5H892.515V294.017C892.515 293.645 892.394 293.345 892.153 293.118C891.911 292.888 891.6 292.773 891.22 292.773C890.958 292.773 890.714 292.842 890.487 292.982C890.262 293.121 890.08 293.314 889.941 293.561C889.805 293.805 889.737 294.088 889.737 294.409V298.5H888.731ZM901.087 298.653C900.672 298.653 900.296 298.575 899.958 298.419C899.619 298.26 899.351 298.031 899.152 297.733C898.953 297.432 898.854 297.068 898.854 296.642C898.854 296.267 898.928 295.963 899.075 295.73C899.223 295.494 899.421 295.31 899.668 295.176C899.915 295.043 900.188 294.943 900.486 294.878C900.787 294.81 901.09 294.756 901.394 294.716C901.791 294.665 902.114 294.626 902.361 294.601C902.611 294.572 902.793 294.526 902.906 294.46C903.023 294.395 903.081 294.281 903.081 294.119V294.085C903.081 293.665 902.966 293.338 902.736 293.105C902.509 292.872 902.164 292.756 901.7 292.756C901.22 292.756 900.844 292.861 900.571 293.071C900.298 293.281 900.107 293.506 899.996 293.744L899.041 293.403C899.212 293.006 899.439 292.696 899.723 292.474C900.01 292.25 900.323 292.094 900.661 292.006C901.002 291.915 901.337 291.869 901.666 291.869C901.877 291.869 902.118 291.895 902.391 291.946C902.666 291.994 902.932 292.095 903.188 292.249C903.446 292.402 903.661 292.634 903.831 292.943C904.002 293.253 904.087 293.668 904.087 294.188V298.5H903.081V297.614H903.03C902.962 297.756 902.848 297.908 902.689 298.07C902.53 298.232 902.318 298.369 902.054 298.483C901.79 298.597 901.468 298.653 901.087 298.653ZM901.24 297.75C901.638 297.75 901.973 297.672 902.246 297.516C902.521 297.359 902.729 297.158 902.868 296.911C903.01 296.663 903.081 296.403 903.081 296.131V295.21C903.039 295.261 902.945 295.308 902.8 295.351C902.658 295.391 902.493 295.426 902.306 295.457C902.121 295.486 901.941 295.511 901.764 295.534C901.591 295.554 901.45 295.571 901.343 295.585C901.081 295.619 900.837 295.675 900.61 295.751C900.385 295.825 900.203 295.937 900.064 296.088C899.928 296.236 899.86 296.437 899.86 296.693C899.86 297.043 899.989 297.307 900.247 297.486C900.509 297.662 900.84 297.75 901.24 297.75ZM908.564 301.091C908.079 301.091 907.661 301.028 907.312 300.903C906.962 300.781 906.671 300.619 906.438 300.418C906.208 300.219 906.025 300.006 905.888 299.778L906.689 299.216C906.78 299.335 906.895 299.472 907.035 299.625C907.174 299.781 907.364 299.916 907.606 300.03C907.85 300.146 908.17 300.205 908.564 300.205C909.093 300.205 909.529 300.077 909.873 299.821C910.216 299.565 910.388 299.165 910.388 298.619V297.29H910.303C910.229 297.409 910.124 297.557 909.988 297.733C909.854 297.906 909.661 298.061 909.408 298.197C909.158 298.331 908.82 298.398 908.394 298.398C907.866 298.398 907.391 298.273 906.971 298.023C906.553 297.773 906.222 297.409 905.978 296.932C905.736 296.455 905.616 295.875 905.616 295.193C905.616 294.523 905.733 293.939 905.969 293.442C906.205 292.942 906.533 292.555 906.954 292.283C907.374 292.007 907.86 291.869 908.411 291.869C908.837 291.869 909.175 291.94 909.425 292.082C909.678 292.222 909.871 292.381 910.005 292.56C910.141 292.736 910.246 292.881 910.32 292.994H910.422V291.955H911.394V298.688C911.394 299.25 911.266 299.707 911.01 300.06C910.758 300.415 910.417 300.675 909.988 300.839C909.562 301.007 909.087 301.091 908.564 301.091ZM908.53 297.494C908.934 297.494 909.275 297.402 909.553 297.217C909.831 297.033 910.043 296.767 910.188 296.42C910.333 296.074 910.405 295.659 910.405 295.176C910.405 294.705 910.334 294.288 910.192 293.928C910.05 293.567 909.84 293.284 909.562 293.08C909.283 292.875 908.939 292.773 908.53 292.773C908.104 292.773 907.749 292.881 907.465 293.097C907.184 293.312 906.972 293.602 906.83 293.966C906.691 294.33 906.621 294.733 906.621 295.176C906.621 295.631 906.692 296.033 906.834 296.382C906.979 296.729 907.192 297.001 907.474 297.2C907.758 297.396 908.11 297.494 908.53 297.494ZM915.979 298.636C915.349 298.636 914.805 298.497 914.347 298.219C913.893 297.938 913.542 297.545 913.295 297.043C913.05 296.537 912.928 295.949 912.928 295.278C912.928 294.608 913.05 294.017 913.295 293.506C913.542 292.991 913.885 292.591 914.326 292.304C914.769 292.014 915.286 291.869 915.877 291.869C916.218 291.869 916.555 291.926 916.887 292.04C917.219 292.153 917.522 292.338 917.795 292.594C918.067 292.847 918.285 293.182 918.447 293.599C918.608 294.017 918.689 294.531 918.689 295.142V295.568H913.644V294.699H917.667C917.667 294.33 917.593 294 917.445 293.71C917.3 293.42 917.093 293.192 916.823 293.024C916.556 292.857 916.241 292.773 915.877 292.773C915.476 292.773 915.13 292.872 914.837 293.071C914.547 293.267 914.324 293.523 914.168 293.838C914.012 294.153 913.934 294.491 913.934 294.852V295.432C913.934 295.926 914.019 296.345 914.189 296.689C914.363 297.03 914.603 297.29 914.91 297.469C915.216 297.645 915.573 297.733 915.979 297.733C916.243 297.733 916.482 297.696 916.695 297.622C916.911 297.545 917.097 297.432 917.253 297.281C917.41 297.128 917.53 296.937 917.616 296.71L918.587 296.983C918.485 297.312 918.313 297.602 918.072 297.852C917.83 298.099 917.532 298.293 917.177 298.432C916.822 298.568 916.422 298.636 915.979 298.636ZM924.856 293.42L923.952 293.676C923.895 293.526 923.812 293.379 923.701 293.237C923.593 293.092 923.445 292.973 923.258 292.879C923.07 292.786 922.83 292.739 922.537 292.739C922.137 292.739 921.803 292.831 921.536 293.016C921.272 293.197 921.14 293.429 921.14 293.71C921.14 293.96 921.231 294.158 921.412 294.303C921.594 294.447 921.878 294.568 922.265 294.665L923.236 294.903C923.822 295.045 924.258 295.263 924.545 295.555C924.831 295.845 924.975 296.219 924.975 296.676C924.975 297.051 924.867 297.386 924.651 297.682C924.438 297.977 924.14 298.21 923.756 298.381C923.373 298.551 922.927 298.636 922.418 298.636C921.751 298.636 921.198 298.491 920.76 298.202C920.323 297.912 920.046 297.489 919.93 296.932L920.884 296.693C920.975 297.045 921.147 297.31 921.4 297.486C921.655 297.662 921.989 297.75 922.401 297.75C922.87 297.75 923.242 297.651 923.518 297.452C923.796 297.25 923.935 297.009 923.935 296.727C923.935 296.5 923.856 296.31 923.697 296.156C923.537 296 923.293 295.884 922.964 295.807L921.873 295.551C921.273 295.409 920.833 295.189 920.552 294.891C920.273 294.589 920.134 294.213 920.134 293.761C920.134 293.392 920.238 293.065 920.445 292.781C920.655 292.497 920.941 292.274 921.302 292.112C921.665 291.95 922.077 291.869 922.537 291.869C923.185 291.869 923.694 292.011 924.063 292.295C924.435 292.58 924.699 292.955 924.856 293.42Z" fill="#C7C7C7"/>
<mask id="path-9-inside-2_465_4182" fill="white">
<path d="M971.602 264C971.602 259.582 975.183 256 979.602 256H1049.6C1054.02 256 1057.6 259.582 1057.6 264V304C1057.6 308.418 1054.02 312 1049.6 312H979.602C975.183 312 971.602 308.418 971.602 304V264Z"/>
</mask>
<path d="M971.602 264C971.602 259.582 975.183 256 979.602 256H1049.6C1054.02 256 1057.6 259.582 1057.6 264V304C1057.6 308.418 1054.02 312 1049.6 312H979.602C975.183 312 971.602 308.418 971.602 304V264Z" fill="#282828"/>
<path d="M979.602 256V257H1049.6V256V255H979.602V256ZM1057.6 264H1056.6V304H1057.6H1058.6V264H1057.6ZM1049.6 312V311H979.602V312V313H1049.6V312ZM971.602 304H972.602V264H971.602H970.602V304H971.602ZM979.602 312V311C975.736 311 972.602 307.866 972.602 304H971.602H970.602C970.602 308.971 974.631 313 979.602 313V312ZM1057.6 304H1056.6C1056.6 307.866 1053.47 311 1049.6 311V312V313C1054.57 313 1058.6 308.971 1058.6 304H1057.6ZM1049.6 256V257C1053.47 257 1056.6 260.134 1056.6 264H1057.6H1058.6C1058.6 259.029 1054.57 255 1049.6 255V256ZM979.602 256V255C974.631 255 970.602 259.029 970.602 264H971.602H972.602C972.602 260.134 975.736 257 979.602 257V256Z" fill="#C7C7C7" mask="url(#path-9-inside-2_465_4182)"/>
<g clip-path="url(#clip1_465_4182)">
<path d="M981.183 268.573L988.602 265.622L996.021 268.573V277.427L988.602 280.378L981.183 277.427V268.573Z" stroke="#C7C7C7" stroke-width="1.15806"/>
<path d="M981.183 268.573L988.602 271.524L996.021 268.573" stroke="#C7C7C7" stroke-width="1.15806"/>
<path d="M988.602 271.524V280.378" stroke="#C7C7C7" stroke-width="1.15806"/>
</g>
<path d="M984.696 298.619C984.134 298.619 983.632 298.523 983.192 298.33C982.754 298.136 982.406 297.868 982.148 297.524C981.892 297.178 981.753 296.776 981.73 296.318H982.804C982.827 296.599 982.923 296.842 983.094 297.047C983.264 297.249 983.487 297.405 983.763 297.516C984.038 297.626 984.344 297.682 984.679 297.682C985.054 297.682 985.386 297.616 985.676 297.486C985.966 297.355 986.193 297.173 986.358 296.94C986.523 296.707 986.605 296.438 986.605 296.131C986.605 295.81 986.526 295.527 986.366 295.283C986.207 295.036 985.974 294.842 985.668 294.703C985.361 294.564 984.986 294.494 984.543 294.494H983.844V293.557H984.543C984.889 293.557 985.193 293.494 985.455 293.369C985.719 293.244 985.925 293.068 986.072 292.841C986.223 292.614 986.298 292.347 986.298 292.04C986.298 291.744 986.233 291.487 986.102 291.268C985.972 291.05 985.787 290.879 985.548 290.757C985.313 290.635 985.034 290.574 984.713 290.574C984.412 290.574 984.128 290.629 983.861 290.74C983.597 290.848 983.381 291.006 983.213 291.213C983.045 291.418 982.955 291.665 982.94 291.955H981.918C981.935 291.497 982.072 291.097 982.331 290.753C982.589 290.406 982.928 290.136 983.345 289.943C983.766 289.75 984.227 289.653 984.73 289.653C985.27 289.653 985.733 289.763 986.119 289.982C986.506 290.197 986.803 290.483 987.01 290.838C987.217 291.193 987.321 291.577 987.321 291.989C987.321 292.48 987.192 292.899 986.933 293.246C986.678 293.592 986.33 293.832 985.889 293.966V294.034C986.44 294.125 986.871 294.359 987.18 294.737C987.49 295.112 987.645 295.577 987.645 296.131C987.645 296.605 987.516 297.031 987.257 297.409C987.001 297.784 986.652 298.08 986.209 298.295C985.766 298.511 985.261 298.619 984.696 298.619ZM992.234 298.5H989.541V289.773H992.354C993.2 289.773 993.925 289.947 994.527 290.297C995.129 290.643 995.591 291.142 995.912 291.793C996.233 292.44 996.393 293.216 996.393 294.119C996.393 295.028 996.232 295.811 995.908 296.467C995.584 297.121 995.112 297.624 994.493 297.976C993.874 298.325 993.121 298.5 992.234 298.5ZM990.598 297.562H992.166C992.888 297.562 993.486 297.423 993.96 297.145C994.435 296.866 994.788 296.47 995.021 295.956C995.254 295.442 995.371 294.83 995.371 294.119C995.371 293.415 995.256 292.808 995.026 292.3C994.795 291.788 994.452 291.396 993.994 291.124C993.537 290.848 992.967 290.71 992.286 290.71H990.598V297.562ZM1001.4 298.5V291.955H1002.38V292.977H1002.46C1002.6 292.628 1002.82 292.357 1003.12 292.163C1003.43 291.967 1003.79 291.869 1004.22 291.869C1004.65 291.869 1005.01 291.967 1005.3 292.163C1005.59 292.357 1005.81 292.628 1005.97 292.977H1006.04C1006.21 292.639 1006.46 292.371 1006.8 292.172C1007.13 291.97 1007.53 291.869 1008 291.869C1008.59 291.869 1009.07 292.053 1009.44 292.419C1009.81 292.783 1010 293.349 1010 294.119V298.5H1008.99V294.119C1008.99 293.636 1008.86 293.291 1008.59 293.084C1008.33 292.876 1008.02 292.773 1007.66 292.773C1007.2 292.773 1006.84 292.912 1006.59 293.19C1006.34 293.466 1006.21 293.815 1006.21 294.239V298.5H1005.19V294.017C1005.19 293.645 1005.07 293.345 1004.83 293.118C1004.59 292.888 1004.27 292.773 1003.89 292.773C1003.63 292.773 1003.39 292.842 1003.16 292.982C1002.94 293.121 1002.75 293.314 1002.62 293.561C1002.48 293.805 1002.41 294.088 1002.41 294.409V298.5H1001.4ZM1014.49 298.636C1013.9 298.636 1013.38 298.496 1012.94 298.214C1012.5 297.933 1012.15 297.54 1011.9 297.034C1011.65 296.528 1011.53 295.937 1011.53 295.261C1011.53 294.58 1011.65 293.984 1011.9 293.476C1012.15 292.967 1012.5 292.572 1012.94 292.291C1013.38 292.01 1013.9 291.869 1014.49 291.869C1015.08 291.869 1015.6 292.01 1016.04 292.291C1016.49 292.572 1016.84 292.967 1017.08 293.476C1017.33 293.984 1017.46 294.58 1017.46 295.261C1017.46 295.937 1017.33 296.528 1017.08 297.034C1016.84 297.54 1016.49 297.933 1016.04 298.214C1015.6 298.496 1015.08 298.636 1014.49 298.636ZM1014.49 297.733C1014.94 297.733 1015.31 297.618 1015.6 297.388C1015.89 297.158 1016.11 296.855 1016.25 296.48C1016.38 296.105 1016.45 295.699 1016.45 295.261C1016.45 294.824 1016.38 294.416 1016.25 294.038C1016.11 293.661 1015.89 293.355 1015.6 293.122C1015.31 292.889 1014.94 292.773 1014.49 292.773C1014.04 292.773 1013.68 292.889 1013.39 293.122C1013.1 293.355 1012.88 293.661 1012.74 294.038C1012.6 294.416 1012.53 294.824 1012.53 295.261C1012.53 295.699 1012.6 296.105 1012.74 296.48C1012.88 296.855 1013.1 297.158 1013.39 297.388C1013.68 297.618 1014.04 297.733 1014.49 297.733ZM1021.47 298.636C1020.92 298.636 1020.44 298.499 1020.02 298.223C1019.6 297.945 1019.28 297.553 1019.04 297.047C1018.81 296.538 1018.69 295.938 1018.69 295.244C1018.69 294.557 1018.81 293.96 1019.04 293.455C1019.28 292.949 1019.61 292.558 1020.03 292.283C1020.45 292.007 1020.93 291.869 1021.48 291.869C1021.91 291.869 1022.25 291.94 1022.49 292.082C1022.74 292.222 1022.93 292.381 1023.06 292.56C1023.2 292.736 1023.3 292.881 1023.38 292.994H1023.46V289.773H1024.47V298.5H1023.49V297.494H1023.38C1023.3 297.614 1023.2 297.764 1023.06 297.946C1022.92 298.125 1022.73 298.286 1022.48 298.428C1022.22 298.567 1021.89 298.636 1021.47 298.636ZM1021.6 297.733C1022.01 297.733 1022.35 297.628 1022.63 297.418C1022.9 297.205 1023.12 296.911 1023.26 296.536C1023.41 296.158 1023.48 295.722 1023.48 295.227C1023.48 294.739 1023.41 294.311 1023.26 293.945C1023.12 293.575 1022.91 293.288 1022.63 293.084C1022.36 292.876 1022.01 292.773 1021.6 292.773C1021.18 292.773 1020.82 292.882 1020.54 293.101C1020.26 293.317 1020.04 293.611 1019.9 293.983C1019.76 294.352 1019.69 294.767 1019.69 295.227C1019.69 295.693 1019.76 296.116 1019.91 296.497C1020.05 296.875 1020.26 297.176 1020.55 297.401C1020.83 297.622 1021.18 297.733 1021.6 297.733ZM1029.19 298.636C1028.56 298.636 1028.02 298.497 1027.56 298.219C1027.11 297.938 1026.75 297.545 1026.51 297.043C1026.26 296.537 1026.14 295.949 1026.14 295.278C1026.14 294.608 1026.26 294.017 1026.51 293.506C1026.75 292.991 1027.1 292.591 1027.54 292.304C1027.98 292.014 1028.5 291.869 1029.09 291.869C1029.43 291.869 1029.77 291.926 1030.1 292.04C1030.43 292.153 1030.73 292.338 1031.01 292.594C1031.28 292.847 1031.5 293.182 1031.66 293.599C1031.82 294.017 1031.9 294.531 1031.9 295.142V295.568H1026.86V294.699H1030.88C1030.88 294.33 1030.81 294 1030.66 293.71C1030.51 293.42 1030.31 293.192 1030.04 293.024C1029.77 292.857 1029.45 292.773 1029.09 292.773C1028.69 292.773 1028.34 292.872 1028.05 293.071C1027.76 293.267 1027.54 293.523 1027.38 293.838C1027.22 294.153 1027.15 294.491 1027.15 294.852V295.432C1027.15 295.926 1027.23 296.345 1027.4 296.689C1027.58 297.03 1027.82 297.29 1028.12 297.469C1028.43 297.645 1028.79 297.733 1029.19 297.733C1029.46 297.733 1029.69 297.696 1029.91 297.622C1030.12 297.545 1030.31 297.432 1030.47 297.281C1030.62 297.128 1030.74 296.937 1030.83 296.71L1031.8 296.983C1031.7 297.312 1031.53 297.602 1031.28 297.852C1031.04 298.099 1030.74 298.293 1030.39 298.432C1030.03 298.568 1029.64 298.636 1029.19 298.636ZM1034.44 289.773V298.5H1033.43V289.773H1034.44Z" fill="#C7C7C7"/>
<mask id="path-15-inside-3_465_4182" fill="white">
<path d="M1067.6 264C1067.6 259.582 1071.18 256 1075.6 256H1145.6C1150.02 256 1153.6 259.582 1153.6 264V304C1153.6 308.418 1150.02 312 1145.6 312H1075.6C1071.18 312 1067.6 308.418 1067.6 304V264Z"/>
</mask>
<path d="M1067.6 264C1067.6 259.582 1071.18 256 1075.6 256H1145.6C1150.02 256 1153.6 259.582 1153.6 264V304C1153.6 308.418 1150.02 312 1145.6 312H1075.6C1071.18 312 1067.6 308.418 1067.6 304V264Z" fill="#282828"/>
<path d="M1075.6 256V257H1145.6V256V255H1075.6V256ZM1153.6 264H1152.6V304H1153.6H1154.6V264H1153.6ZM1145.6 312V311H1075.6V312V313H1145.6V312ZM1067.6 304H1068.6V264H1067.6H1066.6V304H1067.6ZM1075.6 312V311C1071.74 311 1068.6 307.866 1068.6 304H1067.6H1066.6C1066.6 308.971 1070.63 313 1075.6 313V312ZM1153.6 304H1152.6C1152.6 307.866 1149.47 311 1145.6 311V312V313C1150.57 313 1154.6 308.971 1154.6 304H1153.6ZM1145.6 256V257C1149.47 257 1152.6 260.134 1152.6 264H1153.6H1154.6C1154.6 259.029 1150.57 255 1145.6 255V256ZM1075.6 256V255C1070.63 255 1066.6 259.029 1066.6 264H1067.6H1068.6C1068.6 260.134 1071.74 257 1075.6 257V256Z" fill="#C7C7C7" mask="url(#path-15-inside-3_465_4182)"/>
<path d="M1080.77 278.75L1090.35 269.167L1088.43 267.25L1078.85 276.833L1080.77 278.75Z" stroke="#C7C7C7" stroke-width="0.941176" stroke-linecap="round" stroke-linejoin="round"/>
<path d="M1086.52 269.167L1088.44 271.084" stroke="#C7C7C7" stroke-width="0.941176" stroke-linecap="round" stroke-linejoin="round"/>
<path d="M1082.69 267.25C1082.69 267.589 1082.82 267.914 1083.06 268.154C1083.3 268.393 1083.62 268.528 1083.96 268.528C1083.62 268.528 1083.3 268.662 1083.06 268.902C1082.82 269.142 1082.69 269.467 1082.69 269.806C1082.69 269.638 1082.65 269.472 1082.59 269.317C1082.52 269.162 1082.43 269.021 1082.31 268.902C1082.19 268.783 1082.05 268.689 1081.9 268.625C1081.74 268.561 1081.58 268.528 1081.41 268.528C1081.58 268.528 1081.74 268.495 1081.9 268.431C1082.05 268.366 1082.19 268.272 1082.31 268.154C1082.43 268.035 1082.52 267.894 1082.59 267.739C1082.65 267.584 1082.69 267.418 1082.69 267.25Z" stroke="#C7C7C7" stroke-width="0.941176" stroke-linecap="round" stroke-linejoin="round"/>
<path d="M1089.07 273.639C1089.07 273.978 1089.21 274.303 1089.45 274.542C1089.69 274.782 1090.01 274.916 1090.35 274.916C1090.01 274.916 1089.69 275.051 1089.45 275.291C1089.21 275.53 1089.07 275.855 1089.07 276.194C1089.07 275.855 1088.94 275.53 1088.7 275.291C1088.46 275.051 1088.13 274.916 1087.8 274.916C1088.13 274.916 1088.46 274.782 1088.7 274.542C1088.94 274.303 1089.07 273.978 1089.07 273.639Z" stroke="#C7C7C7" stroke-width="0.941176" stroke-linecap="round" stroke-linejoin="round"/>
<path d="M1080.78 298.619C1080.21 298.619 1079.71 298.523 1079.27 298.33C1078.83 298.136 1078.49 297.868 1078.23 297.524C1077.97 297.178 1077.83 296.776 1077.81 296.318H1078.88C1078.91 296.599 1079 296.842 1079.17 297.047C1079.34 297.249 1079.57 297.405 1079.84 297.516C1080.12 297.626 1080.42 297.682 1080.76 297.682C1081.13 297.682 1081.47 297.616 1081.76 297.486C1082.05 297.355 1082.27 297.173 1082.44 296.94C1082.6 296.707 1082.69 296.438 1082.69 296.131C1082.69 295.81 1082.61 295.527 1082.45 295.283C1082.29 295.036 1082.05 294.842 1081.75 294.703C1081.44 294.564 1081.07 294.494 1080.62 294.494H1079.92V293.557H1080.62C1080.97 293.557 1081.27 293.494 1081.53 293.369C1081.8 293.244 1082 293.068 1082.15 292.841C1082.3 292.614 1082.38 292.347 1082.38 292.04C1082.38 291.744 1082.31 291.487 1082.18 291.268C1082.05 291.05 1081.87 290.879 1081.63 290.757C1081.39 290.635 1081.11 290.574 1080.79 290.574C1080.49 290.574 1080.21 290.629 1079.94 290.74C1079.68 290.848 1079.46 291.006 1079.29 291.213C1079.13 291.418 1079.03 291.665 1079.02 291.955H1078C1078.01 291.497 1078.15 291.097 1078.41 290.753C1078.67 290.406 1079.01 290.136 1079.43 289.943C1079.85 289.75 1080.31 289.653 1080.81 289.653C1081.35 289.653 1081.81 289.763 1082.2 289.982C1082.59 290.197 1082.88 290.483 1083.09 290.838C1083.3 291.193 1083.4 291.577 1083.4 291.989C1083.4 292.48 1083.27 292.899 1083.01 293.246C1082.76 293.592 1082.41 293.832 1081.97 293.966V294.034C1082.52 294.125 1082.95 294.359 1083.26 294.737C1083.57 295.112 1083.72 295.577 1083.72 296.131C1083.72 296.605 1083.6 297.031 1083.34 297.409C1083.08 297.784 1082.73 298.08 1082.29 298.295C1081.85 298.511 1081.34 298.619 1080.78 298.619ZM1088.31 298.5H1085.62V289.773H1088.43C1089.28 289.773 1090 289.947 1090.61 290.297C1091.21 290.643 1091.67 291.142 1091.99 291.793C1092.31 292.44 1092.47 293.216 1092.47 294.119C1092.47 295.028 1092.31 295.811 1091.99 296.467C1091.66 297.121 1091.19 297.624 1090.57 297.976C1089.95 298.325 1089.2 298.5 1088.31 298.5ZM1086.68 297.562H1088.25C1088.97 297.562 1089.57 297.423 1090.04 297.145C1090.51 296.866 1090.87 296.47 1091.1 295.956C1091.33 295.442 1091.45 294.83 1091.45 294.119C1091.45 293.415 1091.34 292.808 1091.11 292.3C1090.88 291.788 1090.53 291.396 1090.07 291.124C1089.62 290.848 1089.05 290.71 1088.37 290.71H1086.68V297.562ZM1100.33 291.955V292.807H1096.94V291.955H1100.33ZM1097.93 290.386H1098.93V296.625C1098.93 296.909 1098.97 297.122 1099.06 297.264C1099.14 297.403 1099.25 297.497 1099.38 297.545C1099.51 297.591 1099.66 297.614 1099.8 297.614C1099.91 297.614 1100 297.608 1100.08 297.597C1100.15 297.582 1100.2 297.571 1100.25 297.562L1100.45 298.466C1100.38 298.491 1100.29 298.517 1100.17 298.543C1100.04 298.571 1099.89 298.585 1099.7 298.585C1099.42 298.585 1099.14 298.524 1098.87 298.402C1098.6 298.28 1098.37 298.094 1098.19 297.844C1098.02 297.594 1097.93 297.278 1097.93 296.898V290.386ZM1104.43 298.636C1103.84 298.636 1103.32 298.496 1102.88 298.214C1102.43 297.933 1102.09 297.54 1101.84 297.034C1101.59 296.528 1101.47 295.937 1101.47 295.261C1101.47 294.58 1101.59 293.984 1101.84 293.476C1102.09 292.967 1102.43 292.572 1102.88 292.291C1103.32 292.01 1103.84 291.869 1104.43 291.869C1105.02 291.869 1105.54 292.01 1105.98 292.291C1106.43 292.572 1106.78 292.967 1107.02 293.476C1107.27 293.984 1107.4 294.58 1107.4 295.261C1107.4 295.937 1107.27 296.528 1107.02 297.034C1106.78 297.54 1106.43 297.933 1105.98 298.214C1105.54 298.496 1105.02 298.636 1104.43 298.636ZM1104.43 297.733C1104.88 297.733 1105.25 297.618 1105.54 297.388C1105.83 297.158 1106.05 296.855 1106.18 296.48C1106.32 296.105 1106.39 295.699 1106.39 295.261C1106.39 294.824 1106.32 294.416 1106.18 294.038C1106.05 293.661 1105.83 293.355 1105.54 293.122C1105.25 292.889 1104.88 292.773 1104.43 292.773C1103.98 292.773 1103.61 292.889 1103.33 293.122C1103.04 293.355 1102.82 293.661 1102.68 294.038C1102.54 294.416 1102.47 294.824 1102.47 295.261C1102.47 295.699 1102.54 296.105 1102.68 296.48C1102.82 296.855 1103.04 297.158 1103.33 297.388C1103.61 297.618 1103.98 297.733 1104.43 297.733ZM1112.29 298.5V297.733L1115.17 294.58C1115.51 294.21 1115.79 293.889 1116.01 293.616C1116.23 293.341 1116.39 293.082 1116.49 292.841C1116.6 292.597 1116.66 292.341 1116.66 292.074C1116.66 291.767 1116.58 291.501 1116.43 291.277C1116.29 291.053 1116.09 290.879 1115.84 290.757C1115.58 290.635 1115.3 290.574 1114.99 290.574C1114.65 290.574 1114.36 290.643 1114.11 290.783C1113.86 290.919 1113.67 291.111 1113.53 291.358C1113.4 291.605 1113.33 291.895 1113.33 292.227H1112.33C1112.33 291.716 1112.44 291.267 1112.68 290.881C1112.92 290.494 1113.24 290.193 1113.64 289.977C1114.05 289.761 1114.51 289.653 1115.02 289.653C1115.53 289.653 1115.98 289.761 1116.38 289.977C1116.77 290.193 1117.08 290.484 1117.31 290.851C1117.53 291.217 1117.64 291.625 1117.64 292.074C1117.64 292.395 1117.59 292.709 1117.47 293.016C1117.36 293.32 1117.16 293.659 1116.87 294.034C1116.59 294.406 1116.2 294.861 1115.7 295.398L1113.74 297.494V297.562H1117.8V298.5H1112.29ZM1122.4 298.5H1119.71V289.773H1122.52C1123.37 289.773 1124.09 289.947 1124.7 290.297C1125.3 290.643 1125.76 291.142 1126.08 291.793C1126.4 292.44 1126.56 293.216 1126.56 294.119C1126.56 295.028 1126.4 295.811 1126.08 296.467C1125.75 297.121 1125.28 297.624 1124.66 297.976C1124.04 298.325 1123.29 298.5 1122.4 298.5ZM1120.77 297.562H1122.34C1123.06 297.562 1123.66 297.423 1124.13 297.145C1124.6 296.866 1124.96 296.47 1125.19 295.956C1125.42 295.442 1125.54 294.83 1125.54 294.119C1125.54 293.415 1125.43 292.808 1125.2 292.3C1124.97 291.788 1124.62 291.396 1124.16 291.124C1123.71 290.848 1123.14 290.71 1122.46 290.71H1120.77V297.562Z" fill="#C7C7C7"/>
</g>
<defs>
<clipPath id="clip0_465_4182">
<rect width="1229" height="832" fill="white"/>
</clipPath>
<clipPath id="clip1_465_4182">
<rect width="16" height="16" fill="white" transform="translate(980.602 265)"/>
</clipPath>
</defs>
</svg>
