<svg width="1229" height="832" viewBox="0 0 1229 832" fill="none" xmlns="http://www.w3.org/2000/svg">
<g clip-path="url(#clip0_465_3312)">
<mask id="path-1-inside-1_465_3312" fill="white">
<path d="M864.602 19C864.602 12.3726 869.974 7 876.602 7H1210C1216.63 7 1222 12.3726 1222 19V813C1222 819.627 1216.63 825 1210 825H876.602C869.974 825 864.602 819.627 864.602 813V19Z"/>
</mask>
<path d="M864.602 19C864.602 12.3726 869.974 7 876.602 7H1210C1216.63 7 1222 12.3726 1222 19V813C1222 819.627 1216.63 825 1210 825H876.602C869.974 825 864.602 819.627 864.602 813V19Z" fill="#010000"/>
<path d="M876.602 7V8H1210V7V6H876.602V7ZM1222 19H1221V813H1222H1223V19H1222ZM1210 825V824H876.602V825V826H1210V825ZM864.602 813H865.602V19H864.602H863.602V813H864.602ZM876.602 825V824C870.526 824 865.602 819.075 865.602 813H864.602H863.602C863.602 820.18 869.422 826 876.602 826V825ZM1222 813H1221C1221 819.075 1216.08 824 1210 824V825V826C1217.18 826 1223 820.18 1223 813H1222ZM1210 7V8C1216.08 8 1221 12.9249 1221 19H1222H1223C1223 11.8203 1217.18 6 1210 6V7ZM876.602 7V6C869.422 6 863.602 11.8203 863.602 19H864.602H865.602C865.602 12.9249 870.526 8 876.602 8V7Z" fill="#3A3A3A" mask="url(#path-1-inside-1_465_3312)"/>
<mask id="path-3-inside-2_465_3312" fill="white">
<path d="M865.602 8H1221V36H865.602V8Z"/>
</mask>
<path d="M865.602 8H1221V36H865.602V8Z" fill="#1A1A1A"/>
<path d="M1221 36V34H865.602V36V38H1221V36Z" fill="#70C62D" mask="url(#path-3-inside-2_465_3312)"/>
<g clip-path="url(#clip1_465_3312)">
<path d="M1017.89 17.8623H1030.29V27.5176H1017.89V17.8623Z" stroke="#EFEFEF" stroke-width="0.947518"/>
<path d="M1017.89 23.9766H1020.06L1021.3 25.2639H1026.88L1028.12 23.9766H1030.29" stroke="#EFEFEF" stroke-width="0.947518"/>
<path d="M1024.09 17.8621V14" stroke="#EFEFEF" stroke-width="0.947518"/>
<path d="M1021.61 20.4365V22.0457" stroke="#EFEFEF" stroke-width="0.947518"/>
<path d="M1026.57 20.4365V22.0457" stroke="#EFEFEF" stroke-width="0.947518"/>
</g>
<path d="M1039.72 16.7727H1041.31L1044.09 23.5568H1044.2L1046.97 16.7727H1048.57V25.5H1047.32V19.1847H1047.24L1044.66 25.4872H1043.62L1041.05 19.1804H1040.97V25.5H1039.72V16.7727ZM1050.38 25.5V18.9545H1051.66V25.5H1050.38ZM1051.03 17.9446C1050.81 17.9446 1050.62 17.8707 1050.46 17.723C1050.3 17.5724 1050.22 17.3935 1050.22 17.1861C1050.22 16.9759 1050.3 16.7969 1050.46 16.6491C1050.62 16.4986 1050.81 16.4233 1051.03 16.4233C1051.25 16.4233 1051.44 16.4986 1051.59 16.6491C1051.75 16.7969 1051.83 16.9759 1051.83 17.1861C1051.83 17.3935 1051.75 17.5724 1051.59 17.723C1051.44 17.8707 1051.25 17.9446 1051.03 17.9446ZM1054.38 18.9545L1055.82 21.5028L1057.28 18.9545H1058.67L1056.63 22.2273L1058.69 25.5H1057.3L1055.82 23.054L1054.35 25.5H1052.95L1054.99 22.2273L1052.98 18.9545H1054.38ZM1059.98 25.5V18.9545H1061.26V25.5H1059.98ZM1060.62 17.9446C1060.4 17.9446 1060.21 17.8707 1060.05 17.723C1059.9 17.5724 1059.82 17.3935 1059.82 17.1861C1059.82 16.9759 1059.9 16.7969 1060.05 16.6491C1060.21 16.4986 1060.4 16.4233 1060.62 16.4233C1060.85 16.4233 1061.04 16.4986 1061.19 16.6491C1061.35 16.7969 1061.43 16.9759 1061.43 17.1861C1061.43 17.3935 1061.35 17.5724 1061.19 17.723C1061.04 17.8707 1060.85 17.9446 1060.62 17.9446ZM1065.79 25.6321C1065.15 25.6321 1064.59 25.4943 1064.12 25.2188C1063.66 24.9403 1063.3 24.5497 1063.05 24.0469C1062.8 23.5412 1062.68 22.9489 1062.68 22.2699C1062.68 21.5994 1062.8 21.0085 1063.05 20.4972C1063.3 19.9858 1063.66 19.5866 1064.11 19.2997C1064.56 19.0128 1065.09 18.8693 1065.7 18.8693C1066.07 18.8693 1066.43 18.9304 1066.78 19.0526C1067.12 19.1747 1067.43 19.3665 1067.71 19.6278C1067.98 19.8892 1068.2 20.2287 1068.36 20.6463C1068.52 21.0611 1068.6 21.5653 1068.6 22.1591V22.6108H1063.4V21.6562H1067.35C1067.35 21.321 1067.28 21.0241 1067.15 20.7656C1067.01 20.5043 1066.82 20.2983 1066.57 20.1477C1066.33 19.9972 1066.04 19.9219 1065.71 19.9219C1065.35 19.9219 1065.04 20.0099 1064.77 20.1861C1064.51 20.3594 1064.3 20.5866 1064.16 20.8679C1064.02 21.1463 1063.95 21.4489 1063.95 21.7756V22.5213C1063.95 22.9588 1064.02 23.331 1064.18 23.6378C1064.33 23.9446 1064.55 24.179 1064.83 24.3409C1065.11 24.5 1065.43 24.5795 1065.8 24.5795C1066.05 24.5795 1066.27 24.5455 1066.46 24.4773C1066.66 24.4062 1066.83 24.3011 1066.98 24.1619C1067.12 24.0227 1067.24 23.8509 1067.31 23.6463L1068.52 23.8636C1068.42 24.2187 1068.25 24.5298 1068 24.7969C1067.75 25.0611 1067.44 25.267 1067.06 25.4148C1066.69 25.5597 1066.27 25.6321 1065.79 25.6321Z" fill="white"/>
<path d="M873.602 54C873.602 52.8954 874.497 52 875.602 52H972.461C973.566 52 974.461 52.8954 974.461 54V72C974.461 73.1046 973.566 74 972.461 74H875.602C874.497 74 873.602 73.1046 873.602 72V54Z" fill="#21232A"/>
<path d="M883.583 67.5H881.896L884.968 58.7727H886.92L889.996 67.5H888.309L885.978 60.5625H885.91L883.583 67.5ZM883.638 64.0781H888.241V65.348H883.638V64.0781ZM895.25 64.7472V60.9545H896.792V67.5H895.297V66.3366H895.228C895.081 66.7031 894.838 67.0028 894.5 67.2358C894.164 67.4687 893.751 67.5852 893.26 67.5852C892.831 67.5852 892.451 67.4901 892.122 67.2997C891.795 67.1065 891.539 66.8267 891.355 66.4602C891.17 66.0909 891.078 65.6449 891.078 65.1222V60.9545H892.62V64.8835C892.62 65.2983 892.734 65.6278 892.961 65.8722C893.189 66.1165 893.487 66.2386 893.856 66.2386C894.083 66.2386 894.304 66.1832 894.517 66.0724C894.73 65.9616 894.904 65.7969 895.041 65.5781C895.18 65.3565 895.25 65.0795 895.25 64.7472ZM901.647 60.9545V62.1477H897.884V60.9545H901.647ZM898.813 59.3864H900.356V65.5312C900.356 65.7386 900.387 65.8977 900.45 66.0085C900.515 66.1165 900.6 66.1903 900.705 66.2301C900.81 66.2699 900.927 66.2898 901.055 66.2898C901.151 66.2898 901.239 66.2827 901.319 66.2685C901.401 66.2543 901.464 66.2415 901.506 66.2301L901.766 67.4361C901.684 67.4645 901.566 67.4957 901.413 67.5298C901.262 67.5639 901.077 67.5838 900.859 67.5895C900.472 67.6009 900.124 67.5426 899.815 67.4148C899.505 67.2841 899.259 67.0824 899.077 66.8097C898.898 66.5369 898.81 66.196 898.813 65.7869V59.3864ZM905.722 67.6278C905.083 67.6278 904.529 67.4872 904.06 67.206C903.591 66.9247 903.228 66.5312 902.969 66.0256C902.713 65.5199 902.586 64.929 902.586 64.2528C902.586 63.5767 902.713 62.9844 902.969 62.4759C903.228 61.9673 903.591 61.5724 904.06 61.2912C904.529 61.0099 905.083 60.8693 905.722 60.8693C906.361 60.8693 906.915 61.0099 907.384 61.2912C907.853 61.5724 908.215 61.9673 908.471 62.4759C908.729 62.9844 908.858 63.5767 908.858 64.2528C908.858 64.929 908.729 65.5199 908.471 66.0256C908.215 66.5312 907.853 66.9247 907.384 67.206C906.915 67.4872 906.361 67.6278 905.722 67.6278ZM905.73 66.392C906.077 66.392 906.367 66.2969 906.6 66.1065C906.833 65.9134 907.006 65.6548 907.12 65.331C907.236 65.0071 907.294 64.6463 907.294 64.2486C907.294 63.848 907.236 63.4858 907.12 63.1619C907.006 62.8352 906.833 62.5753 906.6 62.3821C906.367 62.1889 906.077 62.0923 905.73 62.0923C905.375 62.0923 905.08 62.1889 904.844 62.3821C904.611 62.5753 904.436 62.8352 904.32 63.1619C904.206 63.4858 904.15 63.848 904.15 64.2486C904.15 64.6463 904.206 65.0071 904.32 65.331C904.436 65.6548 904.611 65.9134 904.844 66.1065C905.08 66.2969 905.375 66.392 905.73 66.392ZM914.687 63.6648V67.5H913.144V60.9545H914.619V62.0668H914.695C914.846 61.7003 915.086 61.4091 915.415 61.1932C915.748 60.9773 916.158 60.8693 916.647 60.8693C917.099 60.8693 917.492 60.9659 917.827 61.1591C918.165 61.3523 918.427 61.6321 918.612 61.9986C918.799 62.3651 918.891 62.8097 918.888 63.3324V67.5H917.346V63.571C917.346 63.1335 917.232 62.7912 917.005 62.544C916.781 62.2969 916.469 62.1733 916.072 62.1733C915.802 62.1733 915.562 62.233 915.352 62.3523C915.144 62.4687 914.981 62.6378 914.862 62.8594C914.745 63.081 914.687 63.3494 914.687 63.6648ZM922.34 67.6321C921.925 67.6321 921.552 67.5582 921.219 67.4105C920.89 67.2599 920.629 67.0384 920.435 66.7457C920.245 66.4531 920.15 66.0923 920.15 65.6634C920.15 65.294 920.218 64.9886 920.354 64.7472C920.491 64.5057 920.677 64.3125 920.913 64.1676C921.148 64.0227 921.414 63.9134 921.71 63.8395C922.008 63.7628 922.316 63.7074 922.634 63.6733C923.018 63.6335 923.329 63.598 923.567 63.5668C923.806 63.5327 923.979 63.4815 924.087 63.4134C924.198 63.3423 924.254 63.233 924.254 63.0852V63.0597C924.254 62.7386 924.158 62.4901 923.968 62.3139C923.778 62.1378 923.504 62.0497 923.146 62.0497C922.768 62.0497 922.468 62.1321 922.246 62.2969C922.028 62.4616 921.88 62.6562 921.803 62.8807L920.363 62.6761C920.477 62.2784 920.664 61.946 920.925 61.679C921.187 61.4091 921.506 61.2074 921.884 61.0739C922.262 60.9375 922.68 60.8693 923.137 60.8693C923.452 60.8693 923.766 60.9062 924.079 60.9801C924.391 61.054 924.677 61.1761 924.935 61.3466C925.194 61.5142 925.401 61.7429 925.558 62.0327C925.717 62.3224 925.796 62.6847 925.796 63.1193V67.5H924.313V66.6009H924.262C924.168 66.7827 924.036 66.9531 923.866 67.1122C923.698 67.2685 923.487 67.3949 923.231 67.4915C922.978 67.5852 922.681 67.6321 922.34 67.6321ZM922.741 66.4986C923.05 66.4986 923.319 66.4375 923.546 66.3153C923.773 66.1903 923.948 66.0256 924.07 65.821C924.195 65.6165 924.258 65.3935 924.258 65.152V64.3807C924.21 64.4205 924.127 64.4574 924.011 64.4915C923.897 64.5256 923.769 64.5554 923.627 64.581C923.485 64.6065 923.344 64.6293 923.205 64.6491C923.066 64.669 922.945 64.6861 922.843 64.7003C922.613 64.7315 922.407 64.7827 922.225 64.8537C922.043 64.9247 921.9 65.0241 921.795 65.152C921.69 65.277 921.637 65.4389 921.637 65.6378C921.637 65.9219 921.741 66.1364 921.948 66.2812C922.156 66.4261 922.42 66.4986 922.741 66.4986ZM927.347 67.5V60.9545H928.822V62.0668H928.898C929.035 61.6918 929.261 61.3991 929.576 61.1889C929.891 60.9759 930.268 60.8693 930.705 60.8693C931.148 60.8693 931.522 60.9773 931.826 61.1932C932.133 61.4062 932.349 61.6974 932.474 62.0668H932.542C932.687 61.7031 932.931 61.4134 933.275 61.1974C933.621 60.9787 934.032 60.8693 934.506 60.8693C935.109 60.8693 935.6 61.0597 935.981 61.4403C936.362 61.821 936.552 62.3764 936.552 63.1065V67.5H935.005V63.3452C935.005 62.9389 934.897 62.642 934.681 62.4545C934.465 62.2642 934.201 62.169 933.888 62.169C933.516 62.169 933.225 62.2855 933.015 62.5185C932.808 62.7486 932.704 63.0483 932.704 63.4176V67.5H931.191V63.2812C931.191 62.9432 931.089 62.6733 930.884 62.4716C930.683 62.2699 930.418 62.169 930.092 62.169C929.87 62.169 929.668 62.2259 929.487 62.3395C929.305 62.4503 929.16 62.608 929.052 62.8125C928.944 63.0142 928.89 63.25 928.89 63.5199V67.5H927.347ZM941.015 67.6278C940.358 67.6278 939.792 67.4915 939.314 67.2188C938.84 66.9432 938.475 66.554 938.219 66.0511C937.963 65.5455 937.836 64.9503 937.836 64.2656C937.836 63.5923 937.963 63.0014 938.219 62.4929C938.478 61.9815 938.838 61.5838 939.301 61.2997C939.765 61.0128 940.309 60.8693 940.934 60.8693C941.337 60.8693 941.718 60.9347 942.076 61.0653C942.436 61.1932 942.755 61.392 943.03 61.6619C943.309 61.9318 943.527 62.2756 943.686 62.6932C943.846 63.108 943.925 63.6023 943.925 64.1761V64.6491H938.56V63.6094H942.446C942.444 63.3139 942.38 63.0511 942.255 62.821C942.13 62.5881 941.955 62.4048 941.73 62.2713C941.509 62.1378 941.25 62.071 940.955 62.071C940.64 62.071 940.363 62.1477 940.124 62.3011C939.885 62.4517 939.699 62.6506 939.566 62.8977C939.435 63.142 939.368 63.4105 939.365 63.7031V64.6108C939.365 64.9915 939.435 65.3182 939.574 65.5909C939.713 65.8608 939.908 66.0682 940.158 66.2131C940.408 66.3551 940.701 66.4261 941.036 66.4261C941.26 66.4261 941.463 66.3949 941.645 66.3324C941.827 66.267 941.985 66.1719 942.118 66.0469C942.252 65.9219 942.353 65.767 942.421 65.5824L943.861 65.7443C943.77 66.125 943.597 66.4574 943.341 66.7415C943.088 67.0227 942.765 67.2415 942.37 67.3977C941.975 67.5511 941.523 67.6278 941.015 67.6278ZM951.475 60.9545V62.1477H947.712V60.9545H951.475ZM948.641 59.3864H950.184V65.5312C950.184 65.7386 950.215 65.8977 950.278 66.0085C950.343 66.1165 950.428 66.1903 950.533 66.2301C950.638 66.2699 950.755 66.2898 950.883 66.2898C950.979 66.2898 951.067 66.2827 951.147 66.2685C951.229 66.2543 951.292 66.2415 951.335 66.2301L951.594 67.4361C951.512 67.4645 951.394 67.4957 951.241 67.5298C951.09 67.5639 950.906 67.5838 950.687 67.5895C950.3 67.6009 949.952 67.5426 949.643 67.4148C949.333 67.2841 949.087 67.0824 948.906 66.8097C948.727 66.5369 948.638 66.196 948.641 65.7869V59.3864ZM954.649 67.6321C954.234 67.6321 953.86 67.5582 953.528 67.4105C953.199 67.2599 952.937 67.0384 952.744 66.7457C952.554 66.4531 952.458 66.0923 952.458 65.6634C952.458 65.294 952.527 64.9886 952.663 64.7472C952.799 64.5057 952.985 64.3125 953.221 64.1676C953.457 64.0227 953.723 63.9134 954.018 63.8395C954.316 63.7628 954.625 63.7074 954.943 63.6733C955.326 63.6335 955.637 63.598 955.876 63.5668C956.115 63.5327 956.288 63.4815 956.396 63.4134C956.507 63.3423 956.562 63.233 956.562 63.0852V63.0597C956.562 62.7386 956.467 62.4901 956.277 62.3139C956.086 62.1378 955.812 62.0497 955.454 62.0497C955.076 62.0497 954.777 62.1321 954.555 62.2969C954.336 62.4616 954.189 62.6562 954.112 62.8807L952.672 62.6761C952.785 62.2784 952.973 61.946 953.234 61.679C953.495 61.4091 953.815 61.2074 954.193 61.0739C954.571 60.9375 954.988 60.8693 955.446 60.8693C955.761 60.8693 956.075 60.9062 956.387 60.9801C956.7 61.054 956.985 61.1761 957.244 61.3466C957.502 61.5142 957.71 61.7429 957.866 62.0327C958.025 62.3224 958.105 62.6847 958.105 63.1193V67.5H956.622V66.6009H956.571C956.477 66.7827 956.345 66.9531 956.174 67.1122C956.007 67.2685 955.795 67.3949 955.539 67.4915C955.287 67.5852 954.99 67.6321 954.649 67.6321ZM955.049 66.4986C955.359 66.4986 955.627 66.4375 955.855 66.3153C956.082 66.1903 956.257 66.0256 956.379 65.821C956.504 65.6165 956.566 65.3935 956.566 65.152V64.3807C956.518 64.4205 956.436 64.4574 956.319 64.4915C956.206 64.5256 956.078 64.5554 955.936 64.581C955.794 64.6065 955.653 64.6293 955.514 64.6491C955.375 64.669 955.254 64.6861 955.152 64.7003C954.922 64.7315 954.716 64.7827 954.534 64.8537C954.352 64.9247 954.208 65.0241 954.103 65.152C953.998 65.277 953.946 65.4389 953.946 65.6378C953.946 65.9219 954.049 66.1364 954.257 66.2812C954.464 66.4261 954.728 66.4986 955.049 66.4986ZM959.724 67.5V58.7727H961.267V62.0369H961.331C961.41 61.8778 961.522 61.7088 961.667 61.5298C961.812 61.348 962.008 61.1932 962.255 61.0653C962.502 60.9347 962.818 60.8693 963.201 60.8693C963.707 60.8693 964.163 60.9986 964.569 61.2571C964.978 61.5128 965.302 61.892 965.541 62.3949C965.782 62.8949 965.903 63.5085 965.903 64.2358C965.903 64.9545 965.785 65.5653 965.549 66.0682C965.314 66.571 964.993 66.9545 964.586 67.2188C964.18 67.483 963.72 67.6151 963.206 67.6151C962.831 67.6151 962.52 67.5526 962.272 67.4276C962.025 67.3026 961.826 67.152 961.676 66.9759C961.528 66.7969 961.413 66.6278 961.331 66.4688H961.241V67.5H959.724ZM961.237 64.2273C961.237 64.6506 961.297 65.0213 961.416 65.3395C961.538 65.6577 961.713 65.9062 961.94 66.0852C962.17 66.2614 962.449 66.3494 962.775 66.3494C963.116 66.3494 963.402 66.2585 963.632 66.0767C963.862 65.892 964.035 65.6406 964.152 65.3224C964.271 65.0014 964.331 64.6364 964.331 64.2273C964.331 63.821 964.272 63.4602 964.156 63.1449C964.039 62.8295 963.866 62.5824 963.636 62.4034C963.406 62.2244 963.119 62.1349 962.775 62.1349C962.446 62.1349 962.166 62.2216 961.936 62.3949C961.706 62.5682 961.531 62.8111 961.412 63.1236C961.295 63.4361 961.237 63.804 961.237 64.2273Z" fill="white"/>
<path d="M1128.33 63H1137.67" stroke="#757985" stroke-width="1.33333" stroke-linecap="round" stroke-linejoin="round"/>
<path d="M1133 58.333V67.6663" stroke="#757985" stroke-width="1.33333" stroke-linecap="round" stroke-linejoin="round"/>
<path d="M1151 63C1151 64.1867 1151.35 65.3467 1152.01 66.3334C1152.67 67.3201 1153.61 68.0892 1154.7 68.5433C1155.8 68.9974 1157.01 69.1162 1158.17 68.8847C1159.33 68.6532 1160.4 68.0818 1161.24 67.2426C1162.08 66.4035 1162.65 65.3344 1162.88 64.1705C1163.12 63.0067 1163 61.8003 1162.54 60.7039C1162.09 59.6075 1161.32 58.6705 1160.33 58.0112C1159.35 57.3519 1158.19 57 1157 57C1155.32 57.0063 1153.71 57.6608 1152.51 58.8267L1151 60.3333" stroke="#757985" stroke-width="1.33333" stroke-linecap="round" stroke-linejoin="round"/>
<path d="M1151 57V60.3333H1154.33" stroke="#757985" stroke-width="1.33333" stroke-linecap="round" stroke-linejoin="round"/>
<path d="M1157 59.667V63.0003L1159.67 64.3337" stroke="#757985" stroke-width="1.33333" stroke-linecap="round" stroke-linejoin="round"/>
<path d="M1181 63.6663C1181.37 63.6663 1181.67 63.3679 1181.67 62.9997C1181.67 62.6315 1181.37 62.333 1181 62.333C1180.63 62.333 1180.33 62.6315 1180.33 62.9997C1180.33 63.3679 1180.63 63.6663 1181 63.6663Z" stroke="#757985" stroke-width="1.33333" stroke-linecap="round" stroke-linejoin="round"/>
<path d="M1185.67 63.6663C1186.03 63.6663 1186.33 63.3679 1186.33 62.9997C1186.33 62.6315 1186.03 62.333 1185.67 62.333C1185.3 62.333 1185 62.6315 1185 62.9997C1185 63.3679 1185.3 63.6663 1185.67 63.6663Z" stroke="#757985" stroke-width="1.33333" stroke-linecap="round" stroke-linejoin="round"/>
<path d="M1176.33 63.6663C1176.7 63.6663 1177 63.3679 1177 62.9997C1177 62.6315 1176.7 62.333 1176.33 62.333C1175.97 62.333 1175.67 62.6315 1175.67 62.9997C1175.67 63.3679 1175.97 63.6663 1176.33 63.6663Z" stroke="#757985" stroke-width="1.33333" stroke-linecap="round" stroke-linejoin="round"/>
<path d="M1209 59L1201 67" stroke="#757985" stroke-width="1.33333" stroke-linecap="round" stroke-linejoin="round"/>
<path d="M1201 59L1209 67" stroke="#757985" stroke-width="1.33333" stroke-linecap="round" stroke-linejoin="round"/>
</g>
<defs>
<clipPath id="clip0_465_3312">
<rect width="1229" height="832" fill="white"/>
</clipPath>
<clipPath id="clip1_465_3312">
<rect width="13.3281" height="14" fill="white" transform="translate(1017.43 14)"/>
</clipPath>
</defs>
</svg>
