<svg width="664" height="266" viewBox="0 0 664 266" fill="none" xmlns="http://www.w3.org/2000/svg">
<g filter="url(#filter0_d_4_2308)">
<mask id="path-1-inside-1_4_2308" fill="white">
<path d="M32 59.75C32 50.9134 39.1634 43.75 48 43.75H616C624.837 43.75 632 50.9134 632 59.75V209.75C632 218.587 624.837 225.75 616 225.75H48C39.1634 225.75 32 218.587 32 209.75V59.75Z"/>
</mask>
<path d="M32 59.75C32 50.9134 39.1634 43.75 48 43.75H616C624.837 43.75 632 50.9134 632 59.75V209.75C632 218.587 624.837 225.75 616 225.75H48C39.1634 225.75 32 218.587 32 209.75V59.75Z" fill="white" fill-opacity="0.05" shape-rendering="crispEdges"/>
<path d="M48 43.75V44.75H616V43.75V42.75H48V43.75ZM632 59.75H631V209.75H632H633V59.75H632ZM616 225.75V224.75H48V225.75V226.75H616V225.75ZM32 209.75H33V59.75H32H31V209.75H32ZM48 225.75V224.75C39.7157 224.75 33 218.034 33 209.75H32H31C31 219.139 38.6111 226.75 48 226.75V225.75ZM632 209.75H631C631 218.034 624.284 224.75 616 224.75V225.75V226.75C625.389 226.75 633 219.139 633 209.75H632ZM616 43.75V44.75C624.284 44.75 631 51.4657 631 59.75H632H633C633 50.3612 625.389 42.75 616 42.75V43.75ZM48 43.75V42.75C38.6112 42.75 31 50.3612 31 59.75H32H33C33 51.4657 39.7157 44.75 48 44.75V43.75Z" fill="white" fill-opacity="0.2" mask="url(#path-1-inside-1_4_2308)"/>
<mask id="path-3-inside-2_4_2308" fill="white">
<path d="M49 109C49 102.373 54.3726 97 61 97H603C609.627 97 615 102.373 615 109V136C615 142.627 609.627 148 603 148H61C54.3726 148 49 142.627 49 136V109Z"/>
</mask>
<path d="M49 109C49 102.373 54.3726 97 61 97H603C609.627 97 615 102.373 615 109V136C615 142.627 609.627 148 603 148H61C54.3726 148 49 142.627 49 136V109Z" fill="white" fill-opacity="0.05"/>
<path d="M61 97V98H603V97V96H61V97ZM615 109H614V136H615H616V109H615ZM603 148V147H61V148V149H603V148ZM49 136H50V109H49H48V136H49ZM61 148V147C54.9249 147 50 142.075 50 136H49H48C48 143.18 53.8203 149 61 149V148ZM615 136H614C614 142.075 609.075 147 603 147V148V149C610.18 149 616 143.18 616 136H615ZM603 97V98C609.075 98 614 102.925 614 109H615H616C616 101.82 610.18 96 603 96V97ZM61 97V96C53.8203 96 48 101.82 48 109H49H50C50 102.925 54.9249 98 61 98V97Z" fill="white" fill-opacity="0.1" mask="url(#path-3-inside-2_4_2308)"/>
<path d="M69.375 128H66.233V117.818H69.5142C70.5019 117.818 71.3471 118.022 72.0497 118.43C72.7524 118.834 73.291 119.416 73.6655 120.175C74.04 120.93 74.2273 121.835 74.2273 122.889C74.2273 123.95 74.0384 124.863 73.6605 125.629C73.2827 126.391 72.7325 126.978 72.0099 127.388C71.2874 127.796 70.4091 128 69.375 128ZM67.4659 126.906H69.2955C70.1373 126.906 70.835 126.744 71.3885 126.419C71.942 126.094 72.3546 125.632 72.6264 125.032C72.8982 124.432 73.0341 123.718 73.0341 122.889C73.0341 122.067 72.8999 121.36 72.6314 120.766C72.3629 120.17 71.9619 119.712 71.4283 119.394C70.8946 119.073 70.2301 118.912 69.4347 118.912H67.4659V126.906ZM79.3381 128.159C78.6023 128.159 77.9676 127.997 77.4339 127.672C76.9036 127.344 76.4943 126.886 76.206 126.3C75.9209 125.71 75.7784 125.024 75.7784 124.241C75.7784 123.459 75.9209 122.77 76.206 122.173C76.4943 121.573 76.8954 121.106 77.4091 120.771C77.9261 120.433 78.5294 120.264 79.2188 120.264C79.6165 120.264 80.0092 120.33 80.397 120.463C80.7848 120.596 81.1378 120.811 81.456 121.109C81.7741 121.404 82.0277 121.795 82.2166 122.283C82.4055 122.77 82.5 123.37 82.5 124.082V124.58H76.6136V123.565H81.3068C81.3068 123.134 81.2206 122.75 81.0483 122.412C80.8793 122.074 80.6373 121.807 80.3224 121.612C80.0109 121.416 79.643 121.318 79.2188 121.318C78.7514 121.318 78.3471 121.434 78.0057 121.666C77.6676 121.895 77.4074 122.193 77.2251 122.561C77.0429 122.929 76.9517 123.323 76.9517 123.744V124.42C76.9517 124.997 77.0511 125.486 77.25 125.887C77.4522 126.285 77.7322 126.588 78.0902 126.797C78.4482 127.002 78.8641 127.105 79.3381 127.105C79.6463 127.105 79.9247 127.062 80.1733 126.976C80.4252 126.886 80.6423 126.754 80.8246 126.578C81.0069 126.399 81.1477 126.177 81.2472 125.912L82.3807 126.23C82.2614 126.615 82.0608 126.953 81.7791 127.244C81.4974 127.533 81.1494 127.758 80.7351 127.92C80.3208 128.08 79.8551 128.159 79.3381 128.159ZM89.6939 122.074L88.6399 122.372C88.5736 122.196 88.4759 122.026 88.3466 121.86C88.2206 121.691 88.0483 121.552 87.8295 121.442C87.6108 121.333 87.3307 121.278 86.9893 121.278C86.522 121.278 86.1326 121.386 85.821 121.602C85.5128 121.814 85.3587 122.084 85.3587 122.412C85.3587 122.704 85.4647 122.934 85.6768 123.103C85.889 123.272 86.2204 123.413 86.6712 123.526L87.8047 123.804C88.4875 123.97 88.9962 124.223 89.331 124.565C89.6657 124.903 89.8331 125.339 89.8331 125.872C89.8331 126.31 89.7071 126.701 89.4553 127.045C89.2067 127.39 88.8587 127.662 88.4112 127.861C87.9638 128.06 87.4434 128.159 86.8501 128.159C86.0713 128.159 85.4266 127.99 84.9162 127.652C84.4058 127.314 84.0826 126.82 83.9467 126.17L85.0604 125.892C85.1664 126.303 85.367 126.611 85.6619 126.817C85.9602 127.022 86.3497 127.125 86.8303 127.125C87.3771 127.125 87.8113 127.009 88.1328 126.777C88.4576 126.542 88.62 126.26 88.62 125.932C88.62 125.667 88.5272 125.445 88.3416 125.266C88.156 125.083 87.871 124.947 87.4865 124.858L86.2138 124.56C85.5144 124.394 85.0007 124.137 84.6726 123.789C84.3478 123.438 84.1854 122.999 84.1854 122.472C84.1854 122.041 84.3063 121.66 84.5483 121.328C84.7936 120.997 85.1267 120.737 85.5476 120.548C85.9718 120.359 86.4524 120.264 86.9893 120.264C87.745 120.264 88.3383 120.43 88.7692 120.761C89.2034 121.093 89.5116 121.53 89.6939 122.074ZM94.7015 128.159C93.9856 128.159 93.3691 127.99 92.8521 127.652C92.335 127.314 91.9373 126.848 91.6589 126.255C91.3805 125.662 91.2413 124.984 91.2413 124.222C91.2413 123.446 91.3838 122.762 91.6689 122.168C91.9572 121.572 92.3583 121.106 92.872 120.771C93.389 120.433 93.9922 120.264 94.6816 120.264C95.2186 120.264 95.7025 120.364 96.1333 120.562C96.5642 120.761 96.9172 121.04 97.1923 121.398C97.4674 121.756 97.6381 122.173 97.7044 122.651H96.5311C96.4416 122.303 96.2427 121.994 95.9345 121.726C95.6296 121.454 95.2186 121.318 94.7015 121.318C94.2441 121.318 93.8431 121.437 93.4984 121.676C93.157 121.911 92.8902 122.245 92.698 122.675C92.5091 123.103 92.4146 123.605 92.4146 124.182C92.4146 124.772 92.5074 125.286 92.693 125.723C92.8819 126.161 93.1471 126.5 93.4885 126.742C93.8332 126.984 94.2375 127.105 94.7015 127.105C95.0065 127.105 95.2832 127.052 95.5318 126.946C95.7804 126.84 95.9908 126.688 96.1632 126.489C96.3355 126.29 96.4582 126.051 96.5311 125.773H97.7044C97.6381 126.223 97.474 126.629 97.2122 126.991C96.9537 127.349 96.6106 127.634 96.1831 127.846C95.7588 128.055 95.265 128.159 94.7015 128.159ZM99.4196 128V120.364H100.553V121.517H100.633C100.772 121.139 101.024 120.833 101.388 120.597C101.753 120.362 102.164 120.244 102.621 120.244C102.707 120.244 102.815 120.246 102.944 120.249C103.074 120.253 103.171 120.258 103.238 120.264V121.457C103.198 121.447 103.107 121.433 102.964 121.413C102.825 121.389 102.678 121.378 102.522 121.378C102.151 121.378 101.819 121.456 101.528 121.612C101.239 121.764 101.01 121.976 100.841 122.248C100.676 122.516 100.593 122.823 100.593 123.168V128H99.4196ZM104.629 128V120.364H105.802V128H104.629ZM105.225 119.091C104.996 119.091 104.799 119.013 104.634 118.857C104.471 118.701 104.39 118.514 104.39 118.295C104.39 118.077 104.471 117.889 104.634 117.734C104.799 117.578 104.996 117.5 105.225 117.5C105.454 117.5 105.649 117.578 105.812 117.734C105.978 117.889 106.06 118.077 106.06 118.295C106.06 118.514 105.978 118.701 105.812 118.857C105.649 119.013 105.454 119.091 105.225 119.091ZM108.11 128V117.818H109.283V121.577H109.383C109.469 121.444 109.588 121.275 109.741 121.07C109.896 120.861 110.118 120.675 110.407 120.513C110.698 120.347 111.093 120.264 111.59 120.264C112.233 120.264 112.8 120.425 113.29 120.746C113.781 121.068 114.164 121.524 114.439 122.114C114.714 122.704 114.851 123.4 114.851 124.202C114.851 125.01 114.714 125.711 114.439 126.305C114.164 126.895 113.782 127.352 113.295 127.677C112.808 127.998 112.246 128.159 111.61 128.159C111.119 128.159 110.727 128.078 110.432 127.915C110.137 127.75 109.91 127.562 109.751 127.354C109.591 127.142 109.469 126.966 109.383 126.827H109.243V128H108.11ZM109.263 124.182C109.263 124.759 109.348 125.267 109.517 125.708C109.686 126.146 109.933 126.489 110.258 126.737C110.582 126.982 110.98 127.105 111.451 127.105C111.941 127.105 112.351 126.976 112.679 126.717C113.01 126.455 113.259 126.104 113.425 125.663C113.594 125.219 113.678 124.725 113.678 124.182C113.678 123.645 113.595 123.161 113.43 122.73C113.267 122.296 113.02 121.953 112.689 121.701C112.361 121.446 111.948 121.318 111.451 121.318C110.974 121.318 110.573 121.439 110.248 121.681C109.923 121.92 109.678 122.254 109.512 122.685C109.346 123.113 109.263 123.612 109.263 124.182ZM119.848 128.159C119.112 128.159 118.477 127.997 117.944 127.672C117.413 127.344 117.004 126.886 116.716 126.3C116.431 125.71 116.288 125.024 116.288 124.241C116.288 123.459 116.431 122.77 116.716 122.173C117.004 121.573 117.405 121.106 117.919 120.771C118.436 120.433 119.039 120.264 119.729 120.264C120.126 120.264 120.519 120.33 120.907 120.463C121.295 120.596 121.648 120.811 121.966 121.109C122.284 121.404 122.537 121.795 122.726 122.283C122.915 122.77 123.01 123.37 123.01 124.082V124.58H117.123V123.565H121.817C121.817 123.134 121.73 122.75 121.558 122.412C121.389 122.074 121.147 121.807 120.832 121.612C120.521 121.416 120.153 121.318 119.729 121.318C119.261 121.318 118.857 121.434 118.515 121.666C118.177 121.895 117.917 122.193 117.735 122.561C117.553 122.929 117.461 123.323 117.461 123.744V124.42C117.461 124.997 117.561 125.486 117.76 125.887C117.962 126.285 118.242 126.588 118.6 126.797C118.958 127.002 119.374 127.105 119.848 127.105C120.156 127.105 120.434 127.062 120.683 126.976C120.935 126.886 121.152 126.754 121.334 126.578C121.517 126.399 121.657 126.177 121.757 125.912L122.89 126.23C122.771 126.615 122.571 126.953 122.289 127.244C122.007 127.533 121.659 127.758 121.245 127.92C120.831 128.08 120.365 128.159 119.848 128.159ZM129.488 130.864C129.289 130.864 129.112 130.847 128.956 130.814C128.8 130.784 128.692 130.754 128.633 130.724L128.931 129.69C129.216 129.763 129.468 129.79 129.687 129.77C129.905 129.75 130.099 129.652 130.268 129.477C130.441 129.304 130.598 129.024 130.741 128.636L130.959 128.04L128.135 120.364H129.408L131.516 126.449H131.596L133.704 120.364H134.976L131.735 129.114C131.589 129.508 131.408 129.835 131.193 130.093C130.978 130.355 130.727 130.549 130.442 130.675C130.161 130.801 129.842 130.864 129.488 130.864ZM139.354 128.159C138.664 128.159 138.06 127.995 137.539 127.667C137.022 127.339 136.618 126.88 136.326 126.29C136.038 125.7 135.894 125.01 135.894 124.222C135.894 123.426 136.038 122.732 136.326 122.138C136.618 121.545 137.022 121.085 137.539 120.756C138.06 120.428 138.664 120.264 139.354 120.264C140.043 120.264 140.646 120.428 141.164 120.756C141.684 121.085 142.088 121.545 142.377 122.138C142.668 122.732 142.814 123.426 142.814 124.222C142.814 125.01 142.668 125.7 142.377 126.29C142.088 126.88 141.684 127.339 141.164 127.667C140.646 127.995 140.043 128.159 139.354 128.159ZM139.354 127.105C139.878 127.105 140.308 126.971 140.646 126.702C140.985 126.434 141.235 126.081 141.397 125.643C141.56 125.206 141.641 124.732 141.641 124.222C141.641 123.711 141.56 123.236 141.397 122.795C141.235 122.354 140.985 121.998 140.646 121.726C140.308 121.454 139.878 121.318 139.354 121.318C138.83 121.318 138.399 121.454 138.061 121.726C137.723 121.998 137.473 122.354 137.311 122.795C137.148 123.236 137.067 123.711 137.067 124.222C137.067 124.732 137.148 125.206 137.311 125.643C137.473 126.081 137.723 126.434 138.061 126.702C138.399 126.971 138.83 127.105 139.354 127.105ZM149.418 124.878V120.364H150.591V128H149.418V126.707H149.338C149.159 127.095 148.881 127.425 148.503 127.697C148.125 127.965 147.648 128.099 147.071 128.099C146.594 128.099 146.17 127.995 145.798 127.786C145.427 127.574 145.135 127.256 144.923 126.832C144.711 126.404 144.605 125.866 144.605 125.216V120.364H145.778V125.136C145.778 125.693 145.934 126.137 146.246 126.469C146.561 126.8 146.962 126.966 147.449 126.966C147.741 126.966 148.037 126.891 148.339 126.742C148.644 126.593 148.899 126.364 149.104 126.056C149.313 125.748 149.418 125.355 149.418 124.878ZM152.74 128V120.364H153.873V121.517H153.953C154.092 121.139 154.344 120.833 154.709 120.597C155.073 120.362 155.484 120.244 155.942 120.244C156.028 120.244 156.135 120.246 156.265 120.249C156.394 120.253 156.492 120.258 156.558 120.264V121.457C156.518 121.447 156.427 121.433 156.285 121.413C156.145 121.389 155.998 121.378 155.842 121.378C155.471 121.378 155.14 121.456 154.848 121.612C154.559 121.764 154.331 121.976 154.162 122.248C153.996 122.516 153.913 122.823 153.913 123.168V128H152.74ZM163.06 123.406V128H161.886V120.364H163.02V121.557H163.119C163.298 121.169 163.57 120.857 163.935 120.622C164.299 120.384 164.77 120.264 165.347 120.264C165.864 120.264 166.316 120.37 166.704 120.582C167.092 120.791 167.393 121.109 167.609 121.537C167.824 121.961 167.932 122.498 167.932 123.148V128H166.759V123.227C166.759 122.627 166.603 122.16 166.291 121.825C165.98 121.487 165.552 121.318 165.009 121.318C164.634 121.318 164.299 121.399 164.004 121.562C163.713 121.724 163.482 121.961 163.313 122.273C163.144 122.584 163.06 122.962 163.06 123.406ZM173.278 128.159C172.542 128.159 171.907 127.997 171.373 127.672C170.843 127.344 170.434 126.886 170.145 126.3C169.86 125.71 169.718 125.024 169.718 124.241C169.718 123.459 169.86 122.77 170.145 122.173C170.434 121.573 170.835 121.106 171.349 120.771C171.866 120.433 172.469 120.264 173.158 120.264C173.556 120.264 173.949 120.33 174.336 120.463C174.724 120.596 175.077 120.811 175.395 121.109C175.714 121.404 175.967 121.795 176.156 122.283C176.345 122.77 176.439 123.37 176.439 124.082V124.58H170.553V123.565H175.246C175.246 123.134 175.16 122.75 174.988 122.412C174.819 122.074 174.577 121.807 174.262 121.612C173.95 121.416 173.582 121.318 173.158 121.318C172.691 121.318 172.287 121.434 171.945 121.666C171.607 121.895 171.347 122.193 171.165 122.561C170.982 122.929 170.891 123.323 170.891 123.744V124.42C170.891 124.997 170.991 125.486 171.189 125.887C171.392 126.285 171.672 126.588 172.03 126.797C172.388 127.002 172.804 127.105 173.278 127.105C173.586 127.105 173.864 127.062 174.113 126.976C174.365 126.886 174.582 126.754 174.764 126.578C174.946 126.399 175.087 126.177 175.187 125.912L176.32 126.23C176.201 126.615 176 126.953 175.719 127.244C175.437 127.533 175.089 127.758 174.675 127.92C174.26 128.08 173.795 128.159 173.278 128.159ZM178.894 120.364L180.724 123.486L182.553 120.364H183.906L181.44 124.182L183.906 128H182.553L180.724 125.037L178.894 128H177.542L179.968 124.182L177.542 120.364H178.894ZM188.901 120.364V121.358H184.943V120.364H188.901ZM186.097 118.534H187.27V125.812C187.27 126.144 187.318 126.393 187.414 126.558C187.514 126.721 187.64 126.83 187.792 126.886C187.948 126.939 188.112 126.966 188.284 126.966C188.414 126.966 188.52 126.959 188.602 126.946C188.685 126.929 188.752 126.916 188.801 126.906L189.04 127.96C188.96 127.99 188.849 128.02 188.707 128.05C188.564 128.083 188.384 128.099 188.165 128.099C187.834 128.099 187.509 128.028 187.191 127.886C186.876 127.743 186.614 127.526 186.405 127.234C186.2 126.943 186.097 126.575 186.097 126.131V118.534ZM200.012 122.074L198.958 122.372C198.892 122.196 198.794 122.026 198.665 121.86C198.539 121.691 198.367 121.552 198.148 121.442C197.929 121.333 197.649 121.278 197.308 121.278C196.84 121.278 196.451 121.386 196.139 121.602C195.831 121.814 195.677 122.084 195.677 122.412C195.677 122.704 195.783 122.934 195.995 123.103C196.207 123.272 196.539 123.413 196.99 123.526L198.123 123.804C198.806 123.97 199.315 124.223 199.649 124.565C199.984 124.903 200.151 125.339 200.151 125.872C200.151 126.31 200.026 126.701 199.774 127.045C199.525 127.39 199.177 127.662 198.73 127.861C198.282 128.06 197.762 128.159 197.169 128.159C196.39 128.159 195.745 127.99 195.235 127.652C194.724 127.314 194.401 126.82 194.265 126.17L195.379 125.892C195.485 126.303 195.685 126.611 195.98 126.817C196.279 127.022 196.668 127.125 197.149 127.125C197.695 127.125 198.13 127.009 198.451 126.777C198.776 126.542 198.938 126.26 198.938 125.932C198.938 125.667 198.846 125.445 198.66 125.266C198.474 125.083 198.189 124.947 197.805 124.858L196.532 124.56C195.833 124.394 195.319 124.137 194.991 123.789C194.666 123.438 194.504 122.999 194.504 122.472C194.504 122.041 194.625 121.66 194.867 121.328C195.112 120.997 195.445 120.737 195.866 120.548C196.29 120.359 196.771 120.264 197.308 120.264C198.063 120.264 198.657 120.43 199.088 120.761C199.522 121.093 199.83 121.53 200.012 122.074ZM205.239 120.364V121.358H201.281V120.364H205.239ZM202.435 118.534H203.608V125.812C203.608 126.144 203.656 126.393 203.752 126.558C203.852 126.721 203.978 126.83 204.13 126.886C204.286 126.939 204.45 126.966 204.622 126.966C204.751 126.966 204.857 126.959 204.94 126.946C205.023 126.929 205.089 126.916 205.139 126.906L205.378 127.96C205.298 127.99 205.187 128.02 205.045 128.05C204.902 128.083 204.722 128.099 204.503 128.099C204.171 128.099 203.847 128.028 203.528 127.886C203.214 127.743 202.952 127.526 202.743 127.234C202.537 126.943 202.435 126.575 202.435 126.131V118.534ZM210.123 128.159C209.387 128.159 208.753 127.997 208.219 127.672C207.689 127.344 207.279 126.886 206.991 126.3C206.706 125.71 206.564 125.024 206.564 124.241C206.564 123.459 206.706 122.77 206.991 122.173C207.279 121.573 207.681 121.106 208.194 120.771C208.711 120.433 209.315 120.264 210.004 120.264C210.402 120.264 210.794 120.33 211.182 120.463C211.57 120.596 211.923 120.811 212.241 121.109C212.559 121.404 212.813 121.795 213.002 122.283C213.191 122.77 213.285 123.37 213.285 124.082V124.58H207.399V123.565H212.092C212.092 123.134 212.006 122.75 211.833 122.412C211.664 122.074 211.422 121.807 211.108 121.612C210.796 121.416 210.428 121.318 210.004 121.318C209.537 121.318 209.132 121.434 208.791 121.666C208.453 121.895 208.193 122.193 208.01 122.561C207.828 122.929 207.737 123.323 207.737 123.744V124.42C207.737 124.997 207.836 125.486 208.035 125.887C208.237 126.285 208.517 126.588 208.875 126.797C209.233 127.002 209.649 127.105 210.123 127.105C210.431 127.105 210.71 127.062 210.958 126.976C211.21 126.886 211.427 126.754 211.61 126.578C211.792 126.399 211.933 126.177 212.032 125.912L213.166 126.23C213.047 126.615 212.846 126.953 212.564 127.244C212.283 127.533 211.935 127.758 211.52 127.92C211.106 128.08 210.64 128.159 210.123 128.159ZM215.07 130.864V120.364H216.203V121.577H216.343C216.429 121.444 216.548 121.275 216.701 121.07C216.856 120.861 217.078 120.675 217.367 120.513C217.658 120.347 218.053 120.264 218.55 120.264C219.193 120.264 219.76 120.425 220.25 120.746C220.741 121.068 221.124 121.524 221.399 122.114C221.674 122.704 221.811 123.4 221.811 124.202C221.811 125.01 221.674 125.711 221.399 126.305C221.124 126.895 220.743 127.352 220.255 127.677C219.768 127.998 219.206 128.159 218.57 128.159C218.079 128.159 217.687 128.078 217.392 127.915C217.097 127.75 216.87 127.562 216.711 127.354C216.551 127.142 216.429 126.966 216.343 126.827H216.243V130.864H215.07ZM216.223 124.182C216.223 124.759 216.308 125.267 216.477 125.708C216.646 126.146 216.893 126.489 217.218 126.737C217.542 126.982 217.94 127.105 218.411 127.105C218.901 127.105 219.311 126.976 219.639 126.717C219.97 126.455 220.219 126.104 220.385 125.663C220.554 125.219 220.638 124.725 220.638 124.182C220.638 123.645 220.555 123.161 220.39 122.73C220.227 122.296 219.98 121.953 219.649 121.701C219.321 121.446 218.908 121.318 218.411 121.318C217.934 121.318 217.533 121.439 217.208 121.681C216.883 121.92 216.638 122.254 216.472 122.685C216.306 123.113 216.223 123.612 216.223 124.182Z" fill="white" fill-opacity="0.4"/>
<mask id="path-6-inside-3_4_2308" fill="white">
<path d="M49.0742 171.75C49.0742 167.332 52.6559 163.75 57.0742 163.75H157.074C161.492 163.75 165.074 167.332 165.074 171.75V200.75C165.074 205.168 161.492 208.75 157.074 208.75H57.0742C52.6559 208.75 49.0742 205.168 49.0742 200.75V171.75Z"/>
</mask>
<path d="M49.0742 171.75C49.0742 167.332 52.6559 163.75 57.0742 163.75H157.074C161.492 163.75 165.074 167.332 165.074 171.75V200.75C165.074 205.168 161.492 208.75 157.074 208.75H57.0742C52.6559 208.75 49.0742 205.168 49.0742 200.75V171.75Z" fill="white" fill-opacity="0.05"/>
<path d="M57.0742 163.75V164.75H157.074V163.75V162.75H57.0742V163.75ZM165.074 171.75H164.074V200.75H165.074H166.074V171.75H165.074ZM157.074 208.75V207.75H57.0742V208.75V209.75H157.074V208.75ZM49.0742 200.75H50.0742V171.75H49.0742H48.0742V200.75H49.0742ZM57.0742 208.75V207.75C53.2082 207.75 50.0742 204.616 50.0742 200.75H49.0742H48.0742C48.0742 205.721 52.1037 209.75 57.0742 209.75V208.75ZM165.074 200.75H164.074C164.074 204.616 160.94 207.75 157.074 207.75V208.75V209.75C162.045 209.75 166.074 205.721 166.074 200.75H165.074ZM157.074 163.75V164.75C160.94 164.75 164.074 167.884 164.074 171.75H165.074H166.074C166.074 166.779 162.045 162.75 157.074 162.75V163.75ZM57.0742 163.75V162.75C52.1037 162.75 48.0742 166.779 48.0742 171.75H49.0742H50.0742C50.0742 167.884 53.2082 164.75 57.0742 164.75V163.75Z" fill="white" fill-opacity="0.1" mask="url(#path-6-inside-3_4_2308)"/>
<path d="M76.0002 192.917C79.6821 192.917 82.6668 189.932 82.6668 186.25C82.6668 182.568 79.6821 179.583 76.0002 179.583C72.3183 179.583 69.3335 182.568 69.3335 186.25C69.3335 189.932 72.3183 192.917 76.0002 192.917Z" stroke="white" stroke-width="1.66667"/>
<path d="M98.2021 190.5H96.8171L100.823 179.591H102.186L106.192 190.5H104.807L101.547 181.317H101.462L98.2021 190.5ZM98.7134 186.239H104.296V187.411H98.7134V186.239ZM113.516 184.151L112.387 184.47C112.316 184.282 112.211 184.099 112.073 183.922C111.938 183.74 111.753 183.591 111.519 183.474C111.284 183.357 110.984 183.298 110.619 183.298C110.118 183.298 109.701 183.414 109.367 183.645C109.037 183.872 108.871 184.161 108.871 184.513C108.871 184.825 108.985 185.072 109.212 185.253C109.44 185.434 109.795 185.585 110.278 185.706L111.492 186.004C112.224 186.182 112.769 186.453 113.127 186.819C113.486 187.181 113.665 187.648 113.665 188.22C113.665 188.689 113.531 189.108 113.261 189.477C112.994 189.847 112.621 190.138 112.142 190.351C111.663 190.564 111.105 190.67 110.469 190.67C109.635 190.67 108.944 190.489 108.397 190.127C107.85 189.765 107.504 189.236 107.359 188.54L108.552 188.241C108.665 188.682 108.88 189.012 109.196 189.232C109.516 189.452 109.933 189.562 110.448 189.562C111.034 189.562 111.499 189.438 111.844 189.19C112.192 188.937 112.366 188.636 112.366 188.284C112.366 188 112.266 187.762 112.067 187.57C111.869 187.375 111.563 187.229 111.151 187.134L109.788 186.814C109.038 186.636 108.488 186.361 108.136 185.988C107.788 185.612 107.614 185.141 107.614 184.577C107.614 184.115 107.744 183.707 108.003 183.352C108.266 182.996 108.623 182.718 109.074 182.515C109.528 182.313 110.043 182.212 110.619 182.212C111.428 182.212 112.064 182.389 112.526 182.744C112.991 183.099 113.321 183.568 113.516 184.151ZM116.73 187.517L116.708 185.962H116.964L120.544 182.318H122.099L118.285 186.175H118.179L116.73 187.517ZM115.558 190.5V179.591H116.815V190.5H115.558ZM120.757 190.5L117.561 186.452L118.456 185.578L122.355 190.5H120.757Z" fill="white"/>
<path d="M136.148 184.25L140.148 188.25L144.148 184.25" stroke="white" stroke-width="1.33333" stroke-linecap="round" stroke-linejoin="round"/>
<path d="M185.28 193.814L192.399 186.525" stroke="white" stroke-opacity="0.7" stroke-width="1.83333" stroke-linecap="round" stroke-linejoin="round"/>
<path d="M187.815 180.75L180.102 188.62C179.759 188.964 179.565 189.43 179.565 189.917C179.565 190.403 179.759 190.869 180.102 191.213C180.446 191.556 180.912 191.749 181.398 191.749C181.885 191.749 182.351 191.556 182.695 191.213L190.407 183.342C191.095 182.655 191.481 181.722 191.481 180.75C191.481 179.778 191.095 178.845 190.407 178.158C189.72 177.47 188.787 177.084 187.815 177.084C186.843 177.084 185.91 177.47 185.223 178.158L177.509 186.027C176.477 187.059 175.898 188.458 175.898 189.917C175.898 191.375 176.477 192.774 177.509 193.806C178.541 194.837 179.94 195.417 181.398 195.417C182.857 195.417 184.256 194.837 185.288 193.806" stroke="white" stroke-opacity="0.7" stroke-width="1.83333" stroke-linecap="round" stroke-linejoin="round"/>
<g opacity="0.3">
<path d="M575 186.25C575 175.204 583.954 166.25 595 166.25V166.25C606.046 166.25 615 175.204 615 186.25V186.25C615 197.296 606.046 206.25 595 206.25V206.25C583.954 206.25 575 197.296 575 186.25V186.25Z" fill="#70C62D"/>
<path d="M589.167 186.25L595 180.417L600.833 186.25" stroke="black" stroke-width="2.08333" stroke-linecap="round" stroke-linejoin="round"/>
<path d="M595 192.083V180.417" stroke="black" stroke-width="2.08333" stroke-linecap="round" stroke-linejoin="round"/>
</g>
<g filter="url(#filter1_dd_4_2308)">
<path d="M49 73C49 69.6863 51.6863 67 55 67V67C58.3137 67 61 69.6863 61 73V73C61 76.3137 58.3137 79 55 79V79C51.6863 79 49 76.3137 49 73V73Z" fill="#FFBD2E"/>
</g>
<g filter="url(#filter2_dd_4_2308)">
<path d="M67 73C67 69.6863 69.6863 67 73 67V67C76.3137 67 79 69.6863 79 73V73C79 76.3137 76.3137 79 73 79V79C69.6863 79 67 76.3137 67 73V73Z" fill="#27C93F"/>
</g>
</g>
<mask id="path-18-inside-4_4_2308" fill="white">
<path d="M32 60C32 51.1634 39.1634 44 48 44H616C624.837 44 632 51.1634 632 60V60H32V60Z"/>
</mask>
<path d="M32 60C32 51.1634 39.1634 44 48 44H616C624.837 44 632 51.1634 632 60V60H32V60Z" fill="white" fill-opacity="0.05"/>
<path d="M31 60C31 50.6112 38.6112 43 48 43H616C625.389 43 633 50.6112 633 60H631C631 51.7157 624.284 45 616 45H48C39.7157 45 33 51.7157 33 60H31ZM33 60M632 60H32H632M31 60C31 50.6112 38.6112 43 48 43V45C39.7157 45 33 51.7157 33 60H31ZM616 43C625.389 43 633 50.6112 633 60H631C631 51.7157 624.284 45 616 45V43Z" fill="white" fill-opacity="0.2" mask="url(#path-18-inside-4_4_2308)"/>
<path d="M312 52.5C312 51.6716 312.672 51 313.5 51H350.5C351.328 51 352 51.6716 352 52.5V52.5C352 53.3284 351.328 54 350.5 54H313.5C312.672 54 312 53.3284 312 52.5V52.5Z" fill="white" fill-opacity="0.4"/>
<g filter="url(#filter3_dd_4_2308)">
<mask id="path-21-inside-5_4_2308" fill="white">
<path d="M32.2305 18C32.2305 9.16344 39.3939 2 48.2305 2H80.2305C89.067 2 96.2305 9.16344 96.2305 18V18C96.2305 26.8366 89.067 34 80.2305 34H48.2305C39.3939 34 32.2305 26.8366 32.2305 18V18Z"/>
</mask>
<path d="M32.2305 18C32.2305 9.16344 39.3939 2 48.2305 2H80.2305C89.067 2 96.2305 9.16344 96.2305 18V18C96.2305 26.8366 89.067 34 80.2305 34H48.2305C39.3939 34 32.2305 26.8366 32.2305 18V18Z" fill="white" fill-opacity="0.05" shape-rendering="crispEdges"/>
<path d="M32.2305 18M96.2305 18M96.2305 18M32.2305 18M48.2305 2V3H80.2305V2V1H48.2305V2ZM96.2305 18M80.2305 34V33H48.2305V34V35H80.2305V34ZM32.2305 18M48.2305 34V33C39.9462 33 33.2305 26.2843 33.2305 18H32.2305H31.2305C31.2305 27.3888 38.8416 35 48.2305 35V34ZM96.2305 18H95.2305C95.2305 26.2843 88.5147 33 80.2305 33V34V35C89.6193 35 97.2305 27.3888 97.2305 18H96.2305ZM80.2305 2V3C88.5147 3 95.2305 9.71573 95.2305 18H96.2305H97.2305C97.2305 8.61116 89.6193 1 80.2305 1V2ZM48.2305 2V1C38.8416 1 31.2305 8.61116 31.2305 18H32.2305H33.2305C33.2305 9.71573 39.9462 3 48.2305 3V2Z" fill="white" fill-opacity="0.2" mask="url(#path-21-inside-5_4_2308)"/>
<path d="M45 18C45 15.2386 47.2386 13 50 13V13C52.7614 13 55 15.2386 55 18V18C55 20.7614 52.7614 23 50 23V23C47.2386 23 45 20.7614 45 18V18Z" fill="#666666"/>
<g clip-path="url(#clip0_4_2308)">
<path d="M65.1136 13.5227V22.25H64.0568V13.5227H65.1136ZM69.5678 22.3864C69.0224 22.3864 68.5408 22.2486 68.1232 21.973C67.7056 21.6946 67.3789 21.3026 67.1431 20.7969C66.9073 20.2884 66.7894 19.6875 66.7894 18.9943C66.7894 18.3068 66.9073 17.7102 67.1431 17.2045C67.3789 16.6989 67.707 16.3082 68.1275 16.0327C68.5479 15.7571 69.0337 15.6193 69.5849 15.6193C70.011 15.6193 70.3477 15.6903 70.5948 15.8324C70.8448 15.9716 71.0352 16.1307 71.1658 16.3097C71.2994 16.4858 71.4031 16.6307 71.4769 16.7443H71.5621V13.5227H72.5678V22.25H71.5962V21.2443H71.4769C71.4031 21.3636 71.2979 21.5142 71.1616 21.696C71.0252 21.875 70.8306 22.0355 70.5778 22.1776C70.3249 22.3168 69.9883 22.3864 69.5678 22.3864ZM69.7042 21.483C70.1076 21.483 70.4485 21.3778 70.7269 21.1676C71.0053 20.9545 71.217 20.6605 71.3619 20.2855C71.5067 19.9077 71.5792 19.4716 71.5792 18.9773C71.5792 18.4886 71.5082 18.0611 71.3661 17.6946C71.2241 17.3253 71.0138 17.0384 70.7354 16.8338C70.457 16.6264 70.1133 16.5227 69.7042 16.5227C69.2781 16.5227 68.9229 16.6321 68.6388 16.8509C68.3576 17.0668 68.146 17.3608 68.0039 17.733C67.8647 18.1023 67.7951 18.517 67.7951 18.9773C67.7951 19.4432 67.8661 19.8665 68.0082 20.2472C68.1531 20.625 68.3661 20.9261 68.6474 21.1506C68.9315 21.3722 69.2837 21.483 69.7042 21.483ZM75.555 13.5227V22.25H74.5494V13.5227H75.555ZM80.1413 22.3864C79.5107 22.3864 78.9666 22.2472 78.5092 21.9688C78.0547 21.6875 77.7038 21.2955 77.4567 20.7926C77.2124 20.2869 77.0902 19.6989 77.0902 19.0284C77.0902 18.358 77.2124 17.767 77.4567 17.2557C77.7038 16.7415 78.0476 16.3409 78.4879 16.054C78.9311 15.7642 79.4482 15.6193 80.0391 15.6193C80.38 15.6193 80.7166 15.6761 81.049 15.7898C81.3814 15.9034 81.6839 16.0881 81.9567 16.3438C82.2294 16.5966 82.4467 16.9318 82.6087 17.3494C82.7706 17.767 82.8516 18.2812 82.8516 18.892V19.3182H77.8061V18.4489H81.8288C81.8288 18.0795 81.755 17.75 81.6072 17.4602C81.4624 17.1705 81.255 16.9418 80.9851 16.7741C80.718 16.6065 80.4027 16.5227 80.0391 16.5227C79.6385 16.5227 79.2919 16.6222 78.9993 16.821C78.7095 17.017 78.4865 17.2727 78.3303 17.5881C78.174 17.9034 78.0959 18.2415 78.0959 18.6023V19.1818C78.0959 19.6761 78.1811 20.0952 78.3516 20.4389C78.5249 20.7798 78.7649 21.0398 79.0717 21.2188C79.3786 21.3949 79.7351 21.483 80.1413 21.483C80.4055 21.483 80.6442 21.446 80.8572 21.3722C81.0732 21.2955 81.2592 21.1818 81.4155 21.0312C81.5717 20.8778 81.6925 20.6875 81.7777 20.4602L82.7493 20.733C82.647 21.0625 82.4751 21.3523 82.2337 21.6023C81.9922 21.8494 81.6939 22.0426 81.3388 22.1818C80.9837 22.3182 80.5845 22.3864 80.1413 22.3864Z" fill="white" fill-opacity="0.9"/>
</g>
</g>
<defs>
<filter id="filter0_d_4_2308" x="0" y="19.75" width="664" height="246" filterUnits="userSpaceOnUse" color-interpolation-filters="sRGB">
<feFlood flood-opacity="0" result="BackgroundImageFix"/>
<feColorMatrix in="SourceAlpha" type="matrix" values="0 0 0 0 0 0 0 0 0 0 0 0 0 0 0 0 0 0 127 0" result="hardAlpha"/>
<feOffset dy="8"/>
<feGaussianBlur stdDeviation="16"/>
<feComposite in2="hardAlpha" operator="out"/>
<feColorMatrix type="matrix" values="0 0 0 0 0 0 0 0 0 0 0 0 0 0 0 0 0 0 0.37 0"/>
<feBlend mode="normal" in2="BackgroundImageFix" result="effect1_dropShadow_4_2308"/>
<feBlend mode="normal" in="SourceGraphic" in2="effect1_dropShadow_4_2308" result="shape"/>
</filter>
<filter id="filter1_dd_4_2308" x="46" y="65" width="18" height="18" filterUnits="userSpaceOnUse" color-interpolation-filters="sRGB">
<feFlood flood-opacity="0" result="BackgroundImageFix"/>
<feColorMatrix in="SourceAlpha" type="matrix" values="0 0 0 0 0 0 0 0 0 0 0 0 0 0 0 0 0 0 127 0" result="hardAlpha"/>
<feMorphology radius="1" operator="erode" in="SourceAlpha" result="effect1_dropShadow_4_2308"/>
<feOffset dy="1"/>
<feGaussianBlur stdDeviation="1"/>
<feComposite in2="hardAlpha" operator="out"/>
<feColorMatrix type="matrix" values="0 0 0 0 0 0 0 0 0 0 0 0 0 0 0 0 0 0 0.1 0"/>
<feBlend mode="normal" in2="BackgroundImageFix" result="effect1_dropShadow_4_2308"/>
<feColorMatrix in="SourceAlpha" type="matrix" values="0 0 0 0 0 0 0 0 0 0 0 0 0 0 0 0 0 0 127 0" result="hardAlpha"/>
<feOffset dy="1"/>
<feGaussianBlur stdDeviation="1.5"/>
<feComposite in2="hardAlpha" operator="out"/>
<feColorMatrix type="matrix" values="0 0 0 0 0 0 0 0 0 0 0 0 0 0 0 0 0 0 0.1 0"/>
<feBlend mode="normal" in2="effect1_dropShadow_4_2308" result="effect2_dropShadow_4_2308"/>
<feBlend mode="normal" in="SourceGraphic" in2="effect2_dropShadow_4_2308" result="shape"/>
</filter>
<filter id="filter2_dd_4_2308" x="64" y="65" width="18" height="18" filterUnits="userSpaceOnUse" color-interpolation-filters="sRGB">
<feFlood flood-opacity="0" result="BackgroundImageFix"/>
<feColorMatrix in="SourceAlpha" type="matrix" values="0 0 0 0 0 0 0 0 0 0 0 0 0 0 0 0 0 0 127 0" result="hardAlpha"/>
<feMorphology radius="1" operator="erode" in="SourceAlpha" result="effect1_dropShadow_4_2308"/>
<feOffset dy="1"/>
<feGaussianBlur stdDeviation="1"/>
<feComposite in2="hardAlpha" operator="out"/>
<feColorMatrix type="matrix" values="0 0 0 0 0 0 0 0 0 0 0 0 0 0 0 0 0 0 0.1 0"/>
<feBlend mode="normal" in2="BackgroundImageFix" result="effect1_dropShadow_4_2308"/>
<feColorMatrix in="SourceAlpha" type="matrix" values="0 0 0 0 0 0 0 0 0 0 0 0 0 0 0 0 0 0 127 0" result="hardAlpha"/>
<feOffset dy="1"/>
<feGaussianBlur stdDeviation="1.5"/>
<feComposite in2="hardAlpha" operator="out"/>
<feColorMatrix type="matrix" values="0 0 0 0 0 0 0 0 0 0 0 0 0 0 0 0 0 0 0.1 0"/>
<feBlend mode="normal" in2="effect1_dropShadow_4_2308" result="effect2_dropShadow_4_2308"/>
<feBlend mode="normal" in="SourceGraphic" in2="effect2_dropShadow_4_2308" result="shape"/>
</filter>
<filter id="filter3_dd_4_2308" x="20.2305" y="0" width="88" height="56" filterUnits="userSpaceOnUse" color-interpolation-filters="sRGB">
<feFlood flood-opacity="0" result="BackgroundImageFix"/>
<feColorMatrix in="SourceAlpha" type="matrix" values="0 0 0 0 0 0 0 0 0 0 0 0 0 0 0 0 0 0 127 0" result="hardAlpha"/>
<feMorphology radius="4" operator="erode" in="SourceAlpha" result="effect1_dropShadow_4_2308"/>
<feOffset dy="4"/>
<feGaussianBlur stdDeviation="3"/>
<feComposite in2="hardAlpha" operator="out"/>
<feColorMatrix type="matrix" values="0 0 0 0 0 0 0 0 0 0 0 0 0 0 0 0 0 0 0.1 0"/>
<feBlend mode="normal" in2="BackgroundImageFix" result="effect1_dropShadow_4_2308"/>
<feColorMatrix in="SourceAlpha" type="matrix" values="0 0 0 0 0 0 0 0 0 0 0 0 0 0 0 0 0 0 127 0" result="hardAlpha"/>
<feMorphology radius="3" operator="erode" in="SourceAlpha" result="effect2_dropShadow_4_2308"/>
<feOffset dy="10"/>
<feGaussianBlur stdDeviation="7.5"/>
<feComposite in2="hardAlpha" operator="out"/>
<feColorMatrix type="matrix" values="0 0 0 0 0 0 0 0 0 0 0 0 0 0 0 0 0 0 0.1 0"/>
<feBlend mode="normal" in2="effect1_dropShadow_4_2308" result="effect2_dropShadow_4_2308"/>
<feBlend mode="normal" in="SourceGraphic" in2="effect2_dropShadow_4_2308" result="shape"/>
</filter>
<clipPath id="clip0_4_2308">
<rect width="20" height="18" fill="white" transform="translate(63.2305 9)"/>
</clipPath>
</defs>
</svg>
