<svg width="2560" height="1275" viewBox="0 0 2560 1275" fill="none" xmlns="http://www.w3.org/2000/svg">
<g clip-path="url(#clip0_4_4019)">
<mask id="path-1-inside-1_4_4019" fill="white">
<path d="M1284.5 15C1284.5 10.5818 1288.08 7 1292.5 7H2545C2549.42 7 2553 10.5817 2553 15V1260C2553 1264.42 2549.42 1268 2545 1268H1292.5C1288.08 1268 1284.5 1264.42 1284.5 1260V15Z"/>
</mask>
<path d="M1292.5 7V8H2545V7V6H1292.5V7ZM2553 15H2552V1260H2553H2554V15H2553ZM2545 1268V1267H1292.5V1268V1269H2545V1268ZM1284.5 1260H1285.5V15H1284.5H1283.5V1260H1284.5ZM1292.5 1268V1267C1288.63 1267 1285.5 1263.87 1285.5 1260H1284.5H1283.5C1283.5 1264.97 1287.53 1269 1292.5 1269V1268ZM2553 1260H2552C2552 1263.87 2548.87 1267 2545 1267V1268V1269C2549.97 1269 2554 1264.97 2554 1260H2553ZM2545 7V8C2548.87 8 2552 11.134 2552 15H2553H2554C2554 10.0294 2549.97 6 2545 6V7ZM1292.5 7V6C1287.53 6 1283.5 10.0295 1283.5 15H1284.5H1285.5C1285.5 11.134 1288.63 8 1292.5 8V7Z" fill="#3A3A3A" mask="url(#path-1-inside-1_4_4019)"/>
<g clip-path="url(#clip1_4_4019)">
</g>
<path d="M1298.54 20.5H1300L1302.55 26.7187H1302.64L1305.19 20.5H1306.65V28.5H1305.51V22.7109H1305.43L1303.07 28.4883H1302.12L1299.76 22.707H1299.69V28.5H1298.54V20.5ZM1310.84 28.6211C1310.28 28.6211 1309.79 28.4922 1309.37 28.2344C1308.95 27.9766 1308.63 27.6159 1308.39 27.1523C1308.16 26.6888 1308.05 26.1471 1308.05 25.5273C1308.05 24.9049 1308.16 24.3607 1308.39 23.8945C1308.63 23.4284 1308.95 23.0664 1309.37 22.8086C1309.79 22.5508 1310.28 22.4219 1310.84 22.4219C1311.41 22.4219 1311.9 22.5508 1312.32 22.8086C1312.74 23.0664 1313.06 23.4284 1313.29 23.8945C1313.52 24.3607 1313.64 24.9049 1313.64 25.5273C1313.64 26.1471 1313.52 26.6888 1313.29 27.1523C1313.06 27.6159 1312.74 27.9766 1312.32 28.2344C1311.9 28.4922 1311.41 28.6211 1310.84 28.6211ZM1310.85 27.6406C1311.21 27.6406 1311.51 27.5443 1311.75 27.3516C1311.99 27.1589 1312.17 26.9023 1312.28 26.582C1312.4 26.2617 1312.46 25.9089 1312.46 25.5234C1312.46 25.1406 1312.4 24.7891 1312.28 24.4687C1312.17 24.1458 1311.99 23.8867 1311.75 23.6914C1311.51 23.4961 1311.21 23.3984 1310.85 23.3984C1310.48 23.3984 1310.18 23.4961 1309.93 23.6914C1309.69 23.8867 1309.52 24.1458 1309.4 24.4687C1309.28 24.7891 1309.23 25.1406 1309.23 25.5234C1309.23 25.9089 1309.28 26.2617 1309.4 26.582C1309.52 26.9023 1309.69 27.1589 1309.93 27.3516C1310.18 27.5443 1310.48 27.6406 1310.85 27.6406ZM1317.47 28.6211C1316.91 28.6211 1316.42 28.4922 1316 28.2344C1315.58 27.9766 1315.25 27.6159 1315.02 27.1523C1314.79 26.6888 1314.67 26.1471 1314.67 25.5273C1314.67 24.9049 1314.79 24.3607 1315.02 23.8945C1315.25 23.4284 1315.58 23.0664 1316 22.8086C1316.42 22.5508 1316.91 22.4219 1317.47 22.4219C1318.03 22.4219 1318.52 22.5508 1318.94 22.8086C1319.36 23.0664 1319.69 23.4284 1319.92 23.8945C1320.15 24.3607 1320.27 24.9049 1320.27 25.5273C1320.27 26.1471 1320.15 26.6888 1319.92 27.1523C1319.69 27.6159 1319.36 27.9766 1318.94 28.2344C1318.52 28.4922 1318.03 28.6211 1317.47 28.6211ZM1317.48 27.6406C1317.84 27.6406 1318.14 27.5443 1318.38 27.3516C1318.62 27.1589 1318.8 26.9023 1318.91 26.582C1319.03 26.2617 1319.09 25.9089 1319.09 25.5234C1319.09 25.1406 1319.03 24.7891 1318.91 24.4687C1318.8 24.1458 1318.62 23.8867 1318.38 23.6914C1318.14 23.4961 1317.84 23.3984 1317.48 23.3984C1317.11 23.3984 1316.8 23.4961 1316.56 23.6914C1316.32 23.8867 1316.14 24.1458 1316.03 24.4687C1315.91 24.7891 1315.85 25.1406 1315.85 25.5234C1315.85 25.9089 1315.91 26.2617 1316.03 26.582C1316.14 26.9023 1316.32 27.1589 1316.56 27.3516C1316.8 27.5443 1317.11 27.6406 1317.48 27.6406ZM1323.82 28.6172C1323.33 28.6172 1322.9 28.4935 1322.52 28.2461C1322.14 27.9961 1321.85 27.6406 1321.63 27.1797C1321.42 26.7161 1321.31 26.1602 1321.31 25.5117C1321.31 24.8633 1321.42 24.3086 1321.63 23.8477C1321.85 23.3867 1322.15 23.0339 1322.53 22.7891C1322.91 22.5443 1323.34 22.4219 1323.83 22.4219C1324.2 22.4219 1324.5 22.4844 1324.72 22.6094C1324.95 22.7318 1325.13 22.875 1325.26 23.0391C1325.38 23.2031 1325.48 23.3477 1325.55 23.4727H1325.62V20.5H1326.79V28.5H1325.65V27.5664H1325.55C1325.48 27.694 1325.38 27.8398 1325.25 28.0039C1325.12 28.168 1324.94 28.3112 1324.71 28.4336C1324.48 28.556 1324.18 28.6172 1323.82 28.6172ZM1324.08 27.6211C1324.41 27.6211 1324.7 27.5326 1324.93 27.3555C1325.16 27.1758 1325.34 26.9271 1325.46 26.6094C1325.58 26.2917 1325.64 25.9219 1325.64 25.5C1325.64 25.0833 1325.58 24.7187 1325.46 24.4062C1325.34 24.0937 1325.17 23.8503 1324.94 23.6758C1324.7 23.5013 1324.42 23.4141 1324.08 23.4141C1323.72 23.4141 1323.43 23.5052 1323.2 23.6875C1322.96 23.8698 1322.79 24.1185 1322.67 24.4336C1322.55 24.7487 1322.49 25.1042 1322.49 25.5C1322.49 25.901 1322.55 26.2617 1322.67 26.582C1322.79 26.9023 1322.97 27.1562 1323.2 27.3437C1323.44 27.5286 1323.73 27.6211 1324.08 27.6211ZM1328.55 28.5V20.5H1329.72V23.4727H1329.79C1329.86 23.3477 1329.95 23.2031 1330.08 23.0391C1330.21 22.875 1330.39 22.7318 1330.61 22.6094C1330.84 22.4844 1331.14 22.4219 1331.51 22.4219C1332 22.4219 1332.43 22.5443 1332.81 22.7891C1333.19 23.0339 1333.49 23.3867 1333.7 23.8477C1333.92 24.3086 1334.03 24.8633 1334.03 25.5117C1334.03 26.1602 1333.92 26.7161 1333.71 27.1797C1333.49 27.6406 1333.19 27.9961 1332.82 28.2461C1332.44 28.4935 1332.01 28.6172 1331.52 28.6172C1331.16 28.6172 1330.86 28.556 1330.63 28.4336C1330.4 28.3112 1330.22 28.168 1330.09 28.0039C1329.96 27.8398 1329.86 27.694 1329.79 27.5664H1329.69V28.5H1328.55ZM1329.7 25.5C1329.7 25.9219 1329.76 26.2917 1329.88 26.6094C1330 26.9271 1330.18 27.1758 1330.41 27.3555C1330.64 27.5326 1330.93 27.6211 1331.26 27.6211C1331.61 27.6211 1331.9 27.5286 1332.14 27.3437C1332.37 27.1562 1332.55 26.9023 1332.67 26.582C1332.79 26.2617 1332.85 25.901 1332.85 25.5C1332.85 25.1042 1332.79 24.7487 1332.67 24.4336C1332.56 24.1185 1332.38 23.8698 1332.14 23.6875C1331.91 23.5052 1331.61 23.4141 1331.26 23.4141C1330.92 23.4141 1330.64 23.5013 1330.4 23.6758C1330.17 23.8503 1330 24.0937 1329.88 24.4062C1329.76 24.7187 1329.7 25.0833 1329.7 25.5ZM1337.87 28.6211C1337.31 28.6211 1336.82 28.4922 1336.4 28.2344C1335.98 27.9766 1335.65 27.6159 1335.42 27.1523C1335.19 26.6888 1335.07 26.1471 1335.07 25.5273C1335.07 24.9049 1335.19 24.3607 1335.42 23.8945C1335.65 23.4284 1335.98 23.0664 1336.4 22.8086C1336.82 22.5508 1337.31 22.4219 1337.87 22.4219C1338.43 22.4219 1338.92 22.5508 1339.34 22.8086C1339.76 23.0664 1340.09 23.4284 1340.32 23.8945C1340.55 24.3607 1340.67 24.9049 1340.67 25.5273C1340.67 26.1471 1340.55 26.6888 1340.32 27.1523C1340.09 27.6159 1339.76 27.9766 1339.34 28.2344C1338.92 28.4922 1338.43 28.6211 1337.87 28.6211ZM1337.87 27.6406C1338.24 27.6406 1338.54 27.5443 1338.78 27.3516C1339.02 27.1589 1339.2 26.9023 1339.31 26.582C1339.43 26.2617 1339.49 25.9089 1339.49 25.5234C1339.49 25.1406 1339.43 24.7891 1339.31 24.4687C1339.2 24.1458 1339.02 23.8867 1338.78 23.6914C1338.54 23.4961 1338.24 23.3984 1337.87 23.3984C1337.51 23.3984 1337.2 23.4961 1336.96 23.6914C1336.72 23.8867 1336.54 24.1458 1336.43 24.4687C1336.31 24.7891 1336.25 25.1406 1336.25 25.5234C1336.25 25.9089 1336.31 26.2617 1336.43 26.582C1336.54 26.9023 1336.72 27.1589 1336.96 27.3516C1337.2 27.5443 1337.51 27.6406 1337.87 27.6406ZM1343.72 28.6328C1343.34 28.6328 1342.99 28.5625 1342.69 28.4219C1342.38 28.2786 1342.14 28.0716 1341.96 27.8008C1341.78 27.5299 1341.69 27.1979 1341.69 26.8047C1341.69 26.4661 1341.76 26.1875 1341.89 25.9687C1342.02 25.75 1342.19 25.5768 1342.41 25.4492C1342.63 25.3216 1342.88 25.2253 1343.15 25.1602C1343.43 25.0951 1343.71 25.0456 1343.99 25.0117C1344.35 24.9701 1344.64 24.9362 1344.87 24.9102C1345.09 24.8815 1345.25 24.8359 1345.35 24.7734C1345.46 24.7109 1345.51 24.6094 1345.51 24.4687V24.4414C1345.51 24.1003 1345.41 23.8359 1345.22 23.6484C1345.03 23.4609 1344.74 23.3672 1344.37 23.3672C1343.97 23.3672 1343.66 23.4544 1343.44 23.6289C1343.21 23.8008 1343.06 23.9922 1342.97 24.2031L1341.87 23.9531C1342 23.5885 1342.19 23.2943 1342.44 23.0703C1342.7 22.8437 1342.99 22.6797 1343.31 22.5781C1343.64 22.474 1343.99 22.4219 1344.35 22.4219C1344.59 22.4219 1344.84 22.4505 1345.11 22.5078C1345.38 22.5625 1345.64 22.6641 1345.87 22.8125C1346.11 22.9609 1346.3 23.1732 1346.45 23.4492C1346.6 23.7227 1346.68 24.0781 1346.68 24.5156V28.5H1345.54V27.6797H1345.49C1345.42 27.8307 1345.3 27.9792 1345.15 28.125C1345 28.2708 1344.81 28.3919 1344.57 28.4883C1344.33 28.5846 1344.05 28.6328 1343.72 28.6328ZM1343.97 27.6953C1344.29 27.6953 1344.57 27.6315 1344.8 27.5039C1345.03 27.3763 1345.21 27.2096 1345.33 27.0039C1345.45 26.7956 1345.51 26.5729 1345.51 26.3359V25.5625C1345.47 25.6042 1345.39 25.6432 1345.27 25.6797C1345.15 25.7135 1345.02 25.7435 1344.87 25.7695C1344.71 25.793 1344.57 25.8151 1344.42 25.8359C1344.28 25.8542 1344.16 25.8698 1344.06 25.8828C1343.84 25.9115 1343.63 25.9596 1343.44 26.0273C1343.26 26.0951 1343.11 26.1927 1343 26.3203C1342.89 26.4453 1342.83 26.612 1342.83 26.8203C1342.83 27.1094 1342.94 27.3281 1343.15 27.4766C1343.37 27.6224 1343.64 27.6953 1343.97 27.6953ZM1348.23 28.5V22.5H1349.36V23.4531H1349.43C1349.53 23.1302 1349.73 22.8763 1350 22.6914C1350.28 22.5039 1350.6 22.4102 1350.95 22.4102C1351.02 22.4102 1351.11 22.4128 1351.21 22.418C1351.31 22.4232 1351.39 22.4297 1351.44 22.4375V23.5547C1351.4 23.5417 1351.31 23.5273 1351.19 23.5117C1351.08 23.4935 1350.96 23.4844 1350.84 23.4844C1350.56 23.4844 1350.31 23.543 1350.1 23.6602C1349.88 23.7747 1349.71 23.9349 1349.59 24.1406C1349.46 24.3437 1349.4 24.5755 1349.4 24.8359V28.5H1348.23ZM1354.49 28.6172C1354 28.6172 1353.57 28.4935 1353.19 28.2461C1352.81 27.9961 1352.52 27.6406 1352.3 27.1797C1352.09 26.7161 1351.98 26.1602 1351.98 25.5117C1351.98 24.8633 1352.09 24.3086 1352.3 23.8477C1352.52 23.3867 1352.82 23.0339 1353.2 22.7891C1353.58 22.5443 1354.01 22.4219 1354.49 22.4219C1354.87 22.4219 1355.17 22.4844 1355.39 22.6094C1355.62 22.7318 1355.8 22.875 1355.92 23.0391C1356.05 23.2031 1356.15 23.3477 1356.22 23.4727H1356.29V20.5H1357.46V28.5H1356.32V27.5664H1356.22C1356.15 27.694 1356.05 27.8398 1355.92 28.0039C1355.79 28.168 1355.61 28.3112 1355.38 28.4336C1355.15 28.556 1354.85 28.6172 1354.49 28.6172ZM1354.74 27.6211C1355.08 27.6211 1355.36 27.5326 1355.6 27.3555C1355.83 27.1758 1356.01 26.9271 1356.13 26.6094C1356.25 26.2917 1356.31 25.9219 1356.31 25.5C1356.31 25.0833 1356.25 24.7187 1356.13 24.4062C1356.01 24.0937 1355.84 23.8503 1355.6 23.6758C1355.37 23.5013 1355.09 23.4141 1354.74 23.4141C1354.39 23.4141 1354.1 23.5052 1353.87 23.6875C1353.63 23.8698 1353.45 24.1185 1353.33 24.4336C1353.22 24.7487 1353.16 25.1042 1353.16 25.5C1353.16 25.901 1353.22 26.2617 1353.34 26.582C1353.46 26.9023 1353.64 27.1562 1353.87 27.3437C1354.11 27.5286 1354.4 27.6211 1354.74 27.6211Z" fill="white" fill-opacity="0.8"/>
<path d="M1367.28 22.75L1370.28 25.75L1373.28 22.75" stroke="white" stroke-opacity="0.8" stroke-linecap="round" stroke-linejoin="round"/>
<path d="M1385.88 20.5L1388.1 27.0156H1388.19L1390.42 20.5H1391.73L1388.85 28.5H1387.45L1384.57 20.5H1385.88ZM1392.79 28.5V22.5H1393.95V28.5H1392.79ZM1393.38 21.5742C1393.17 21.5742 1393 21.5065 1392.85 21.3711C1392.71 21.2331 1392.64 21.069 1392.64 20.8789C1392.64 20.6862 1392.71 20.5221 1392.85 20.3867C1393 20.2487 1393.17 20.1797 1393.38 20.1797C1393.58 20.1797 1393.75 20.2487 1393.9 20.3867C1394.04 20.5221 1394.11 20.6862 1394.11 20.8789C1394.11 21.069 1394.04 21.2331 1393.9 21.3711C1393.75 21.5065 1393.58 21.5742 1393.38 21.5742ZM1398.11 28.6211C1397.52 28.6211 1397.01 28.4948 1396.58 28.2422C1396.16 27.987 1395.83 27.6289 1395.6 27.168C1395.37 26.7044 1395.26 26.1615 1395.26 25.5391C1395.26 24.9245 1395.37 24.3828 1395.6 23.9141C1395.83 23.4453 1396.15 23.0794 1396.57 22.8164C1396.99 22.5534 1397.47 22.4219 1398.03 22.4219C1398.37 22.4219 1398.7 22.4779 1399.01 22.5898C1399.33 22.7018 1399.62 22.8776 1399.87 23.1172C1400.12 23.3568 1400.32 23.668 1400.47 24.0508C1400.61 24.431 1400.69 24.8932 1400.69 25.4375V25.8516H1395.92V24.9766H1399.54C1399.54 24.6693 1399.48 24.3971 1399.35 24.1602C1399.23 23.9206 1399.05 23.7318 1398.83 23.5937C1398.6 23.4557 1398.34 23.3867 1398.04 23.3867C1397.71 23.3867 1397.42 23.4674 1397.18 23.6289C1396.94 23.7878 1396.75 23.9961 1396.62 24.2539C1396.49 24.5091 1396.42 24.7865 1396.42 25.0859V25.7695C1396.42 26.1706 1396.49 26.5117 1396.63 26.793C1396.77 27.0742 1396.97 27.2891 1397.23 27.4375C1397.48 27.5833 1397.78 27.6562 1398.12 27.6562C1398.34 27.6562 1398.55 27.625 1398.73 27.5625C1398.91 27.4974 1399.07 27.401 1399.2 27.2734C1399.33 27.1458 1399.44 26.9883 1399.51 26.8008L1400.61 27C1400.52 27.3255 1400.36 27.6107 1400.14 27.8555C1399.91 28.0977 1399.62 28.2865 1399.28 28.4219C1398.94 28.5547 1398.55 28.6211 1398.11 28.6211ZM1403.27 28.5L1401.51 22.5H1402.71L1403.89 26.9062H1403.95L1405.13 22.5H1406.33L1407.51 26.8867H1407.56L1408.73 22.5H1409.94L1408.18 28.5H1406.99L1405.77 24.168H1405.68L1404.46 28.5H1403.27Z" fill="white" fill-opacity="0.8"/>
<path d="M1419.25 22.75L1422.25 25.75L1425.25 22.75" stroke="white" stroke-opacity="0.8" stroke-linecap="round" stroke-linejoin="round"/>
<path d="M1297.5 66C1297.5 61.5817 1301.08 58 1305.5 58H1339.5C1343.92 58 1347.5 61.5817 1347.5 66V90C1347.5 94.4183 1343.92 98 1339.5 98H1305.5C1301.08 98 1297.5 94.4183 1297.5 90V66Z" fill="#1A1A1A"/>
<path d="M1308.17 78H1318.83" stroke="white" stroke-opacity="0.7" stroke-width="1.33333" stroke-linecap="round" stroke-linejoin="round"/>
<path d="M1308.17 74H1318.83" stroke="white" stroke-opacity="0.7" stroke-width="1.33333" stroke-linecap="round" stroke-linejoin="round"/>
<path d="M1308.17 82H1318.83" stroke="white" stroke-opacity="0.7" stroke-width="1.33333" stroke-linecap="round" stroke-linejoin="round"/>
<path d="M1329 76.25L1332.5 79.75L1336 76.25" stroke="white" stroke-opacity="0.7" stroke-width="1.16667" stroke-linecap="round" stroke-linejoin="round"/>
<path d="M1297.5 112C1297.5 107.582 1301.08 104 1305.5 104H1339.5C1343.92 104 1347.5 107.582 1347.5 112V136C1347.5 140.418 1343.92 144 1339.5 144H1305.5C1301.08 144 1297.5 140.418 1297.5 136V112Z" fill="#1A1A1A"/>
<path d="M1313.5 130.667C1317.18 130.667 1320.17 127.682 1320.17 124C1320.17 120.318 1317.18 117.333 1313.5 117.333C1309.82 117.333 1306.83 120.318 1306.83 124C1306.83 127.682 1309.82 130.667 1313.5 130.667Z" stroke="white" stroke-opacity="0.7" stroke-width="1.33333" stroke-linecap="round" stroke-linejoin="round"/>
<path d="M1329 122.25L1332.5 125.75L1336 122.25" stroke="white" stroke-opacity="0.7" stroke-width="1.16667" stroke-linecap="round" stroke-linejoin="round"/>
<path d="M1297.5 158C1297.5 153.582 1301.08 150 1305.5 150H1339.5C1343.92 150 1347.5 153.582 1347.5 158V182C1347.5 186.418 1343.92 190 1339.5 190H1305.5C1301.08 190 1297.5 186.418 1297.5 182V158Z" fill="#1A1A1A"/>
<path d="M1317.17 166.667V164.667H1327.83V166.667" stroke="white" stroke-opacity="0.7" stroke-width="1.33333" stroke-linecap="round" stroke-linejoin="round"/>
<path d="M1320.5 175.333H1324.5" stroke="white" stroke-opacity="0.7" stroke-width="1.33333" stroke-linecap="round" stroke-linejoin="round"/>
<path d="M1322.5 164.667V175.333" stroke="white" stroke-opacity="0.7" stroke-width="1.33333" stroke-linecap="round" stroke-linejoin="round"/>
<path d="M1297.5 204C1297.5 199.582 1301.08 196 1305.5 196H1339.5C1343.92 196 1347.5 199.582 1347.5 204V228C1347.5 232.418 1343.92 236 1339.5 236H1305.5C1301.08 236 1297.5 232.418 1297.5 228V204Z" fill="#1A1A1A"/>
<path d="M1319.83 210H1317.83C1317.48 210 1317.14 210.14 1316.89 210.391C1316.64 210.641 1316.5 210.98 1316.5 211.333V213.333" stroke="white" stroke-opacity="0.7" stroke-width="1.33333" stroke-linecap="round" stroke-linejoin="round"/>
<path d="M1328.5 213.333V211.333C1328.5 210.98 1328.36 210.641 1328.11 210.391C1327.86 210.14 1327.52 210 1327.17 210H1325.17" stroke="white" stroke-opacity="0.7" stroke-width="1.33333" stroke-linecap="round" stroke-linejoin="round"/>
<path d="M1316.5 218.667V220.667C1316.5 221.02 1316.64 221.36 1316.89 221.61C1317.14 221.86 1317.48 222 1317.83 222H1319.83" stroke="white" stroke-opacity="0.7" stroke-width="1.33333" stroke-linecap="round" stroke-linejoin="round"/>
<path d="M1325.17 222H1327.17C1327.52 222 1327.86 221.86 1328.11 221.61C1328.36 221.36 1328.5 221.02 1328.5 220.667V218.667" stroke="white" stroke-opacity="0.7" stroke-width="1.33333" stroke-linecap="round" stroke-linejoin="round"/>
<path d="M1297.5 250C1297.5 245.582 1301.08 242 1305.5 242H1339.5C1343.92 242 1347.5 245.582 1347.5 250V274C1347.5 278.418 1343.92 282 1339.5 282H1305.5C1301.08 282 1297.5 278.418 1297.5 274V250Z" fill="#1A1A1A"/>
<path d="M1316.5 262C1316.5 263.187 1316.85 264.347 1317.51 265.333C1318.17 266.32 1319.11 267.089 1320.2 267.543C1321.3 267.997 1322.51 268.116 1323.67 267.885C1324.83 267.653 1325.9 267.082 1326.74 266.243C1327.58 265.404 1328.15 264.334 1328.38 263.171C1328.62 262.007 1328.5 260.8 1328.04 259.704C1327.59 258.608 1326.82 257.67 1325.83 257.011C1324.85 256.352 1323.69 256 1322.5 256C1320.82 256.006 1319.21 256.661 1318.01 257.827L1316.5 259.333" stroke="white" stroke-opacity="0.7" stroke-width="1.33333" stroke-linecap="round" stroke-linejoin="round"/>
<path d="M1316.5 256V259.333H1319.83" stroke="white" stroke-opacity="0.7" stroke-width="1.33333" stroke-linecap="round" stroke-linejoin="round"/>
<path d="M1297.5 296C1297.5 291.582 1301.08 288 1305.5 288H1339.5C1343.92 288 1347.5 291.582 1347.5 296V320C1347.5 324.418 1343.92 328 1339.5 328H1305.5C1301.08 328 1297.5 324.418 1297.5 320V296Z" fill="#1A1A1A"/>
<path d="M1317.83 308L1322.5 303.333L1327.17 308" stroke="white" stroke-opacity="0.7" stroke-width="1.33333" stroke-linecap="round" stroke-linejoin="round"/>
<path d="M1322.5 312.667V303.333" stroke="white" stroke-opacity="0.7" stroke-width="1.33333" stroke-linecap="round" stroke-linejoin="round"/>
<mask id="path-271-inside-2_4_4019" fill="white">
<path d="M2508 66C2508 61.5817 2511.58 58 2516 58H2532C2536.42 58 2540 61.5817 2540 66V150C2540 154.418 2536.42 158 2532 158H2516C2511.58 158 2508 154.418 2508 150V66Z"/>
</mask>
<path d="M2508 66C2508 61.5817 2511.58 58 2516 58H2532C2536.42 58 2540 61.5817 2540 66V150C2540 154.418 2536.42 158 2532 158H2516C2511.58 158 2508 154.418 2508 150V66Z" fill="#252525"/>
<path d="M2516 58V59H2532V58V57H2516V58ZM2540 66H2539V150H2540H2541V66H2540ZM2532 158V157H2516V158V159H2532V158ZM2508 150H2509V66H2508H2507V150H2508ZM2516 158V157C2512.13 157 2509 153.866 2509 150H2508H2507C2507 154.971 2511.03 159 2516 159V158ZM2540 150H2539C2539 153.866 2535.87 157 2532 157V158V159C2536.97 159 2541 154.971 2541 150H2540ZM2532 58V59C2535.87 59 2539 62.134 2539 66H2540H2541C2541 61.0294 2536.97 57 2532 57V58ZM2516 58V57C2511.03 57 2507 61.0294 2507 66H2508H2509C2509 62.134 2512.13 59 2516 59V58Z" fill="#3A3A3A" mask="url(#path-271-inside-2_4_4019)"/>
<path d="M2526.5 83.265H2518.5V82.2963H2526.5V83.265ZM2518.5 84.8074H2524.5V85.698H2523.57V85.7762C2523.89 85.9012 2524.14 86.103 2524.31 86.3816C2524.49 86.6603 2524.58 86.9949 2524.58 87.3855C2524.58 87.7814 2524.49 88.1108 2524.31 88.3738C2524.14 88.6395 2523.89 88.8465 2523.57 88.9949V89.0574C2523.88 89.2111 2524.12 89.4415 2524.3 89.7488C2524.49 90.0561 2524.58 90.4246 2524.58 90.8543C2524.58 91.3908 2524.41 91.8296 2524.08 92.1707C2523.74 92.5118 2523.23 92.6824 2522.52 92.6824H2518.5V91.7605H2522.52C2522.96 91.7605 2523.28 91.6395 2523.47 91.3973C2523.66 91.1551 2523.75 90.8699 2523.75 90.5418C2523.75 90.1199 2523.63 89.7931 2523.37 89.5613C2523.12 89.3296 2522.8 89.2137 2522.41 89.2137H2518.5V88.2762H2522.61C2522.95 88.2762 2523.23 88.1655 2523.44 87.9441C2523.65 87.7228 2523.75 87.4376 2523.75 87.0887C2523.75 86.8491 2523.69 86.6251 2523.56 86.4168C2523.43 86.2111 2523.26 86.0444 2523.03 85.9168C2522.81 85.7918 2522.55 85.7293 2522.25 85.7293H2518.5V84.8074ZM2518.36 95.8586C2518.36 95.4784 2518.43 95.1333 2518.58 94.8234C2518.72 94.5135 2518.93 94.2674 2519.21 94.0852C2519.48 93.9029 2519.82 93.8117 2520.21 93.8117C2520.55 93.8117 2520.83 93.8794 2521.04 94.0148C2521.26 94.1503 2521.43 94.3313 2521.55 94.5578C2521.67 94.7844 2521.76 95.0344 2521.82 95.3078C2521.89 95.5839 2521.94 95.8612 2521.97 96.1398C2522.02 96.5044 2522.05 96.8 2522.08 97.0266C2522.1 97.2557 2522.15 97.4224 2522.21 97.5266C2522.27 97.6333 2522.37 97.6867 2522.52 97.6867H2522.55C2522.94 97.6867 2523.24 97.5813 2523.45 97.3703C2523.66 97.162 2523.77 96.8456 2523.77 96.4211C2523.77 95.981 2523.67 95.6359 2523.48 95.3859C2523.29 95.1359 2523.08 94.9602 2522.86 94.8586L2523.18 93.9836C2523.54 94.1398 2523.82 94.3482 2524.03 94.6086C2524.23 94.8716 2524.38 95.1581 2524.46 95.468C2524.54 95.7805 2524.58 96.0878 2524.58 96.3898C2524.58 96.5826 2524.56 96.8039 2524.51 97.0539C2524.47 97.3065 2524.38 97.55 2524.23 97.7844C2524.09 98.0214 2523.88 98.218 2523.6 98.3742C2523.31 98.5305 2522.93 98.6086 2522.46 98.6086H2518.5V97.6867H2519.32V97.6398C2519.19 97.5773 2519.05 97.4732 2518.9 97.3273C2518.75 97.1815 2518.62 96.9875 2518.52 96.7453C2518.42 96.5031 2518.36 96.2076 2518.36 95.8586ZM2519.19 95.9992C2519.19 96.3638 2519.26 96.6711 2519.41 96.9211C2519.55 97.1737 2519.73 97.3638 2519.96 97.4914C2520.19 97.6216 2520.43 97.6867 2520.68 97.6867H2521.52C2521.47 97.6477 2521.43 97.5617 2521.39 97.4289C2521.35 97.2987 2521.32 97.1477 2521.29 96.9758C2521.27 96.8065 2521.24 96.6411 2521.22 96.4797C2521.2 96.3208 2521.19 96.1919 2521.18 96.093C2521.14 95.8534 2521.09 95.6294 2521.02 95.4211C2520.96 95.2154 2520.85 95.0487 2520.71 94.9211C2520.58 94.7961 2520.39 94.7336 2520.16 94.7336C2519.84 94.7336 2519.6 94.8521 2519.43 95.0891C2519.27 95.3286 2519.19 95.632 2519.19 95.9992ZM2516.13 102.438C2516.13 101.993 2516.19 101.61 2516.3 101.29C2516.41 100.969 2516.56 100.702 2516.75 100.489C2516.93 100.278 2517.12 100.11 2517.33 99.985L2517.85 100.719C2517.74 100.803 2517.61 100.908 2517.47 101.036C2517.33 101.163 2517.21 101.338 2517.1 101.559C2516.99 101.783 2516.94 102.076 2516.94 102.438C2516.94 102.922 2517.06 103.322 2517.29 103.637C2517.53 103.952 2517.89 104.11 2518.39 104.11H2519.61V104.032C2519.5 103.964 2519.37 103.868 2519.21 103.743C2519.05 103.62 2518.91 103.443 2518.78 103.212C2518.66 102.982 2518.6 102.672 2518.6 102.282C2518.6 101.797 2518.71 101.363 2518.94 100.977C2519.17 100.594 2519.5 100.291 2519.94 100.067C2520.38 99.8456 2520.91 99.735 2521.54 99.735C2522.15 99.735 2522.68 99.843 2523.14 100.059C2523.6 100.275 2523.95 100.576 2524.2 100.962C2524.46 101.347 2524.58 101.792 2524.58 102.297C2524.58 102.688 2524.52 102.998 2524.39 103.227C2524.26 103.459 2524.11 103.636 2523.95 103.758C2523.79 103.883 2523.65 103.98 2523.55 104.047V104.141H2524.5V105.032H2518.33C2517.82 105.032 2517.4 104.915 2517.07 104.68C2516.75 104.449 2516.51 104.136 2516.36 103.743C2516.21 103.352 2516.13 102.917 2516.13 102.438ZM2519.43 102.407C2519.43 102.777 2519.51 103.089 2519.68 103.344C2519.85 103.6 2520.09 103.794 2520.41 103.926C2520.73 104.059 2521.11 104.126 2521.55 104.126C2521.98 104.126 2522.36 104.06 2522.7 103.93C2523.03 103.8 2523.29 103.607 2523.47 103.352C2523.66 103.097 2523.75 102.782 2523.75 102.407C2523.75 102.016 2523.65 101.691 2523.46 101.43C2523.26 101.172 2522.99 100.978 2522.66 100.848C2522.33 100.721 2521.96 100.657 2521.55 100.657C2521.13 100.657 2520.77 100.722 2520.45 100.852C2520.13 100.985 2519.88 101.18 2519.7 101.438C2519.52 101.699 2519.43 102.021 2519.43 102.407ZM2518.38 108.96C2518.38 108.382 2518.51 107.883 2518.76 107.464C2519.02 107.047 2519.38 106.726 2519.84 106.499C2520.3 106.275 2520.84 106.163 2521.46 106.163C2522.07 106.163 2522.61 106.275 2523.08 106.499C2523.55 106.726 2523.92 107.041 2524.18 107.444C2524.45 107.851 2524.58 108.325 2524.58 108.866C2524.58 109.179 2524.53 109.487 2524.43 109.792C2524.32 110.097 2524.15 110.374 2523.92 110.624C2523.69 110.874 2523.38 111.073 2523 111.222C2522.61 111.37 2522.14 111.444 2521.58 111.444H2521.19V106.819H2521.99V110.507C2522.33 110.507 2522.63 110.439 2522.89 110.304C2523.16 110.171 2523.37 109.981 2523.52 109.733C2523.68 109.489 2523.75 109.2 2523.75 108.866C2523.75 108.499 2523.66 108.181 2523.48 107.913C2523.3 107.647 2523.07 107.443 2522.78 107.3C2522.49 107.157 2522.18 107.085 2521.85 107.085H2521.32C2520.86 107.085 2520.48 107.163 2520.16 107.319C2519.85 107.478 2519.61 107.698 2519.45 107.979C2519.29 108.261 2519.21 108.588 2519.21 108.96C2519.21 109.202 2519.24 109.421 2519.31 109.616C2519.38 109.814 2519.48 109.985 2519.62 110.128C2519.76 110.271 2519.94 110.382 2520.14 110.46L2519.89 111.351C2519.59 111.257 2519.33 111.099 2519.1 110.878C2518.87 110.657 2518.69 110.383 2518.57 110.058C2518.44 109.732 2518.38 109.366 2518.38 108.96ZM2524 120.984C2524.27 120.898 2524.5 120.785 2524.71 120.644C2524.92 120.506 2525.1 120.341 2525.25 120.148C2525.4 119.958 2525.51 119.742 2525.59 119.5C2525.67 119.258 2525.71 118.992 2525.71 118.703C2525.71 118.229 2525.58 117.798 2525.34 117.41C2525.1 117.022 2524.73 116.713 2524.26 116.484C2523.78 116.255 2523.2 116.14 2522.5 116.14C2521.81 116.14 2521.23 116.256 2520.75 116.488C2520.27 116.72 2519.91 117.034 2519.67 117.429C2519.42 117.825 2519.3 118.271 2519.3 118.765C2519.3 119.224 2519.4 119.627 2519.59 119.976C2519.79 120.328 2520.07 120.601 2520.43 120.797C2520.79 120.995 2521.22 121.094 2521.71 121.094L2521.64 121.39V118.984H2522.5V122.031H2521.64C2520.99 122.031 2520.41 121.89 2519.93 121.609C2519.44 121.331 2519.06 120.945 2518.79 120.453C2518.53 119.963 2518.39 119.401 2518.39 118.765C2518.39 118.057 2518.56 117.435 2518.89 116.898C2519.23 116.364 2519.7 115.948 2520.32 115.648C2520.93 115.351 2521.66 115.203 2522.5 115.203C2523.14 115.203 2523.71 115.288 2524.21 115.457C2524.72 115.629 2525.15 115.871 2525.51 116.183C2525.86 116.496 2526.14 116.866 2526.33 117.293C2526.52 117.72 2526.61 118.19 2526.61 118.703C2526.61 119.125 2526.55 119.518 2526.42 119.883C2526.3 120.25 2526.12 120.577 2525.89 120.863C2525.66 121.152 2525.38 121.393 2525.06 121.586C2524.74 121.778 2524.39 121.911 2524 121.984V120.984ZM2518.38 125.806C2518.38 125.228 2518.51 124.729 2518.76 124.31C2519.02 123.893 2519.38 123.571 2519.84 123.345C2520.3 123.121 2520.84 123.009 2521.46 123.009C2522.07 123.009 2522.61 123.121 2523.08 123.345C2523.55 123.571 2523.92 123.887 2524.18 124.29C2524.45 124.696 2524.58 125.17 2524.58 125.712C2524.58 126.025 2524.53 126.333 2524.43 126.638C2524.32 126.943 2524.15 127.22 2523.92 127.47C2523.69 127.72 2523.38 127.919 2523 128.068C2522.61 128.216 2522.14 128.29 2521.58 128.29H2521.19V123.665H2521.99V127.353C2522.33 127.353 2522.63 127.285 2522.89 127.15C2523.16 127.017 2523.37 126.827 2523.52 126.579C2523.68 126.335 2523.75 126.045 2523.75 125.712C2523.75 125.345 2523.66 125.027 2523.48 124.759C2523.3 124.493 2523.07 124.289 2522.78 124.146C2522.49 124.002 2522.18 123.931 2521.85 123.931H2521.32C2520.86 123.931 2520.48 124.009 2520.16 124.165C2519.85 124.324 2519.61 124.544 2519.45 124.825C2519.29 125.107 2519.21 125.433 2519.21 125.806C2519.21 126.048 2519.24 126.267 2519.31 126.462C2519.38 126.66 2519.48 126.831 2519.62 126.974C2519.76 127.117 2519.94 127.228 2520.14 127.306L2519.89 128.196C2519.59 128.103 2519.33 127.945 2519.1 127.724C2518.87 127.502 2518.69 127.229 2518.57 126.904C2518.44 126.578 2518.38 126.212 2518.38 125.806ZM2522.11 130.339H2518.5V129.418H2524.5V130.308H2523.57V130.386C2523.87 130.527 2524.12 130.74 2524.3 131.027C2524.49 131.313 2524.58 131.683 2524.58 132.136C2524.58 132.543 2524.5 132.898 2524.33 133.203C2524.17 133.507 2523.92 133.744 2523.58 133.914C2523.25 134.083 2522.83 134.168 2522.32 134.168H2518.5V133.246H2522.25C2522.73 133.246 2523.09 133.123 2523.36 132.879C2523.62 132.634 2523.75 132.298 2523.75 131.871C2523.75 131.576 2523.69 131.313 2523.56 131.082C2523.43 130.852 2523.25 130.671 2523 130.539C2522.76 130.406 2522.46 130.339 2522.11 130.339Z" fill="white" fill-opacity="0.8"/>
<mask id="path-274-inside-3_4_4019" fill="white">
<path d="M2508 172C2508 167.582 2511.58 164 2516 164H2532C2536.42 164 2540 167.582 2540 172V272C2540 276.418 2536.42 280 2532 280H2516C2511.58 280 2508 276.418 2508 272V172Z"/>
</mask>
<path d="M2508 172C2508 167.582 2511.58 164 2516 164H2532C2536.42 164 2540 167.582 2540 172V272C2540 276.418 2536.42 280 2532 280H2516C2511.58 280 2508 276.418 2508 272V172Z" fill="#252525"/>
<path d="M2516 164V165H2532V164V163H2516V164ZM2540 172H2539V272H2540H2541V172H2540ZM2532 280V279H2516V280V281H2532V280ZM2508 272H2509V172H2508H2507V272H2508ZM2516 280V279C2512.13 279 2509 275.866 2509 272H2508H2507C2507 276.971 2511.03 281 2516 281V280ZM2540 272H2539C2539 275.866 2535.87 279 2532 279V280V281C2536.97 281 2541 276.971 2541 272H2540ZM2532 164V165C2535.87 165 2539 168.134 2539 172H2540H2541C2541 167.029 2536.97 163 2532 163V164ZM2516 164V163C2511.03 163 2507 167.029 2507 172H2508H2509C2509 168.134 2512.13 165 2516 165V164Z" fill="#3A3A3A" mask="url(#path-274-inside-3_4_4019)"/>
<path d="M2526.5 194.171H2518.5V193.203H2526.5V194.171ZM2518.5 195.714H2524.5V196.604H2523.57V196.683C2523.89 196.808 2524.14 197.009 2524.31 197.288C2524.49 197.567 2524.58 197.901 2524.58 198.292C2524.58 198.688 2524.49 199.017 2524.31 199.28C2524.14 199.546 2523.89 199.753 2523.57 199.901V199.964C2523.88 200.117 2524.12 200.348 2524.3 200.655C2524.49 200.962 2524.58 201.331 2524.58 201.761C2524.58 202.297 2524.41 202.736 2524.08 203.077C2523.74 203.418 2523.23 203.589 2522.52 203.589H2518.5V202.667H2522.52C2522.96 202.667 2523.28 202.546 2523.47 202.304C2523.66 202.061 2523.75 201.776 2523.75 201.448C2523.75 201.026 2523.63 200.699 2523.37 200.468C2523.12 200.236 2522.8 200.12 2522.41 200.12H2518.5V199.183H2522.61C2522.95 199.183 2523.23 199.072 2523.44 198.85C2523.65 198.629 2523.75 198.344 2523.75 197.995C2523.75 197.755 2523.69 197.531 2523.56 197.323C2523.43 197.117 2523.26 196.951 2523.03 196.823C2522.81 196.698 2522.55 196.636 2522.25 196.636H2518.5V195.714ZM2518.36 206.765C2518.36 206.385 2518.43 206.04 2518.58 205.73C2518.72 205.42 2518.93 205.174 2519.21 204.992C2519.48 204.809 2519.82 204.718 2520.21 204.718C2520.55 204.718 2520.83 204.786 2521.04 204.921C2521.26 205.057 2521.43 205.238 2521.55 205.464C2521.67 205.691 2521.76 205.941 2521.82 206.214C2521.89 206.49 2521.94 206.768 2521.97 207.046C2522.02 207.411 2522.05 207.706 2522.08 207.933C2522.1 208.162 2522.15 208.329 2522.21 208.433C2522.27 208.54 2522.37 208.593 2522.52 208.593H2522.55C2522.94 208.593 2523.24 208.488 2523.45 208.277C2523.66 208.068 2523.77 207.752 2523.77 207.327C2523.77 206.887 2523.67 206.542 2523.48 206.292C2523.29 206.042 2523.08 205.867 2522.86 205.765L2523.18 204.89C2523.54 205.046 2523.82 205.255 2524.03 205.515C2524.23 205.778 2524.38 206.064 2524.46 206.374C2524.54 206.687 2524.58 206.994 2524.58 207.296C2524.58 207.489 2524.56 207.71 2524.51 207.96C2524.47 208.213 2524.38 208.456 2524.23 208.691C2524.09 208.928 2523.88 209.124 2523.6 209.281C2523.31 209.437 2522.93 209.515 2522.46 209.515H2518.5V208.593H2519.32V208.546C2519.19 208.484 2519.05 208.38 2518.9 208.234C2518.75 208.088 2518.62 207.894 2518.52 207.652C2518.42 207.409 2518.36 207.114 2518.36 206.765ZM2519.19 206.906C2519.19 207.27 2519.26 207.577 2519.41 207.827C2519.55 208.08 2519.73 208.27 2519.96 208.398C2520.19 208.528 2520.43 208.593 2520.68 208.593H2521.52C2521.47 208.554 2521.43 208.468 2521.39 208.335C2521.35 208.205 2521.32 208.054 2521.29 207.882C2521.27 207.713 2521.24 207.547 2521.22 207.386C2521.2 207.227 2521.19 207.098 2521.18 206.999C2521.14 206.76 2521.09 206.536 2521.02 206.327C2520.96 206.122 2520.85 205.955 2520.71 205.827C2520.58 205.702 2520.39 205.64 2520.16 205.64C2519.84 205.64 2519.6 205.758 2519.43 205.995C2519.27 206.235 2519.19 206.538 2519.19 206.906ZM2516.13 213.344C2516.13 212.899 2516.19 212.516 2516.3 212.196C2516.41 211.876 2516.56 211.609 2516.75 211.395C2516.93 211.184 2517.12 211.016 2517.33 210.891L2517.85 211.626C2517.74 211.709 2517.61 211.814 2517.47 211.942C2517.33 212.07 2517.21 212.244 2517.1 212.466C2516.99 212.689 2516.94 212.982 2516.94 213.344C2516.94 213.829 2517.06 214.229 2517.29 214.544C2517.53 214.859 2517.89 215.016 2518.39 215.016H2519.61V214.938C2519.5 214.87 2519.37 214.774 2519.21 214.649C2519.05 214.527 2518.91 214.35 2518.78 214.118C2518.66 213.889 2518.6 213.579 2518.6 213.188C2518.6 212.704 2518.71 212.269 2518.94 211.883C2519.17 211.501 2519.5 211.197 2519.94 210.973C2520.38 210.752 2520.91 210.641 2521.54 210.641C2522.15 210.641 2522.68 210.749 2523.14 210.966C2523.6 211.182 2523.95 211.482 2524.2 211.868C2524.46 212.253 2524.58 212.699 2524.58 213.204C2524.58 213.594 2524.52 213.904 2524.39 214.133C2524.26 214.365 2524.11 214.542 2523.95 214.665C2523.79 214.79 2523.65 214.886 2523.55 214.954V215.048H2524.5V215.938H2518.33C2517.82 215.938 2517.4 215.821 2517.07 215.587C2516.75 215.355 2516.51 215.042 2516.36 214.649C2516.21 214.258 2516.13 213.824 2516.13 213.344ZM2519.43 213.313C2519.43 213.683 2519.51 213.995 2519.68 214.251C2519.85 214.506 2520.09 214.7 2520.41 214.833C2520.73 214.966 2521.11 215.032 2521.55 215.032C2521.98 215.032 2522.36 214.967 2522.7 214.837C2523.03 214.706 2523.29 214.514 2523.47 214.258C2523.66 214.003 2523.75 213.688 2523.75 213.313C2523.75 212.923 2523.65 212.597 2523.46 212.337C2523.26 212.079 2522.99 211.885 2522.66 211.755C2522.33 211.627 2521.96 211.563 2521.55 211.563C2521.13 211.563 2520.77 211.628 2520.45 211.758C2520.13 211.891 2519.88 212.087 2519.7 212.344C2519.52 212.605 2519.43 212.928 2519.43 213.313ZM2518.38 219.866C2518.38 219.288 2518.51 218.789 2518.76 218.37C2519.02 217.954 2519.38 217.632 2519.84 217.405C2520.3 217.181 2520.84 217.069 2521.46 217.069C2522.07 217.069 2522.61 217.181 2523.08 217.405C2523.55 217.632 2523.92 217.947 2524.18 218.351C2524.45 218.757 2524.58 219.231 2524.58 219.773C2524.58 220.085 2524.53 220.394 2524.43 220.698C2524.32 221.003 2524.15 221.28 2523.92 221.53C2523.69 221.78 2523.38 221.98 2523 222.128C2522.61 222.276 2522.14 222.351 2521.58 222.351H2521.19V217.726H2521.99V221.413C2522.33 221.413 2522.63 221.345 2522.89 221.21C2523.16 221.077 2523.37 220.887 2523.52 220.64C2523.68 220.395 2523.75 220.106 2523.75 219.773C2523.75 219.405 2523.66 219.088 2523.48 218.819C2523.3 218.554 2523.07 218.349 2522.78 218.206C2522.49 218.063 2522.18 217.991 2521.85 217.991H2521.32C2520.86 217.991 2520.48 218.069 2520.16 218.226C2519.85 218.385 2519.61 218.605 2519.45 218.886C2519.29 219.167 2519.21 219.494 2519.21 219.866C2519.21 220.108 2519.24 220.327 2519.31 220.523C2519.38 220.72 2519.48 220.891 2519.62 221.034C2519.76 221.178 2519.94 221.288 2520.14 221.366L2519.89 222.257C2519.59 222.163 2519.33 222.006 2519.1 221.784C2518.87 221.563 2518.69 221.289 2518.57 220.964C2518.44 220.638 2518.38 220.273 2518.38 219.866ZM2524.5 228.906H2523.72V225.797H2524.5V228.906ZM2525.94 226.703V227.625H2520.22C2519.96 227.625 2519.77 227.663 2519.64 227.738C2519.51 227.816 2519.42 227.915 2519.38 228.035C2519.34 228.157 2519.32 228.286 2519.32 228.422C2519.32 228.523 2519.32 228.607 2519.33 228.672C2519.35 228.737 2519.36 228.789 2519.36 228.828L2518.54 229.016C2518.51 228.953 2518.49 228.866 2518.46 228.754C2518.44 228.642 2518.43 228.5 2518.43 228.328C2518.43 228.068 2518.48 227.812 2518.59 227.562C2518.71 227.315 2518.88 227.109 2519.11 226.945C2519.33 226.784 2519.62 226.703 2519.97 226.703H2525.94ZM2518.38 232.391C2518.38 231.849 2518.51 231.374 2518.77 230.965C2519.02 230.559 2519.38 230.241 2519.85 230.012C2520.31 229.785 2520.85 229.672 2521.47 229.672C2522.1 229.672 2522.64 229.785 2523.11 230.012C2523.58 230.241 2523.94 230.559 2524.2 230.965C2524.45 231.374 2524.58 231.849 2524.58 232.391C2524.58 232.933 2524.45 233.407 2524.2 233.813C2523.94 234.222 2523.58 234.539 2523.11 234.766C2522.64 234.995 2522.1 235.11 2521.47 235.11C2520.85 235.11 2520.31 234.995 2519.85 234.766C2519.38 234.539 2519.02 234.222 2518.77 233.813C2518.51 233.407 2518.38 232.933 2518.38 232.391ZM2519.21 232.391C2519.21 232.802 2519.31 233.141 2519.52 233.407C2519.73 233.672 2520.01 233.869 2520.36 233.996C2520.7 234.124 2521.07 234.188 2521.47 234.188C2521.87 234.188 2522.25 234.124 2522.59 233.996C2522.94 233.869 2523.22 233.672 2523.43 233.407C2523.65 233.141 2523.75 232.802 2523.75 232.391C2523.75 231.979 2523.65 231.641 2523.43 231.375C2523.22 231.11 2522.94 230.913 2522.59 230.785C2522.25 230.658 2521.87 230.594 2521.47 230.594C2521.07 230.594 2520.7 230.658 2520.36 230.785C2520.01 230.913 2519.73 231.11 2519.52 231.375C2519.31 231.641 2519.21 231.979 2519.21 232.391ZM2518.39 241.748C2518.39 241.233 2518.48 240.773 2518.66 240.369C2518.84 239.968 2519.08 239.649 2519.4 239.412C2519.72 239.178 2520.08 239.05 2520.5 239.029V240.014C2520.25 240.035 2520.02 240.123 2519.84 240.279C2519.65 240.436 2519.51 240.64 2519.41 240.893C2519.3 241.145 2519.25 241.425 2519.25 241.733C2519.25 242.076 2519.31 242.381 2519.43 242.647C2519.55 242.912 2519.72 243.121 2519.93 243.272C2520.15 243.423 2520.39 243.498 2520.68 243.498C2520.97 243.498 2521.23 243.425 2521.45 243.279C2521.68 243.134 2521.86 242.92 2521.98 242.639C2522.11 242.358 2522.18 242.014 2522.18 241.608V240.967H2523.04V241.608C2523.04 241.925 2523.09 242.204 2523.21 242.443C2523.32 242.686 2523.48 242.874 2523.69 243.01C2523.9 243.148 2524.14 243.217 2524.43 243.217C2524.7 243.217 2524.93 243.157 2525.13 243.037C2525.33 242.917 2525.49 242.748 2525.6 242.529C2525.71 242.313 2525.77 242.058 2525.77 241.764C2525.77 241.488 2525.72 241.227 2525.62 240.983C2525.52 240.74 2525.37 240.542 2525.18 240.389C2525 240.235 2524.77 240.152 2524.5 240.139V239.201C2524.92 239.217 2525.29 239.343 2525.61 239.58C2525.92 239.817 2526.17 240.127 2526.35 240.51C2526.52 240.895 2526.61 241.318 2526.61 241.779C2526.61 242.274 2526.51 242.699 2526.31 243.053C2526.11 243.407 2525.85 243.679 2525.53 243.869C2525.2 244.059 2524.85 244.154 2524.47 244.154C2524.02 244.154 2523.64 244.036 2523.32 243.799C2523 243.565 2522.78 243.246 2522.66 242.842H2522.6C2522.51 243.347 2522.3 243.742 2521.95 244.025C2521.61 244.309 2521.18 244.451 2520.68 244.451C2520.24 244.451 2519.85 244.333 2519.5 244.096C2519.16 243.861 2518.89 243.541 2518.69 243.135C2518.49 242.729 2518.39 242.266 2518.39 241.748ZM2518.5 248.383V245.915H2526.5V248.493C2526.5 249.269 2526.34 249.933 2526.02 250.485C2525.71 251.037 2525.25 251.46 2524.65 251.754C2524.06 252.049 2523.35 252.196 2522.52 252.196C2521.69 252.196 2520.97 252.047 2520.37 251.75C2519.77 251.454 2519.31 251.021 2518.98 250.454C2518.66 249.886 2518.5 249.196 2518.5 248.383ZM2519.36 246.883V248.321C2519.36 248.982 2519.49 249.53 2519.75 249.965C2520 250.4 2520.36 250.724 2520.84 250.938C2521.31 251.152 2521.87 251.258 2522.52 251.258C2523.17 251.258 2523.72 251.153 2524.19 250.942C2524.66 250.731 2525.02 250.416 2525.27 249.997C2525.52 249.577 2525.64 249.055 2525.64 248.43V246.883H2519.36Z" fill="white" fill-opacity="0.8"/>
<mask id="path-277-inside-4_4_4019" fill="white">
<path d="M2508 294C2508 289.582 2511.58 286 2516 286H2532C2536.42 286 2540 289.582 2540 294V370C2540 374.418 2536.42 378 2532 378H2516C2511.58 378 2508 374.418 2508 370V294Z"/>
</mask>
<path d="M2508 294C2508 289.582 2511.58 286 2516 286H2532C2536.42 286 2540 289.582 2540 294V370C2540 374.418 2536.42 378 2532 378H2516C2511.58 378 2508 374.418 2508 370V294Z" fill="#252525"/>
<path d="M2516 286V287H2532V286V285H2516V286ZM2540 294H2539V370H2540H2541V294H2540ZM2532 378V377H2516V378V379H2532V378ZM2508 370H2509V294H2508H2507V370H2508ZM2516 378V377C2512.13 377 2509 373.866 2509 370H2508H2507C2507 374.971 2511.03 379 2516 379V378ZM2540 370H2539C2539 373.866 2535.87 377 2532 377V378V379C2536.97 379 2541 374.971 2541 370H2540ZM2532 286V287C2535.87 287 2539 290.134 2539 294H2540H2541C2541 289.029 2536.97 285 2532 285V286ZM2516 286V285C2511.03 285 2507 289.029 2507 294H2508H2509C2509 290.134 2512.13 287 2516 287V286Z" fill="#3A3A3A" mask="url(#path-277-inside-4_4_4019)"/>
<path d="M2518.5 309.783H2526.5V312.486C2526.5 313.111 2526.39 313.624 2526.18 314.025C2525.97 314.426 2525.68 314.723 2525.31 314.916C2524.94 315.108 2524.52 315.205 2524.05 315.205C2523.58 315.205 2523.16 315.108 2522.79 314.916C2522.43 314.723 2522.14 314.427 2521.93 314.029C2521.73 313.63 2521.62 313.121 2521.62 312.502V310.314H2522.5V312.47C2522.5 312.897 2522.56 313.241 2522.69 313.502C2522.81 313.765 2522.99 313.955 2523.22 314.072C2523.45 314.192 2523.73 314.252 2524.05 314.252C2524.37 314.252 2524.65 314.192 2524.89 314.072C2525.13 313.952 2525.31 313.761 2525.44 313.498C2525.57 313.235 2525.64 312.887 2525.64 312.455V310.752H2518.5V309.783ZM2522.09 313.548L2518.5 315.517V314.392L2522.09 312.455V313.548ZM2518.37 318.87C2518.37 318.292 2518.5 317.793 2518.76 317.374C2519.02 316.957 2519.38 316.636 2519.84 316.409C2520.3 316.185 2520.84 316.073 2521.45 316.073C2522.07 316.073 2522.61 316.185 2523.08 316.409C2523.55 316.636 2523.92 316.951 2524.18 317.354C2524.45 317.761 2524.58 318.235 2524.58 318.776C2524.58 319.089 2524.53 319.397 2524.42 319.702C2524.32 320.007 2524.15 320.284 2523.91 320.534C2523.68 320.784 2523.38 320.983 2522.99 321.132C2522.61 321.28 2522.14 321.354 2521.58 321.354H2521.19V316.729H2521.98V320.417C2522.32 320.417 2522.63 320.349 2522.89 320.214C2523.16 320.081 2523.37 319.891 2523.52 319.644C2523.67 319.399 2523.75 319.11 2523.75 318.776C2523.75 318.409 2523.66 318.091 2523.48 317.823C2523.3 317.558 2523.06 317.353 2522.77 317.21C2522.48 317.067 2522.17 316.995 2521.84 316.995H2521.31C2520.86 316.995 2520.48 317.073 2520.16 317.229C2519.85 317.388 2519.61 317.608 2519.45 317.89C2519.28 318.171 2519.2 318.498 2519.2 318.87C2519.2 319.112 2519.24 319.331 2519.3 319.526C2519.38 319.724 2519.48 319.895 2519.62 320.038C2519.76 320.181 2519.93 320.292 2520.14 320.37L2519.89 321.261C2519.59 321.167 2519.32 321.009 2519.09 320.788C2518.87 320.567 2518.69 320.293 2518.56 319.968C2518.44 319.642 2518.37 319.276 2518.37 318.87ZM2516.25 322.482H2524.5V323.372H2523.55V323.482C2523.65 323.55 2523.78 323.643 2523.95 323.763C2524.11 323.885 2524.26 324.06 2524.38 324.287C2524.51 324.516 2524.58 324.826 2524.58 325.216C2524.58 325.721 2524.45 326.167 2524.2 326.552C2523.95 326.938 2523.59 327.238 2523.13 327.454C2522.66 327.671 2522.11 327.779 2521.48 327.779C2520.85 327.779 2520.3 327.671 2519.83 327.454C2519.37 327.238 2519.01 326.939 2518.75 326.556C2518.5 326.173 2518.37 325.732 2518.37 325.232C2518.37 324.846 2518.44 324.538 2518.57 324.306C2518.7 324.074 2518.84 323.896 2519.01 323.771C2519.17 323.646 2519.31 323.55 2519.42 323.482V323.404H2516.25V322.482ZM2521.5 323.388C2521.05 323.388 2520.65 323.454 2520.3 323.587C2519.96 323.72 2519.69 323.914 2519.49 324.169C2519.3 324.425 2519.2 324.737 2519.2 325.107C2519.2 325.492 2519.3 325.814 2519.51 326.072C2519.71 326.332 2519.99 326.527 2520.34 326.658C2520.68 326.79 2521.07 326.857 2521.5 326.857C2521.92 326.857 2522.3 326.792 2522.64 326.662C2522.98 326.534 2523.25 326.34 2523.45 326.079C2523.65 325.822 2523.75 325.497 2523.75 325.107C2523.75 324.732 2523.65 324.417 2523.46 324.162C2523.28 323.906 2523.01 323.714 2522.68 323.583C2522.34 323.453 2521.95 323.388 2521.5 323.388ZM2518.37 331.347C2518.37 330.806 2518.5 330.331 2518.76 329.922C2519.02 329.515 2519.38 329.198 2519.84 328.969C2520.31 328.742 2520.85 328.629 2521.47 328.629C2522.09 328.629 2522.64 328.742 2523.11 328.969C2523.57 329.198 2523.93 329.515 2524.19 329.922C2524.45 330.331 2524.58 330.806 2524.58 331.347C2524.58 331.889 2524.45 332.363 2524.19 332.769C2523.93 333.178 2523.57 333.496 2523.11 333.722C2522.64 333.952 2522.09 334.066 2521.47 334.066C2520.85 334.066 2520.31 333.952 2519.84 333.722C2519.38 333.496 2519.02 333.178 2518.76 332.769C2518.5 332.363 2518.37 331.889 2518.37 331.347ZM2519.2 331.347C2519.2 331.759 2519.31 332.097 2519.52 332.363C2519.73 332.629 2520.01 332.825 2520.35 332.953C2520.7 333.081 2521.07 333.144 2521.47 333.144C2521.87 333.144 2522.24 333.081 2522.59 332.953C2522.94 332.825 2523.22 332.629 2523.43 332.363C2523.64 332.097 2523.75 331.759 2523.75 331.347C2523.75 330.936 2523.64 330.597 2523.43 330.332C2523.22 330.066 2522.94 329.87 2522.59 329.742C2522.24 329.614 2521.87 329.551 2521.47 329.551C2521.07 329.551 2520.7 329.614 2520.35 329.742C2520.01 329.87 2519.73 330.066 2519.52 330.332C2519.31 330.597 2519.2 330.936 2519.2 331.347ZM2526.5 336.12H2518.5V335.198H2526.5V336.12ZM2518.37 339.971C2518.37 339.43 2518.5 338.954 2518.76 338.546C2519.02 338.139 2519.38 337.822 2519.84 337.592C2520.31 337.366 2520.85 337.253 2521.47 337.253C2522.09 337.253 2522.64 337.366 2523.11 337.592C2523.57 337.822 2523.93 338.139 2524.19 338.546C2524.45 338.954 2524.58 339.43 2524.58 339.971C2524.58 340.513 2524.45 340.987 2524.19 341.393C2523.93 341.802 2523.57 342.12 2523.11 342.346C2522.64 342.575 2522.09 342.69 2521.47 342.69C2520.85 342.69 2520.31 342.575 2519.84 342.346C2519.38 342.12 2519.02 341.802 2518.76 341.393C2518.5 340.987 2518.37 340.513 2518.37 339.971ZM2519.2 339.971C2519.2 340.383 2519.31 340.721 2519.52 340.987C2519.73 341.253 2520.01 341.449 2520.35 341.577C2520.7 341.704 2521.07 341.768 2521.47 341.768C2521.87 341.768 2522.24 341.704 2522.59 341.577C2522.94 341.449 2523.22 341.253 2523.43 340.987C2523.64 340.721 2523.75 340.383 2523.75 339.971C2523.75 339.56 2523.64 339.221 2523.43 338.956C2523.22 338.69 2522.94 338.493 2522.59 338.366C2522.24 338.238 2521.87 338.174 2521.47 338.174C2521.07 338.174 2520.7 338.238 2520.35 338.366C2520.01 338.493 2519.73 338.69 2519.52 338.956C2519.31 339.221 2519.2 339.56 2519.2 339.971ZM2516.12 346.244C2516.12 345.799 2516.18 345.416 2516.3 345.096C2516.41 344.775 2516.56 344.508 2516.74 344.295C2516.92 344.084 2517.12 343.916 2517.33 343.791L2517.84 344.525C2517.73 344.609 2517.61 344.714 2517.47 344.842C2517.33 344.969 2517.2 345.144 2517.1 345.365C2516.99 345.589 2516.94 345.882 2516.94 346.244C2516.94 346.729 2517.05 347.128 2517.29 347.443C2517.52 347.758 2517.89 347.916 2518.39 347.916H2519.61V347.838C2519.5 347.77 2519.36 347.674 2519.2 347.549C2519.04 347.426 2518.9 347.249 2518.78 347.018C2518.65 346.788 2518.59 346.479 2518.59 346.088C2518.59 345.604 2518.71 345.169 2518.94 344.783C2519.17 344.4 2519.5 344.097 2519.94 343.873C2520.38 343.652 2520.91 343.541 2521.53 343.541C2522.15 343.541 2522.68 343.649 2523.14 343.865C2523.6 344.081 2523.95 344.382 2524.2 344.768C2524.45 345.153 2524.58 345.598 2524.58 346.104C2524.58 346.494 2524.51 346.804 2524.38 347.033C2524.26 347.265 2524.11 347.442 2523.95 347.564C2523.78 347.689 2523.65 347.786 2523.55 347.854V347.947H2524.5V348.838H2518.33C2517.81 348.838 2517.39 348.721 2517.07 348.486C2516.74 348.255 2516.51 347.942 2516.36 347.549C2516.2 347.158 2516.12 346.723 2516.12 346.244ZM2519.42 346.213C2519.42 346.583 2519.51 346.895 2519.68 347.15C2519.85 347.406 2520.09 347.6 2520.41 347.732C2520.72 347.865 2521.1 347.932 2521.55 347.932C2521.98 347.932 2522.36 347.867 2522.69 347.736C2523.02 347.606 2523.28 347.413 2523.47 347.158C2523.66 346.903 2523.75 346.588 2523.75 346.213C2523.75 345.822 2523.65 345.497 2523.45 345.236C2523.26 344.979 2522.99 344.785 2522.66 344.654C2522.32 344.527 2521.95 344.463 2521.55 344.463C2521.13 344.463 2520.76 344.528 2520.44 344.658C2520.12 344.791 2519.87 344.986 2519.69 345.244C2519.51 345.505 2519.42 345.827 2519.42 346.213ZM2516.25 350.844C2516.25 350.688 2516.26 350.549 2516.29 350.426C2516.31 350.304 2516.34 350.219 2516.36 350.172L2517.17 350.407C2517.11 350.631 2517.09 350.829 2517.11 351C2517.12 351.172 2517.2 351.325 2517.34 351.457C2517.48 351.593 2517.7 351.717 2518 351.829L2518.47 352L2524.5 349.782V350.782L2519.72 352.438V352.5L2524.5 354.157V355.157L2517.63 352.61C2517.32 352.495 2517.06 352.353 2516.86 352.184C2516.65 352.015 2516.5 351.818 2516.4 351.594C2516.3 351.373 2516.25 351.123 2516.25 350.844Z" fill="white" fill-opacity="0.8"/>
<mask id="path-280-inside-5_4_4019" fill="white">
<path d="M2508 392C2508 387.582 2511.58 384 2516 384H2532C2536.42 384 2540 387.582 2540 392V452C2540 456.418 2536.42 460 2532 460H2516C2511.58 460 2508 456.418 2508 452V392Z"/>
</mask>
<path d="M2508 392C2508 387.582 2511.58 384 2516 384H2532C2536.42 384 2540 387.582 2540 392V452C2540 456.418 2536.42 460 2532 460H2516C2511.58 460 2508 456.418 2508 452V392Z" fill="#252525"/>
<path d="M2516 384V385H2532V384V383H2516V384ZM2540 392H2539V452H2540H2541V392H2540ZM2532 460V459H2516V460V461H2532V460ZM2508 452H2509V392H2508H2507V452H2508ZM2516 460V459C2512.13 459 2509 455.866 2509 452H2508H2507C2507 456.971 2511.03 461 2516 461V460ZM2540 452H2539C2539 455.866 2535.87 459 2532 459V460V461C2536.97 461 2541 456.971 2541 452H2540ZM2532 384V385C2535.87 385 2539 388.134 2539 392H2540H2541C2541 387.029 2536.97 383 2532 383V384ZM2516 384V383C2511.03 383 2507 387.029 2507 392H2508H2509C2509 388.134 2512.13 385 2516 385V384Z" fill="#3A3A3A" mask="url(#path-280-inside-5_4_4019)"/>
<path d="M2524.5 409.044C2524.9 408.998 2525.2 408.807 2525.42 408.474C2525.64 408.141 2525.75 407.732 2525.75 407.248C2525.75 406.893 2525.69 406.583 2525.58 406.318C2525.46 406.055 2525.31 405.849 2525.11 405.701C2524.9 405.555 2524.68 405.482 2524.42 405.482C2524.21 405.482 2524.02 405.533 2523.87 405.634C2523.72 405.738 2523.59 405.871 2523.49 406.033C2523.39 406.194 2523.31 406.363 2523.25 406.541C2523.18 406.718 2523.13 406.88 2523.09 407.029L2522.88 407.841C2522.82 408.05 2522.74 408.281 2522.65 408.537C2522.55 408.794 2522.42 409.041 2522.25 409.275C2522.09 409.512 2521.88 409.707 2521.62 409.861C2521.36 410.014 2521.05 410.091 2520.67 410.091C2520.24 410.091 2519.85 409.978 2519.5 409.751C2519.15 409.528 2518.87 409.199 2518.67 408.767C2518.46 408.337 2518.36 407.815 2518.36 407.201C2518.36 406.628 2518.45 406.132 2518.64 405.712C2518.82 405.296 2519.08 404.968 2519.41 404.728C2519.74 404.491 2520.12 404.357 2520.56 404.326V405.326C2520.26 405.352 2520.01 405.453 2519.81 405.63C2519.62 405.81 2519.47 406.037 2519.37 406.31C2519.28 406.586 2519.23 406.883 2519.23 407.201C2519.23 407.57 2519.29 407.903 2519.41 408.197C2519.54 408.491 2519.71 408.724 2519.92 408.896C2520.14 409.068 2520.4 409.154 2520.69 409.154C2520.95 409.154 2521.17 409.08 2521.34 408.931C2521.5 408.783 2521.64 408.587 2521.74 408.345C2521.85 408.103 2521.94 407.841 2522.02 407.56L2522.3 406.576C2522.48 405.951 2522.73 405.456 2523.07 405.091C2523.4 404.727 2523.84 404.544 2524.38 404.544C2524.82 404.544 2525.21 404.666 2525.55 404.908C2525.88 405.153 2526.14 405.481 2526.33 405.892C2526.52 406.306 2526.61 406.768 2526.61 407.279C2526.61 407.794 2526.52 408.253 2526.33 408.654C2526.15 409.055 2525.9 409.373 2525.58 409.607C2525.26 409.844 2524.9 409.969 2524.5 409.982V409.044ZM2518.37 413.722C2518.37 413.159 2518.51 412.675 2518.77 412.268C2519.04 411.862 2519.4 411.55 2519.87 411.331C2520.34 411.112 2520.87 411.003 2521.47 411.003C2522.08 411.003 2522.62 411.115 2523.08 411.339C2523.55 411.565 2523.92 411.88 2524.18 412.284C2524.45 412.69 2524.58 413.164 2524.58 413.706C2524.58 414.128 2524.5 414.508 2524.34 414.847C2524.19 415.185 2523.97 415.462 2523.69 415.679C2523.41 415.895 2523.08 416.029 2522.7 416.081V415.159C2522.98 415.089 2523.22 414.933 2523.43 414.69C2523.64 414.451 2523.75 414.128 2523.75 413.722C2523.75 413.362 2523.66 413.047 2523.47 412.776C2523.28 412.508 2523.02 412.298 2522.68 412.147C2522.35 411.999 2521.95 411.925 2521.5 411.925C2521.04 411.925 2520.63 411.998 2520.29 412.143C2519.95 412.292 2519.68 412.5 2519.49 412.768C2519.3 413.039 2519.2 413.357 2519.2 413.722C2519.2 413.961 2519.24 414.179 2519.33 414.374C2519.41 414.569 2519.53 414.735 2519.69 414.87C2519.84 415.005 2520.03 415.102 2520.25 415.159V416.081C2519.9 416.029 2519.58 415.9 2519.29 415.694C2519.01 415.491 2518.79 415.222 2518.62 414.886C2518.46 414.552 2518.37 414.164 2518.37 413.722ZM2518.37 419.669C2518.37 419.091 2518.5 418.592 2518.76 418.173C2519.02 417.756 2519.38 417.435 2519.84 417.208C2520.3 416.984 2520.84 416.872 2521.45 416.872C2522.07 416.872 2522.61 416.984 2523.08 417.208C2523.55 417.435 2523.92 417.75 2524.18 418.154C2524.45 418.56 2524.58 419.034 2524.58 419.575C2524.58 419.888 2524.53 420.197 2524.42 420.501C2524.32 420.806 2524.15 421.083 2523.91 421.333C2523.68 421.583 2523.38 421.783 2522.99 421.931C2522.61 422.079 2522.14 422.154 2521.58 422.154H2521.19V417.529H2521.98V421.216C2522.32 421.216 2522.63 421.148 2522.89 421.013C2523.16 420.88 2523.37 420.69 2523.52 420.443C2523.67 420.198 2523.75 419.909 2523.75 419.575C2523.75 419.208 2523.66 418.891 2523.48 418.622C2523.3 418.357 2523.06 418.152 2522.77 418.009C2522.48 417.866 2522.17 417.794 2521.84 417.794H2521.31C2520.86 417.794 2520.48 417.872 2520.16 418.029C2519.85 418.187 2519.61 418.408 2519.45 418.689C2519.28 418.97 2519.2 419.297 2519.2 419.669C2519.2 419.911 2519.24 420.13 2519.3 420.325C2519.38 420.523 2519.48 420.694 2519.62 420.837C2519.76 420.98 2519.93 421.091 2520.14 421.169L2519.89 422.06C2519.59 421.966 2519.32 421.809 2519.09 421.587C2518.87 421.366 2518.69 421.092 2518.56 420.767C2518.44 420.441 2518.37 420.075 2518.37 419.669ZM2522.11 424.203H2518.5V423.281H2524.5V424.172H2523.56V424.25C2523.87 424.39 2524.11 424.604 2524.3 424.89C2524.48 425.177 2524.58 425.547 2524.58 426C2524.58 426.406 2524.49 426.761 2524.33 427.066C2524.16 427.371 2523.91 427.608 2523.58 427.777C2523.24 427.946 2522.82 428.031 2522.31 428.031H2518.5V427.109H2522.25C2522.72 427.109 2523.09 426.987 2523.35 426.742C2523.62 426.497 2523.75 426.161 2523.75 425.734C2523.75 425.44 2523.69 425.177 2523.56 424.945C2523.43 424.716 2523.24 424.535 2523 424.402C2522.76 424.269 2522.46 424.203 2522.11 424.203ZM2518.37 431.956C2518.37 431.378 2518.5 430.879 2518.76 430.46C2519.02 430.043 2519.38 429.722 2519.84 429.495C2520.3 429.271 2520.84 429.159 2521.45 429.159C2522.07 429.159 2522.61 429.271 2523.08 429.495C2523.55 429.722 2523.92 430.037 2524.18 430.441C2524.45 430.847 2524.58 431.321 2524.58 431.862C2524.58 432.175 2524.53 432.483 2524.42 432.788C2524.32 433.093 2524.15 433.37 2523.91 433.62C2523.68 433.87 2523.38 434.069 2522.99 434.218C2522.61 434.366 2522.14 434.441 2521.58 434.441H2521.19V429.816H2521.98V433.503C2522.32 433.503 2522.63 433.435 2522.89 433.3C2523.16 433.167 2523.37 432.977 2523.52 432.73C2523.67 432.485 2523.75 432.196 2523.75 431.862C2523.75 431.495 2523.66 431.178 2523.48 430.909C2523.3 430.644 2523.06 430.439 2522.77 430.296C2522.48 430.153 2522.17 430.081 2521.84 430.081H2521.31C2520.86 430.081 2520.48 430.159 2520.16 430.316C2519.85 430.474 2519.61 430.694 2519.45 430.976C2519.28 431.257 2519.2 431.584 2519.2 431.956C2519.2 432.198 2519.24 432.417 2519.3 432.612C2519.38 432.81 2519.48 432.981 2519.62 433.124C2519.76 433.267 2519.93 433.378 2520.14 433.456L2519.89 434.347C2519.59 434.253 2519.32 434.095 2519.09 433.874C2518.87 433.653 2518.69 433.379 2518.56 433.054C2518.44 432.728 2518.37 432.362 2518.37 431.956ZM2523.16 439.818L2522.92 438.99C2523.06 438.938 2523.19 438.861 2523.32 438.759C2523.46 438.66 2523.57 438.525 2523.65 438.353C2523.74 438.181 2523.78 437.961 2523.78 437.693C2523.78 437.326 2523.7 437.02 2523.53 436.775C2523.36 436.533 2523.15 436.412 2522.89 436.412C2522.66 436.412 2522.48 436.495 2522.35 436.662C2522.21 436.828 2522.1 437.089 2522.02 437.443L2521.8 438.333C2521.67 438.87 2521.47 439.27 2521.2 439.533C2520.93 439.796 2520.59 439.927 2520.17 439.927C2519.83 439.927 2519.52 439.828 2519.25 439.63C2518.98 439.435 2518.77 439.162 2518.61 438.81C2518.45 438.458 2518.37 438.05 2518.37 437.583C2518.37 436.972 2518.51 436.465 2518.77 436.064C2519.04 435.663 2519.43 435.409 2519.94 435.302L2520.16 436.177C2519.83 436.261 2519.59 436.418 2519.43 436.65C2519.27 436.884 2519.19 437.19 2519.19 437.568C2519.19 437.998 2519.28 438.339 2519.46 438.591C2519.65 438.847 2519.87 438.974 2520.13 438.974C2520.33 438.974 2520.51 438.901 2520.65 438.755C2520.79 438.61 2520.9 438.386 2520.97 438.083L2521.2 437.083C2521.33 436.534 2521.54 436.13 2521.81 435.873C2522.08 435.617 2522.43 435.49 2522.84 435.49C2523.18 435.49 2523.48 435.585 2523.74 435.775C2524 435.968 2524.21 436.229 2524.36 436.56C2524.5 436.893 2524.58 437.271 2524.58 437.693C2524.58 438.287 2524.45 438.753 2524.19 439.091C2523.93 439.432 2523.58 439.675 2523.16 439.818Z" fill="white" fill-opacity="0.8"/>
<mask id="path-283-inside-6_4_4019" fill="white">
<path d="M2508 474C2508 469.582 2511.58 466 2516 466H2532C2536.42 466 2540 469.582 2540 474V550C2540 554.418 2536.42 558 2532 558H2516C2511.58 558 2508 554.418 2508 550V474Z"/>
</mask>
<path d="M2508 474C2508 469.582 2511.58 466 2516 466H2532C2536.42 466 2540 469.582 2540 474V550C2540 554.418 2536.42 558 2532 558H2516C2511.58 558 2508 554.418 2508 550V474Z" fill="#252525"/>
<path d="M2516 466V467H2532V466V465H2516V466ZM2540 474H2539V550H2540H2541V474H2540ZM2532 558V557H2516V558V559H2532V558ZM2508 550H2509V474H2508H2507V550H2508ZM2516 558V557C2512.13 557 2509 553.866 2509 550H2508H2507C2507 554.971 2511.03 559 2516 559V558ZM2540 550H2539C2539 553.866 2535.87 557 2532 557V558V559C2536.97 559 2541 554.971 2541 550H2540ZM2532 466V467C2535.87 467 2539 470.134 2539 474H2540H2541C2541 469.029 2536.97 465 2532 465V466ZM2516 466V465C2511.03 465 2507 469.029 2507 474H2508H2509C2509 470.134 2512.13 467 2516 467V466Z" fill="#3A3A3A" mask="url(#path-283-inside-6_4_4019)"/>
<path d="M2518.5 487.655H2526.5V490.358C2526.5 490.986 2526.39 491.499 2526.16 491.897C2525.94 492.298 2525.64 492.595 2525.25 492.788C2524.87 492.98 2524.44 493.077 2523.97 493.077C2523.5 493.077 2523.07 492.98 2522.69 492.788C2522.3 492.598 2521.99 492.303 2521.77 491.905C2521.54 491.506 2521.43 490.996 2521.43 490.374V488.436H2522.29V490.342C2522.29 490.772 2522.36 491.117 2522.51 491.378C2522.66 491.638 2522.86 491.827 2523.11 491.944C2523.36 492.064 2523.65 492.124 2523.97 492.124C2524.29 492.124 2524.58 492.064 2524.83 491.944C2525.08 491.827 2525.28 491.637 2525.43 491.374C2525.57 491.111 2525.64 490.762 2525.64 490.327V488.624H2518.5V487.655ZM2518.5 494.362H2526.5V497.159C2526.5 497.716 2526.41 498.176 2526.21 498.538C2526.02 498.9 2525.77 499.17 2525.45 499.347C2525.13 499.524 2524.77 499.612 2524.38 499.612C2524.04 499.612 2523.75 499.551 2523.53 499.429C2523.3 499.309 2523.13 499.15 2523 498.952C2522.87 498.757 2522.77 498.545 2522.71 498.315H2522.63C2522.61 498.56 2522.53 498.806 2522.37 499.054C2522.21 499.301 2521.99 499.508 2521.7 499.675C2521.41 499.841 2521.05 499.925 2520.63 499.925C2520.23 499.925 2519.87 499.834 2519.55 499.651C2519.23 499.469 2518.97 499.181 2518.79 498.788C2518.6 498.395 2518.5 497.883 2518.5 497.253V494.362ZM2519.36 495.331V497.253C2519.36 497.886 2519.49 498.335 2519.73 498.601C2519.98 498.869 2520.28 499.003 2520.63 499.003C2520.9 499.003 2521.15 498.934 2521.38 498.796C2521.61 498.658 2521.8 498.461 2521.93 498.206C2522.07 497.951 2522.14 497.649 2522.14 497.3V495.331H2519.36ZM2522.99 495.331V497.128C2522.99 497.42 2523.05 497.683 2523.16 497.917C2523.27 498.154 2523.44 498.341 2523.64 498.479C2523.85 498.62 2524.1 498.69 2524.38 498.69C2524.73 498.69 2525.03 498.568 2525.27 498.323C2525.52 498.078 2525.64 497.69 2525.64 497.159V495.331H2522.99ZM2518.5 501.242H2526.5V503.945C2526.5 504.57 2526.4 505.083 2526.18 505.484C2525.97 505.885 2525.68 506.182 2525.31 506.374C2524.94 506.567 2524.52 506.663 2524.05 506.663C2523.58 506.663 2523.16 506.567 2522.8 506.374C2522.43 506.182 2522.15 505.886 2521.94 505.488C2521.73 505.089 2521.63 504.58 2521.63 503.96V501.773H2522.5V503.929C2522.5 504.356 2522.57 504.7 2522.69 504.96C2522.82 505.223 2522.99 505.413 2523.22 505.531C2523.45 505.65 2523.73 505.71 2524.05 505.71C2524.37 505.71 2524.65 505.65 2524.89 505.531C2525.13 505.411 2525.32 505.219 2525.45 504.956C2525.58 504.693 2525.64 504.346 2525.64 503.913V502.21H2518.5V501.242ZM2522.1 505.007L2518.5 506.976V505.851L2522.1 503.913V505.007ZM2526.5 510.821V511.978L2519.86 514.696V514.79L2526.5 517.509V518.665H2518.5V517.759H2524.58V517.681L2518.5 515.181V514.306L2524.58 511.806V511.728H2518.5V510.821H2526.5ZM2518.36 521.973C2518.36 521.593 2518.43 521.248 2518.58 520.938C2518.72 520.628 2518.93 520.382 2519.21 520.2C2519.48 520.018 2519.82 519.926 2520.21 519.926C2520.55 519.926 2520.83 519.994 2521.04 520.129C2521.26 520.265 2521.43 520.446 2521.55 520.672C2521.67 520.899 2521.76 521.149 2521.82 521.422C2521.89 521.699 2521.94 521.976 2521.97 522.254C2522.02 522.619 2522.05 522.915 2522.08 523.141C2522.1 523.37 2522.15 523.537 2522.21 523.641C2522.27 523.748 2522.37 523.801 2522.52 523.801H2522.55C2522.94 523.801 2523.24 523.696 2523.45 523.485C2523.66 523.277 2523.77 522.96 2523.77 522.536C2523.77 522.096 2523.67 521.751 2523.48 521.501C2523.29 521.251 2523.08 521.075 2522.86 520.973L2523.18 520.098C2523.54 520.254 2523.82 520.463 2524.03 520.723C2524.23 520.986 2524.38 521.273 2524.46 521.583C2524.54 521.895 2524.58 522.202 2524.58 522.504C2524.58 522.697 2524.56 522.919 2524.51 523.169C2524.47 523.421 2524.38 523.665 2524.23 523.899C2524.09 524.136 2523.88 524.333 2523.6 524.489C2523.31 524.645 2522.93 524.723 2522.46 524.723H2518.5V523.801H2519.32V523.754C2519.19 523.692 2519.05 523.588 2518.9 523.442C2518.75 523.296 2518.62 523.102 2518.52 522.86C2518.42 522.618 2518.36 522.322 2518.36 521.973ZM2519.19 522.114C2519.19 522.478 2519.26 522.786 2519.41 523.036C2519.55 523.288 2519.73 523.478 2519.96 523.606C2520.19 523.736 2520.43 523.801 2520.68 523.801H2521.52C2521.47 523.762 2521.43 523.676 2521.39 523.544C2521.35 523.413 2521.32 523.262 2521.29 523.09C2521.27 522.921 2521.24 522.756 2521.22 522.594C2521.2 522.435 2521.19 522.307 2521.18 522.208C2521.14 521.968 2521.09 521.744 2521.02 521.536C2520.96 521.33 2520.85 521.163 2520.71 521.036C2520.58 520.911 2520.39 520.848 2520.16 520.848C2519.84 520.848 2519.6 520.967 2519.43 521.204C2519.27 521.443 2519.19 521.747 2519.19 522.114ZM2516.25 526.131H2524.5V527.021H2523.55V527.131C2523.65 527.199 2523.79 527.292 2523.95 527.412C2524.11 527.535 2524.26 527.709 2524.39 527.936C2524.52 528.165 2524.58 528.475 2524.58 528.865C2524.58 529.37 2524.46 529.816 2524.2 530.201C2523.95 530.587 2523.59 530.887 2523.13 531.104C2522.67 531.32 2522.12 531.428 2521.49 531.428C2520.85 531.428 2520.3 531.32 2519.84 531.104C2519.37 530.887 2519.01 530.588 2518.76 530.205C2518.51 529.822 2518.38 529.381 2518.38 528.881C2518.38 528.495 2518.44 528.187 2518.57 527.955C2518.7 527.723 2518.85 527.545 2519.01 527.42C2519.18 527.295 2519.32 527.199 2519.43 527.131V527.053H2516.25V526.131ZM2521.5 527.037C2521.05 527.037 2520.65 527.104 2520.3 527.236C2519.96 527.369 2519.69 527.563 2519.5 527.818C2519.3 528.074 2519.21 528.386 2519.21 528.756C2519.21 529.141 2519.31 529.463 2519.51 529.721C2519.72 529.981 2519.99 530.176 2520.34 530.307C2520.69 530.439 2521.08 530.506 2521.5 530.506C2521.93 530.506 2522.31 530.441 2522.64 530.311C2522.99 530.183 2523.26 529.989 2523.45 529.729C2523.65 529.471 2523.75 529.146 2523.75 528.756C2523.75 528.381 2523.66 528.066 2523.47 527.811C2523.28 527.555 2523.02 527.363 2522.68 527.232C2522.34 527.102 2521.95 527.037 2521.5 527.037ZM2523.16 536.809L2522.93 535.981C2523.06 535.929 2523.2 535.852 2523.33 535.75C2523.46 535.651 2523.57 535.516 2523.66 535.344C2523.74 535.172 2523.79 534.952 2523.79 534.684C2523.79 534.317 2523.7 534.011 2523.53 533.766C2523.36 533.524 2523.15 533.403 2522.89 533.403C2522.67 533.403 2522.48 533.486 2522.35 533.653C2522.22 533.819 2522.11 534.08 2522.02 534.434L2521.8 535.325C2521.67 535.861 2521.47 536.261 2521.2 536.524C2520.94 536.787 2520.6 536.918 2520.18 536.918C2519.83 536.918 2519.52 536.819 2519.25 536.621C2518.98 536.426 2518.77 536.153 2518.61 535.801C2518.46 535.45 2518.38 535.041 2518.38 534.575C2518.38 533.963 2518.51 533.456 2518.78 533.055C2519.04 532.654 2519.43 532.4 2519.94 532.293L2520.16 533.168C2519.84 533.252 2519.6 533.409 2519.43 533.641C2519.27 533.875 2519.19 534.181 2519.19 534.559C2519.19 534.989 2519.28 535.33 2519.46 535.582C2519.65 535.838 2519.87 535.965 2520.13 535.965C2520.34 535.965 2520.51 535.892 2520.65 535.746C2520.8 535.601 2520.9 535.377 2520.97 535.075L2521.21 534.075C2521.34 533.525 2521.54 533.121 2521.81 532.864C2522.09 532.608 2522.43 532.481 2522.85 532.481C2523.19 532.481 2523.49 532.576 2523.75 532.766C2524.01 532.959 2524.21 533.22 2524.36 533.551C2524.51 533.885 2524.58 534.262 2524.58 534.684C2524.58 535.278 2524.45 535.744 2524.19 536.082C2523.93 536.424 2523.59 536.666 2523.16 536.809Z" fill="white" fill-opacity="0.8"/>
<mask id="path-286-inside-7_4_4019" fill="white">
<path d="M2508 572C2508 567.582 2511.58 564 2516 564H2532C2536.42 564 2540 567.582 2540 572V640C2540 644.418 2536.42 648 2532 648H2516C2511.58 648 2508 644.418 2508 640V572Z"/>
</mask>
<path d="M2508 572C2508 567.582 2511.58 564 2516 564H2532C2536.42 564 2540 567.582 2540 572V640C2540 644.418 2536.42 648 2532 648H2516C2511.58 648 2508 644.418 2508 640V572Z" fill="#252525"/>
<path d="M2516 564V565H2532V564V563H2516V564ZM2540 572H2539V640H2540H2541V572H2540ZM2532 648V647H2516V648V649H2532V648ZM2508 640H2509V572H2508H2507V640H2508ZM2516 648V647C2512.13 647 2509 643.866 2509 640H2508H2507C2507 644.971 2511.03 649 2516 649V648ZM2540 640H2539C2539 643.866 2535.87 647 2532 647V648V649C2536.97 649 2541 644.971 2541 640H2540ZM2532 564V565C2535.87 565 2539 568.134 2539 572H2540H2541C2541 567.029 2536.97 563 2532 563V564ZM2516 564V563C2511.03 563 2507 567.029 2507 572H2508H2509C2509 568.134 2512.13 565 2516 565V564Z" fill="#3A3A3A" mask="url(#path-286-inside-7_4_4019)"/>
<path d="M2524.5 589.189C2524.9 589.142 2525.21 588.952 2525.43 588.619C2525.64 588.286 2525.75 587.877 2525.75 587.392C2525.75 587.038 2525.7 586.728 2525.58 586.463C2525.47 586.2 2525.31 585.994 2525.11 585.846C2524.91 585.7 2524.68 585.627 2524.43 585.627C2524.21 585.627 2524.03 585.678 2523.88 585.779C2523.72 585.883 2523.6 586.016 2523.5 586.178C2523.4 586.339 2523.32 586.508 2523.25 586.685C2523.19 586.862 2523.14 587.025 2523.1 587.174L2522.88 587.986C2522.82 588.194 2522.75 588.426 2522.65 588.681C2522.56 588.939 2522.42 589.185 2522.26 589.42C2522.09 589.657 2521.88 589.852 2521.63 590.006C2521.37 590.159 2521.05 590.236 2520.68 590.236C2520.24 590.236 2519.85 590.123 2519.5 589.896C2519.15 589.672 2518.88 589.344 2518.67 588.912C2518.47 588.482 2518.36 587.96 2518.36 587.346C2518.36 586.773 2518.46 586.276 2518.64 585.857C2518.83 585.441 2519.08 585.112 2519.41 584.873C2519.74 584.636 2520.13 584.502 2520.57 584.471V585.471C2520.26 585.497 2520.01 585.598 2519.82 585.775C2519.62 585.955 2519.48 586.181 2519.38 586.455C2519.29 586.731 2519.24 587.028 2519.24 587.346C2519.24 587.715 2519.3 588.047 2519.42 588.342C2519.54 588.636 2519.71 588.869 2519.93 589.041C2520.14 589.213 2520.4 589.299 2520.69 589.299C2520.96 589.299 2521.17 589.224 2521.34 589.076C2521.51 588.928 2521.64 588.732 2521.75 588.49C2521.85 588.248 2521.94 587.986 2522.02 587.705L2522.3 586.721C2522.48 586.096 2522.74 585.601 2523.07 585.236C2523.4 584.872 2523.84 584.689 2524.38 584.689C2524.83 584.689 2525.22 584.81 2525.55 585.053C2525.89 585.297 2526.15 585.625 2526.33 586.037C2526.52 586.451 2526.61 586.913 2526.61 587.424C2526.61 587.939 2526.52 588.398 2526.34 588.799C2526.15 589.2 2525.9 589.517 2525.59 589.752C2525.27 589.989 2524.91 590.114 2524.5 590.127V589.189ZM2518.38 593.945C2518.38 593.366 2518.51 592.868 2518.76 592.448C2519.02 592.032 2519.38 591.71 2519.84 591.484C2520.3 591.26 2520.84 591.148 2521.46 591.148C2522.07 591.148 2522.61 591.26 2523.08 591.484C2523.55 591.71 2523.92 592.025 2524.18 592.429C2524.45 592.835 2524.58 593.309 2524.58 593.851C2524.58 594.163 2524.53 594.472 2524.43 594.777C2524.32 595.081 2524.15 595.359 2523.92 595.609C2523.69 595.859 2523.38 596.058 2523 596.206C2522.61 596.355 2522.14 596.429 2521.58 596.429H2521.19V591.804H2521.99V595.491C2522.33 595.491 2522.63 595.424 2522.89 595.288C2523.16 595.155 2523.37 594.965 2523.52 594.718C2523.68 594.473 2523.75 594.184 2523.75 593.851C2523.75 593.484 2523.66 593.166 2523.48 592.898C2523.3 592.632 2523.07 592.428 2522.78 592.284C2522.49 592.141 2522.18 592.07 2521.85 592.07H2521.32C2520.86 592.07 2520.48 592.148 2520.16 592.304C2519.85 592.463 2519.61 592.683 2519.45 592.964C2519.29 593.245 2519.21 593.572 2519.21 593.945C2519.21 594.187 2519.24 594.405 2519.31 594.601C2519.38 594.799 2519.48 594.969 2519.62 595.113C2519.76 595.256 2519.94 595.366 2520.14 595.445L2519.89 596.335C2519.59 596.241 2519.33 596.084 2519.1 595.863C2518.87 595.641 2518.69 595.368 2518.57 595.042C2518.44 594.717 2518.38 594.351 2518.38 593.945ZM2516.13 599.978C2516.13 599.533 2516.19 599.15 2516.3 598.83C2516.41 598.509 2516.56 598.242 2516.75 598.029C2516.93 597.818 2517.12 597.65 2517.33 597.525L2517.85 598.259C2517.74 598.343 2517.61 598.448 2517.47 598.576C2517.33 598.703 2517.21 598.878 2517.1 599.099C2516.99 599.323 2516.94 599.616 2516.94 599.978C2516.94 600.463 2517.06 600.862 2517.29 601.177C2517.53 601.492 2517.89 601.65 2518.39 601.65H2519.61V601.572C2519.5 601.504 2519.37 601.408 2519.21 601.283C2519.05 601.16 2518.91 600.983 2518.78 600.752C2518.66 600.522 2518.6 600.213 2518.6 599.822C2518.6 599.338 2518.71 598.903 2518.94 598.517C2519.17 598.134 2519.5 597.831 2519.94 597.607C2520.38 597.386 2520.91 597.275 2521.54 597.275C2522.15 597.275 2522.68 597.383 2523.14 597.599C2523.6 597.815 2523.95 598.116 2524.2 598.502C2524.46 598.887 2524.58 599.332 2524.58 599.838C2524.58 600.228 2524.52 600.538 2524.39 600.767C2524.26 600.999 2524.11 601.176 2523.95 601.298C2523.79 601.423 2523.65 601.52 2523.55 601.588V601.681H2524.5V602.572H2518.33C2517.82 602.572 2517.4 602.455 2517.07 602.22C2516.75 601.989 2516.51 601.676 2516.36 601.283C2516.21 600.892 2516.13 600.457 2516.13 599.978ZM2519.43 599.947C2519.43 600.317 2519.51 600.629 2519.68 600.884C2519.85 601.14 2520.09 601.334 2520.41 601.466C2520.73 601.599 2521.11 601.666 2521.55 601.666C2521.98 601.666 2522.36 601.601 2522.7 601.47C2523.03 601.34 2523.29 601.147 2523.47 600.892C2523.66 600.637 2523.75 600.322 2523.75 599.947C2523.75 599.556 2523.65 599.231 2523.46 598.97C2523.26 598.713 2522.99 598.518 2522.66 598.388C2522.33 598.261 2521.96 598.197 2521.55 598.197C2521.13 598.197 2520.77 598.262 2520.45 598.392C2520.13 598.525 2519.88 598.72 2519.7 598.978C2519.52 599.239 2519.43 599.561 2519.43 599.947ZM2518.5 603.984H2524.5V604.875H2523.57V604.953C2523.89 605.078 2524.14 605.28 2524.31 605.559C2524.49 605.837 2524.58 606.172 2524.58 606.563C2524.58 606.958 2524.49 607.288 2524.31 607.551C2524.14 607.816 2523.89 608.023 2523.57 608.172V608.234C2523.88 608.388 2524.12 608.618 2524.3 608.926C2524.49 609.233 2524.58 609.602 2524.58 610.031C2524.58 610.568 2524.41 611.007 2524.08 611.348C2523.74 611.689 2523.23 611.859 2522.52 611.859H2518.5V610.937H2522.52C2522.96 610.937 2523.28 610.816 2523.47 610.574C2523.66 610.332 2523.75 610.047 2523.75 609.719C2523.75 609.297 2523.63 608.97 2523.37 608.738C2523.12 608.507 2522.8 608.391 2522.41 608.391H2518.5V607.453H2522.61C2522.95 607.453 2523.23 607.342 2523.44 607.121C2523.65 606.9 2523.75 606.615 2523.75 606.266C2523.75 606.026 2523.69 605.802 2523.56 605.594C2523.43 605.388 2523.26 605.221 2523.03 605.094C2522.81 604.969 2522.55 604.906 2522.25 604.906H2518.5V603.984ZM2518.38 615.786C2518.38 615.207 2518.51 614.709 2518.76 614.289C2519.02 613.873 2519.38 613.551 2519.84 613.325C2520.3 613.101 2520.84 612.989 2521.46 612.989C2522.07 612.989 2522.61 613.101 2523.08 613.325C2523.55 613.551 2523.92 613.866 2524.18 614.27C2524.45 614.676 2524.58 615.15 2524.58 615.692C2524.58 616.004 2524.53 616.313 2524.43 616.618C2524.32 616.922 2524.15 617.2 2523.92 617.45C2523.69 617.7 2523.38 617.899 2523 618.047C2522.61 618.196 2522.14 618.27 2521.58 618.27H2521.19V613.645H2521.99V617.332C2522.33 617.332 2522.63 617.265 2522.89 617.129C2523.16 616.996 2523.37 616.806 2523.52 616.559C2523.68 616.314 2523.75 616.025 2523.75 615.692C2523.75 615.325 2523.66 615.007 2523.48 614.739C2523.3 614.473 2523.07 614.269 2522.78 614.125C2522.49 613.982 2522.18 613.911 2521.85 613.911H2521.32C2520.86 613.911 2520.48 613.989 2520.16 614.145C2519.85 614.304 2519.61 614.524 2519.45 614.805C2519.29 615.086 2519.21 615.413 2519.21 615.786C2519.21 616.028 2519.24 616.246 2519.31 616.442C2519.38 616.64 2519.48 616.81 2519.62 616.954C2519.76 617.097 2519.94 617.207 2520.14 617.286L2519.89 618.176C2519.59 618.082 2519.33 617.925 2519.1 617.704C2518.87 617.482 2518.69 617.209 2518.57 616.883C2518.44 616.558 2518.38 616.192 2518.38 615.786ZM2522.11 620.319H2518.5V619.397H2524.5V620.288H2523.57V620.366C2523.87 620.507 2524.12 620.72 2524.3 621.007C2524.49 621.293 2524.58 621.663 2524.58 622.116C2524.58 622.522 2524.5 622.878 2524.33 623.182C2524.17 623.487 2523.92 623.724 2523.58 623.893C2523.25 624.063 2522.83 624.147 2522.32 624.147H2518.5V623.225H2522.25C2522.73 623.225 2523.09 623.103 2523.36 622.858C2523.62 622.613 2523.75 622.277 2523.75 621.85C2523.75 621.556 2523.69 621.293 2523.56 621.061C2523.43 620.832 2523.25 620.651 2523 620.518C2522.76 620.386 2522.46 620.319 2522.11 620.319ZM2524.5 628.166H2523.72V625.057H2524.5V628.166ZM2525.94 625.963V626.885H2520.22C2519.96 626.885 2519.77 626.923 2519.64 626.998C2519.51 627.076 2519.42 627.175 2519.38 627.295C2519.34 627.418 2519.32 627.546 2519.32 627.682C2519.32 627.783 2519.32 627.867 2519.33 627.932C2519.35 627.997 2519.36 628.049 2519.36 628.088L2518.54 628.276C2518.51 628.213 2518.49 628.126 2518.46 628.014C2518.44 627.902 2518.43 627.76 2518.43 627.588C2518.43 627.328 2518.48 627.072 2518.59 626.822C2518.71 626.575 2518.88 626.369 2519.11 626.205C2519.33 626.044 2519.62 625.963 2519.97 625.963H2525.94Z" fill="white" fill-opacity="0.8"/>
<mask id="path-289-inside-8_4_4019" fill="white">
<path d="M2508 662C2508 657.582 2511.58 654 2516 654H2532C2536.42 654 2540 657.582 2540 662V738C2540 742.418 2536.42 746 2532 746H2516C2511.58 746 2508 742.418 2508 738V662Z"/>
</mask>
<path d="M2508 662C2508 657.582 2511.58 654 2516 654H2532C2536.42 654 2540 657.582 2540 662V738C2540 742.418 2536.42 746 2532 746H2516C2511.58 746 2508 742.418 2508 738V662Z" fill="#252525"/>
<path d="M2516 654V655H2532V654V653H2516V654ZM2540 662H2539V738H2540H2541V662H2540ZM2532 746V745H2516V746V747H2532V746ZM2508 738H2509V662H2508H2507V738H2508ZM2516 746V745C2512.13 745 2509 741.866 2509 738H2508H2507C2507 742.971 2511.03 747 2516 747V746ZM2540 738H2539C2539 741.866 2535.87 745 2532 745V746V747C2536.97 747 2541 742.971 2541 738H2540ZM2532 654V655C2535.87 655 2539 658.134 2539 662H2540H2541C2541 657.029 2536.97 653 2532 653V654ZM2516 654V653C2511.03 653 2507 657.029 2507 662H2508H2509C2509 658.134 2512.13 655 2516 655V654Z" fill="#3A3A3A" mask="url(#path-289-inside-8_4_4019)"/>
<path d="M2518.5 679.836H2526.5V682.632C2526.5 683.19 2526.4 683.649 2526.21 684.011C2526.02 684.373 2525.76 684.643 2525.44 684.82C2525.12 684.997 2524.77 685.086 2524.38 685.086C2524.03 685.086 2523.75 685.024 2523.52 684.902C2523.3 684.782 2523.12 684.623 2522.99 684.425C2522.86 684.23 2522.77 684.018 2522.7 683.789H2522.62C2522.61 684.033 2522.52 684.28 2522.37 684.527C2522.21 684.774 2521.99 684.981 2521.7 685.148C2521.4 685.315 2521.05 685.398 2520.63 685.398C2520.22 685.398 2519.86 685.307 2519.54 685.125C2519.22 684.942 2518.97 684.655 2518.78 684.261C2518.59 683.868 2518.5 683.356 2518.5 682.726V679.836ZM2519.36 680.804V682.726C2519.36 683.359 2519.48 683.808 2519.73 684.074C2519.97 684.342 2520.27 684.476 2520.63 684.476C2520.9 684.476 2521.15 684.407 2521.38 684.269C2521.61 684.131 2521.79 683.935 2521.93 683.679C2522.07 683.424 2522.14 683.122 2522.14 682.773V680.804H2519.36ZM2522.98 680.804V682.601C2522.98 682.893 2523.04 683.156 2523.16 683.39C2523.27 683.627 2523.43 683.815 2523.64 683.953C2523.85 684.093 2524.09 684.164 2524.38 684.164C2524.73 684.164 2525.02 684.041 2525.27 683.796C2525.52 683.552 2525.64 683.164 2525.64 682.632V680.804H2522.98ZM2526.5 687.512H2518.5V686.59H2526.5V687.512ZM2518.37 691.363C2518.37 690.821 2518.5 690.346 2518.76 689.937C2519.02 689.531 2519.38 689.213 2519.84 688.984C2520.31 688.757 2520.85 688.644 2521.47 688.644C2522.09 688.644 2522.64 688.757 2523.11 688.984C2523.57 689.213 2523.93 689.531 2524.19 689.937C2524.45 690.346 2524.58 690.821 2524.58 691.363C2524.58 691.904 2524.45 692.378 2524.19 692.785C2523.93 693.193 2523.57 693.511 2523.11 693.738C2522.64 693.967 2522.09 694.081 2521.47 694.081C2520.85 694.081 2520.31 693.967 2519.84 693.738C2519.38 693.511 2519.02 693.193 2518.76 692.785C2518.5 692.378 2518.37 691.904 2518.37 691.363ZM2519.2 691.363C2519.2 691.774 2519.31 692.113 2519.52 692.378C2519.73 692.644 2520.01 692.841 2520.35 692.968C2520.7 693.096 2521.07 693.16 2521.47 693.16C2521.87 693.16 2522.24 693.096 2522.59 692.968C2522.94 692.841 2523.22 692.644 2523.43 692.378C2523.64 692.113 2523.75 691.774 2523.75 691.363C2523.75 690.951 2523.64 690.613 2523.43 690.347C2523.22 690.081 2522.94 689.885 2522.59 689.757C2522.24 689.63 2521.87 689.566 2521.47 689.566C2521.07 689.566 2520.7 689.63 2520.35 689.757C2520.01 689.885 2519.73 690.081 2519.52 690.347C2519.31 690.613 2519.2 690.951 2519.2 691.363ZM2518.37 697.651C2518.37 697.089 2518.51 696.604 2518.77 696.198C2519.04 695.792 2519.4 695.479 2519.87 695.261C2520.34 695.042 2520.87 694.932 2521.47 694.932C2522.08 694.932 2522.62 695.044 2523.08 695.268C2523.55 695.495 2523.92 695.81 2524.18 696.214C2524.45 696.62 2524.58 697.094 2524.58 697.636C2524.58 698.057 2524.5 698.438 2524.34 698.776C2524.19 699.115 2523.97 699.392 2523.69 699.608C2523.41 699.824 2523.08 699.958 2522.7 700.011V699.089C2522.98 699.018 2523.22 698.862 2523.43 698.62C2523.64 698.38 2523.75 698.057 2523.75 697.651C2523.75 697.292 2523.66 696.977 2523.47 696.706C2523.28 696.438 2523.02 696.228 2522.68 696.077C2522.35 695.929 2521.95 695.854 2521.5 695.854C2521.04 695.854 2520.63 695.927 2520.29 696.073C2519.95 696.221 2519.68 696.43 2519.49 696.698C2519.3 696.969 2519.2 697.287 2519.2 697.651C2519.2 697.891 2519.24 698.108 2519.33 698.304C2519.41 698.499 2519.53 698.664 2519.69 698.8C2519.84 698.935 2520.03 699.031 2520.25 699.089V700.011C2519.9 699.958 2519.58 699.83 2519.29 699.624C2519.01 699.421 2518.79 699.151 2518.62 698.815C2518.46 698.482 2518.37 698.094 2518.37 697.651ZM2520.69 701.943L2521.83 701.927V702.114L2524.5 704.739V705.88L2521.67 703.083V703.005L2520.69 701.943ZM2518.5 701.083H2526.5V702.005H2518.5V701.083ZM2518.5 704.896L2521.47 702.552L2522.11 703.208L2518.5 706.068V704.896ZM2518.37 708.982C2518.37 708.44 2518.5 707.965 2518.76 707.556C2519.02 707.15 2519.38 706.832 2519.84 706.603C2520.31 706.377 2520.85 706.263 2521.47 706.263C2522.09 706.263 2522.64 706.377 2523.11 706.603C2523.57 706.832 2523.93 707.15 2524.19 707.556C2524.45 707.965 2524.58 708.44 2524.58 708.982C2524.58 709.524 2524.45 709.998 2524.19 710.404C2523.93 710.813 2523.57 711.13 2523.11 711.357C2522.64 711.586 2522.09 711.701 2521.47 711.701C2520.85 711.701 2520.31 711.586 2519.84 711.357C2519.38 711.13 2519.02 710.813 2518.76 710.404C2518.5 709.998 2518.37 709.524 2518.37 708.982ZM2519.2 708.982C2519.2 709.393 2519.31 709.732 2519.52 709.998C2519.73 710.263 2520.01 710.46 2520.35 710.587C2520.7 710.715 2521.07 710.779 2521.47 710.779C2521.87 710.779 2522.24 710.715 2522.59 710.587C2522.94 710.46 2523.22 710.263 2523.43 709.998C2523.64 709.732 2523.75 709.393 2523.75 708.982C2523.75 708.571 2523.64 708.232 2523.43 707.966C2523.22 707.701 2522.94 707.504 2522.59 707.377C2522.24 707.249 2521.87 707.185 2521.47 707.185C2521.07 707.185 2520.7 707.249 2520.35 707.377C2520.01 707.504 2519.73 707.701 2519.52 707.966C2519.31 708.232 2519.2 708.571 2519.2 708.982ZM2520.95 716.614H2524.5V717.536H2518.5V716.614H2519.52V716.552C2519.21 716.411 2518.95 716.192 2518.74 715.896C2518.53 715.599 2518.42 715.224 2518.42 714.771C2518.42 714.396 2518.5 714.062 2518.67 713.771C2518.83 713.479 2519.08 713.25 2519.42 713.083C2519.75 712.916 2520.18 712.833 2520.69 712.833H2524.5V713.755H2520.75C2520.31 713.755 2519.96 713.877 2519.7 714.122C2519.44 714.369 2519.31 714.685 2519.31 715.067C2519.31 715.297 2519.37 715.53 2519.49 715.767C2519.61 716.006 2519.79 716.207 2520.03 716.368C2520.27 716.532 2520.58 716.614 2520.95 716.614ZM2524.5 721.559H2523.72V718.45H2524.5V721.559ZM2525.94 719.356V720.278H2520.22C2519.96 720.278 2519.76 720.315 2519.63 720.391C2519.51 720.469 2519.42 720.568 2519.37 720.688C2519.33 720.81 2519.31 720.939 2519.31 721.075C2519.31 721.176 2519.32 721.26 2519.33 721.325C2519.34 721.39 2519.35 721.442 2519.36 721.481L2518.53 721.668C2518.51 721.606 2518.48 721.519 2518.46 721.407C2518.43 721.295 2518.42 721.153 2518.42 720.981C2518.42 720.72 2518.48 720.465 2518.59 720.215C2518.7 719.968 2518.87 719.762 2519.1 719.598C2519.33 719.437 2519.62 719.356 2519.97 719.356H2525.94Z" fill="white" fill-opacity="0.8"/>
</g>
<defs>
<clipPath id="clip0_4_4019">
<rect width="2560" height="1275" fill="white"/>
</clipPath>
<clipPath id="clip1_4_4019">
<rect width="1266.5" height="1259" fill="white" transform="translate(1285.5 8)"/>
</clipPath>
</defs>
</svg>
