<svg width="2560" height="1275" viewBox="0 0 2560 1275" fill="none" xmlns="http://www.w3.org/2000/svg">
<g clip-path="url(#clip0_4_5191)">
<mask id="path-1-inside-1_4_5191" fill="white">
<path d="M1284.5 15C1284.5 10.5818 1288.08 7 1292.5 7H2545C2549.42 7 2553 10.5817 2553 15V1260C2553 1264.42 2549.42 1268 2545 1268H1292.5C1288.08 1268 1284.5 1264.42 1284.5 1260V15Z"/>
</mask>
<path d="M1284.5 15C1284.5 10.5818 1288.08 7 1292.5 7H2545C2549.42 7 2553 10.5817 2553 15V1260C2553 1264.42 2549.42 1268 2545 1268H1292.5C1288.08 1268 1284.5 1264.42 1284.5 1260V15Z" fill="#010000"/>
<path d="M1292.5 7V8H2545V7V6H1292.5V7ZM2553 15H2552V1260H2553H2554V15H2553ZM2545 1268V1267H1292.5V1268V1269H2545V1268ZM1284.5 1260H1285.5V15H1284.5H1283.5V1260H1284.5ZM1292.5 1268V1267C1288.63 1267 1285.5 1263.87 1285.5 1260H1284.5H1283.5C1283.5 1264.97 1287.53 1269 1292.5 1269V1268ZM2553 1260H2552C2552 1263.87 2548.87 1267 2545 1267V1268V1269C2549.97 1269 2554 1264.97 2554 1260H2553ZM2545 7V8C2548.87 8 2552 11.134 2552 15H2553H2554C2554 10.0294 2549.97 6 2545 6V7ZM1292.5 7V6C1287.53 6 1283.5 10.0295 1283.5 15H1284.5H1285.5C1285.5 11.134 1288.63 8 1292.5 8V7Z" fill="#3A3A3A" mask="url(#path-1-inside-1_4_5191)"/>
<g clip-path="url(#clip1_4_5191)">
<path d="M2552 8H1285.5V1267H2552V8Z" fill="#010000"/>
<path d="M1285.5 8V1267" stroke="white" stroke-opacity="0.08" stroke-width="0.631372"/>
<path d="M1298.17 8V1267" stroke="white" stroke-opacity="0.08" stroke-width="0.631372"/>
<path d="M1310.83 8V1267" stroke="white" stroke-opacity="0.08" stroke-width="0.631372"/>
<path d="M1323.5 8V1267" stroke="white" stroke-opacity="0.08" stroke-width="0.631372"/>
<path d="M1336.16 8V1267" stroke="white" stroke-opacity="0.08" stroke-width="0.631372"/>
<path d="M1348.83 8V1267" stroke="white" stroke-opacity="0.08" stroke-width="0.631372"/>
<path d="M1361.49 8V1267" stroke="white" stroke-opacity="0.08" stroke-width="0.631372"/>
<path d="M1374.16 8V1267" stroke="white" stroke-opacity="0.08" stroke-width="0.631372"/>
<path d="M1386.82 8V1267" stroke="white" stroke-opacity="0.08" stroke-width="0.631372"/>
<path d="M1399.49 8V1267" stroke="white" stroke-opacity="0.08" stroke-width="0.631372"/>
<path d="M1412.15 8V1267" stroke="white" stroke-opacity="0.08" stroke-width="0.631372"/>
<path d="M1424.82 8V1267" stroke="white" stroke-opacity="0.08" stroke-width="0.631372"/>
<path d="M1437.48 8V1267" stroke="white" stroke-opacity="0.08" stroke-width="0.631372"/>
<path d="M1450.14 8V1267" stroke="white" stroke-opacity="0.08" stroke-width="0.631372"/>
<path d="M1462.81 8V1267" stroke="white" stroke-opacity="0.08" stroke-width="0.631372"/>
<path d="M1475.47 8V1267" stroke="white" stroke-opacity="0.08" stroke-width="0.631372"/>
<path d="M1488.14 8V1267" stroke="white" stroke-opacity="0.08" stroke-width="0.631372"/>
<path d="M1500.8 8V1267" stroke="white" stroke-opacity="0.08" stroke-width="0.631372"/>
<path d="M1513.47 8V1267" stroke="white" stroke-opacity="0.08" stroke-width="0.631372"/>
<path d="M1526.13 8V1267" stroke="white" stroke-opacity="0.08" stroke-width="0.631372"/>
<path d="M1538.8 8V1267" stroke="white" stroke-opacity="0.08" stroke-width="0.631372"/>
<path d="M1551.46 8V1267" stroke="white" stroke-opacity="0.08" stroke-width="0.631372"/>
<path d="M1564.13 8V1267" stroke="white" stroke-opacity="0.08" stroke-width="0.631372"/>
<path d="M1576.79 8V1267" stroke="white" stroke-opacity="0.08" stroke-width="0.631372"/>
<path d="M1589.46 8V1267" stroke="white" stroke-opacity="0.08" stroke-width="0.631372"/>
<path d="M1602.12 8V1267" stroke="white" stroke-opacity="0.08" stroke-width="0.631372"/>
<path d="M1614.79 8V1267" stroke="white" stroke-opacity="0.08" stroke-width="0.631372"/>
<path d="M1627.46 8V1267" stroke="white" stroke-opacity="0.08" stroke-width="0.631372"/>
<path d="M1640.12 8V1267" stroke="white" stroke-opacity="0.08" stroke-width="0.631372"/>
<path d="M1652.79 8V1267" stroke="white" stroke-opacity="0.08" stroke-width="0.631372"/>
<path d="M1665.45 8V1267" stroke="white" stroke-opacity="0.08" stroke-width="0.631372"/>
<path d="M1678.12 8V1267" stroke="white" stroke-opacity="0.08" stroke-width="0.631372"/>
<path d="M1690.78 8V1267" stroke="white" stroke-opacity="0.08" stroke-width="0.631372"/>
<path d="M1703.45 8V1267" stroke="white" stroke-opacity="0.08" stroke-width="0.631372"/>
<path d="M1716.11 8V1267" stroke="white" stroke-opacity="0.08" stroke-width="0.631372"/>
<path d="M1728.78 8V1267" stroke="white" stroke-opacity="0.08" stroke-width="0.631372"/>
<path d="M1741.44 8V1267" stroke="white" stroke-opacity="0.08" stroke-width="0.631372"/>
<path d="M1754.11 8V1267" stroke="white" stroke-opacity="0.08" stroke-width="0.631372"/>
<path d="M1766.77 8V1267" stroke="white" stroke-opacity="0.08" stroke-width="0.631372"/>
<path d="M1779.43 8V1267" stroke="white" stroke-opacity="0.08" stroke-width="0.631372"/>
<path d="M1792.1 8V1267" stroke="white" stroke-opacity="0.08" stroke-width="0.631372"/>
<path d="M1804.76 8V1267" stroke="white" stroke-opacity="0.08" stroke-width="0.631372"/>
<path d="M1817.43 8V1267" stroke="white" stroke-opacity="0.08" stroke-width="0.631372"/>
<path d="M1830.09 8V1267" stroke="white" stroke-opacity="0.08" stroke-width="0.631372"/>
<path d="M1842.76 8V1267" stroke="white" stroke-opacity="0.08" stroke-width="0.631372"/>
<path d="M1855.42 8V1267" stroke="white" stroke-opacity="0.08" stroke-width="0.631372"/>
<path d="M1868.09 8V1267" stroke="white" stroke-opacity="0.08" stroke-width="0.631372"/>
<path d="M1880.75 8V1267" stroke="white" stroke-opacity="0.08" stroke-width="0.631372"/>
<path d="M1893.42 8V1267" stroke="white" stroke-opacity="0.08" stroke-width="0.631372"/>
<path d="M1906.08 8V1267" stroke="white" stroke-opacity="0.08" stroke-width="0.631372"/>
<path d="M1918.75 8V1267" stroke="white" stroke-opacity="0.08" stroke-width="0.631372"/>
<path d="M1931.42 8V1267" stroke="white" stroke-opacity="0.08" stroke-width="0.631372"/>
<path d="M1944.08 8V1267" stroke="white" stroke-opacity="0.08" stroke-width="0.631372"/>
<path d="M1956.75 8V1267" stroke="white" stroke-opacity="0.08" stroke-width="0.631372"/>
<path d="M1969.41 8V1267" stroke="white" stroke-opacity="0.08" stroke-width="0.631372"/>
<path d="M1982.08 8V1267" stroke="white" stroke-opacity="0.08" stroke-width="0.631372"/>
<path d="M1994.74 8V1267" stroke="white" stroke-opacity="0.08" stroke-width="0.631372"/>
<path d="M2007.41 8V1267" stroke="white" stroke-opacity="0.08" stroke-width="0.631372"/>
<path d="M2020.07 8V1267" stroke="white" stroke-opacity="0.08" stroke-width="0.631372"/>
<path d="M2032.74 8V1267" stroke="white" stroke-opacity="0.08" stroke-width="0.631372"/>
<path d="M2045.4 8V1267" stroke="white" stroke-opacity="0.08" stroke-width="0.631372"/>
<path d="M2058.07 8V1267" stroke="white" stroke-opacity="0.08" stroke-width="0.631372"/>
<path d="M2070.73 8V1267" stroke="white" stroke-opacity="0.08" stroke-width="0.631372"/>
<path d="M2083.39 8V1267" stroke="white" stroke-opacity="0.08" stroke-width="0.631372"/>
<path d="M2096.06 8V1267" stroke="white" stroke-opacity="0.08" stroke-width="0.631372"/>
<path d="M2108.72 8V1267" stroke="white" stroke-opacity="0.08" stroke-width="0.631372"/>
<path d="M2121.39 8V1267" stroke="white" stroke-opacity="0.08" stroke-width="0.631372"/>
<path d="M2134.05 8V1267" stroke="white" stroke-opacity="0.08" stroke-width="0.631372"/>
<path d="M2146.72 8V1267" stroke="white" stroke-opacity="0.08" stroke-width="0.631372"/>
<path d="M2159.38 8V1267" stroke="white" stroke-opacity="0.08" stroke-width="0.631372"/>
<path d="M2172.05 8V1267" stroke="white" stroke-opacity="0.08" stroke-width="0.631372"/>
<path d="M2184.71 8V1267" stroke="white" stroke-opacity="0.08" stroke-width="0.631372"/>
<path d="M2197.38 8V1267" stroke="white" stroke-opacity="0.08" stroke-width="0.631372"/>
<path d="M2210.04 8V1267" stroke="white" stroke-opacity="0.08" stroke-width="0.631372"/>
<path d="M2222.71 8V1267" stroke="white" stroke-opacity="0.08" stroke-width="0.631372"/>
<path d="M2235.38 8V1267" stroke="white" stroke-opacity="0.08" stroke-width="0.631372"/>
<path d="M2248.04 8V1267" stroke="white" stroke-opacity="0.08" stroke-width="0.631372"/>
<path d="M2260.71 8V1267" stroke="white" stroke-opacity="0.08" stroke-width="0.631372"/>
<path d="M2273.37 8V1267" stroke="white" stroke-opacity="0.08" stroke-width="0.631372"/>
<path d="M2286.04 8V1267" stroke="white" stroke-opacity="0.08" stroke-width="0.631372"/>
<path d="M2298.7 8V1267" stroke="white" stroke-opacity="0.08" stroke-width="0.631372"/>
<path d="M2311.37 8V1267" stroke="white" stroke-opacity="0.08" stroke-width="0.631372"/>
<path d="M2324.03 8V1267" stroke="white" stroke-opacity="0.08" stroke-width="0.631372"/>
<path d="M2336.7 8V1267" stroke="white" stroke-opacity="0.08" stroke-width="0.631372"/>
<path d="M2349.36 8V1267" stroke="white" stroke-opacity="0.08" stroke-width="0.631372"/>
<path d="M2362.03 8V1267" stroke="white" stroke-opacity="0.08" stroke-width="0.631372"/>
<path d="M2374.69 8V1267" stroke="white" stroke-opacity="0.08" stroke-width="0.631372"/>
<path d="M2387.36 8V1267" stroke="white" stroke-opacity="0.08" stroke-width="0.631372"/>
<path d="M2400.02 8V1267" stroke="white" stroke-opacity="0.08" stroke-width="0.631372"/>
<path d="M2412.69 8V1267" stroke="white" stroke-opacity="0.08" stroke-width="0.631372"/>
<path d="M2425.35 8V1267" stroke="white" stroke-opacity="0.08" stroke-width="0.631372"/>
<path d="M2438.01 8V1267" stroke="white" stroke-opacity="0.08" stroke-width="0.631372"/>
<path d="M2450.68 8V1267" stroke="white" stroke-opacity="0.08" stroke-width="0.631372"/>
<path d="M2463.34 8V1267" stroke="white" stroke-opacity="0.08" stroke-width="0.631372"/>
<path d="M2476.01 8V1267" stroke="white" stroke-opacity="0.08" stroke-width="0.631372"/>
<path d="M2488.67 8V1267" stroke="white" stroke-opacity="0.08" stroke-width="0.631372"/>
<path d="M2501.34 8V1267" stroke="white" stroke-opacity="0.08" stroke-width="0.631372"/>
<path d="M2514 8V1267" stroke="white" stroke-opacity="0.08" stroke-width="0.631372"/>
<path d="M2526.67 8V1267" stroke="white" stroke-opacity="0.08" stroke-width="0.631372"/>
<path d="M2539.33 8V1267" stroke="white" stroke-opacity="0.08" stroke-width="0.631372"/>
<path d="M1285.5 8H2552" stroke="white" stroke-opacity="0.08" stroke-width="0.631372"/>
<path d="M1285.5 20.59H2552" stroke="white" stroke-opacity="0.08" stroke-width="0.631372"/>
<path d="M1285.5 33.18H2552" stroke="white" stroke-opacity="0.08" stroke-width="0.631372"/>
<path d="M1285.5 45.77H2552" stroke="white" stroke-opacity="0.08" stroke-width="0.631372"/>
<path d="M1285.5 58.36H2552" stroke="white" stroke-opacity="0.08" stroke-width="0.631372"/>
<path d="M1285.5 70.95H2552" stroke="white" stroke-opacity="0.08" stroke-width="0.631372"/>
<path d="M1285.5 83.54H2552" stroke="white" stroke-opacity="0.08" stroke-width="0.631372"/>
<path d="M1285.5 96.13H2552" stroke="white" stroke-opacity="0.08" stroke-width="0.631372"/>
<path d="M1285.5 108.72H2552" stroke="white" stroke-opacity="0.08" stroke-width="0.631372"/>
<path d="M1285.5 121.31H2552" stroke="white" stroke-opacity="0.08" stroke-width="0.631372"/>
<path d="M1285.5 133.9H2552" stroke="white" stroke-opacity="0.08" stroke-width="0.631372"/>
<path d="M1285.5 146.49H2552" stroke="white" stroke-opacity="0.08" stroke-width="0.631372"/>
<path d="M1285.5 159.08H2552" stroke="white" stroke-opacity="0.08" stroke-width="0.631372"/>
<path d="M1285.5 171.67H2552" stroke="white" stroke-opacity="0.08" stroke-width="0.631372"/>
<path d="M1285.5 184.26H2552" stroke="white" stroke-opacity="0.08" stroke-width="0.631372"/>
<path d="M1285.5 196.85H2552" stroke="white" stroke-opacity="0.08" stroke-width="0.631372"/>
<path d="M1285.5 209.44H2552" stroke="white" stroke-opacity="0.08" stroke-width="0.631372"/>
<path d="M1285.5 222.03H2552" stroke="white" stroke-opacity="0.08" stroke-width="0.631372"/>
<path d="M1285.5 234.62H2552" stroke="white" stroke-opacity="0.08" stroke-width="0.631372"/>
<path d="M1285.5 247.21H2552" stroke="white" stroke-opacity="0.08" stroke-width="0.631372"/>
<path d="M1285.5 259.8H2552" stroke="white" stroke-opacity="0.08" stroke-width="0.631372"/>
<path d="M1285.5 272.39H2552" stroke="white" stroke-opacity="0.08" stroke-width="0.631372"/>
<path d="M1285.5 284.98H2552" stroke="white" stroke-opacity="0.08" stroke-width="0.631372"/>
<path d="M1285.5 297.57H2552" stroke="white" stroke-opacity="0.08" stroke-width="0.631372"/>
<path d="M1285.5 310.16H2552" stroke="white" stroke-opacity="0.08" stroke-width="0.631372"/>
<path d="M1285.5 322.75H2552" stroke="white" stroke-opacity="0.08" stroke-width="0.631372"/>
<path d="M1285.5 335.34H2552" stroke="white" stroke-opacity="0.08" stroke-width="0.631372"/>
<path d="M1285.5 347.93H2552" stroke="white" stroke-opacity="0.08" stroke-width="0.631372"/>
<path d="M1285.5 360.52H2552" stroke="white" stroke-opacity="0.08" stroke-width="0.631372"/>
<path d="M1285.5 373.11H2552" stroke="white" stroke-opacity="0.08" stroke-width="0.631372"/>
<path d="M1285.5 385.7H2552" stroke="white" stroke-opacity="0.08" stroke-width="0.631372"/>
<path d="M1285.5 398.29H2552" stroke="white" stroke-opacity="0.08" stroke-width="0.631372"/>
<path d="M1285.5 410.88H2552" stroke="white" stroke-opacity="0.08" stroke-width="0.631372"/>
<path d="M1285.5 423.47H2552" stroke="white" stroke-opacity="0.08" stroke-width="0.631372"/>
<path d="M1285.5 436.06H2552" stroke="white" stroke-opacity="0.08" stroke-width="0.631372"/>
<path d="M1285.5 448.65H2552" stroke="white" stroke-opacity="0.08" stroke-width="0.631372"/>
<path d="M1285.5 461.24H2552" stroke="white" stroke-opacity="0.08" stroke-width="0.631372"/>
<path d="M1285.5 473.83H2552" stroke="white" stroke-opacity="0.08" stroke-width="0.631372"/>
<path d="M1285.5 486.42H2552" stroke="white" stroke-opacity="0.08" stroke-width="0.631372"/>
<path d="M1285.5 499.01H2552" stroke="white" stroke-opacity="0.08" stroke-width="0.631372"/>
<path d="M1285.5 511.6H2552" stroke="white" stroke-opacity="0.08" stroke-width="0.631372"/>
<path d="M1285.5 524.19H2552" stroke="white" stroke-opacity="0.08" stroke-width="0.631372"/>
<path d="M1285.5 536.78H2552" stroke="white" stroke-opacity="0.08" stroke-width="0.631372"/>
<path d="M1285.5 549.37H2552" stroke="white" stroke-opacity="0.08" stroke-width="0.631372"/>
<path d="M1285.5 561.96H2552" stroke="white" stroke-opacity="0.08" stroke-width="0.631372"/>
<path d="M1285.5 574.55H2552" stroke="white" stroke-opacity="0.08" stroke-width="0.631372"/>
<path d="M1285.5 587.14H2552" stroke="white" stroke-opacity="0.08" stroke-width="0.631372"/>
<path d="M1285.5 599.73H2552" stroke="white" stroke-opacity="0.08" stroke-width="0.631372"/>
<path d="M1285.5 612.32H2552" stroke="white" stroke-opacity="0.08" stroke-width="0.631372"/>
<path d="M1285.5 624.91H2552" stroke="white" stroke-opacity="0.08" stroke-width="0.631372"/>
<path d="M1285.5 637.5H2552" stroke="white" stroke-opacity="0.08" stroke-width="0.631372"/>
<path d="M1285.5 650.09H2552" stroke="white" stroke-opacity="0.08" stroke-width="0.631372"/>
<path d="M1285.5 662.68H2552" stroke="white" stroke-opacity="0.08" stroke-width="0.631372"/>
<path d="M1285.5 675.27H2552" stroke="white" stroke-opacity="0.08" stroke-width="0.631372"/>
<path d="M1285.5 687.86H2552" stroke="white" stroke-opacity="0.08" stroke-width="0.631372"/>
<path d="M1285.5 700.45H2552" stroke="white" stroke-opacity="0.08" stroke-width="0.631372"/>
<path d="M1285.5 713.04H2552" stroke="white" stroke-opacity="0.08" stroke-width="0.631372"/>
<path d="M1285.5 725.63H2552" stroke="white" stroke-opacity="0.08" stroke-width="0.631372"/>
<path d="M1285.5 738.22H2552" stroke="white" stroke-opacity="0.08" stroke-width="0.631372"/>
<path d="M1285.5 750.81H2552" stroke="white" stroke-opacity="0.08" stroke-width="0.631372"/>
<path d="M1285.5 763.4H2552" stroke="white" stroke-opacity="0.08" stroke-width="0.631372"/>
<path d="M1285.5 775.99H2552" stroke="white" stroke-opacity="0.08" stroke-width="0.631372"/>
<path d="M1285.5 788.58H2552" stroke="white" stroke-opacity="0.08" stroke-width="0.631372"/>
<path d="M1285.5 801.17H2552" stroke="white" stroke-opacity="0.08" stroke-width="0.631372"/>
<path d="M1285.5 813.76H2552" stroke="white" stroke-opacity="0.08" stroke-width="0.631372"/>
<path d="M1285.5 826.35H2552" stroke="white" stroke-opacity="0.08" stroke-width="0.631372"/>
<path d="M1285.5 838.94H2552" stroke="white" stroke-opacity="0.08" stroke-width="0.631372"/>
<path d="M1285.5 851.53H2552" stroke="white" stroke-opacity="0.08" stroke-width="0.631372"/>
<path d="M1285.5 864.12H2552" stroke="white" stroke-opacity="0.08" stroke-width="0.631372"/>
<path d="M1285.5 876.71H2552" stroke="white" stroke-opacity="0.08" stroke-width="0.631372"/>
<path d="M1285.5 889.3H2552" stroke="white" stroke-opacity="0.08" stroke-width="0.631372"/>
<path d="M1285.5 901.89H2552" stroke="white" stroke-opacity="0.08" stroke-width="0.631372"/>
<path d="M1285.5 914.48H2552" stroke="white" stroke-opacity="0.08" stroke-width="0.631372"/>
<path d="M1285.5 927.07H2552" stroke="white" stroke-opacity="0.08" stroke-width="0.631372"/>
<path d="M1285.5 939.66H2552" stroke="white" stroke-opacity="0.08" stroke-width="0.631372"/>
<path d="M1285.5 952.25H2552" stroke="white" stroke-opacity="0.08" stroke-width="0.631372"/>
<path d="M1285.5 964.84H2552" stroke="white" stroke-opacity="0.08" stroke-width="0.631372"/>
<path d="M1285.5 977.43H2552" stroke="white" stroke-opacity="0.08" stroke-width="0.631372"/>
<path d="M1285.5 990.02H2552" stroke="white" stroke-opacity="0.08" stroke-width="0.631372"/>
<path d="M1285.5 1002.61H2552" stroke="white" stroke-opacity="0.08" stroke-width="0.631372"/>
<path d="M1285.5 1015.2H2552" stroke="white" stroke-opacity="0.08" stroke-width="0.631372"/>
<path d="M1285.5 1027.79H2552" stroke="white" stroke-opacity="0.08" stroke-width="0.631372"/>
<path d="M1285.5 1040.38H2552" stroke="white" stroke-opacity="0.08" stroke-width="0.631372"/>
<path d="M1285.5 1052.97H2552" stroke="white" stroke-opacity="0.08" stroke-width="0.631372"/>
<path d="M1285.5 1065.56H2552" stroke="white" stroke-opacity="0.08" stroke-width="0.631372"/>
<path d="M1285.5 1078.15H2552" stroke="white" stroke-opacity="0.08" stroke-width="0.631372"/>
<path d="M1285.5 1090.74H2552" stroke="white" stroke-opacity="0.08" stroke-width="0.631372"/>
<path d="M1285.5 1103.33H2552" stroke="white" stroke-opacity="0.08" stroke-width="0.631372"/>
<path d="M1285.5 1115.92H2552" stroke="white" stroke-opacity="0.08" stroke-width="0.631372"/>
<path d="M1285.5 1128.51H2552" stroke="white" stroke-opacity="0.08" stroke-width="0.631372"/>
<path d="M1285.5 1141.1H2552" stroke="white" stroke-opacity="0.08" stroke-width="0.631372"/>
<path d="M1285.5 1153.69H2552" stroke="white" stroke-opacity="0.08" stroke-width="0.631372"/>
<path d="M1285.5 1166.28H2552" stroke="white" stroke-opacity="0.08" stroke-width="0.631372"/>
<path d="M1285.5 1178.87H2552" stroke="white" stroke-opacity="0.08" stroke-width="0.631372"/>
<path d="M1285.5 1191.46H2552" stroke="white" stroke-opacity="0.08" stroke-width="0.631372"/>
<path d="M1285.5 1204.05H2552" stroke="white" stroke-opacity="0.08" stroke-width="0.631372"/>
<path d="M1285.5 1216.64H2552" stroke="white" stroke-opacity="0.08" stroke-width="0.631372"/>
<path d="M1285.5 1229.23H2552" stroke="white" stroke-opacity="0.08" stroke-width="0.631372"/>
<path d="M1285.5 1241.82H2552" stroke="white" stroke-opacity="0.08" stroke-width="0.631372"/>
<path d="M1285.5 1254.41H2552" stroke="white" stroke-opacity="0.08" stroke-width="0.631372"/>
<path d="M1285.5 8V1267" stroke="white" stroke-opacity="0.12" stroke-width="1.26274"/>
<path d="M1348.83 8V1267" stroke="white" stroke-opacity="0.12" stroke-width="1.26274"/>
<path d="M1412.15 8V1267" stroke="white" stroke-opacity="0.12" stroke-width="1.26274"/>
<path d="M1475.47 8V1267" stroke="white" stroke-opacity="0.12" stroke-width="1.26274"/>
<path d="M1538.8 8V1267" stroke="white" stroke-opacity="0.12" stroke-width="1.26274"/>
<path d="M1602.12 8V1267" stroke="white" stroke-opacity="0.12" stroke-width="1.26274"/>
<path d="M1665.45 8V1267" stroke="white" stroke-opacity="0.12" stroke-width="1.26274"/>
<path d="M1728.78 8V1267" stroke="white" stroke-opacity="0.12" stroke-width="1.26274"/>
<path d="M1792.1 8V1267" stroke="white" stroke-opacity="0.12" stroke-width="1.26274"/>
<path d="M1855.42 8V1267" stroke="white" stroke-opacity="0.12" stroke-width="1.26274"/>
<path d="M1918.75 8V1267" stroke="white" stroke-opacity="0.12" stroke-width="1.26274"/>
<path d="M1982.08 8V1267" stroke="white" stroke-opacity="0.12" stroke-width="1.26274"/>
<path d="M2045.4 8V1267" stroke="white" stroke-opacity="0.12" stroke-width="1.26274"/>
<path d="M2108.72 8V1267" stroke="white" stroke-opacity="0.12" stroke-width="1.26274"/>
<path d="M2172.05 8V1267" stroke="white" stroke-opacity="0.12" stroke-width="1.26274"/>
<path d="M2235.38 8V1267" stroke="white" stroke-opacity="0.12" stroke-width="1.26274"/>
<path d="M2298.7 8V1267" stroke="white" stroke-opacity="0.12" stroke-width="1.26274"/>
<path d="M2362.03 8V1267" stroke="white" stroke-opacity="0.12" stroke-width="1.26274"/>
<path d="M2425.35 8V1267" stroke="white" stroke-opacity="0.12" stroke-width="1.26274"/>
<path d="M2488.67 8V1267" stroke="white" stroke-opacity="0.12" stroke-width="1.26274"/>
<path d="M1285.5 8H2552" stroke="white" stroke-opacity="0.12" stroke-width="1.26274"/>
<path d="M1285.5 70.95H2552" stroke="white" stroke-opacity="0.12" stroke-width="1.26274"/>
<path d="M1285.5 133.9H2552" stroke="white" stroke-opacity="0.12" stroke-width="1.26274"/>
<path d="M1285.5 196.85H2552" stroke="white" stroke-opacity="0.12" stroke-width="1.26274"/>
<path d="M1285.5 259.8H2552" stroke="white" stroke-opacity="0.12" stroke-width="1.26274"/>
<path d="M1285.5 322.75H2552" stroke="white" stroke-opacity="0.12" stroke-width="1.26274"/>
<path d="M1285.5 385.7H2552" stroke="white" stroke-opacity="0.12" stroke-width="1.26274"/>
<path d="M1285.5 448.65H2552" stroke="white" stroke-opacity="0.12" stroke-width="1.26274"/>
<path d="M1285.5 511.6H2552" stroke="white" stroke-opacity="0.12" stroke-width="1.26274"/>
<path d="M1285.5 574.55H2552" stroke="white" stroke-opacity="0.12" stroke-width="1.26274"/>
<path d="M1285.5 637.5H2552" stroke="white" stroke-opacity="0.12" stroke-width="1.26274"/>
<path d="M1285.5 700.45H2552" stroke="white" stroke-opacity="0.12" stroke-width="1.26274"/>
<path d="M1285.5 763.4H2552" stroke="white" stroke-opacity="0.12" stroke-width="1.26274"/>
<path d="M1285.5 826.35H2552" stroke="white" stroke-opacity="0.12" stroke-width="1.26274"/>
<path d="M1285.5 889.3H2552" stroke="white" stroke-opacity="0.12" stroke-width="1.26274"/>
<path d="M1285.5 952.25H2552" stroke="white" stroke-opacity="0.12" stroke-width="1.26274"/>
<path d="M1285.5 1015.2H2552" stroke="white" stroke-opacity="0.12" stroke-width="1.26274"/>
<path d="M1285.5 1078.15H2552" stroke="white" stroke-opacity="0.12" stroke-width="1.26274"/>
<path d="M1285.5 1141.1H2552" stroke="white" stroke-opacity="0.12" stroke-width="1.26274"/>
<path d="M1285.5 1204.05H2552" stroke="white" stroke-opacity="0.12" stroke-width="1.26274"/>
</g>
</g>
<defs>
<clipPath id="clip0_4_5191">
<rect width="2560" height="1275" fill="white"/>
</clipPath>
<clipPath id="clip1_4_5191">
<rect width="1266.5" height="1259" fill="white" transform="translate(1285.5 8)"/>
</clipPath>
</defs>
</svg>
