<svg width="2560" height="1275" viewBox="0 0 2560 1275" fill="none" xmlns="http://www.w3.org/2000/svg">
<g clip-path="url(#clip0_4_4811)">
<mask id="path-1-inside-1_4_4811" fill="white">
<path d="M7 19C7 14.5817 10.5817 11 15 11H1267.5C1271.92 11 1275.5 14.5817 1275.5 19V1232C1275.5 1236.42 1271.92 1240 1267.5 1240H15C10.5817 1240 7 1236.42 7 1232V19Z"/>
</mask>
<path d="M7 19C7 14.5817 10.5817 11 15 11H1267.5C1271.92 11 1275.5 14.5817 1275.5 19V1232C1275.5 1236.42 1271.92 1240 1267.5 1240H15C10.5817 1240 7 1236.42 7 1232V19Z" fill="#2A2A2A"/>
<path d="M15 11V12H1267.5V11V10H15V11ZM1275.5 19H1274.5V1232H1275.5H1276.5V19H1275.5ZM1267.5 1240V1239H15V1240V1241H1267.5V1240ZM7 1232H8V19H7H6V1232H7ZM15 1240V1239C11.134 1239 8 1235.87 8 1232H7H6C6 1236.97 10.0294 1241 15 1241V1240ZM1275.5 1232H1274.5C1274.5 1235.87 1271.37 1239 1267.5 1239V1240V1241C1272.47 1241 1276.5 1236.97 1276.5 1232H1275.5ZM1267.5 11V12C1271.37 12 1274.5 15.134 1274.5 19H1275.5H1276.5C1276.5 14.0294 1272.47 10 1267.5 10V11ZM15 11V10C10.0294 10 6 14.0294 6 19H7H8C8 15.134 11.134 12 15 12V11Z" fill="#3A3A3A" mask="url(#path-1-inside-1_4_4811)"/>
<g clip-path="url(#clip1_4_4811)">
<path d="M1274.5 12H8V1239H1274.5V12Z" fill="#2A2A2A"/>
<path d="M8 12H1274.5" stroke="#A0A0A0" stroke-opacity="0.2" stroke-width="1.24659"/>
<path d="M8 15.4705H1274.5" stroke="#A0A0A0" stroke-opacity="0.204" stroke-width="1.24659"/>
<path d="M8 21.816H1274.5" stroke="#A0A0A0" stroke-opacity="0.208" stroke-width="1.24659"/>
<path d="M8 30.0331H1274.5" stroke="#A0A0A0" stroke-opacity="0.21" stroke-width="1.24659"/>
<path d="M8 39.7639H1274.5" stroke="#A0A0A0" stroke-opacity="0.216" stroke-width="1.24659"/>
<path d="M8 50.8011H1274.5" stroke="#A0A0A0" stroke-opacity="0.22" stroke-width="1.24659"/>
<path d="M8 63.0054H1274.5" stroke="#A0A0A0" stroke-opacity="0.224" stroke-width="1.24659"/>
<path d="M8 76.2742H1274.5" stroke="#A0A0A0" stroke-opacity="0.227" stroke-width="1.24659"/>
<path d="M8 90.528H1274.5" stroke="#A0A0A0" stroke-opacity="0.23" stroke-width="1.24659"/>
<path d="M8 105.703H1274.5" stroke="#A0A0A0" stroke-opacity="0.235" stroke-width="1.24659"/>
<path d="M8 121.746H1274.5" stroke="#A0A0A0" stroke-opacity="0.24" stroke-width="1.24659"/>
<path d="M8 138.613H1274.5" stroke="#A0A0A0" stroke-opacity="0.243" stroke-width="1.24659"/>
<path d="M8 156.265H1274.5" stroke="#A0A0A0" stroke-opacity="0.247" stroke-width="1.24659"/>
<path d="M8 174.669H1274.5" stroke="#A0A0A0" stroke-opacity="0.25" stroke-width="1.24659"/>
<path d="M8 193.795H1274.5" stroke="#A0A0A0" stroke-opacity="0.255" stroke-width="1.24659"/>
<path d="M8 213.617H1274.5" stroke="#A0A0A0" stroke-opacity="0.26" stroke-width="1.24659"/>
<path d="M8 234.111H1274.5" stroke="#A0A0A0" stroke-opacity="0.263" stroke-width="1.24659"/>
<path d="M8 255.256H1274.5" stroke="#A0A0A0" stroke-opacity="0.267" stroke-width="1.24659"/>
<path d="M8 277.032H1274.5" stroke="#A0A0A0" stroke-opacity="0.27" stroke-width="1.24659"/>
<path d="M8 299.422H1274.5" stroke="#A0A0A0" stroke-opacity="0.275" stroke-width="1.24659"/>
<path d="M8 322.409H1274.5" stroke="#A0A0A0" stroke-opacity="0.28" stroke-width="1.24659"/>
<path d="M8 345.979H1274.5" stroke="#A0A0A0" stroke-opacity="0.282" stroke-width="1.24659"/>
<path d="M8 370.116H1274.5" stroke="#A0A0A0" stroke-opacity="0.286" stroke-width="1.24659"/>
<path d="M8 394.808H1274.5" stroke="#A0A0A0" stroke-opacity="0.29" stroke-width="1.24659"/>
<path d="M8 420.043H1274.5" stroke="#A0A0A0" stroke-opacity="0.294" stroke-width="1.24659"/>
<path d="M8 445.81H1274.5" stroke="#A0A0A0" stroke-opacity="0.3" stroke-width="1.24659"/>
<path d="M8 472.097H1274.5" stroke="#A0A0A0" stroke-opacity="0.306" stroke-width="1.24659"/>
<path d="M8 498.895H1274.5" stroke="#A0A0A0" stroke-opacity="0.31" stroke-width="1.24659"/>
<path d="M8 526.193H1274.5" stroke="#A0A0A0" stroke-opacity="0.314" stroke-width="1.24659"/>
<path d="M8 553.984H1274.5" stroke="#A0A0A0" stroke-opacity="0.318" stroke-width="1.24659"/>
<path d="M8 582.258H1274.5" stroke="#A0A0A0" stroke-opacity="0.32" stroke-width="1.24659"/>
<path d="M8 611.007H1274.5" stroke="#A0A0A0" stroke-opacity="0.325" stroke-width="1.24659"/>
<path d="M8 640.224H1274.5" stroke="#A0A0A0" stroke-opacity="0.33" stroke-width="1.24659"/>
<path d="M8 669.901H1274.5" stroke="#A0A0A0" stroke-opacity="0.333" stroke-width="1.24659"/>
<path d="M8 700.031H1274.5" stroke="#A0A0A0" stroke-opacity="0.337" stroke-width="1.24659"/>
<path d="M8 730.607H1274.5" stroke="#A0A0A0" stroke-opacity="0.34" stroke-width="1.24659"/>
<path d="M8 761.624H1274.5" stroke="#A0A0A0" stroke-opacity="0.345" stroke-width="1.24659"/>
<path d="M8 793.074H1274.5" stroke="#A0A0A0" stroke-opacity="0.35" stroke-width="1.24659"/>
<path d="M8 824.952H1274.5" stroke="#A0A0A0" stroke-opacity="0.353" stroke-width="1.24659"/>
<path d="M8 857.252H1274.5" stroke="#A0A0A0" stroke-opacity="0.357" stroke-width="1.24659"/>
<path d="M8 889.97H1274.5" stroke="#A0A0A0" stroke-opacity="0.36" stroke-width="1.24659"/>
<path d="M8 923.099H1274.5" stroke="#A0A0A0" stroke-opacity="0.365" stroke-width="1.24659"/>
<path d="M8 956.634H1274.5" stroke="#A0A0A0" stroke-opacity="0.37" stroke-width="1.24659"/>
<path d="M8 990.571H1274.5" stroke="#A0A0A0" stroke-opacity="0.373" stroke-width="1.24659"/>
<path d="M8 1024.9H1274.5" stroke="#A0A0A0" stroke-opacity="0.376" stroke-width="1.24659"/>
<path d="M8 1059.63H1274.5" stroke="#A0A0A0" stroke-opacity="0.38" stroke-width="1.24659"/>
<path d="M8 1094.75H1274.5" stroke="#A0A0A0" stroke-opacity="0.384" stroke-width="1.24659"/>
<path d="M8 1130.24H1274.5" stroke="#A0A0A0" stroke-opacity="0.39" stroke-width="1.24659"/>
<path d="M8 1166.12H1274.5" stroke="#A0A0A0" stroke-opacity="0.392" stroke-width="1.24659"/>
<path d="M8 1202.37H1274.5" stroke="#A0A0A0" stroke-opacity="0.396" stroke-width="1.24659"/>
<path d="M565.26 12L-878.55 1239" stroke="#A0A0A0" stroke-opacity="0.15" stroke-width="1.24659"/>
<path d="M570.326 12L-777.23 1239" stroke="#A0A0A0" stroke-opacity="0.16" stroke-width="1.24659"/>
<path d="M575.392 12L-675.91 1239" stroke="#A0A0A0" stroke-opacity="0.17" stroke-width="1.24659"/>
<path d="M580.458 12L-574.59 1239" stroke="#A0A0A0" stroke-opacity="0.18" stroke-width="1.24659"/>
<path d="M585.524 12L-473.27 1239" stroke="#A0A0A0" stroke-opacity="0.19" stroke-width="1.24659"/>
<path d="M590.59 12L-371.95 1239" stroke="#A0A0A0" stroke-opacity="0.2" stroke-width="1.24659"/>
<path d="M595.656 12L-270.63 1239" stroke="#A0A0A0" stroke-opacity="0.21" stroke-width="1.24659"/>
<path d="M600.722 12L-169.31 1239" stroke="#A0A0A0" stroke-opacity="0.22" stroke-width="1.24659"/>
<path d="M605.788 12L-67.9902 1239" stroke="#A0A0A0" stroke-opacity="0.23" stroke-width="1.24659"/>
<path d="M610.854 12L33.3301 1239" stroke="#A0A0A0" stroke-opacity="0.24" stroke-width="1.24659"/>
<path d="M615.92 12L134.65 1239" stroke="#A0A0A0" stroke-opacity="0.25" stroke-width="1.24659"/>
<path d="M620.986 12L235.97 1239" stroke="#A0A0A0" stroke-opacity="0.26" stroke-width="1.24659"/>
<path d="M626.052 12L337.29 1239" stroke="#A0A0A0" stroke-opacity="0.27" stroke-width="1.24659"/>
<path d="M631.118 12L438.61 1239" stroke="#A0A0A0" stroke-opacity="0.28" stroke-width="1.24659"/>
<path d="M636.184 12L539.93 1239" stroke="#A0A0A0" stroke-opacity="0.29" stroke-width="1.24659"/>
<path d="M641.25 12V1239" stroke="#A0A0A0" stroke-opacity="0.3" stroke-width="1.24659"/>
<path d="M646.316 12L742.57 1239" stroke="#A0A0A0" stroke-opacity="0.29" stroke-width="1.24659"/>
<path d="M651.382 12L843.89 1239" stroke="#A0A0A0" stroke-opacity="0.28" stroke-width="1.24659"/>
<path d="M656.448 12L945.21 1239" stroke="#A0A0A0" stroke-opacity="0.27" stroke-width="1.24659"/>
<path d="M661.514 12L1046.53 1239" stroke="#A0A0A0" stroke-opacity="0.26" stroke-width="1.24659"/>
<path d="M666.58 12L1147.85 1239" stroke="#A0A0A0" stroke-opacity="0.25" stroke-width="1.24659"/>
<path d="M671.646 12L1249.17 1239" stroke="#A0A0A0" stroke-opacity="0.24" stroke-width="1.24659"/>
<path d="M676.712 12L1350.49 1239" stroke="#A0A0A0" stroke-opacity="0.23" stroke-width="1.24659"/>
<path d="M681.778 12L1451.81 1239" stroke="#A0A0A0" stroke-opacity="0.22" stroke-width="1.24659"/>
<path d="M686.844 12L1553.13 1239" stroke="#A0A0A0" stroke-opacity="0.21" stroke-width="1.24659"/>
<path d="M691.91 12L1654.45 1239" stroke="#A0A0A0" stroke-opacity="0.2" stroke-width="1.24659"/>
<path d="M696.976 12L1755.77 1239" stroke="#A0A0A0" stroke-opacity="0.19" stroke-width="1.24659"/>
<path d="M702.042 12L1857.09 1239" stroke="#A0A0A0" stroke-opacity="0.18" stroke-width="1.24659"/>
<path d="M707.108 12L1958.41 1239" stroke="#A0A0A0" stroke-opacity="0.17" stroke-width="1.24659"/>
<path d="M712.174 12L2059.73 1239" stroke="#A0A0A0" stroke-opacity="0.16" stroke-width="1.24659"/>
</g>
<path d="M65.5547 68.6094C65.0182 68.6094 64.5391 68.5169 64.1172 68.332C63.6979 68.1471 63.3659 67.8906 63.1211 67.5625C62.8789 67.2318 62.7487 66.849 62.7305 66.4141H63.957C63.9727 66.651 64.0521 66.8568 64.1953 67.0312C64.3411 67.2031 64.5313 67.3359 64.7656 67.4297C65 67.5234 65.2604 67.5703 65.5469 67.5703C65.862 67.5703 66.1406 67.5156 66.3828 67.4062C66.6276 67.2969 66.819 67.1445 66.957 66.9492C67.0951 66.7513 67.1641 66.5234 67.1641 66.2656C67.1641 65.9974 67.0951 65.7617 66.957 65.5586C66.8216 65.3529 66.6224 65.1914 66.3594 65.0742C66.099 64.957 65.7839 64.8984 65.4141 64.8984H64.7383V63.9141H65.4141C65.7109 63.9141 65.9714 63.8607 66.1953 63.7539C66.4219 63.6471 66.599 63.4987 66.7266 63.3086C66.8542 63.1159 66.918 62.8906 66.918 62.6328C66.918 62.3854 66.862 62.1706 66.75 61.9883C66.6406 61.8034 66.4844 61.6589 66.2813 61.5547C66.0807 61.4505 65.8438 61.3984 65.5703 61.3984C65.3099 61.3984 65.0664 61.4466 64.8398 61.543C64.6159 61.6367 64.4336 61.7721 64.293 61.9492C64.1523 62.1237 64.0768 62.3333 64.0664 62.5781H62.8984C62.9115 62.1458 63.0391 61.7656 63.2813 61.4375C63.526 61.1094 63.849 60.8529 64.25 60.668C64.651 60.4831 65.0964 60.3906 65.5859 60.3906C66.099 60.3906 66.5417 60.4909 66.9141 60.6914C67.2891 60.8893 67.5781 61.1536 67.7813 61.4844C67.987 61.8151 68.0885 62.1771 68.0859 62.5703C68.0885 63.0182 67.9635 63.3984 67.7109 63.7109C67.4609 64.0234 67.1276 64.2331 66.7109 64.3398V64.4023C67.2422 64.4831 67.6536 64.694 67.9453 65.0352C68.2396 65.3763 68.3854 65.7995 68.3828 66.3047C68.3854 66.7448 68.263 67.1393 68.0156 67.4883C67.7708 67.8372 67.4362 68.112 67.0117 68.3125C66.5872 68.5104 66.1016 68.6094 65.5547 68.6094ZM72.5586 68.5H69.9688V60.5H72.6406C73.4245 60.5 74.0977 60.6602 74.6602 60.9805C75.2227 61.2982 75.6536 61.7552 75.9531 62.3516C76.2552 62.9453 76.4063 63.6576 76.4063 64.4883C76.4063 65.3216 76.2539 66.0378 75.9492 66.6367C75.6471 67.2357 75.2096 67.6966 74.6367 68.0195C74.0638 68.3398 73.3711 68.5 72.5586 68.5ZM71.1758 67.4453H72.4922C73.1016 67.4453 73.6081 67.3307 74.0117 67.1016C74.4154 66.8698 74.7174 66.5352 74.918 66.0977C75.1185 65.6576 75.2188 65.1211 75.2188 64.4883C75.2188 63.8607 75.1185 63.3281 74.918 62.8906C74.7201 62.4531 74.4245 62.1211 74.0312 61.8945C73.638 61.668 73.1497 61.5547 72.5664 61.5547H71.1758V67.4453ZM81.5176 60.5L83.7441 67.0156H83.834L86.0605 60.5H87.3652L84.4863 68.5H83.0918L80.2129 60.5H81.5176ZM88.4268 68.5V62.5H89.5947V68.5H88.4268ZM89.0166 61.5742C88.8135 61.5742 88.639 61.5065 88.4932 61.3711C88.3499 61.2331 88.2783 61.069 88.2783 60.8789C88.2783 60.6862 88.3499 60.5221 88.4932 60.3867C88.639 60.2487 88.8135 60.1797 89.0166 60.1797C89.2197 60.1797 89.3929 60.2487 89.5361 60.3867C89.682 60.5221 89.7549 60.6862 89.7549 60.8789C89.7549 61.069 89.682 61.2331 89.5361 61.3711C89.3929 61.5065 89.2197 61.5742 89.0166 61.5742ZM93.752 68.6211C93.1608 68.6211 92.6517 68.4948 92.2246 68.2422C91.8001 67.987 91.472 67.6289 91.2402 67.168C91.0111 66.7044 90.8965 66.1615 90.8965 65.5391C90.8965 64.9245 91.0111 64.3828 91.2402 63.9141C91.472 63.4453 91.7949 63.0794 92.209 62.8164C92.6257 62.5534 93.1126 62.4219 93.6699 62.4219C94.0085 62.4219 94.3366 62.4779 94.6543 62.5898C94.972 62.7018 95.2572 62.8776 95.5098 63.1172C95.7624 63.3568 95.9616 63.668 96.1074 64.0508C96.2533 64.431 96.3262 64.8932 96.3262 65.4375V65.8516H91.5566V64.9766H95.1816C95.1816 64.6693 95.1191 64.3971 94.9941 64.1602C94.8691 63.9206 94.6934 63.7318 94.4668 63.5937C94.2428 63.4557 93.9798 63.3867 93.6777 63.3867C93.3496 63.3867 93.0632 63.4674 92.8184 63.6289C92.5762 63.7878 92.3887 63.9961 92.2559 64.2539C92.1257 64.5091 92.0605 64.7865 92.0605 65.0859V65.7695C92.0605 66.1706 92.1309 66.5117 92.2715 66.793C92.4147 67.0742 92.6139 67.2891 92.8691 67.4375C93.1243 67.5833 93.4225 67.6562 93.7637 67.6562C93.985 67.6562 94.1868 67.625 94.3691 67.5625C94.5514 67.4974 94.709 67.401 94.8418 67.2734C94.9746 67.1458 95.0762 66.9883 95.1465 66.8008L96.252 67C96.1634 67.3255 96.0046 67.6107 95.7754 67.8555C95.5488 68.0977 95.2637 68.2865 94.9199 68.4219C94.5788 68.5547 94.1895 68.6211 93.752 68.6211ZM98.9121 68.5L97.1465 62.5H98.3535L99.5293 66.9062H99.5879L100.768 62.5H101.975L103.146 66.8867H103.205L104.373 62.5H105.58L103.818 68.5H102.627L101.408 64.168H101.318L100.1 68.5H98.9121ZM106.688 70.75V62.5H107.829V63.4727H107.927C107.994 63.3477 108.092 63.2031 108.22 63.0391C108.347 62.875 108.524 62.7318 108.751 62.6094C108.978 62.4844 109.277 62.4219 109.649 62.4219C110.134 62.4219 110.566 62.5443 110.946 62.7891C111.326 63.0339 111.625 63.3867 111.841 63.8477C112.06 64.3086 112.169 64.8633 112.169 65.5117C112.169 66.1602 112.061 66.7161 111.845 67.1797C111.629 67.6406 111.332 67.9961 110.954 68.2461C110.576 68.4935 110.146 68.6172 109.661 68.6172C109.297 68.6172 108.998 68.556 108.767 68.4336C108.537 68.3112 108.358 68.168 108.228 68.0039C108.097 67.8398 107.997 67.694 107.927 67.5664H107.856V70.75H106.688ZM107.833 65.5C107.833 65.9219 107.894 66.2917 108.017 66.6094C108.139 66.9271 108.316 67.1758 108.548 67.3555C108.78 67.5326 109.063 67.6211 109.399 67.6211C109.748 67.6211 110.04 67.5286 110.274 67.3437C110.509 67.1562 110.686 66.9023 110.806 66.582C110.928 66.2617 110.989 65.901 110.989 65.5C110.989 65.1042 110.929 64.7487 110.81 64.4336C110.692 64.1185 110.515 63.8698 110.278 63.6875C110.044 63.5052 109.751 63.4141 109.399 63.4141C109.061 63.4141 108.774 63.5013 108.54 63.6758C108.308 63.8503 108.132 64.0937 108.013 64.4062C107.893 64.7187 107.833 65.0833 107.833 65.5ZM116.005 68.6211C115.442 68.6211 114.951 68.4922 114.532 68.2344C114.113 67.9766 113.787 67.6159 113.556 67.1523C113.324 66.6888 113.208 66.1471 113.208 65.5273C113.208 64.9049 113.324 64.3607 113.556 63.8945C113.787 63.4284 114.113 63.0664 114.532 62.8086C114.951 62.5508 115.442 62.4219 116.005 62.4219C116.567 62.4219 117.058 62.5508 117.478 62.8086C117.897 63.0664 118.222 63.4284 118.454 63.8945C118.686 64.3607 118.802 64.9049 118.802 65.5273C118.802 66.1471 118.686 66.6888 118.454 67.1523C118.222 67.6159 117.897 67.9766 117.478 68.2344C117.058 68.4922 116.567 68.6211 116.005 68.6211ZM116.009 67.6406C116.373 67.6406 116.675 67.5443 116.915 67.3516C117.155 67.1589 117.332 66.9023 117.446 66.582C117.563 66.2617 117.622 65.9089 117.622 65.5234C117.622 65.1406 117.563 64.7891 117.446 64.4687C117.332 64.1458 117.155 63.8867 116.915 63.6914C116.675 63.4961 116.373 63.3984 116.009 63.3984C115.642 63.3984 115.337 63.4961 115.095 63.6914C114.855 63.8867 114.677 64.1458 114.56 64.4687C114.445 64.7891 114.388 65.1406 114.388 65.5234C114.388 65.9089 114.445 66.2617 114.56 66.582C114.677 66.9023 114.855 67.1589 115.095 67.3516C115.337 67.5443 115.642 67.6406 116.009 67.6406ZM120.105 68.5V62.5H121.234V63.4531H121.297C121.406 63.1302 121.599 62.8763 121.875 62.6914C122.154 62.5039 122.469 62.4102 122.82 62.4102C122.893 62.4102 122.979 62.4128 123.078 62.418C123.18 62.4232 123.259 62.4297 123.316 62.4375V63.5547C123.27 63.5417 123.186 63.5273 123.066 63.5117C122.947 63.4935 122.827 63.4844 122.707 63.4844C122.431 63.4844 122.185 63.543 121.969 63.6602C121.755 63.7747 121.586 63.9349 121.461 64.1406C121.336 64.3437 121.273 64.5755 121.273 64.8359V68.5H120.105ZM127.482 62.5V63.4375H124.205V62.5H127.482ZM125.084 61.0625H126.252V66.7383C126.252 66.9648 126.286 67.1354 126.354 67.25C126.421 67.362 126.508 67.4388 126.615 67.4805C126.725 67.5195 126.843 67.5391 126.971 67.5391C127.064 67.5391 127.146 67.5326 127.217 67.5195C127.287 67.5065 127.342 67.4961 127.381 67.4883L127.592 68.4531C127.524 68.4792 127.428 68.5052 127.303 68.5313C127.178 68.5599 127.021 68.5755 126.834 68.5781C126.527 68.5833 126.24 68.5286 125.975 68.4141C125.709 68.2995 125.494 68.1224 125.33 67.8828C125.166 67.6432 125.084 67.3424 125.084 66.9805V61.0625Z" fill="white" fill-opacity="0.6"/>
<path d="M1236.5 60C1236.5 57.7909 1238.29 56 1240.5 56H1258.5C1260.71 56 1262.5 57.7909 1262.5 60V78C1262.5 80.2091 1260.71 82 1258.5 82H1240.5C1238.29 82 1236.5 80.2091 1236.5 78V60Z" fill="#1A1A1A" fill-opacity="0.8"/>
<path d="M1251.25 63.75H1254.75V67.25" stroke="white" stroke-opacity="0.8" stroke-width="1.16667" stroke-linecap="round" stroke-linejoin="round"/>
<path d="M1247.75 74.25H1244.25V70.75" stroke="white" stroke-opacity="0.8" stroke-width="1.16667" stroke-linecap="round" stroke-linejoin="round"/>
<path d="M1254.75 63.75L1250.67 67.8333" stroke="white" stroke-opacity="0.8" stroke-width="1.16667" stroke-linecap="round" stroke-linejoin="round"/>
<path d="M1244.25 74.25L1248.33 70.1667" stroke="white" stroke-opacity="0.8" stroke-width="1.16667" stroke-linecap="round" stroke-linejoin="round"/>
<path d="M1172.5 1205C1172.5 1202.79 1174.29 1201 1176.5 1201H1194.5C1196.71 1201 1198.5 1202.79 1198.5 1205V1223C1198.5 1225.21 1196.71 1227 1194.5 1227H1176.5C1174.29 1227 1172.5 1225.21 1172.5 1223V1205Z" fill="#1A1A1A" fill-opacity="0.8"/>
<path d="M1184.92 1218.08C1187.49 1218.08 1189.58 1215.99 1189.58 1213.42C1189.58 1210.84 1187.49 1208.75 1184.92 1208.75C1182.34 1208.75 1180.25 1210.84 1180.25 1213.42C1180.25 1215.99 1182.34 1218.08 1184.92 1218.08Z" stroke="white" stroke-opacity="0.8" stroke-width="1.16667" stroke-linecap="round" stroke-linejoin="round"/>
<path d="M1190.75 1219.25L1188.21 1216.71" stroke="white" stroke-opacity="0.8" stroke-width="1.16667" stroke-linecap="round" stroke-linejoin="round"/>
<path d="M1184.92 1211.67V1215.17" stroke="white" stroke-opacity="0.8" stroke-width="1.16667" stroke-linecap="round" stroke-linejoin="round"/>
<path d="M1183.17 1213.42H1186.67" stroke="white" stroke-opacity="0.8" stroke-width="1.16667" stroke-linecap="round" stroke-linejoin="round"/>
<path d="M1204.5 1205C1204.5 1202.79 1206.29 1201 1208.5 1201H1226.5C1228.71 1201 1230.5 1202.79 1230.5 1205V1223C1230.5 1225.21 1228.71 1227 1226.5 1227H1208.5C1206.29 1227 1204.5 1225.21 1204.5 1223V1205Z" fill="#1A1A1A" fill-opacity="0.8"/>
<path d="M1216.92 1218.08C1219.49 1218.08 1221.58 1215.99 1221.58 1213.42C1221.58 1210.84 1219.49 1208.75 1216.92 1208.75C1214.34 1208.75 1212.25 1210.84 1212.25 1213.42C1212.25 1215.99 1214.34 1218.08 1216.92 1218.08Z" stroke="white" stroke-opacity="0.8" stroke-width="1.16667" stroke-linecap="round" stroke-linejoin="round"/>
<path d="M1222.75 1219.25L1220.21 1216.71" stroke="white" stroke-opacity="0.8" stroke-width="1.16667" stroke-linecap="round" stroke-linejoin="round"/>
<path d="M1215.17 1213.42H1218.67" stroke="white" stroke-opacity="0.8" stroke-width="1.16667" stroke-linecap="round" stroke-linejoin="round"/>
<path d="M1236.5 1205C1236.5 1202.79 1238.29 1201 1240.5 1201H1258.5C1260.71 1201 1262.5 1202.79 1262.5 1205V1223C1262.5 1225.21 1260.71 1227 1258.5 1227H1240.5C1238.29 1227 1236.5 1225.21 1236.5 1223V1205Z" fill="#1A1A1A" fill-opacity="0.8"/>
<path d="M1245.42 1208.75V1218.08H1254.75" stroke="white" stroke-opacity="0.8" stroke-width="1.16667" stroke-linecap="round" stroke-linejoin="round"/>
<path d="M1245.42 1218.08L1248.92 1214.58" stroke="white" stroke-opacity="0.8" stroke-width="1.16667" stroke-linecap="round" stroke-linejoin="round"/>
<path d="M1243.67 1210.5L1245.42 1208.75L1247.17 1210.5" stroke="white" stroke-opacity="0.8" stroke-width="1.16667" stroke-linecap="round" stroke-linejoin="round"/>
<path d="M1253 1216.33L1254.75 1218.08L1253 1219.83" stroke="white" stroke-opacity="0.8" stroke-width="1.16667" stroke-linecap="round" stroke-linejoin="round"/>
<path d="M20 1204C20 1201.79 21.7909 1200 24 1200H121.664C123.873 1200 125.664 1201.79 125.664 1204V1223C125.664 1225.21 123.873 1227 121.664 1227H24C21.7909 1227 20 1225.21 20 1223V1204Z" fill="#1A1A1A" fill-opacity="0.8"/>
<path d="M32.8807 1217.5V1210.23H35.3381C35.9086 1210.23 36.375 1210.33 36.7372 1210.54C37.1018 1210.74 37.3717 1211.02 37.5469 1211.36C37.7221 1211.71 37.8097 1212.1 37.8097 1212.53C37.8097 1212.96 37.7221 1213.35 37.5469 1213.7C37.3741 1214.05 37.1065 1214.33 36.7443 1214.53C36.3821 1214.74 35.9181 1214.84 35.3523 1214.84H33.5909V1214.06H35.3239C35.7145 1214.06 36.0282 1214 36.2649 1213.86C36.5017 1213.73 36.6733 1213.54 36.7798 1213.31C36.8887 1213.08 36.9432 1212.82 36.9432 1212.53C36.9432 1212.24 36.8887 1211.98 36.7798 1211.75C36.6733 1211.52 36.5005 1211.34 36.2614 1211.21C36.0223 1211.07 35.705 1211.01 35.3097 1211.01H33.7614V1217.5H32.8807ZM41.343 1217.61C40.8175 1217.61 40.3641 1217.5 39.983 1217.27C39.6042 1217.03 39.3118 1216.7 39.1058 1216.29C38.9022 1215.86 38.8004 1215.37 38.8004 1214.82C38.8004 1214.26 38.9022 1213.76 39.1058 1213.34C39.3118 1212.91 39.5982 1212.58 39.9652 1212.34C40.3345 1212.1 40.7654 1211.97 41.2578 1211.97C41.5419 1211.97 41.8224 1212.02 42.0994 1212.12C42.3764 1212.21 42.6286 1212.37 42.8558 1212.58C43.0831 1212.79 43.2642 1213.07 43.3991 1213.42C43.5341 1213.76 43.6016 1214.19 43.6016 1214.7V1215.06H39.397V1214.33H42.7493C42.7493 1214.02 42.6877 1213.75 42.5646 1213.51C42.4439 1213.27 42.2711 1213.08 42.0462 1212.94C41.8236 1212.8 41.5608 1212.73 41.2578 1212.73C40.924 1212.73 40.6352 1212.81 40.3913 1212.98C40.1499 1213.14 39.964 1213.35 39.8338 1213.62C39.7036 1213.88 39.6385 1214.16 39.6385 1214.46V1214.94C39.6385 1215.36 39.7095 1215.7 39.8516 1215.99C39.996 1216.27 40.196 1216.49 40.4517 1216.64C40.7074 1216.79 41.0045 1216.86 41.343 1216.86C41.5632 1216.86 41.7621 1216.83 41.9396 1216.77C42.1196 1216.7 42.2746 1216.61 42.4048 1216.48C42.535 1216.36 42.6357 1216.2 42.7067 1216.01L43.5163 1216.24C43.4311 1216.51 43.2879 1216.75 43.0866 1216.96C42.8854 1217.17 42.6368 1217.33 42.3409 1217.44C42.045 1217.56 41.7124 1217.61 41.343 1217.61ZM44.8764 1217.5V1212.05H45.6861V1212.87H45.7429C45.8423 1212.6 46.0223 1212.38 46.2827 1212.21C46.5431 1212.04 46.8366 1211.96 47.1634 1211.96C47.2249 1211.96 47.3018 1211.96 47.3942 1211.96C47.4865 1211.97 47.5563 1211.97 47.6037 1211.97V1212.83C47.5753 1212.82 47.5102 1212.81 47.4084 1212.79C47.3089 1212.78 47.2036 1212.77 47.0923 1212.77C46.8272 1212.77 46.5904 1212.83 46.3821 1212.94C46.1761 1213.05 46.0128 1213.2 45.892 1213.39C45.7737 1213.58 45.7145 1213.8 45.7145 1214.05V1217.5H44.8764ZM52.4608 1213.27L51.7079 1213.48C51.6606 1213.35 51.5907 1213.23 51.4984 1213.11C51.4084 1212.99 51.2853 1212.89 51.1291 1212.82C50.9728 1212.74 50.7728 1212.7 50.5289 1212.7C50.1951 1212.7 49.917 1212.78 49.6944 1212.93C49.4743 1213.08 49.3642 1213.27 49.3642 1213.51C49.3642 1213.72 49.4399 1213.88 49.5914 1214C49.743 1214.12 49.9797 1214.22 50.3017 1214.3L51.1113 1214.5C51.599 1214.62 51.9624 1214.8 52.2015 1215.05C52.4406 1215.29 52.5602 1215.6 52.5602 1215.98C52.5602 1216.29 52.4702 1216.57 52.2903 1216.82C52.1127 1217.06 51.8642 1217.26 51.5446 1217.4C51.225 1217.54 50.8533 1217.61 50.4295 1217.61C49.8732 1217.61 49.4127 1217.49 49.0481 1217.25C48.6835 1217.01 48.4527 1216.66 48.3556 1216.19L49.1511 1215.99C49.2269 1216.29 49.3701 1216.51 49.5808 1216.65C49.7939 1216.8 50.072 1216.88 50.4153 1216.88C50.8059 1216.88 51.1161 1216.79 51.3457 1216.63C51.5777 1216.46 51.6937 1216.26 51.6937 1216.02C51.6937 1215.83 51.6274 1215.67 51.4949 1215.55C51.3623 1215.42 51.1587 1215.32 50.8841 1215.26L49.975 1215.04C49.4754 1214.92 49.1085 1214.74 48.8741 1214.49C48.6421 1214.24 48.5261 1213.93 48.5261 1213.55C48.5261 1213.24 48.6125 1212.97 48.7853 1212.73C48.9605 1212.5 49.1984 1212.31 49.4991 1212.18C49.8021 1212.04 50.1454 1211.97 50.5289 1211.97C51.0687 1211.97 51.4925 1212.09 51.8002 1212.33C52.1104 1212.57 52.3306 1212.88 52.4608 1213.27ZM53.8217 1219.55V1212.05H54.6314V1212.91H54.7308C54.7924 1212.82 54.8776 1212.7 54.9865 1212.55C55.0978 1212.4 55.2564 1212.27 55.4624 1212.15C55.6707 1212.03 55.9524 1211.97 56.3075 1211.97C56.7668 1211.97 57.1716 1212.09 57.522 1212.32C57.8724 1212.55 58.1458 1212.87 58.3423 1213.3C58.5388 1213.72 58.6371 1214.21 58.6371 1214.79C58.6371 1215.36 58.5388 1215.87 58.3423 1216.29C58.1458 1216.71 57.8736 1217.04 57.5256 1217.27C57.1776 1217.5 56.7763 1217.61 56.3217 1217.61C55.9714 1217.61 55.6908 1217.56 55.4801 1217.44C55.2694 1217.32 55.1072 1217.19 54.9936 1217.04C54.88 1216.89 54.7924 1216.76 54.7308 1216.66H54.6598V1219.55H53.8217ZM54.6456 1214.77C54.6456 1215.18 54.706 1215.55 54.8267 1215.86C54.9474 1216.18 55.1238 1216.42 55.3558 1216.6C55.5878 1216.77 55.8719 1216.86 56.2081 1216.86C56.5585 1216.86 56.8509 1216.77 57.0852 1216.58C57.322 1216.4 57.4995 1216.15 57.6179 1215.83C57.7386 1215.51 57.799 1215.16 57.799 1214.77C57.799 1214.39 57.7398 1214.04 57.6214 1213.74C57.5054 1213.43 57.3291 1213.18 57.0923 1213C56.858 1212.82 56.5632 1212.73 56.2081 1212.73C55.8672 1212.73 55.5807 1212.81 55.3487 1212.99C55.1167 1213.16 54.9415 1213.4 54.8232 1213.7C54.7048 1214.01 54.6456 1214.37 54.6456 1214.77ZM62.2024 1217.61C61.6768 1217.61 61.2235 1217.5 60.8423 1217.27C60.4635 1217.03 60.1712 1216.7 59.9652 1216.29C59.7616 1215.86 59.6598 1215.37 59.6598 1214.82C59.6598 1214.26 59.7616 1213.76 59.9652 1213.34C60.1712 1212.91 60.4576 1212.58 60.8246 1212.34C61.1939 1212.1 61.6248 1211.97 62.1172 1211.97C62.4013 1211.97 62.6818 1212.02 62.9588 1212.12C63.2358 1212.21 63.4879 1212.37 63.7152 1212.58C63.9425 1212.79 64.1236 1213.07 64.2585 1213.42C64.3935 1213.76 64.4609 1214.19 64.4609 1214.7V1215.06H60.2564V1214.33H63.6087C63.6087 1214.02 63.5471 1213.75 63.424 1213.51C63.3033 1213.27 63.1304 1213.08 62.9055 1212.94C62.683 1212.8 62.4202 1212.73 62.1172 1212.73C61.7834 1212.73 61.4946 1212.81 61.2507 1212.98C61.0092 1213.14 60.8234 1213.35 60.6932 1213.62C60.563 1213.88 60.4979 1214.16 60.4979 1214.46V1214.94C60.4979 1215.36 60.5689 1215.7 60.7109 1215.99C60.8554 1216.27 61.0554 1216.49 61.3111 1216.64C61.5668 1216.79 61.8639 1216.86 62.2024 1216.86C62.4226 1216.86 62.6214 1216.83 62.799 1216.77C62.9789 1216.7 63.134 1216.61 63.2642 1216.48C63.3944 1216.36 63.495 1216.2 63.5661 1216.01L64.3757 1216.24C64.2905 1216.51 64.1473 1216.75 63.946 1216.96C63.7448 1217.17 63.4962 1217.33 63.2003 1217.44C62.9044 1217.56 62.5717 1217.61 62.2024 1217.61ZM67.9517 1217.61C67.4403 1217.61 67 1217.49 66.6307 1217.25C66.2614 1217.01 65.9773 1216.68 65.7784 1216.25C65.5795 1215.83 65.4801 1215.35 65.4801 1214.8C65.4801 1214.25 65.5819 1213.76 65.7855 1213.33C65.9915 1212.91 66.2779 1212.58 66.6449 1212.34C67.0142 1212.1 67.4451 1211.97 67.9375 1211.97C68.321 1211.97 68.6667 1212.05 68.9744 1212.19C69.2822 1212.33 69.5343 1212.53 69.7308 1212.78C69.9273 1213.04 70.0492 1213.34 70.0966 1213.68H69.2585C69.1946 1213.43 69.0526 1213.21 68.8324 1213.02C68.6146 1212.82 68.321 1212.73 67.9517 1212.73C67.625 1212.73 67.3385 1212.81 67.0923 1212.98C66.8485 1213.15 66.6579 1213.39 66.5206 1213.7C66.3857 1214 66.3182 1214.36 66.3182 1214.77C66.3182 1215.19 66.3845 1215.56 66.517 1215.87C66.652 1216.19 66.8414 1216.43 67.0852 1216.6C67.3314 1216.77 67.6203 1216.86 67.9517 1216.86C68.1695 1216.86 68.3672 1216.82 68.5447 1216.75C68.7223 1216.67 68.8726 1216.56 68.9957 1216.42C69.1188 1216.28 69.2064 1216.11 69.2585 1215.91H70.0966C70.0492 1216.23 69.9321 1216.52 69.745 1216.78C69.5604 1217.03 69.3153 1217.24 69.0099 1217.39C68.7069 1217.54 68.3542 1217.61 67.9517 1217.61ZM73.6939 1212.05V1212.76H70.8672V1212.05H73.6939ZM71.6911 1210.74H72.5291V1215.94C72.5291 1216.17 72.5634 1216.35 72.6321 1216.47C72.7031 1216.59 72.7931 1216.66 72.902 1216.7C73.0133 1216.74 73.1304 1216.76 73.2536 1216.76C73.3459 1216.76 73.4216 1216.76 73.4808 1216.75C73.54 1216.74 73.5874 1216.73 73.6229 1216.72L73.7933 1217.47C73.7365 1217.49 73.6572 1217.51 73.5554 1217.54C73.4536 1217.56 73.3246 1217.57 73.1683 1217.57C72.9316 1217.57 72.6996 1217.52 72.4723 1217.42C72.2474 1217.32 72.0604 1217.16 71.9112 1216.95C71.7644 1216.74 71.6911 1216.48 71.6911 1216.16V1210.74ZM74.9545 1217.5V1212.05H75.7926V1217.5H74.9545ZM75.3807 1211.14C75.2173 1211.14 75.0765 1211.08 74.9581 1210.97C74.8421 1210.86 74.7841 1210.72 74.7841 1210.57C74.7841 1210.41 74.8421 1210.28 74.9581 1210.17C75.0765 1210.06 75.2173 1210 75.3807 1210C75.544 1210 75.6837 1210.06 75.7997 1210.17C75.9181 1210.28 75.9773 1210.41 75.9773 1210.57C75.9773 1210.72 75.9181 1210.86 75.7997 1210.97C75.6837 1211.08 75.544 1211.14 75.3807 1211.14ZM81.7878 1212.05L79.7708 1217.5H78.9185L76.9015 1212.05H77.8105L79.3162 1216.39H79.373L80.8787 1212.05H81.7878ZM84.9856 1217.61C84.46 1217.61 84.0067 1217.5 83.6255 1217.27C83.2467 1217.03 82.9544 1216.7 82.7484 1216.29C82.5448 1215.86 82.443 1215.37 82.443 1214.82C82.443 1214.26 82.5448 1213.76 82.7484 1213.34C82.9544 1212.91 83.2408 1212.58 83.6078 1212.34C83.9771 1212.1 84.408 1211.97 84.9004 1211.97C85.1845 1211.97 85.465 1212.02 85.742 1212.12C86.019 1212.21 86.2711 1212.37 86.4984 1212.58C86.7257 1212.79 86.9068 1213.07 87.0417 1213.42C87.1767 1213.76 87.2441 1214.19 87.2441 1214.7V1215.06H83.0396V1214.33H86.3919C86.3919 1214.02 86.3303 1213.75 86.2072 1213.51C86.0865 1213.27 85.9136 1213.08 85.6887 1212.94C85.4662 1212.8 85.2034 1212.73 84.9004 1212.73C84.5666 1212.73 84.2778 1212.81 84.0339 1212.98C83.7924 1213.14 83.6066 1213.35 83.4764 1213.62C83.3462 1213.88 83.2811 1214.16 83.2811 1214.46V1214.94C83.2811 1215.36 83.3521 1215.7 83.4941 1215.99C83.6386 1216.27 83.8386 1216.49 84.0943 1216.64C84.35 1216.79 84.6471 1216.86 84.9856 1216.86C85.2058 1216.86 85.4047 1216.83 85.5822 1216.77C85.7621 1216.7 85.9172 1216.61 86.0474 1216.48C86.1776 1216.36 86.2782 1216.2 86.3493 1216.01L87.1589 1216.24C87.0737 1216.51 86.9305 1216.75 86.7292 1216.96C86.528 1217.17 86.2794 1217.33 85.9835 1217.44C85.6876 1217.56 85.3549 1217.61 84.9856 1217.61ZM91.7434 1210.23L93.9025 1216.35H93.9877L96.1468 1210.23H97.0701L94.3997 1217.5H93.4906L90.8201 1210.23H91.7434ZM98.0893 1217.5V1212.05H98.9274V1217.5H98.0893ZM98.5154 1211.14C98.3521 1211.14 98.2112 1211.08 98.0929 1210.97C97.9769 1210.86 97.9189 1210.72 97.9189 1210.57C97.9189 1210.41 97.9769 1210.28 98.0929 1210.17C98.2112 1210.06 98.3521 1210 98.5154 1210C98.6788 1210 98.8185 1210.06 98.9345 1210.17C99.0529 1210.28 99.112 1210.41 99.112 1210.57C99.112 1210.72 99.0529 1210.86 98.9345 1210.97C98.8185 1211.08 98.6788 1211.14 98.5154 1211.14ZM102.749 1217.61C102.224 1217.61 101.77 1217.5 101.389 1217.27C101.01 1217.03 100.718 1216.7 100.512 1216.29C100.308 1215.86 100.207 1215.37 100.207 1214.82C100.207 1214.26 100.308 1213.76 100.512 1213.34C100.718 1212.91 101.004 1212.58 101.371 1212.34C101.741 1212.1 102.172 1211.97 102.664 1211.97C102.948 1211.97 103.229 1212.02 103.506 1212.12C103.783 1212.21 104.035 1212.37 104.262 1212.58C104.489 1212.79 104.67 1213.07 104.805 1213.42C104.94 1213.76 105.008 1214.19 105.008 1214.7V1215.06H100.803V1214.33H104.156C104.156 1214.02 104.094 1213.75 103.971 1213.51C103.85 1213.27 103.677 1213.08 103.452 1212.94C103.23 1212.8 102.967 1212.73 102.664 1212.73C102.33 1212.73 102.041 1212.81 101.798 1212.98C101.556 1213.14 101.37 1213.35 101.24 1213.62C101.11 1213.88 101.045 1214.16 101.045 1214.46V1214.94C101.045 1215.36 101.116 1215.7 101.258 1215.99C101.402 1216.27 101.602 1216.49 101.858 1216.64C102.114 1216.79 102.411 1216.86 102.749 1216.86C102.969 1216.86 103.168 1216.83 103.346 1216.77C103.526 1216.7 103.681 1216.61 103.811 1216.48C103.941 1216.36 104.042 1216.2 104.113 1216.01L104.923 1216.24C104.837 1216.51 104.694 1216.75 104.493 1216.96C104.292 1217.17 104.043 1217.33 103.747 1217.44C103.451 1217.56 103.119 1217.61 102.749 1217.61ZM107.518 1217.5L105.857 1212.05H106.737L107.916 1216.22H107.973L109.138 1212.05H110.033L111.183 1216.21H111.24L112.419 1212.05H113.3L111.638 1217.5H110.814L109.621 1213.31H109.536L108.342 1217.5H107.518Z" fill="white" fill-opacity="0.8"/>
</g>
<defs>
<clipPath id="clip0_4_4811">
<rect width="2560" height="1275" fill="white"/>
</clipPath>
<clipPath id="clip1_4_4811">
<rect width="1266.5" height="1227" fill="white" transform="translate(8 12)"/>
</clipPath>
</defs>
</svg>
